<svg width="1512" height="868" viewBox="0 0 1512 868" fill="none" xmlns="http://www.w3.org/2000/svg">
<g clip-path="url(#clip0_3372_125)">
<mask id="mask0_3372_125" style="mask-type:luminance" maskUnits="userSpaceOnUse" x="0" y="0" width="1512" height="868">
<path d="M1512 0H0V868H1512V0Z" fill="white"/>
</mask>
<g mask="url(#mask0_3372_125)">
<path d="M1512 0H0V992H1512V0Z" fill="#13176F"/>
<path d="M-76 8.5L1752 -256.5" stroke="#F34620" stroke-width="2"/>
<path d="M-123 196.5L2305 -155.5" stroke="url(#paint0_linear_3372_125)" stroke-width="2"/>
<path d="M-260 434L2500 34" stroke="url(#paint1_linear_3372_125)" stroke-width="2"/>
<path d="M369 786L2797 434" stroke="url(#paint2_linear_3372_125)" stroke-width="2"/>
<path d="M125 742L2553 390" stroke="url(#paint3_linear_3372_125)" stroke-width="2"/>
<path d="M30 632L2458 280" stroke="url(#paint4_linear_3372_125)" stroke-width="2"/>
<path fill-rule="evenodd" clip-rule="evenodd" d="M502.128 194.673L495.842 198.526L465.574 192.84L461.933 169.358L491.767 174.905L492.3 175.028L492.771 174.75L519.984 158.095L523.611 181.477L505.777 192.361C505.46 192.307 505.043 192.269 504.642 192.331C503.453 192.618 502.459 193.492 502.128 194.673ZM502.726 197.869L496.995 201.327L496.525 201.606L495.992 201.483L466.072 196.052L466.664 199.865C468.842 213.914 489.711 222.599 499.981 225.219C508.882 219.009 527.321 204.742 524.754 188.185L524.24 184.873L508.288 194.643C508.42 194.828 508.466 195.129 508.513 195.43C508.809 197.337 507.638 199.06 505.832 199.34C504.596 199.326 503.384 198.795 502.726 197.869ZM491.702 171.832L519.486 154.884L517.199 140.132C516.747 137.222 515.826 134.59 514.618 132.105L488.631 148.056L488.161 148.335L487.628 148.212L457.893 142.649C457.971 143.151 457.949 143.668 458.026 144.17L461.435 166.147L491.702 171.832ZM513.094 129.567L487.562 145.139L457.928 139.561C458.669 133.075 463.387 127.719 469.111 124.878L454.074 118.681L449.483 89.0778L480.684 100.784L507.977 80.0063L512.568 109.61L500.014 120.086C505.01 121.161 509.761 124.638 513.094 129.567Z" fill="#F34620"/>
<path fill-rule="evenodd" clip-rule="evenodd" d="M1032.32 264.339L1022.65 270.256L973.664 261.103L967.486 221.264L1015.94 230.294L1016.47 230.417L1016.94 230.138L1061.25 203.125L1067.41 242.864L1039.63 259.813C1038.73 259.336 1037.68 259.19 1036.68 259.346C1034.17 259.735 1032.44 261.852 1032.32 264.339ZM1032.92 267.534L1023.62 273.189L1023.15 273.468L1022.62 273.345L974.162 264.315L975.252 271.339C978.769 294.018 1012.48 308.007 1028.96 312.234C1043.32 302.196 1073.05 279.191 1068.89 252.398L1067.91 246.076L1041.92 262.026C1042.33 262.682 1042.54 263.369 1042.65 264.072C1043.12 267.082 1041.2 269.949 1038.29 270.4C1036.08 270.742 1033.94 269.533 1032.92 267.534ZM1015.87 227.221L1060.74 199.814L1056.91 175.127C1056.13 170.11 1054.5 165.533 1052.31 161.351L1010.36 186.972L1009.89 187.25L1009.35 187.128L961.095 178.066C961.166 179.186 961.237 180.305 961.408 181.409L967.057 217.836L1015.87 227.221ZM1050.68 158.829L1009.2 184.171L961.061 175.194C961.935 164.268 969.597 155.373 979.233 150.59L954.974 140.582L947.55 92.7146L997.866 111.733L1041.86 78.0884L1049.28 125.956L1028.98 142.772C1037.37 144.553 1045.38 150.504 1050.68 158.829Z" fill="#F34620"/>
<path fill-rule="evenodd" clip-rule="evenodd" d="M824.876 565.136L800.856 579.857L677.371 556.771L661.03 451.402L783.998 474.466L784.531 474.588L785.002 474.31L897.536 405.578L913.876 510.947L845.549 552.681C842.868 550.631 839.424 549.623 835.912 550.168C828.974 551.141 824.157 557.848 824.876 565.136ZM825.575 568.316L801.925 582.774L801.454 583.052L800.922 582.93L677.953 559.866L681.097 580.137C689.952 637.237 775.087 672.744 816.6 683.365C852.758 658.13 927.897 600.028 917.423 532.491L914.56 514.027L848.014 554.662C849.645 556.567 850.852 559.052 851.273 561.762C852.455 569.388 847.601 576.513 840.377 577.633C833.755 578.66 827.69 574.668 825.575 568.316ZM784.017 471.277L897.123 402.251L887.085 337.525C885.015 324.178 880.53 311.823 874.31 300.867L768.348 365.599L767.877 365.877L767.345 365.754L645.226 342.867C645.253 346.357 645.512 350.016 646.073 353.629L660.717 448.059L784.017 471.277ZM872.67 298.243L767.179 362.697L645.16 339.795C646.553 311.01 666.263 287.709 691.073 275.435L629.827 250.198L611.105 129.476L738.118 177.295L849.096 92.5684L867.818 213.29L816.575 255.869C838.357 260.506 859.165 276.085 872.67 298.243Z" fill="#F34620"/>
</g>
</g>
<defs>
<linearGradient id="paint0_linear_3372_125" x1="1157" y1="-10.4998" x2="214.5" y2="124" gradientUnits="userSpaceOnUse">
<stop offset="0.371077" stop-color="#F34620" stop-opacity="0"/>
<stop offset="0.54" stop-color="#F34620"/>
<stop offset="0.755" stop-color="#F34620"/>
<stop offset="1" stop-color="#F34620" stop-opacity="0"/>
</linearGradient>
<linearGradient id="paint1_linear_3372_125" x1="1195.02" y1="198.773" x2="-61.6261" y2="357.967" gradientUnits="userSpaceOnUse">
<stop offset="0.2" stop-color="#F34620" stop-opacity="0"/>
<stop offset="0.54" stop-color="#F34620"/>
<stop offset="0.755" stop-color="#F34620"/>
<stop offset="1" stop-color="#F34620" stop-opacity="0"/>
</linearGradient>
<linearGradient id="paint2_linear_3372_125" x1="1583" y1="434" x2="1583" y2="786" gradientUnits="userSpaceOnUse">
<stop offset="0.55" stop-color="#F34620" stop-opacity="0"/>
<stop offset="0.775" stop-color="#F34620"/>
<stop offset="1" stop-color="#F34620" stop-opacity="0"/>
</linearGradient>
<linearGradient id="paint3_linear_3372_125" x1="1339" y1="390" x2="1339" y2="742" gradientUnits="userSpaceOnUse">
<stop offset="0.55" stop-color="#F34620" stop-opacity="0"/>
<stop offset="0.775" stop-color="#F34620"/>
<stop offset="1" stop-color="#F34620" stop-opacity="0"/>
</linearGradient>
<linearGradient id="paint4_linear_3372_125" x1="2384.35" y1="280" x2="103.655" y2="632" gradientUnits="userSpaceOnUse">
<stop offset="0.441336" stop-color="#F34620" stop-opacity="0"/>
<stop offset="0.571869" stop-color="#F34620"/>
<stop offset="0.8425" stop-color="#F34620"/>
<stop offset="1" stop-color="#F34620" stop-opacity="0"/>
</linearGradient>
<clipPath id="clip0_3372_125">
<rect width="1512" height="868" fill="white"/>
</clipPath>
</defs>
</svg>
