<svg width="860" height="757" viewBox="0 0 860 757" fill="none" xmlns="http://www.w3.org/2000/svg">
<g clip-path="url(#clip0_3394_45)">
<path d="M428.4 427C427.6 360.9 395.7 74.0002 249.9 62.5002C104.1 51.0002 0.899994 172.5 0.899994 172.5" stroke="#F34620" stroke-width="2" stroke-dasharray="20 20"/>
<path d="M401 484C401 484 382.5 272.5 299 255.5C165.107 228.241 101.9 484 101.9 484" stroke="#F34620" stroke-width="2" stroke-dasharray="20 20"/>
<path d="M460.4 372C465.2 245.6 535 25.4 668.4 3.8C821 -21 859.4 127.1 859.4 127.1" stroke="#F34620" stroke-width="2" stroke-dasharray="20 20"/>
<path d="M468.5 427C473.046 300.703 583.096 76.331 704.513 119.196C807.367 146.674 839 316.036 839 316.036" stroke="#F34620" stroke-width="2" stroke-dasharray="20 20"/>
<path d="M486.5 488C486.5 488 511 226.517 595.4 240.5C717 260.646 733.9 756 733.9 756" stroke="#F34620" stroke-width="2" stroke-dasharray="20 20"/>
<path d="M289 618L362.4 593.1L268.4 516.3L377.9 545.5L329.2 414.3L426.4 508.3L457.9 358L490.3 505L585.3 419.1L541.1 540.4L638.3 521.7L560.7 593.2L625.2 618.1" stroke="#F34620" stroke-width="11" stroke-miterlimit="16"/>
<path d="M516.3 603.2L563.7 617.9H357.8L403.8 603.2L357.8 565.2L416.2 577.8L394.5 516.2L443 561.4L460.4 496.1L475.4 561.4L523.9 516.2L503.6 577.8L560.9 565.2L516.3 603.2Z" fill="#EBF97B"/>
<path d="M479.3 611L495.4 618H425.4L441.1 611L425.4 592.9L445.2 598.9L437.8 569.6L454.3 591.1L460.2 560L465.3 591.1L481.8 569.6L474.9 598.9L494.4 592.9L479.3 611Z" fill="#F34620"/>
</g>
<defs>
<clipPath id="clip0_3394_45">
<rect width="859.4" height="756.1" fill="white"/>
</clipPath>
</defs>
</svg>
