<svg width="639" height="266" viewBox="0 0 639 266" fill="none" xmlns="http://www.w3.org/2000/svg">
<path fill-rule="evenodd" clip-rule="evenodd" d="M511.532 106.319L523.474 135.027L477.362 265.826H359.254L405.206 135.481L405.397 134.938L405.176 134.407L349.263 0H467.303L501.202 81.4873C498.434 84.1219 496.725 87.7491 496.725 91.7533C496.725 99.6055 503.299 106.008 511.532 106.319ZM514.704 106.134L526.465 134.407L526.687 134.938L526.495 135.481L480.543 265.826H503.396C567.194 265.826 620.302 178.932 638.881 135.485C617.444 91.7527 566.851 0 491.391 0H470.552L503.659 79.584C506.097 78.0619 509.019 77.1758 512.16 77.1758C520.685 77.1758 527.595 83.7024 527.595 91.7533C527.595 98.9859 522.018 104.988 514.704 106.134ZM402.185 135.027L346.014 0H273.586C258.586 0 244.248 2.84713 231.244 7.86075L283.887 134.407L284.109 134.938L283.917 135.481L238.301 264.873C242.212 265.499 246.258 265.826 250.433 265.826H356.073L402.185 135.027ZM228.459 8.97608L280.896 135.027L235.311 264.333C204.067 258.016 181.927 232.463 172.782 203.24L134.786 265.826H0L73.672 135.405L0 0H134.786L172.667 63.1475C181.391 40.0469 201.969 19.9826 228.459 8.97608Z" fill="#E13212"/>
</svg>
