<svg width="243" height="89" viewBox="0 0 243 89" fill="none" xmlns="http://www.w3.org/2000/svg">
<g clip-path="url(#clip0_3351_394)">
<path d="M58.8835 52.3593V50.8021C58.8835 50.4805 59.1119 50.2542 59.4293 50.2542H65.8628C66.1832 50.2542 66.4115 50.4835 66.4115 50.8021V51.9931C66.4115 53.458 67.1857 54.3751 68.2357 54.3751C69.2857 54.3751 70.1518 53.5056 70.1518 52.1777C70.1518 50.7128 69.0573 49.8433 66.0467 47.643C62.7157 45.264 58.7471 42.4234 58.7471 36.927C58.7471 31.4306 62.4874 28.0898 68.0073 28.0898C73.5273 28.0898 77.404 31.7075 77.404 37.064V38.1627C77.404 38.4842 77.1756 38.7105 76.8553 38.7105H70.4692C70.1489 38.7105 69.9205 38.4813 69.9205 38.1627V36.8794C69.9205 35.5514 69.1463 34.5897 68.0044 34.5897C66.9543 34.5897 66.1802 35.5068 66.1802 36.924C66.1802 38.4813 67.0938 39.3983 70.1489 41.6404C74.8947 45.1657 77.585 47.2738 77.585 51.8978C77.585 57.4389 73.7527 60.8719 68.2327 60.8719C62.7128 60.8719 58.8805 57.3466 58.8805 52.3534L58.8835 52.3593Z" fill="white"/>
<path d="M96.9746 34.9589H87.8063C87.6698 34.9589 87.5779 35.0512 87.5779 35.1881V40.9585C87.5779 41.0955 87.6698 41.1878 87.8063 41.1878H92.825C93.1453 41.1878 93.3737 41.417 93.3737 41.7356V47.1844C93.3737 47.506 93.1453 47.7323 92.825 47.7323H87.8063C87.6698 47.7323 87.5779 47.8246 87.5779 47.9615V53.7766C87.5779 53.9135 87.6698 54.0058 87.8063 54.0058H96.9746C97.2949 54.0058 97.5233 54.2351 97.5233 54.5537V59.9578C97.5233 60.2794 97.2949 60.5057 96.9746 60.5057H80.5541C80.2338 60.5057 80.0054 60.2764 80.0054 59.9578V29.0069C80.0054 28.6853 80.2338 28.4561 80.5541 28.4561H96.9746C97.2949 28.4561 97.5233 28.6853 97.5233 29.0069V34.411C97.5233 34.7326 97.2949 34.9619 96.9746 34.9619V34.9589Z" fill="white"/>
<path d="M114.127 60.0055L113.579 56.0216C113.579 55.8847 113.442 55.7924 113.306 55.7924H108.471C108.335 55.7924 108.198 55.8847 108.198 56.0216L107.513 60.0055C107.465 60.3717 107.24 60.5087 106.92 60.5087H100.442C100.077 60.5087 99.8929 60.3271 99.9849 59.9132L106.599 28.9563C106.644 28.6348 106.872 28.4531 107.193 28.4531H114.629C114.949 28.4531 115.177 28.6348 115.222 28.9563L121.836 59.9132C121.928 60.3241 121.744 60.5087 121.38 60.5087H114.721C114.4 60.5087 114.175 60.3717 114.127 60.0055ZM109.429 49.9327H112.44C112.576 49.9327 112.621 49.8404 112.621 49.7034L111.206 39.9045C111.158 39.7229 110.977 39.7229 110.933 39.9045L109.245 49.7034C109.201 49.885 109.29 49.9327 109.426 49.9327H109.429Z" fill="white"/>
<path d="M122.75 52.3593V50.8021C122.75 50.4805 122.979 50.2542 123.296 50.2542H129.73C130.05 50.2542 130.275 50.4835 130.275 50.8021V51.9931C130.275 53.458 131.052 54.3751 132.099 54.3751C133.147 54.3751 134.016 53.5056 134.016 52.1777C134.016 50.7128 132.921 49.8433 129.91 47.643C126.58 45.264 122.611 42.4234 122.611 36.927C122.611 31.4306 126.351 28.0898 131.871 28.0898C137.391 28.0898 141.268 31.7075 141.268 37.064V38.1627C141.268 38.4842 141.039 38.7105 140.719 38.7105H134.333C134.013 38.7105 133.784 38.4813 133.784 38.1627V36.8794C133.784 35.5514 133.01 34.5897 131.868 34.5897C130.818 34.5897 130.044 35.5068 130.044 36.924C130.044 38.4813 130.955 39.3983 134.013 41.6404C138.755 45.1657 141.449 47.2738 141.449 51.8978C141.449 57.4389 137.616 60.8719 132.097 60.8719C126.577 60.8719 122.744 57.3466 122.744 52.3534L122.75 52.3593Z" fill="white"/>
<path d="M163.347 29.0069V34.4111C163.347 34.7326 163.119 34.9619 162.799 34.9619H157.142C157.006 34.9619 156.914 35.0542 156.914 35.1912V59.9638C156.914 60.2854 156.685 60.5117 156.368 60.5117H149.89C149.57 60.5117 149.344 60.2824 149.344 59.9638V35.1882C149.344 35.0512 149.252 34.9589 149.116 34.9589H143.688C143.368 34.9589 143.142 34.7297 143.142 34.4081V29.004C143.142 28.6824 143.37 28.4531 143.688 28.4531H162.802C163.122 28.4531 163.35 28.6824 163.35 29.004L163.347 29.0069Z" fill="white"/>
<path d="M182.871 34.9589H173.702C173.566 34.9589 173.474 35.0512 173.474 35.1881V40.9585C173.474 41.0955 173.566 41.1878 173.702 41.1878H178.721C179.041 41.1878 179.267 41.417 179.267 41.7356V47.1844C179.267 47.506 179.038 47.7323 178.721 47.7323H173.702C173.566 47.7323 173.474 47.8246 173.474 47.9615V53.7766C173.474 53.9135 173.566 54.0058 173.702 54.0058H182.871C183.191 54.0058 183.416 54.2351 183.416 54.5537V59.9578C183.416 60.2794 183.188 60.5057 182.871 60.5057H166.447C166.127 60.5057 165.901 60.2764 165.901 59.9578V29.0069C165.901 28.6853 166.13 28.4561 166.447 28.4561H182.871C183.191 28.4561 183.416 28.6853 183.416 29.0069V34.411C183.416 34.7326 183.188 34.9619 182.871 34.9619V34.9589Z" fill="white"/>
<path d="M185.837 59.9608V29.0069C185.837 28.6853 186.065 28.4561 186.383 28.4561H192.724C192.997 28.4561 193.226 28.593 193.362 28.8669L196.966 36.0576C197.058 36.1945 197.147 36.1945 197.239 36.0576L200.843 28.8669C200.979 28.593 201.207 28.4561 201.483 28.4561H207.869C208.19 28.4561 208.415 28.6853 208.415 29.0069V59.9608C208.415 60.2824 208.187 60.5087 207.869 60.5087H201.391C201.071 60.5087 200.843 60.2794 200.843 59.9608V40.6816C200.843 40.4523 200.662 40.4077 200.57 40.5893L197.423 46.5413C197.286 46.8182 197.194 46.9552 197.15 46.9552C197.105 46.9552 196.969 46.8182 196.829 46.5413L193.682 40.497C193.59 40.3154 193.409 40.36 193.409 40.5893V59.9608C193.409 60.2824 193.181 60.5087 192.864 60.5087H186.386C186.065 60.5087 185.84 60.2794 185.84 59.9608H185.837Z" fill="white"/>
<path d="M211.425 59.9608V29.0069C211.425 28.6853 211.654 28.4561 211.971 28.4561H218.449C218.769 28.4561 218.995 28.6853 218.995 29.0069V59.9608C218.995 60.2824 218.766 60.5087 218.449 60.5087H211.971C211.651 60.5087 211.425 60.2794 211.425 59.9608Z" fill="white"/>
<path d="M222.145 59.9608V29.0069C222.145 28.6853 222.373 28.4561 222.691 28.4561H229.169C229.489 28.4561 229.715 28.6853 229.715 29.0069V39.3566C229.715 39.5859 229.896 39.5859 229.987 39.4013L234.778 28.8699C234.914 28.5484 235.143 28.459 235.415 28.459H242.258C242.668 28.459 242.852 28.6883 242.668 29.1022L236.053 42.5634C236.009 42.7003 235.961 42.7003 236.009 42.8373L242.941 59.8715C243.077 60.2377 242.941 60.5116 242.531 60.5116H235.644C235.324 60.5116 235.098 60.3747 235.006 60.1007L230.901 49.3848C230.857 49.2032 230.673 49.2032 230.581 49.3848L229.759 51.0343C229.715 51.1266 229.715 51.2159 229.715 51.3082V59.9638C229.715 60.2853 229.486 60.5116 229.169 60.5116H222.691C222.37 60.5116 222.145 60.2824 222.145 59.9638V59.9608Z" fill="white"/>
<path d="M36.0649 23.4778C36.2666 23.6088 36.4802 23.7398 36.7026 23.8708C36.9488 24.0226 37.2009 24.1834 37.4709 24.3502C37.7793 24.5705 38.0582 24.7313 38.4675 25.0856C38.3755 24.9754 38.2688 24.8593 38.1501 24.7402C38.0493 24.6479 37.9395 24.5496 37.8209 24.4514C37.7052 24.3561 37.5687 24.2459 37.4442 24.1596C37.3226 24.0792 37.195 23.9988 37.0675 23.9125C36.5395 23.582 36.0145 23.3408 35.5103 23.1145C35.6912 23.2396 35.8751 23.3587 36.0679 23.4748L36.0649 23.4778Z" fill="white"/>
<path d="M35.4895 23.1055C35.4895 23.1055 35.4776 23.1025 35.4717 23.1025C35.4865 23.1085 35.4954 23.1144 35.5073 23.1204C35.4984 23.1144 35.4954 23.1115 35.4895 23.1085V23.1055Z" fill="white"/>
<path d="M0.889648 61.4556C1.08541 61.5598 1.30787 61.6789 1.5333 61.801C1.31974 61.6759 1.10321 61.5568 0.889648 61.4556Z" fill="white"/>
<path d="M13.3268 35.5781C13.2497 35.6942 13.1637 35.8282 13.0747 35.9831C13.1637 35.8401 13.2467 35.7032 13.3268 35.5781Z" fill="white"/>
<path d="M44.0943 47.1725C44.0765 45.7969 43.8363 44.6566 43.6791 43.8288C43.7147 43.9122 43.7384 43.9956 43.7651 44.0819C43.6227 43.4536 43.4092 42.7956 43.2015 42.1019C42.9257 41.4349 42.6469 40.7203 42.282 40.0206C42.0833 39.6812 41.8816 39.3328 41.6769 38.9785C41.5702 38.8028 41.4693 38.6242 41.3566 38.4515C41.235 38.2877 41.1104 38.121 40.9858 37.9542C40.7307 37.6237 40.4757 37.2873 40.2117 36.9449C39.9358 36.6203 39.6303 36.3226 39.3337 36.007C38.1384 34.7386 36.6998 33.7173 35.1989 32.7853C34.4337 32.3685 33.6625 31.9695 32.8586 31.5884C32.4404 31.4187 32.0252 31.2341 31.601 31.0792C31.1709 30.9363 30.7438 30.7785 30.3048 30.6535C26.7988 29.6262 23.0497 29.5607 19.6683 30.4808C19.0988 30.6535 18.5649 30.8083 18.0102 31.0524C17.4555 31.2877 16.9009 31.508 16.4115 31.8087C15.3822 32.3417 14.5547 33.0384 13.8339 33.7351C13.1369 34.4557 12.6326 35.2418 12.25 36.0278C11.9 36.8317 11.728 37.6535 11.6746 38.4455C11.5174 39.4221 11.6835 40.628 12.1936 41.682C12.7008 42.742 13.5195 43.6651 14.3203 44.4064C13.5136 43.5311 13.9348 43.7484 14.5962 44.3767C15.9161 45.395 16.7822 45.7404 17.2005 45.9607C17.6305 46.181 17.6869 46.1423 17.7551 46.1572C17.8204 46.1572 17.8916 46.1572 18.3217 46.3031C18.5322 46.3775 18.8348 46.4877 19.2708 46.6425C19.5111 46.714 19.8255 46.8152 20.2229 46.9581C20.8814 47.1844 21.8929 47.5953 22.7619 48.173C23.1683 48.438 23.5213 48.7536 23.6874 48.9739C23.6281 49.0067 23.5598 49.0394 23.4798 49.0722C23.3878 49.1109 23.281 49.1496 23.1683 49.1883L22.9874 49.2419L22.845 49.2776C22.7975 49.2865 22.5128 49.3193 22.2251 49.3282C21.9314 49.3401 21.5933 49.3282 21.2611 49.3163C20.5848 49.2836 19.8818 49.2002 19.2115 49.096C16.4945 48.6672 14.347 47.8186 13.4424 47.3482C12.5763 47.1249 11.7191 46.6693 11.0339 46.1691C10.7017 45.9131 10.4021 45.654 10.1648 45.4099C9.93641 45.1627 9.73175 44.9424 9.58048 44.7489L9.69022 44.8025C9.6487 44.734 9.61014 44.7191 9.52115 44.5285C9.44107 44.3677 9.34615 44.1831 9.23937 43.9717C9.12962 43.7633 9.01395 43.5311 8.922 43.272C8.82708 43.016 8.69657 42.742 8.60759 42.4502C8.20123 41.2831 7.96394 39.8509 8.07072 38.4723C8.1597 37.0908 8.58386 35.7658 9.16225 34.7356C9.71988 33.6964 10.3606 32.9372 10.6898 32.5561L10.4733 32.7258C11.0042 32.0112 11.3335 31.7789 11.6241 31.5973C11.7635 31.502 11.9267 31.4455 12.1106 31.3442C12.3004 31.2519 12.4991 31.106 12.8165 30.9333C12.6475 30.8589 12.861 30.5641 13.1843 30.2366C13.5343 29.9389 13.9792 29.5905 14.264 29.4535L14.2759 29.525C14.6763 29.2838 15.3348 28.8759 16.1208 28.5097C16.3166 28.4203 16.5182 28.328 16.7229 28.2328C16.9305 28.1464 17.1441 28.075 17.3517 27.9975C17.767 27.8308 18.1971 27.7266 18.5886 27.6283L18.5619 27.81C19.1937 27.5718 20.1547 27.4169 21.0772 27.3395C21.5399 27.3127 21.9908 27.3068 22.3852 27.2978C22.7827 27.3097 23.1238 27.3216 23.367 27.3306C24.4793 27.4348 25.8675 27.7028 27.3179 28.1464C27.5048 28.206 27.6887 28.2685 27.8785 28.331C28.0802 28.3935 28.2819 28.459 28.4866 28.5216L28.9256 28.6437L29.2637 28.733L29.8955 28.8967C30.6785 29.0992 31.4557 29.3017 32.2091 29.4982C32.743 29.8555 33.2442 30.2455 33.4845 30.5731L33.6298 30.6028C33.6298 30.6028 33.6921 30.5344 33.8048 30.4153C33.9087 30.2932 34.1222 30.1354 34.2943 29.924C34.4871 29.7245 34.7481 29.4803 35.0684 29.2868C35.3828 29.0933 35.7358 28.8967 36.0917 28.6913C36.4536 28.4918 36.8006 28.2536 37.1002 27.9826C37.3939 27.6998 37.6786 27.4259 37.8032 27.009C37.8684 26.8065 37.91 26.5803 37.8922 26.3272C37.8536 26.0711 37.7587 25.7793 37.5985 25.4697C37.3256 24.9248 36.8273 24.3382 36.2222 23.8886L36.3854 23.7755C36.0057 23.5938 35.6616 23.4658 35.3057 23.3259C34.1074 22.775 33.529 22.8316 33.6536 22.6857C34.1815 22.8554 34.7303 23.0579 35.2879 23.2812C34.0777 22.7721 34.9616 23.0043 35.4748 23.0996C34.9557 22.8763 34.4693 22.6827 34.0866 22.5011C33.8315 22.4862 34.2379 22.6232 34.4159 22.7274C33.7426 22.5577 32.826 22.4505 32.1082 22.1766C31.5328 22.0158 31.5358 21.9473 31.512 21.8669C31.4972 21.7925 31.4171 21.6972 30.812 21.5364L30.6756 21.4977L30.6074 21.4798L30.5896 21.4739L30.379 21.4084L29.6849 21.194L28.9908 20.9796L28.2641 20.798C27.2972 20.5449 26.3094 20.3722 25.3187 20.2323C23.3344 19.9643 21.3174 19.9196 19.3064 20.1251C15.2962 20.536 11.2771 21.8877 7.77707 24.4662C7.57537 24.5258 7.76521 24.3859 7.95504 24.2191C5.86985 25.7972 4.17916 27.5539 2.87406 29.6858C2.42914 30.2217 2.26601 30.3617 2.09694 30.5016C2.18295 30.4301 1.77066 31.1447 1.27828 32.3655C0.797772 33.5863 0.275733 35.3311 0.0918335 37.1503C-0.0979987 38.9696 0.0651384 40.7918 0.287598 42.1316C0.427006 42.7926 0.533787 43.3554 0.640567 43.7425C0.75328 44.1266 0.818535 44.3588 0.821501 44.3856L1.16557 44.4541C1.34947 45.0823 1.46515 45.4277 1.52447 45.6481C1.57786 45.8714 1.57193 45.9666 1.566 46.0589C1.56007 46.1483 1.55413 46.2346 1.61049 46.4341C1.66388 46.6366 1.78253 46.9492 2.06431 47.4613C2.26304 47.6191 2.4677 47.9169 2.67236 48.2802L2.75245 48.4231C2.79101 48.4856 2.8266 48.5481 2.86516 48.6106C2.94228 48.7387 3.0194 48.8697 3.09949 49.0037C3.25669 49.2776 3.43466 49.5188 3.60966 49.7778C4.3156 50.7902 5.10756 51.5852 5.53171 51.8025C5.49019 51.8293 6.48977 52.6422 6.3474 52.6898C6.79825 52.7285 7.433 53.3925 8.11818 53.7021C8.38513 53.7796 7.97877 53.5414 7.84233 53.3776C8.34953 53.6486 8.85377 53.8927 9.35802 54.1101C9.90082 54.4554 9.9898 54.652 9.34319 54.3721C10.0224 54.7264 11.1585 55.2504 12.597 55.7447C14.0356 56.2449 15.7708 56.7064 17.6958 57.028C18.6598 57.1858 19.6712 57.3109 20.7539 57.3734C21.2996 57.4002 21.8543 57.418 22.4713 57.3972C22.7679 57.3912 23.1001 57.3674 23.4382 57.3377L23.984 57.2721C24.2035 57.2364 24.42 57.1977 24.6365 57.153L25.206 57.0012L25.6954 56.8523C26.0277 56.7422 26.3628 56.6171 26.7039 56.4712C27.3891 56.1735 28.1039 55.7834 28.8128 55.2355C29.5188 54.6907 30.2158 53.9671 30.7557 53.0918C31.2985 52.2223 31.6514 51.2308 31.8057 50.3108L31.8383 50.1262L31.8561 49.9148C31.9955 48.3457 31.6129 46.7319 31.0167 45.5558C30.8654 45.2699 30.7141 44.9543 30.551 44.7191C30.3879 44.4749 30.2218 44.2397 30.0557 44.0104C29.8896 43.7901 29.7234 43.6144 29.5573 43.4239C29.3912 43.2363 29.2281 43.0576 29.0709 42.9177C27.7925 41.7059 26.784 41.158 26.1285 40.7828C26.3688 41.03 26.8285 41.3069 27.2942 41.6731C27.5226 41.8428 27.751 42.0304 27.9438 42.2299C28.1366 42.4264 28.2849 42.5932 28.3709 42.7718C27.7421 42.3341 27.3268 42.0215 26.9946 41.7833C26.6565 41.5272 26.4103 41.3843 26.1166 41.298C26.0069 40.9853 25.3899 40.6131 24.7374 40.2737C24.0819 39.9343 23.3878 39.6157 23.0497 39.2614L22.6522 39.3626L22.1628 39.0291C22.0857 39.0053 22.0145 38.9844 21.9403 38.9636L21.8899 38.9487H21.881H21.8632C21.8395 38.9487 21.8158 38.9457 21.795 38.9428C21.7505 38.9398 21.709 38.9368 21.6734 38.9338C21.6319 38.9398 21.6289 38.9517 21.6081 38.9576C21.5785 38.9696 21.5666 38.9696 21.5666 38.9636C21.5666 38.9517 21.5844 38.916 21.5666 38.8564C21.5221 38.8415 21.3797 38.8266 21.2878 38.7671C21.1899 38.7135 21.1573 38.6331 21.2641 38.6152C21.2552 38.6212 21.0357 38.6212 21.006 38.5378C21.1365 38.5736 21.1157 38.5259 21.1128 38.4693C21.1098 38.4157 21.1246 38.3502 21.2374 38.4128C21.2611 38.3532 21.4954 38.2788 21.2552 38.0704C21.3263 38.118 21.4183 38.1388 21.4895 38.1627C21.5903 38.1835 21.6348 38.2163 21.5518 38.3056C21.62 38.2937 21.6852 38.2818 21.7475 38.2699C21.9225 38.2371 22.0797 38.1924 22.2102 38.1299L21.703 38.1656C22.9933 37.8203 23.7793 38.0049 24.687 37.7547C24.5149 37.719 24.337 37.6624 24.162 37.6386C25.0103 37.6118 25.7459 37.6505 26.0366 37.987C25.7459 37.9632 25.4552 37.987 25.1704 37.987C26.5556 38.0882 27.3832 38.2639 28.5518 38.4932L28.1544 38.3473C28.3412 38.377 28.6289 38.4366 28.9849 38.5259C29.3349 38.645 29.762 38.7552 30.2307 38.9874C30.6963 39.2018 31.2451 39.4043 31.7226 39.7199C31.9718 39.8658 32.2358 40.0087 32.4879 40.1635C32.7222 40.3362 32.9565 40.5119 33.1938 40.6846C35.1366 42.0632 36.0888 44.0938 36.4595 44.6774C36.4862 44.4511 36.4625 44.2338 36.4447 44.0134C36.685 44.3469 36.8155 44.725 36.9964 45.0972C36.9578 44.9632 36.3023 44.7846 36.2104 44.6595C36.3883 45.2491 36.7561 46.4311 36.6731 48.0152C36.5989 49.6111 36.0739 51.609 34.929 53.3419C33.8286 55.0897 32.2654 56.5635 30.7853 57.4984C30.0349 57.951 29.3556 58.347 28.7476 58.5822C28.448 58.7073 28.19 58.8353 27.9527 58.9157C27.7124 58.9872 27.5137 59.0467 27.3565 59.0944C26.3361 59.3207 27.0747 58.8234 27.0688 58.7907C26.7811 58.9127 26.612 58.9991 26.4993 59.0646C26.3836 59.1182 26.3302 59.1569 26.2798 59.1926C26.1819 59.2641 26.1048 59.3147 25.5768 59.4338C25.2832 59.4666 25.5976 59.2522 25.7488 59.1837C25.301 59.3207 24.8679 59.3594 24.8471 59.4487C25.4404 59.41 25.2505 59.7167 25.5353 59.8328C25.0815 59.9608 24.6009 59.9936 24.1293 60.065L24.1679 59.8864C24.0107 59.9072 23.8298 60.0531 23.5064 60.2139C23.1802 60.3538 22.7026 60.467 21.9848 60.47C19.5674 60.4908 16.8831 60.1663 14.4657 59.4249C14.5309 59.3355 15.0559 59.4159 15.578 59.4993C15.2576 59.404 14.7564 59.2939 14.4776 59.142C15.0115 59.4755 13.4305 58.9812 13.8636 59.1807C13.389 59.1658 12.9025 59.017 12.4072 58.88C11.9148 58.7192 11.4076 58.5852 10.9241 58.347C9.94828 57.9004 7.07113 56.8672 6.21392 56.6082C2.20372 57.4121 4.81094 58.2309 3.20627 59.2224C1.61049 60.2228 1.66685 61.393 1.56303 61.5925C1.06472 61.3066 0.581245 61.0267 0.447769 60.9106C0.518956 61.0714 1.46515 61.661 2.03168 61.8992L2.23931 61.7384C3.51474 62.3309 2.45287 62.0212 3.69271 62.6554C3.66898 62.8668 2.50033 62.3041 1.53634 61.789C2.38762 62.2862 3.2211 62.8907 3.69271 62.8907C4.52026 63.4028 3.48212 63.0574 4.49653 63.6588C4.8762 63.8137 5.38341 63.9864 5.79273 64.1293C6.27028 64.296 6.75376 64.4896 7.17198 64.7367L7.14232 64.7605C7.66436 65.0434 8.13597 65.2637 8.58979 65.4364C9.0614 65.5912 9.50336 65.7103 9.93938 65.8265C10.3754 65.9426 10.8025 66.0557 11.2504 66.1957C11.7042 66.3237 12.1847 66.4517 12.7097 66.6512H12.4606C12.8254 66.812 13.3979 66.9579 14.0415 67.1217C14.7059 67.2437 15.4475 67.3807 16.1475 67.5742C15.7471 67.4581 15.4237 67.2527 16.278 67.3896C16.6755 67.5087 17.0581 67.5593 17.417 67.607C17.7759 67.6487 18.1111 67.6904 18.4344 67.7291C18.7577 67.7678 19.0662 67.8035 19.3687 67.8392C19.6772 67.8601 19.9797 67.8898 20.2912 67.9375L21.4806 67.7707C21.8454 67.7946 22.2874 67.7469 22.7857 67.7231C23.284 67.6844 23.8416 67.6725 24.4526 67.5921C25.0607 67.4968 25.7221 67.3926 26.4251 67.2824C27.1251 67.1306 27.8607 66.9311 28.6319 66.7346C29.7027 66.4249 30.8209 65.9991 31.9451 65.4662C31.7641 65.5376 31.5684 65.6121 31.3726 65.6806C31.1353 65.7699 30.904 65.8503 30.723 65.9039C30.9663 65.8235 31.1976 65.7342 31.423 65.6538C31.6129 65.5853 31.7938 65.5198 31.9688 65.4543C34.051 64.4628 36.1481 63.0931 37.9663 61.3632C39.3574 60.0174 40.5646 58.4691 41.5405 56.8493C42.4689 55.1909 43.1837 53.4788 43.5871 51.8055C43.7147 51.3976 43.7562 50.9688 43.8393 50.5669C43.9015 50.1589 43.9965 49.7689 44.0143 49.3729C44.0409 48.9799 44.0647 48.5987 44.0884 48.2295C44.0973 48.0449 44.1121 47.8663 44.1121 47.6876C44.1062 47.509 44.0973 47.3333 44.0914 47.1606L44.0943 47.1725ZM13.2525 35.9831C13.3415 35.8283 13.4275 35.6943 13.5047 35.5782C13.4246 35.7033 13.3415 35.8402 13.2525 35.9831ZM16.1712 32.4757C15.8004 32.6871 15.5721 32.8866 15.4 33.0235C15.0589 33.2975 15.0144 33.4076 14.964 33.5089C14.9165 33.6101 14.8691 33.7083 14.5843 34.0031C14.4479 34.1579 14.267 34.3813 13.997 34.679C13.8665 34.8309 13.736 35.0244 13.5759 35.2328C13.4898 35.3341 13.4097 35.4532 13.3297 35.5782C13.567 35.2298 13.7449 35.0423 13.8309 34.9321C13.8636 34.8934 13.8903 34.8696 13.9051 34.8517C13.5343 35.2864 13.1962 35.7628 12.8996 36.2839C12.3627 38.0882 12.3419 39.5829 12.7038 40.7977C12.5703 40.3988 12.4784 39.9849 12.4339 39.5591C12.3597 38.8564 12.3983 38.1329 12.514 37.4094C12.5466 37.2277 12.5763 37.0461 12.6148 36.8645C12.6593 36.6799 12.7038 36.4953 12.7483 36.3107C12.7602 36.2094 12.8343 36.132 12.8788 36.0457L13.0301 35.7985C13.1339 35.6378 13.2199 35.468 13.3386 35.3132C13.2258 35.4591 13.1428 35.6229 13.0419 35.7777L12.8966 36.0159L12.8225 36.138C12.7987 36.1797 12.7631 36.2184 12.7602 36.266L12.6237 36.8139C12.5763 36.9895 12.5525 37.1741 12.5169 37.3528C12.4191 37.7131 12.4784 37.2575 12.5941 36.7216C12.6267 36.5816 12.6593 36.4387 12.6919 36.2988C12.7008 36.263 12.7068 36.2243 12.7186 36.1916C12.7364 36.1618 12.7542 36.129 12.772 36.0993C12.8076 36.0397 12.8403 35.9831 12.8699 35.9325C12.9826 35.733 13.0568 35.599 13.039 35.5961C13.1072 35.5038 13.1725 35.4055 13.2436 35.3162L13.472 35.0542L13.7004 34.7922C13.7775 34.7058 13.8487 34.6165 13.9377 34.542C14.0208 34.3574 13.472 34.9202 13.0449 35.5097C12.9381 35.6616 12.8343 35.8105 12.7424 35.9444C12.6919 36.0189 12.6415 36.0874 12.6 36.1499C12.5763 36.2213 12.5525 36.2868 12.5347 36.3434C12.4962 36.4595 12.4695 36.5191 12.4547 36.531C12.4398 36.5399 12.4369 36.5131 12.4547 36.3911C12.4725 36.3375 12.4932 36.266 12.5169 36.1856C12.5229 36.1648 12.5288 36.1439 12.5347 36.1231C12.5466 36.1022 12.5585 36.0844 12.5733 36.0635C12.6 36.0248 12.6267 35.9831 12.6534 35.9415C12.7038 35.864 12.7542 35.7837 12.8017 35.7092C12.8462 35.6378 12.8877 35.5693 12.9203 35.5127L12.5318 36.0874C12.4843 36.2035 12.4576 36.3315 12.4191 36.4476L12.3271 36.7573C12.3805 36.5697 12.4309 36.3821 12.4813 36.1975C12.4962 36.0903 12.5733 36.007 12.6208 35.9206C12.6712 35.8402 12.7216 35.7598 12.772 35.6824C12.8669 35.5335 12.9589 35.3876 13.0479 35.2418C13.1487 35.1018 13.2555 34.9708 13.3564 34.8368C13.4572 34.7028 13.561 34.5718 13.6589 34.4408C13.7716 34.3187 13.8814 34.1996 13.9881 34.0835C14.0979 33.9674 14.2047 33.8453 14.3144 33.7351C14.4331 33.6309 14.5487 33.5267 14.6644 33.4225C15.5928 32.6037 16.6161 32.032 17.6721 31.7075C17.0136 31.9784 16.5242 32.2345 16.1653 32.4638L16.1712 32.4757ZM0.219377 40.0087C0.195648 39.7526 0.180817 39.4579 0.180817 39.1303H0.225309C0.234208 39.4311 0.246072 39.711 0.263869 40.0057H0.219377V40.0087ZM1.47702 33.0235C1.47702 33.0235 1.47702 33.0027 1.47702 32.9967V32.9878V32.9848V32.964H1.48591C1.65202 32.5858 1.80329 32.2583 1.9516 31.9665C2.57152 30.6475 3.35161 29.388 4.27111 28.2268L4.29187 28.2L4.3067 28.2298C4.32746 28.2655 4.25628 28.3816 3.9211 28.9027C3.83212 29.0397 3.73424 29.1915 3.63339 29.3523C3.45839 29.6411 3.27449 29.9597 3.11135 30.2455C3.0105 30.4391 2.91855 30.6207 2.83847 30.7845C2.81177 30.847 2.77915 30.9184 2.73762 31.0048L2.69609 30.9869C2.72576 30.9214 2.76135 30.847 2.79694 30.7666C2.85626 30.6326 2.87999 30.5701 2.88593 30.5373C2.87406 30.5492 2.8533 30.5731 2.82067 30.6118C2.73762 30.716 2.61304 30.8946 2.47067 31.1179C2.3194 31.371 2.15033 31.6688 1.98422 31.9844C1.80626 32.3715 1.65202 32.7288 1.51557 33.0741V33.0831V33.0801V33.089L1.49185 33.098L1.47998 33.089C1.47998 33.089 1.46812 33.0563 1.47108 33.0235H1.47702ZM1.16854 38.4604C1.08252 39.8896 1.18633 41.3218 1.47405 42.7242L1.42956 42.7331C0.919383 40.503 0.910485 38.0972 1.40286 35.7777C1.92787 33.2915 2.98677 30.9959 4.54399 28.9474L4.57958 28.9742C2.56855 31.773 1.32574 35.2298 1.16854 38.4604ZM8.34657 24.6538C8.21309 24.7491 8.07962 24.8474 7.94614 24.9486C7.31435 25.4607 6.90206 25.8329 6.59062 26.1098C6.46011 26.2259 6.35333 26.3242 6.25248 26.4135C6.76265 25.8895 7.34698 25.3982 7.94614 24.9486C7.99656 24.9069 8.04699 24.8682 8.10038 24.8235C8.94572 24.1893 8.90716 24.2042 8.86861 24.1983C8.83598 24.1983 8.81225 24.1774 9.75844 23.576C9.82073 23.5611 9.17115 24.0018 8.63725 24.4216C8.5364 24.502 8.43852 24.5794 8.34657 24.6538C9.28683 23.9779 10.2241 23.4092 10.9152 22.9924C11.3987 22.7333 11.8763 22.5011 12.3508 22.2837C12.5466 22.2182 12.864 22.0902 13.3771 21.9056C11.8941 22.5636 11.6835 22.7989 11.3335 23.046C11.2474 23.1085 11.1496 23.174 11.0309 23.2574C10.9152 23.3437 10.7729 23.4479 10.5801 23.579C10.1974 23.8469 9.622 24.2132 8.74699 24.8325C8.02029 25.3118 8.08851 25.1898 8.58386 24.761C9.0792 24.3382 10.0402 23.6385 11.0873 23.0222C10.0254 23.6236 9.03767 24.1744 8.07072 24.9933C7.74741 25.1898 7.9669 24.9665 8.34953 24.6538H8.34657ZM26.784 30.5939C26.6327 30.5909 26.256 30.5641 25.8022 30.5314C25.5768 30.5105 25.3276 30.5016 25.0785 30.4956C25.0429 30.4956 25.0073 30.4956 24.9717 30.4927C23.2692 30.3795 21.5963 30.4778 20.042 30.8291C20.4513 30.7011 21.0297 30.5552 21.6348 30.4629C21.967 30.4182 22.3052 30.3617 22.6255 30.3289C22.9429 30.2991 23.2425 30.2723 23.4916 30.2426C23.9929 30.2098 24.3103 30.1681 24.2272 30.1026C24.4645 30.1026 24.6692 30.1145 24.8442 30.1264C25.0192 30.1383 25.1615 30.1473 25.2832 30.1532C25.5204 30.1681 25.6569 30.189 25.7221 30.2009C25.8556 30.2247 25.7103 30.2247 25.5501 30.2247C25.387 30.2277 25.209 30.2426 25.2713 30.2664C25.301 30.2813 25.3929 30.2932 25.5768 30.3229C25.7607 30.3527 26.0336 30.3944 26.434 30.448C26.8671 30.5492 26.9323 30.5969 26.781 30.5969L26.784 30.5939ZM33.9591 33.2855C34.0837 33.354 34.1786 33.4136 34.2824 33.4791C34.1815 33.4225 34.0807 33.357 33.9591 33.2855ZM43.7325 46.1245C43.7354 46.4639 43.7562 47.0266 43.7325 47.5536C43.7325 47.8186 43.7058 48.0717 43.6909 48.2861C43.6731 48.5005 43.6583 48.6762 43.6376 48.7714C43.6198 48.8697 43.6079 48.8965 43.6049 48.8191C43.6049 48.7417 43.6049 48.5571 43.6049 48.2385C43.4952 49.8463 43.246 51.076 42.9761 52.1241C42.7003 53.1692 42.4007 54.0237 42.0566 54.8395C41.7036 55.6524 41.321 56.4355 40.8019 57.3079C40.2799 58.1773 39.6184 59.142 38.6367 60.2407C38.7909 60.0204 39.4612 59.1777 40.1939 58.0106C40.9324 56.8434 41.674 55.3189 42.2138 53.9016L42.368 53.6932C42.5193 53.2406 42.5905 52.9399 42.635 52.7642C42.6765 52.5886 42.6854 52.5379 42.6647 52.5796C42.6202 52.66 42.4956 53.1096 42.288 53.6337C41.9083 54.6966 41.2083 56.0395 41.2973 55.7C40.3689 57.8379 38.7672 59.9697 36.6553 61.6431C36.1362 62.0718 35.5756 62.4559 35.0061 62.8371C34.4248 63.2003 33.8345 63.5546 33.2175 63.8673C31.9925 64.5074 30.6963 65.0315 29.3734 65.4781C30.3285 65.2399 29.2904 65.6299 29.0828 65.7669C30.1565 65.4215 30.5866 65.2339 30.9514 65.097C31.1324 65.0255 31.2985 64.963 31.518 64.8826C31.7345 64.7992 32.0044 64.692 32.393 64.5402C32.2714 64.6563 31.8947 64.8409 31.4675 65.0344C31.251 65.1267 31.0256 65.228 30.812 65.3203C30.5955 65.4066 30.3938 65.493 30.2307 65.5704C29.9667 65.7222 30.373 65.5793 30.9366 65.362C31.5002 65.1357 32.212 64.8111 32.5858 64.6563C31.6129 65.1476 31.1561 65.3322 30.8091 65.496C30.4561 65.6448 30.2158 65.7729 29.6137 66.014C28.4421 66.288 28.5815 66.1867 27.6709 66.3237C26.3747 66.6304 25.4285 66.7822 24.6781 66.8954C23.9276 67.0115 23.3759 67.08 22.8539 67.1395C22.5929 67.1723 22.3378 67.1931 22.0708 67.2169C21.8039 67.2437 21.5251 67.2586 21.2077 67.2705C20.5789 67.2973 19.8107 67.3033 18.7428 67.2408C19.9293 67.3033 19.6534 67.2556 19.4013 67.2259C19.2145 67.1991 19.0424 67.1812 19.4992 67.1901C19.2619 67.1812 19.0246 67.1723 18.7873 67.1544C19.7068 67.1633 20.7924 67.1485 21.8899 67.077C22.9874 67.0055 24.0937 66.8775 25.0607 66.7078C26.9946 66.3684 28.3442 65.9009 28.009 65.8622C27.0154 66.1272 26.1048 66.3326 25.1912 66.4994C22.2874 67.0502 19.2412 67.1723 16.2276 66.8805C16.2216 66.8894 16.2009 66.9013 16.1564 66.9073C15.1182 66.809 13.8903 66.6185 12.5585 66.3148C13.7686 66.5708 14.9937 66.7614 16.2276 66.8805C16.2513 66.8269 15.7856 66.7525 15.4682 66.6929C15.0915 66.6155 14.9254 66.6006 16.0615 66.7048C15.0648 66.5589 14.0771 66.3713 13.0983 66.1421C14.1127 66.2701 14.8157 66.4279 15.6373 66.6036C16.4589 66.7673 17.4051 66.9519 18.8823 66.9847C19.5081 66.9698 16.8445 66.7614 19.4725 66.8983L19.3153 66.943C21.1395 67.0026 22.5929 66.8864 23.9484 66.6989C24.3696 66.6393 24.7819 66.5738 25.1912 66.4994C34.1608 64.7992 41.7511 58.9961 42.7477 48.563C43.1096 44.3469 41.9142 40.6191 39.2002 37.4749C38.2422 36.2809 36.9578 35.1673 35.4659 34.1818C35.4688 34.1937 35.457 34.1937 35.4154 34.1758C35.3027 34.1222 34.9943 33.9108 34.2824 33.485C34.5256 33.628 34.6947 33.7143 34.7125 33.7083C34.226 33.4166 33.7218 33.1367 33.2027 32.8717C33.4489 32.9878 33.7485 33.1337 34.1192 33.3243C34.5701 33.5892 34.7332 33.7024 34.7125 33.7083C34.9676 33.8632 35.2197 34.021 35.4629 34.1818C35.454 34.1579 35.3917 34.0954 35.3176 34.021C35.0803 33.7887 34.7154 33.4523 35.6201 33.9972C36.8511 34.8041 37.2011 35.2209 36.7116 34.8636C37.6015 35.5097 37.8002 35.6616 37.9456 35.733C38.085 35.8105 38.165 35.8134 38.699 36.3375C38.5417 36.1737 38.3905 36.004 38.2303 35.8432C38.4765 36.0486 38.3193 35.8075 38.3964 35.7926C38.435 35.7866 38.5269 35.8402 38.7583 36.0427C38.871 36.1469 39.0282 36.2749 39.2091 36.4715C39.3841 36.668 39.6125 36.9151 39.8706 37.2248C40.624 38.1359 40.8197 38.52 40.8672 38.6271C40.9117 38.7403 40.7871 38.6182 40.7812 38.6539C41.321 39.4073 41.7274 40.1278 42.024 40.8186C42.3265 41.5064 42.5401 42.1525 42.6914 42.7718C42.6795 42.6408 42.7596 42.7659 42.9049 43.3137C42.9524 43.5072 42.9969 43.6829 43.0354 43.8407C43.074 44.0015 43.0948 44.1474 43.1214 44.2814C43.1719 44.5464 43.2045 44.7548 43.2164 44.9245C43.249 45.261 43.2579 45.4277 43.2401 45.5319C43.2134 45.7404 43.1659 45.7046 43.1956 46.2882C43.2015 46.5681 43.2045 46.8093 43.2075 47.0177C43.2045 47.2261 43.2015 47.4048 43.1986 47.5536C43.1986 47.8514 43.1867 48.042 43.1926 48.1611C43.2015 48.3963 43.2401 48.3486 43.2846 48.3129C43.3261 48.2772 43.3706 48.2593 43.3854 48.566C43.3854 48.8667 43.3617 49.495 43.1422 50.7276C43.1956 50.4894 43.2253 50.2512 43.2698 50.013C43.3113 49.7748 43.3498 49.5337 43.3765 49.2925C43.4062 49.0513 43.4388 48.8101 43.4626 48.569L43.5159 47.8335C43.5634 46.8539 43.5278 45.8654 43.4003 44.8888C43.4537 45.0049 43.51 45.0942 43.5337 44.993C43.5456 44.9424 43.5486 44.8441 43.5397 44.6774C43.5278 44.5107 43.4892 44.2814 43.4299 43.9628C43.4003 43.939 43.3409 43.7901 43.2609 43.5579C43.2223 43.4417 43.1748 43.3018 43.1274 43.144C43.074 42.9892 43.0117 42.8135 42.9464 42.6259C42.6854 41.8786 42.2998 40.9317 41.849 40.0534C41.7748 39.7675 42.4333 40.9258 42.7892 41.8577C42.9791 42.3163 43.1037 42.7093 43.1481 42.7748C43.1689 42.8075 43.1689 42.7599 43.1363 42.5991C43.1185 42.5187 43.0977 42.4115 43.0621 42.2716C43.0206 42.1346 42.9702 41.9649 42.9109 41.7624C43.1125 42.3371 43.3172 43.0338 43.4863 43.7752C43.6405 44.5196 43.7621 45.3116 43.8007 46.0589C43.7354 45.6868 43.7265 45.7999 43.7414 46.1393L43.7325 46.1245Z" fill="white"/>
<path d="M21.7832 67.9703C21.8633 67.9792 21.9641 67.9852 21.9849 68C22.0363 67.9802 21.9938 67.9693 21.8574 67.9673C21.8307 67.9673 21.8158 67.9673 21.7832 67.9732V67.9703Z" fill="white"/>
<path d="M32.577 65.2458C32.577 65.2458 32.3516 65.3143 32.0728 65.4275C32.2478 65.362 32.4198 65.2994 32.577 65.2458Z" fill="white"/>
<path d="M32.0699 65.4275C32.0373 65.4394 32.0017 65.4513 31.969 65.4662C31.9601 65.4692 31.9542 65.4722 31.9453 65.4781C31.9868 65.4632 32.0313 65.4454 32.0699 65.4305V65.4275Z" fill="white"/>
</g>
<defs>
<clipPath id="clip0_3351_394">
<rect width="243" height="48" fill="white" transform="translate(0 20)"/>
</clipPath>
</defs>
</svg>
