<svg width="1500" height="760" viewBox="0 0 1500 760" fill="none" xmlns="http://www.w3.org/2000/svg">
<g clip-path="url(#clip0_3319_675)">
<rect width="1500" height="760" fill="white"/>
<mask id="mask0_3319_675" style="mask-type:alpha" maskUnits="userSpaceOnUse" x="398" y="94" width="440" height="544">
<path fill-rule="evenodd" clip-rule="evenodd" d="M821.459 150.709C823.054 148.48 824.414 146.029 825.487 143.376C832.812 125.282 824.082 104.677 805.989 97.3523C787.895 90.0276 767.29 98.7575 759.965 116.851C759.465 118.086 759.04 119.332 758.688 120.585C742.579 117.693 726.101 126.351 719.715 142.124C717.499 147.599 716.752 153.304 717.291 158.801C692.011 154.277 666.157 167.868 656.136 192.621C655.141 195.078 654.335 197.565 653.711 200.066C636.133 199.363 618.763 202.118 602.527 207.936C574.698 198.062 543.768 211.783 532.578 239.423C528.482 249.542 527.584 260.161 529.41 270.16C527.076 274.402 524.947 278.809 523.039 283.374C500.813 283.057 479.642 296.208 470.8 318.05C468.832 322.912 467.602 327.889 467.058 332.858C441.219 347.421 419.951 370.514 407.956 400.144C390.629 442.946 396.692 489.408 420.142 525.359C422.333 569.84 449.743 611.175 493.739 628.985C536.699 646.376 583.902 636.653 616.375 607.854C671.915 620.696 730.105 591.645 752.174 537.129C755.952 527.796 758.451 518.263 759.752 508.724C775.184 503.996 788.432 492.607 794.96 476.481C803.648 455.018 797.948 431.305 782.39 416.034C794.464 410.758 804.565 400.939 809.9 387.76C815.464 374.015 814.762 359.29 809.135 346.751C820.107 341.26 829.202 331.904 834.167 319.637C840.109 304.96 838.905 289.164 832.19 276.107C842.248 248.671 833.882 218.703 813.035 200.231C818.43 196.451 822.832 191.122 825.487 184.561C830.203 172.914 828.265 160.226 821.459 150.709ZM630.29 182.923C624.01 193.48 610.798 198.164 599.062 193.413C586.108 188.17 579.859 173.418 585.102 160.465C588.762 151.424 597.054 145.649 606.133 144.768C603.304 139.865 602.681 133.757 604.97 128.104C608.913 118.363 620.007 113.663 629.748 117.607C637.824 120.876 642.435 129.06 641.528 137.313C642.881 137.597 644.229 138.004 645.556 138.541C657.586 143.411 663.39 157.111 658.52 169.142C653.967 180.388 641.698 186.193 630.29 182.923ZM646.269 132.462C652.829 135.118 660.299 131.953 662.954 125.393C665.61 118.833 662.445 111.363 655.885 108.707C649.326 106.052 641.855 109.217 639.2 115.776C636.544 122.336 639.709 129.807 646.269 132.462Z" fill="#FF3636"/>
</mask>
<g mask="url(#mask0_3319_675)">
<rect x="340.612" y="586.812" width="544.126" height="49.9491" fill="#EBF97B"/>
<rect x="340.612" y="510.294" width="544.126" height="76.5177" fill="#13176F"/>
<rect x="340.463" y="55.0728" width="543.837" height="461.466" fill="#FF3636"/>
</g>
<path d="M620.798 630H677.191L688 831H602L620.798 630Z" fill="#13176F"/>
<path d="M512.798 659H569.191L580 861H494L512.798 659Z" fill="#13176F"/>
<path d="M531.451 55.568H541.275C548.539 55.568 553.339 60.016 553.339 66.768C553.339 73.52 548.443 78 541.051 78H531.451V55.568ZM538.107 60.816V72.784H541.467C544.507 72.784 546.555 70.416 546.555 66.832C546.555 63.216 544.347 60.816 541.147 60.816H538.107ZM559.154 52.304C561.106 52.304 562.482 53.68 562.482 55.632C562.482 57.584 561.106 58.96 559.154 58.96C557.202 58.96 555.826 57.584 555.826 55.632C555.826 53.68 557.202 52.304 559.154 52.304ZM562.354 78H555.89V60.592H562.354V78ZM573.017 60.304C575.641 60.304 578.297 61.04 580.665 62.416L578.521 66.48C576.153 65.264 574.201 64.656 572.825 64.656C572.025 64.656 571.513 64.944 571.513 65.488C571.513 67.44 580.601 66.576 580.601 72.528C580.601 76.112 577.497 78.288 572.953 78.288C569.881 78.288 567.033 77.456 564.761 75.824L566.745 71.76C568.921 73.168 571.129 73.904 573.049 73.904C573.913 73.904 574.489 73.648 574.489 73.104C574.489 71.12 565.593 72.08 565.593 66.128C565.593 62.48 568.633 60.304 573.017 60.304ZM594.142 72.72L595.294 77.168C594.078 77.872 592.222 78.288 590.462 78.288C586.75 78.32 584.254 76.176 584.254 72.56V65.616H581.854V61.488H584.254V56.656H590.686V61.488H594.974V65.616H590.686V71.568C590.686 72.688 591.262 73.232 592.158 73.232C592.67 73.232 593.374 73.008 594.142 72.72ZM604.229 60.592V63.344C605.445 61.424 607.333 60.336 609.701 60.336V66.16C606.373 65.744 604.229 67.152 604.229 69.68V78H597.765V60.592H604.229ZM615.247 52.304C617.199 52.304 618.575 53.68 618.575 55.632C618.575 57.584 617.199 58.96 615.247 58.96C613.295 58.96 611.919 57.584 611.919 55.632C611.919 53.68 613.295 52.304 615.247 52.304ZM618.447 78H611.983V60.592H618.447V78ZM633.75 60.368C638.614 60.368 641.814 63.952 641.814 69.392C641.814 74.736 638.71 78.224 633.91 78.224C631.862 78.224 630.166 77.424 628.982 75.984V78H622.518V54.256H628.982V62.608C630.134 61.168 631.798 60.368 633.75 60.368ZM632.118 73.104C634.038 73.104 635.286 71.536 635.286 69.232C635.286 66.928 634.038 65.36 632.118 65.36C630.262 65.36 628.982 66.928 628.982 69.232C628.982 71.536 630.262 73.104 632.118 73.104ZM661.862 60.592V78H655.398V75.408C654.214 77.264 652.39 78.288 650.054 78.288C646.406 78.288 643.91 75.696 643.91 71.632V60.592H650.374V69.808C650.374 71.504 651.302 72.592 652.71 72.592C654.374 72.56 655.398 71.184 655.398 69.2V60.592H661.862ZM676.517 72.72L677.669 77.168C676.453 77.872 674.597 78.288 672.837 78.288C669.125 78.32 666.629 76.176 666.629 72.56V65.616H664.229V61.488H666.629V56.656H673.061V61.488H677.349V65.616H673.061V71.568C673.061 72.688 673.637 73.232 674.533 73.232C675.045 73.232 675.749 73.008 676.517 72.72ZM683.404 52.304C685.356 52.304 686.732 53.68 686.732 55.632C686.732 57.584 685.356 58.96 683.404 58.96C681.452 58.96 680.076 57.584 680.076 55.632C680.076 53.68 681.452 52.304 683.404 52.304ZM686.604 78H680.14V60.592H686.604V78ZM698.867 60.368C704.722 60.368 708.531 63.888 708.531 69.296C708.531 74.672 704.722 78.224 698.867 78.224C693.011 78.224 689.171 74.672 689.171 69.296C689.171 63.888 693.011 60.368 698.867 60.368ZM698.867 65.488C696.947 65.488 695.699 67.056 695.699 69.36C695.699 71.696 696.947 73.232 698.867 73.232C700.755 73.232 702.003 71.696 702.003 69.36C702.003 67.056 700.755 65.488 698.867 65.488ZM723.077 60.336C726.789 60.336 729.349 62.928 729.349 66.96V78H722.885V68.816C722.885 67.088 721.893 66 720.389 66C718.629 66.032 717.541 67.408 717.541 69.392V78H711.077V60.592H717.541V63.28C718.757 61.36 720.645 60.336 723.077 60.336ZM757.717 54.256V78H751.253V76.016C750.101 77.424 748.469 78.224 746.485 78.224C741.621 78.224 738.421 74.672 738.421 69.2C738.421 63.856 741.557 60.368 746.325 60.368C748.373 60.368 750.069 61.168 751.253 62.608V54.256H757.717ZM748.117 73.264C750.005 73.264 751.253 71.696 751.253 69.36C751.253 67.056 750.005 65.488 748.117 65.488C746.197 65.488 744.949 67.056 744.949 69.36C744.949 71.696 746.197 73.264 748.117 73.264ZM769.636 60.368C775.748 60.368 779.076 64.464 778.692 70.864H766.98C767.492 72.528 768.708 73.456 770.372 73.456C771.748 73.456 773.06 72.848 774.212 71.792L777.572 75.088C775.748 77.104 773.124 78.224 769.828 78.224C764.004 78.224 760.452 74.704 760.452 69.36C760.452 63.92 764.132 60.368 769.636 60.368ZM766.852 67.696H772.324C772.356 65.968 771.268 64.752 769.7 64.752C768.196 64.752 767.172 65.936 766.852 67.696ZM788.048 60.304C790.672 60.304 793.328 61.04 795.696 62.416L793.552 66.48C791.184 65.264 789.232 64.656 787.856 64.656C787.056 64.656 786.544 64.944 786.544 65.488C786.544 67.44 795.632 66.576 795.632 72.528C795.632 76.112 792.528 78.288 787.984 78.288C784.912 78.288 782.064 77.456 779.792 75.824L781.776 71.76C783.952 73.168 786.16 73.904 788.08 73.904C788.944 73.904 789.52 73.648 789.52 73.104C789.52 71.12 780.624 72.08 780.624 66.128C780.624 62.48 783.664 60.304 788.048 60.304ZM814.765 58.96H810.029L813.453 53.2L819.053 55.056L814.765 58.96ZM813.261 60.368C819.373 60.368 822.701 64.464 822.317 70.864H810.605C811.117 72.528 812.333 73.456 813.997 73.456C815.373 73.456 816.685 72.848 817.837 71.792L821.197 75.088C819.373 77.104 816.749 78.224 813.453 78.224C807.629 78.224 804.077 74.704 804.077 69.36C804.077 63.92 807.757 60.368 813.261 60.368ZM810.477 67.696H815.949C815.981 65.968 814.893 64.752 813.325 64.752C811.821 64.752 810.797 65.936 810.477 67.696ZM848.409 60.336C852.089 60.336 854.585 62.928 854.585 66.96V78H848.121V68.816C848.121 67.088 847.161 66 845.721 66C844.057 66.032 843.001 67.408 843.001 69.392V78H836.537V68.816C836.537 67.088 835.577 66 834.137 66C832.441 66.032 831.385 67.408 831.385 69.392V78H824.921V60.592H831.385V63.248C832.569 61.36 834.425 60.336 836.793 60.336C839.513 60.336 841.593 61.744 842.521 64.112C843.641 61.68 845.689 60.336 848.409 60.336ZM861.279 52.304C863.231 52.304 864.607 53.68 864.607 55.632C864.607 57.584 863.231 58.96 861.279 58.96C859.327 58.96 857.951 57.584 857.951 55.632C857.951 53.68 859.327 52.304 861.279 52.304ZM864.479 78H858.015V60.592H864.479V78ZM875.142 60.304C877.766 60.304 880.422 61.04 882.79 62.416L880.646 66.48C878.278 65.264 876.326 64.656 874.95 64.656C874.15 64.656 873.638 64.944 873.638 65.488C873.638 67.44 882.726 66.576 882.726 72.528C882.726 76.112 879.622 78.288 875.078 78.288C872.006 78.288 869.158 77.456 866.886 75.824L868.87 71.76C871.046 73.168 873.254 73.904 875.174 73.904C876.038 73.904 876.614 73.648 876.614 73.104C876.614 71.12 867.718 72.08 867.718 66.128C867.718 62.48 870.758 60.304 875.142 60.304ZM892.267 60.304C894.891 60.304 897.547 61.04 899.915 62.416L897.771 66.48C895.403 65.264 893.451 64.656 892.075 64.656C891.275 64.656 890.763 64.944 890.763 65.488C890.763 67.44 899.851 66.576 899.851 72.528C899.851 76.112 896.747 78.288 892.203 78.288C889.131 78.288 886.283 77.456 884.011 75.824L885.995 71.76C888.171 73.168 890.379 73.904 892.299 73.904C893.163 73.904 893.739 73.648 893.739 73.104C893.739 71.12 884.843 72.08 884.843 66.128C884.843 62.48 887.883 60.304 892.267 60.304ZM905.904 52.304C907.856 52.304 909.232 53.68 909.232 55.632C909.232 57.584 907.856 58.96 905.904 58.96C903.952 58.96 902.576 57.584 902.576 55.632C902.576 53.68 903.952 52.304 905.904 52.304ZM909.104 78H902.64V60.592H909.104V78ZM921.367 60.368C927.222 60.368 931.031 63.888 931.031 69.296C931.031 74.672 927.222 78.224 921.367 78.224C915.511 78.224 911.671 74.672 911.671 69.296C911.671 63.888 915.511 60.368 921.367 60.368ZM921.367 65.488C919.447 65.488 918.199 67.056 918.199 69.36C918.199 71.696 919.447 73.232 921.367 73.232C923.255 73.232 924.503 71.696 924.503 69.36C924.503 67.056 923.255 65.488 921.367 65.488ZM945.577 60.336C949.289 60.336 951.849 62.928 951.849 66.96V78H945.385V68.816C945.385 67.088 944.393 66 942.889 66C941.129 66.032 940.041 67.408 940.041 69.392V78H933.577V60.592H940.041V63.28C941.257 61.36 943.145 60.336 945.577 60.336ZM962.017 60.304C964.641 60.304 967.297 61.04 969.665 62.416L967.521 66.48C965.153 65.264 963.201 64.656 961.825 64.656C961.025 64.656 960.513 64.944 960.513 65.488C960.513 67.44 969.601 66.576 969.601 72.528C969.601 76.112 966.497 78.288 961.953 78.288C958.881 78.288 956.033 77.456 953.761 75.824L955.745 71.76C957.921 73.168 960.129 73.904 962.049 73.904C962.913 73.904 963.489 73.648 963.489 73.104C963.489 71.12 954.593 72.08 954.593 66.128C954.593 62.48 957.633 60.304 962.017 60.304Z" fill="black"/>
<rect width="157" height="60" transform="translate(567 356)" fill="#FF3636"/>
<path d="M583.531 384.288C580.875 384.288 577.931 383.52 576.011 382.368L578.539 377.696C579.787 378.656 581.387 379.168 583.115 379.168C586.315 379.168 587.883 377.472 587.851 374.432C586.859 375.616 585.227 376.448 582.923 376.448C578.507 376.448 575.659 373.472 575.659 369.12C575.659 364.32 579.115 361.28 584.267 361.28C590.475 361.28 594.219 365.632 594.219 372.512C594.219 379.648 590.027 384.288 583.531 384.288ZM584.459 371.584C586.251 371.584 587.243 370.624 587.243 369.088C587.243 367.616 586.347 366.592 584.523 366.592C582.795 366.592 581.835 367.456 581.835 369.152C581.835 370.72 582.763 371.584 584.459 371.584ZM606.751 361.376C613.215 361.376 616.863 365.44 616.863 372.768C616.863 380.128 613.215 384.192 606.751 384.192C600.191 384.192 596.607 380.128 596.607 372.768C596.607 365.44 600.191 361.376 606.751 361.376ZM606.751 366.208C604.351 366.208 603.423 367.968 603.423 372.768C603.423 377.568 604.351 379.36 606.751 379.36C609.087 379.36 610.015 377.568 610.015 372.768C610.015 367.968 609.087 366.208 606.751 366.208ZM622.111 378.24C623.903 378.24 625.151 379.456 625.151 381.216C625.151 383.008 623.903 384.256 622.111 384.256C620.351 384.256 619.103 383.008 619.103 381.216C619.103 379.456 620.351 378.24 622.111 378.24ZM636.315 361.28C640.827 361.28 644.187 363.68 644.187 367.264C644.187 369.792 642.363 372.288 639.899 374.816L635.995 378.816H644.667V384H627.483V379.776L635.355 371.52C636.411 370.4 637.243 369.12 637.243 368.224C637.243 367.232 636.539 366.688 635.291 366.688C633.531 366.688 631.323 367.776 629.211 369.536L626.715 364.736C629.755 362.592 632.923 361.28 636.315 361.28ZM652.906 361.472C656.81 361.472 659.306 364.096 659.306 368.256C659.306 372.448 656.81 375.136 652.906 375.136C648.97 375.136 646.474 372.448 646.474 368.256C646.474 364.096 648.97 361.472 652.906 361.472ZM651.402 384L667.178 361.568H673.194L657.45 384H651.402ZM652.906 364.864C651.434 364.864 650.538 366.176 650.538 368.256C650.538 370.368 651.434 371.68 652.906 371.68C654.346 371.68 655.242 370.368 655.242 368.256C655.242 366.176 654.346 364.864 652.906 364.864ZM671.85 370.464C675.754 370.464 678.25 373.12 678.25 377.28C678.25 381.472 675.754 384.128 671.85 384.128C667.914 384.128 665.418 381.472 665.418 377.28C665.418 373.12 667.914 370.464 671.85 370.464ZM671.85 373.888C670.378 373.888 669.482 375.2 669.482 377.28C669.482 379.392 670.378 380.704 671.85 380.704C673.29 380.704 674.186 379.392 674.186 377.28C674.186 375.2 673.29 373.888 671.85 373.888Z" fill="black"/>
<path d="M563.728 540.08L555.76 558H548.72L556.4 540.752H551.536V543.888H545.68V535.568H563.728V540.08ZM566.877 552.24C568.669 552.24 569.917 553.456 569.917 555.216C569.917 557.008 568.669 558.256 566.877 558.256C565.117 558.256 563.868 557.008 563.868 555.216C563.868 553.456 565.117 552.24 566.877 552.24ZM578.585 548.528H582.393V544.016H588.569V548.528H591.513V553.424H588.569V558H582.393V553.424H571.801V549.008L578.585 535.568H584.953L578.585 548.528ZM599.109 535.472C603.013 535.472 605.509 538.096 605.509 542.256C605.509 546.448 603.013 549.136 599.109 549.136C595.173 549.136 592.677 546.448 592.677 542.256C592.677 538.096 595.173 535.472 599.109 535.472ZM597.605 558L613.381 535.568H619.397L603.653 558H597.605ZM599.109 538.864C597.637 538.864 596.741 540.176 596.741 542.256C596.741 544.368 597.637 545.68 599.109 545.68C600.549 545.68 601.445 544.368 601.445 542.256C601.445 540.176 600.549 538.864 599.109 538.864ZM618.053 544.464C621.957 544.464 624.453 547.12 624.453 551.28C624.453 555.472 621.957 558.128 618.053 558.128C614.117 558.128 611.621 555.472 611.621 551.28C611.621 547.12 614.117 544.464 618.053 544.464ZM618.053 547.888C616.581 547.888 615.685 549.2 615.685 551.28C615.685 553.392 616.581 554.704 618.053 554.704C619.493 554.704 620.389 553.392 620.389 551.28C620.389 549.2 619.493 547.888 618.053 547.888Z" fill="white"/>
<path d="M520.753 599.28C525.265 599.28 528.625 601.68 528.625 605.264C528.625 607.792 526.801 610.288 524.337 612.816L520.433 616.816H529.105V622H511.921V617.776L519.793 609.52C520.849 608.4 521.681 607.12 521.681 606.224C521.681 605.232 520.977 604.688 519.729 604.688C517.969 604.688 515.761 605.776 513.649 607.536L511.153 602.736C514.193 600.592 517.361 599.28 520.753 599.28ZM534.08 616.24C535.872 616.24 537.12 617.456 537.12 619.216C537.12 621.008 535.872 622.256 534.08 622.256C532.32 622.256 531.072 621.008 531.072 619.216C531.072 617.456 532.32 616.24 534.08 616.24ZM549.372 608.528L550.364 608.752C553.372 609.328 555.548 611.504 555.548 614.896C555.548 619.248 552.124 622.288 546.78 622.288C543.516 622.288 540.156 621.136 538.012 619.44L540.668 614.384C542.364 616.336 544.252 617.328 546.236 617.328C548.06 617.328 549.052 616.496 549.02 614.96C549.02 613.392 548.06 612.624 546.204 612.624H542.364V609.104L546.94 604.56H539.164V599.632H554.524V603.376L549.372 608.528ZM564.968 622.288C562.312 622.288 559.368 621.52 557.448 620.368L559.976 615.696C561.224 616.656 562.824 617.168 564.552 617.168C567.752 617.168 569.32 615.472 569.288 612.432C568.296 613.616 566.664 614.448 564.36 614.448C559.944 614.448 557.096 611.472 557.096 607.12C557.096 602.32 560.552 599.28 565.704 599.28C571.912 599.28 575.656 603.632 575.656 610.512C575.656 617.648 571.464 622.288 564.968 622.288ZM565.896 609.584C567.688 609.584 568.68 608.624 568.68 607.088C568.68 605.616 567.784 604.592 565.96 604.592C564.232 604.592 563.272 605.456 563.272 607.152C563.272 608.72 564.2 609.584 565.896 609.584ZM584.156 599.472C588.06 599.472 590.556 602.096 590.556 606.256C590.556 610.448 588.06 613.136 584.156 613.136C580.22 613.136 577.724 610.448 577.724 606.256C577.724 602.096 580.22 599.472 584.156 599.472ZM582.652 622L598.428 599.568H604.444L588.7 622H582.652ZM584.156 602.864C582.684 602.864 581.788 604.176 581.788 606.256C581.788 608.368 582.684 609.68 584.156 609.68C585.596 609.68 586.492 608.368 586.492 606.256C586.492 604.176 585.596 602.864 584.156 602.864ZM603.1 608.464C607.004 608.464 609.5 611.12 609.5 615.28C609.5 619.472 607.004 622.128 603.1 622.128C599.164 622.128 596.668 619.472 596.668 615.28C596.668 611.12 599.164 608.464 603.1 608.464ZM603.1 611.888C601.628 611.888 600.732 613.2 600.732 615.28C600.732 617.392 601.628 618.704 603.1 618.704C604.54 618.704 605.436 617.392 605.436 615.28C605.436 613.2 604.54 611.888 603.1 611.888Z" fill="black"/>
<rect width="162" height="50" transform="translate(838 603)" fill="#EBF97B"/>
<path d="M875.058 624.098H867.028V626.518H874.31V630.038H867.028V632.48H875.278V636H862.452V620.578H875.058V624.098ZM882.068 636H877.624V619.676H882.068V636ZM890.273 623.878C894.475 623.878 896.763 626.694 896.499 631.094H888.447C888.799 632.238 889.635 632.876 890.779 632.876C891.725 632.876 892.627 632.458 893.419 631.732L895.729 633.998C894.475 635.384 892.671 636.154 890.405 636.154C886.401 636.154 883.959 633.734 883.959 630.06C883.959 626.32 886.489 623.878 890.273 623.878ZM888.359 628.916H892.121C892.143 627.728 891.395 626.892 890.317 626.892C889.283 626.892 888.579 627.706 888.359 628.916ZM903.635 623.878C906.143 623.878 908.145 625.022 909.157 627.002L905.747 628.674C905.329 627.926 904.669 627.486 903.833 627.486C902.645 627.486 901.853 628.52 901.853 630.038C901.853 631.6 902.645 632.634 903.833 632.634C904.691 632.634 905.351 632.216 905.725 631.314L909.179 633.052C908.255 635.032 906.231 636.154 903.591 636.154C899.829 636.154 897.365 633.734 897.365 630.06C897.365 626.342 899.851 623.878 903.635 623.878ZM918.035 632.37L918.827 635.428C917.991 635.912 916.715 636.198 915.505 636.198C912.953 636.22 911.237 634.746 911.237 632.26V627.486H909.587V624.648H911.237V621.326H915.659V624.648H918.607V627.486H915.659V631.578C915.659 632.348 916.055 632.722 916.671 632.722C917.023 632.722 917.507 632.568 918.035 632.37ZM924.97 624.032V625.924C925.806 624.604 927.104 623.856 928.732 623.856V627.86C926.444 627.574 924.97 628.542 924.97 630.28V636H920.526V624.032H924.97ZM932.545 618.334C933.887 618.334 934.833 619.28 934.833 620.622C934.833 621.964 933.887 622.91 932.545 622.91C931.203 622.91 930.257 621.964 930.257 620.622C930.257 619.28 931.203 618.334 932.545 618.334ZM934.745 636H930.301V624.032H934.745V636ZM942.78 623.878C945.288 623.878 947.29 625.022 948.302 627.002L944.892 628.674C944.474 627.926 943.814 627.486 942.978 627.486C941.79 627.486 940.998 628.52 940.998 630.038C940.998 631.6 941.79 632.634 942.978 632.634C943.836 632.634 944.496 632.216 944.87 631.314L948.324 633.052C947.4 635.032 945.376 636.154 942.736 636.154C938.974 636.154 936.51 633.734 936.51 630.06C936.51 626.342 938.996 623.878 942.78 623.878ZM952.031 618.334C953.373 618.334 954.319 619.28 954.319 620.622C954.319 621.964 953.373 622.91 952.031 622.91C950.689 622.91 949.743 621.964 949.743 620.622C949.743 619.28 950.689 618.334 952.031 618.334ZM954.231 636H949.787V624.032H954.231V636ZM964.312 632.37L965.104 635.428C964.268 635.912 962.992 636.198 961.782 636.198C959.23 636.22 957.514 634.746 957.514 632.26V627.486H955.864V624.648H957.514V621.326H961.936V624.648H964.884V627.486H961.936V631.578C961.936 632.348 962.332 632.722 962.948 632.722C963.3 632.722 963.784 632.568 964.312 632.37ZM973.205 622.91H969.949L972.303 618.95L976.153 620.226L973.205 622.91ZM972.171 623.878C976.373 623.878 978.661 626.694 978.397 631.094H970.345C970.697 632.238 971.533 632.876 972.677 632.876C973.623 632.876 974.525 632.458 975.317 631.732L977.627 633.998C976.373 635.384 974.569 636.154 972.303 636.154C968.299 636.154 965.857 633.734 965.857 630.06C965.857 626.32 968.387 623.878 972.171 623.878ZM970.257 628.916H974.019C974.041 627.728 973.293 626.892 972.215 626.892C971.181 626.892 970.477 627.706 970.257 628.916Z" fill="black"/>
<rect width="260" height="50" transform="translate(838 539)" fill="#13176F"/>
<path d="M874.869 560.098H866.839V562.518H874.121V566.038H866.839V568.48H875.089V572H862.263V556.578H874.869V560.098ZM893.472 559.856C896.002 559.856 897.718 561.638 897.718 564.41V572H893.274V565.686C893.274 564.498 892.614 563.75 891.624 563.75C890.48 563.772 889.754 564.718 889.754 566.082V572H885.31V565.686C885.31 564.498 884.65 563.75 883.66 563.75C882.494 563.772 881.768 564.718 881.768 566.082V572H877.324V560.032H881.768V561.858C882.582 560.56 883.858 559.856 885.486 559.856C887.356 559.856 888.786 560.824 889.424 562.452C890.194 560.78 891.602 559.856 893.472 559.856ZM902.32 554.334C903.662 554.334 904.608 555.28 904.608 556.622C904.608 557.964 903.662 558.91 902.32 558.91C900.978 558.91 900.032 557.964 900.032 556.622C900.032 555.28 900.978 554.334 902.32 554.334ZM904.52 572H900.076V560.032H904.52V572ZM911.851 559.834C913.655 559.834 915.481 560.34 917.109 561.286L915.635 564.08C914.007 563.244 912.665 562.826 911.719 562.826C911.169 562.826 910.817 563.024 910.817 563.398C910.817 564.74 917.065 564.146 917.065 568.238C917.065 570.702 914.931 572.198 911.807 572.198C909.695 572.198 907.737 571.626 906.175 570.504L907.539 567.71C909.035 568.678 910.553 569.184 911.873 569.184C912.467 569.184 912.863 569.008 912.863 568.634C912.863 567.27 906.747 567.93 906.747 563.838C906.747 561.33 908.837 559.834 911.851 559.834ZM923.625 559.834C925.429 559.834 927.255 560.34 928.883 561.286L927.409 564.08C925.781 563.244 924.439 562.826 923.493 562.826C922.943 562.826 922.591 563.024 922.591 563.398C922.591 564.74 928.839 564.146 928.839 568.238C928.839 570.702 926.705 572.198 923.581 572.198C921.469 572.198 919.511 571.626 917.949 570.504L919.313 567.71C920.809 568.678 922.327 569.184 923.647 569.184C924.241 569.184 924.637 569.008 924.637 568.634C924.637 567.27 918.521 567.93 918.521 563.838C918.521 561.33 920.611 559.834 923.625 559.834ZM933 554.334C934.342 554.334 935.288 555.28 935.288 556.622C935.288 557.964 934.342 558.91 933 558.91C931.658 558.91 930.712 557.964 930.712 556.622C930.712 555.28 931.658 554.334 933 554.334ZM935.2 572H930.756V560.032H935.2V572ZM943.631 559.878C947.657 559.878 950.275 562.298 950.275 566.016C950.275 569.712 947.657 572.154 943.631 572.154C939.605 572.154 936.965 569.712 936.965 566.016C936.965 562.298 939.605 559.878 943.631 559.878ZM943.631 563.398C942.311 563.398 941.453 564.476 941.453 566.06C941.453 567.666 942.311 568.722 943.631 568.722C944.929 568.722 945.787 567.666 945.787 566.06C945.787 564.476 944.929 563.398 943.631 563.398ZM960.276 559.856C962.828 559.856 964.588 561.638 964.588 564.41V572H960.144V565.686C960.144 564.498 959.462 563.75 958.428 563.75C957.218 563.772 956.47 564.718 956.47 566.082V572H952.026V560.032H956.47V561.88C957.306 560.56 958.604 559.856 960.276 559.856ZM971.578 559.834C973.382 559.834 975.208 560.34 976.836 561.286L975.362 564.08C973.734 563.244 972.392 562.826 971.446 562.826C970.896 562.826 970.544 563.024 970.544 563.398C970.544 564.74 976.792 564.146 976.792 568.238C976.792 570.702 974.658 572.198 971.534 572.198C969.422 572.198 967.464 571.626 965.902 570.504L967.266 567.71C968.762 568.678 970.28 569.184 971.6 569.184C972.194 569.184 972.59 569.008 972.59 568.634C972.59 567.27 966.474 567.93 966.474 563.838C966.474 561.33 968.564 559.834 971.578 559.834ZM995.864 555.676V572H991.42V570.636C990.628 571.604 989.506 572.154 988.142 572.154C984.798 572.154 982.598 569.712 982.598 565.95C982.598 562.276 984.754 559.878 988.032 559.878C989.44 559.878 990.606 560.428 991.42 561.418V555.676H995.864ZM989.264 568.744C990.562 568.744 991.42 567.666 991.42 566.06C991.42 564.476 990.562 563.398 989.264 563.398C987.944 563.398 987.086 564.476 987.086 566.06C987.086 567.666 987.944 568.744 989.264 568.744ZM1000.91 554.334C1002.25 554.334 1003.2 555.28 1003.2 556.622C1003.2 557.964 1002.25 558.91 1000.91 558.91C999.57 558.91 998.624 557.964 998.624 556.622C998.624 555.28 999.57 554.334 1000.91 554.334ZM1003.11 572H998.668V560.032H1003.11V572ZM1010.24 560.032V561.924C1011.08 560.604 1012.38 559.856 1014.01 559.856V563.86C1011.72 563.574 1010.24 564.542 1010.24 566.28V572H1005.8V560.032H1010.24ZM1020.97 559.878C1025.17 559.878 1027.46 562.694 1027.19 567.094H1019.14C1019.49 568.238 1020.33 568.876 1021.47 568.876C1022.42 568.876 1023.32 568.458 1024.11 567.732L1026.42 569.998C1025.17 571.384 1023.36 572.154 1021.1 572.154C1017.09 572.154 1014.65 569.734 1014.65 566.06C1014.65 562.32 1017.18 559.878 1020.97 559.878ZM1019.05 564.916H1022.81C1022.84 563.728 1022.09 562.892 1021.01 562.892C1019.98 562.892 1019.27 563.706 1019.05 564.916ZM1034.33 559.878C1036.84 559.878 1038.84 561.022 1039.85 563.002L1036.44 564.674C1036.02 563.926 1035.36 563.486 1034.53 563.486C1033.34 563.486 1032.55 564.52 1032.55 566.038C1032.55 567.6 1033.34 568.634 1034.53 568.634C1035.38 568.634 1036.04 568.216 1036.42 567.314L1039.87 569.052C1038.95 571.032 1036.92 572.154 1034.28 572.154C1030.52 572.154 1028.06 569.734 1028.06 566.06C1028.06 562.342 1030.54 559.878 1034.33 559.878ZM1048.73 568.37L1049.52 571.428C1048.68 571.912 1047.41 572.198 1046.2 572.198C1043.65 572.22 1041.93 570.746 1041.93 568.26V563.486H1040.28V560.648H1041.93V557.326H1046.35V560.648H1049.3V563.486H1046.35V567.578C1046.35 568.348 1046.75 568.722 1047.36 568.722C1047.72 568.722 1048.2 568.568 1048.73 568.37ZM1056.59 559.878C1060.79 559.878 1063.08 562.694 1062.81 567.094H1054.76C1055.11 568.238 1055.95 568.876 1057.09 568.876C1058.04 568.876 1058.94 568.458 1059.73 567.732L1062.04 569.998C1060.79 571.384 1058.99 572.154 1056.72 572.154C1052.72 572.154 1050.27 569.734 1050.27 566.06C1050.27 562.32 1052.8 559.878 1056.59 559.878ZM1054.67 564.916H1058.44C1058.46 563.728 1057.71 562.892 1056.63 562.892C1055.6 562.892 1054.89 563.706 1054.67 564.916ZM1069.25 559.834C1071.05 559.834 1072.88 560.34 1074.5 561.286L1073.03 564.08C1071.4 563.244 1070.06 562.826 1069.11 562.826C1068.56 562.826 1068.21 563.024 1068.21 563.398C1068.21 564.74 1074.46 564.146 1074.46 568.238C1074.46 570.702 1072.33 572.198 1069.2 572.198C1067.09 572.198 1065.13 571.626 1063.57 570.504L1064.93 567.71C1066.43 568.678 1067.95 569.184 1069.27 569.184C1069.86 569.184 1070.26 569.008 1070.26 568.634C1070.26 567.27 1064.14 567.93 1064.14 563.838C1064.14 561.33 1066.23 559.834 1069.25 559.834Z" fill="white"/>
<rect width="283" height="50" transform="translate(838 477)" fill="#FF3636"/>
<path d="M875.847 498.098H867.817V500.518H875.099V504.038H867.817V506.48H876.067V510H863.241V494.578H875.847V498.098ZM894.451 497.856C896.981 497.856 898.697 499.638 898.697 502.41V510H894.253V503.686C894.253 502.498 893.593 501.75 892.603 501.75C891.459 501.772 890.733 502.718 890.733 504.082V510H886.289V503.686C886.289 502.498 885.629 501.75 884.639 501.75C883.473 501.772 882.747 502.718 882.747 504.082V510H878.303V498.032H882.747V499.858C883.561 498.56 884.837 497.856 886.465 497.856C888.335 497.856 889.765 498.824 890.403 500.452C891.173 498.78 892.581 497.856 894.451 497.856ZM903.299 492.334C904.641 492.334 905.587 493.28 905.587 494.622C905.587 495.964 904.641 496.91 903.299 496.91C901.957 496.91 901.011 495.964 901.011 494.622C901.011 493.28 901.957 492.334 903.299 492.334ZM905.499 510H901.055V498.032H905.499V510ZM912.83 497.834C914.634 497.834 916.46 498.34 918.088 499.286L916.614 502.08C914.986 501.244 913.644 500.826 912.698 500.826C912.148 500.826 911.796 501.024 911.796 501.398C911.796 502.74 918.044 502.146 918.044 506.238C918.044 508.702 915.91 510.198 912.786 510.198C910.674 510.198 908.716 509.626 907.154 508.504L908.518 505.71C910.014 506.678 911.532 507.184 912.852 507.184C913.446 507.184 913.842 507.008 913.842 506.634C913.842 505.27 907.726 505.93 907.726 501.838C907.726 499.33 909.816 497.834 912.83 497.834ZM924.603 497.834C926.407 497.834 928.233 498.34 929.861 499.286L928.387 502.08C926.759 501.244 925.417 500.826 924.471 500.826C923.921 500.826 923.569 501.024 923.569 501.398C923.569 502.74 929.817 502.146 929.817 506.238C929.817 508.702 927.683 510.198 924.559 510.198C922.447 510.198 920.489 509.626 918.927 508.504L920.291 505.71C921.787 506.678 923.305 507.184 924.625 507.184C925.219 507.184 925.615 507.008 925.615 506.634C925.615 505.27 919.499 505.93 919.499 501.838C919.499 499.33 921.589 497.834 924.603 497.834ZM933.979 492.334C935.321 492.334 936.267 493.28 936.267 494.622C936.267 495.964 935.321 496.91 933.979 496.91C932.637 496.91 931.691 495.964 931.691 494.622C931.691 493.28 932.637 492.334 933.979 492.334ZM936.179 510H931.735V498.032H936.179V510ZM944.609 497.878C948.635 497.878 951.253 500.298 951.253 504.016C951.253 507.712 948.635 510.154 944.609 510.154C940.583 510.154 937.943 507.712 937.943 504.016C937.943 500.298 940.583 497.878 944.609 497.878ZM944.609 501.398C943.289 501.398 942.431 502.476 942.431 504.06C942.431 505.666 943.289 506.722 944.609 506.722C945.907 506.722 946.765 505.666 946.765 504.06C946.765 502.476 945.907 501.398 944.609 501.398ZM961.254 497.856C963.806 497.856 965.566 499.638 965.566 502.41V510H961.122V503.686C961.122 502.498 960.44 501.75 959.406 501.75C958.196 501.772 957.448 502.718 957.448 504.082V510H953.004V498.032H957.448V499.88C958.284 498.56 959.582 497.856 961.254 497.856ZM972.556 497.834C974.36 497.834 976.186 498.34 977.814 499.286L976.34 502.08C974.712 501.244 973.37 500.826 972.424 500.826C971.874 500.826 971.522 501.024 971.522 501.398C971.522 502.74 977.77 502.146 977.77 506.238C977.77 508.702 975.636 510.198 972.512 510.198C970.4 510.198 968.442 509.626 966.88 508.504L968.244 505.71C969.74 506.678 971.258 507.184 972.578 507.184C973.172 507.184 973.568 507.008 973.568 506.634C973.568 505.27 967.452 505.93 967.452 501.838C967.452 499.33 969.542 497.834 972.556 497.834ZM986.744 492.334C988.086 492.334 989.032 493.28 989.032 494.622C989.032 495.964 988.086 496.91 986.744 496.91C985.402 496.91 984.456 495.964 984.456 494.622C984.456 493.28 985.402 492.334 986.744 492.334ZM988.944 510H984.5V498.032H988.944V510ZM999.883 497.856C1002.44 497.856 1004.2 499.638 1004.2 502.41V510H999.751V503.686C999.751 502.498 999.069 501.75 998.035 501.75C996.825 501.772 996.077 502.718 996.077 504.082V510H991.633V498.032H996.077V499.88C996.913 498.56 998.211 497.856 999.883 497.856ZM1018.89 493.676V510H1014.44V508.636C1013.65 509.604 1012.53 510.154 1011.16 510.154C1007.82 510.154 1005.62 507.712 1005.62 503.95C1005.62 500.276 1007.78 497.878 1011.05 497.878C1012.46 497.878 1013.63 498.428 1014.44 499.418V493.676H1018.89ZM1012.29 506.744C1013.58 506.744 1014.44 505.666 1014.44 504.06C1014.44 502.476 1013.58 501.398 1012.29 501.398C1010.97 501.398 1010.11 502.476 1010.11 504.06C1010.11 505.666 1010.97 506.744 1012.29 506.744ZM1023.93 492.334C1025.28 492.334 1026.22 493.28 1026.22 494.622C1026.22 495.964 1025.28 496.91 1023.93 496.91C1022.59 496.91 1021.65 495.964 1021.65 494.622C1021.65 493.28 1022.59 492.334 1023.93 492.334ZM1026.13 510H1021.69V498.032H1026.13V510ZM1033.27 498.032V499.924C1034.1 498.604 1035.4 497.856 1037.03 497.856V501.86C1034.74 501.574 1033.27 502.542 1033.27 504.28V510H1028.82V498.032H1033.27ZM1043.99 497.878C1048.19 497.878 1050.48 500.694 1050.21 505.094H1042.16C1042.51 506.238 1043.35 506.876 1044.49 506.876C1045.44 506.876 1046.34 506.458 1047.13 505.732L1049.44 507.998C1048.19 509.384 1046.39 510.154 1044.12 510.154C1040.12 510.154 1037.67 507.734 1037.67 504.06C1037.67 500.32 1040.2 497.878 1043.99 497.878ZM1042.07 502.916H1045.84C1045.86 501.728 1045.11 500.892 1044.03 500.892C1043 500.892 1042.29 501.706 1042.07 502.916ZM1057.35 497.878C1059.86 497.878 1061.86 499.022 1062.87 501.002L1059.46 502.674C1059.04 501.926 1058.38 501.486 1057.55 501.486C1056.36 501.486 1055.57 502.52 1055.57 504.038C1055.57 505.6 1056.36 506.634 1057.55 506.634C1058.41 506.634 1059.07 506.216 1059.44 505.314L1062.89 507.052C1061.97 509.032 1059.95 510.154 1057.31 510.154C1053.54 510.154 1051.08 507.734 1051.08 504.06C1051.08 500.342 1053.57 497.878 1057.35 497.878ZM1071.75 506.37L1072.54 509.428C1071.71 509.912 1070.43 510.198 1069.22 510.198C1066.67 510.22 1064.95 508.746 1064.95 506.26V501.486H1063.3V498.648H1064.95V495.326H1069.37V498.648H1072.32V501.486H1069.37V505.578C1069.37 506.348 1069.77 506.722 1070.39 506.722C1070.74 506.722 1071.22 506.568 1071.75 506.37ZM1079.61 497.878C1083.81 497.878 1086.1 500.694 1085.83 505.094H1077.78C1078.13 506.238 1078.97 506.876 1080.11 506.876C1081.06 506.876 1081.96 506.458 1082.75 505.732L1085.06 507.998C1083.81 509.384 1082.01 510.154 1079.74 510.154C1075.74 510.154 1073.29 507.734 1073.29 504.06C1073.29 500.32 1075.82 497.878 1079.61 497.878ZM1077.69 502.916H1081.46C1081.48 501.728 1080.73 500.892 1079.65 500.892C1078.62 500.892 1077.91 501.706 1077.69 502.916ZM1092.27 497.834C1094.07 497.834 1095.9 498.34 1097.53 499.286L1096.05 502.08C1094.42 501.244 1093.08 500.826 1092.14 500.826C1091.59 500.826 1091.23 501.024 1091.23 501.398C1091.23 502.74 1097.48 502.146 1097.48 506.238C1097.48 508.702 1095.35 510.198 1092.22 510.198C1090.11 510.198 1088.15 509.626 1086.59 508.504L1087.96 505.71C1089.45 506.678 1090.97 507.184 1092.29 507.184C1092.88 507.184 1093.28 507.008 1093.28 506.634C1093.28 505.27 1087.16 505.93 1087.16 501.838C1087.16 499.33 1089.25 497.834 1092.27 497.834Z" fill="white"/>
</g>
<defs>
<clipPath id="clip0_3319_675">
<rect width="1500" height="760" fill="white"/>
</clipPath>
</defs>
</svg>
