<svg width="1500" height="760" viewBox="0 0 1500 760" fill="none" xmlns="http://www.w3.org/2000/svg">
<rect width="1500" height="760" fill="white"/>
<path fill-rule="evenodd" clip-rule="evenodd" d="M245.81 331.487L288.071 344.315C279.842 323.389 286.579 294.576 307.521 275.616L310.642 272.79H262.759L309.773 227.047H361.166L404.358 187.941C437.908 157.566 497.335 177.994 524.47 188.809C527.184 196.69 530.084 207.444 532.102 219.353C517.889 227.606 501.318 243.926 501.318 273.426H508.318C508.318 248.852 521.137 234.602 533.229 226.847C536.763 253.859 535.003 284.725 516.699 301.296L404.231 403.123C386.797 418.907 362.79 417.304 344.515 406.554L352.814 449.674L292.888 503.931L273.144 416.29L185.884 385.744L245.81 331.487ZM456.395 226.856C460.185 223.425 460.63 217.741 457.389 214.162C454.148 210.582 448.449 210.462 444.659 213.894C440.869 217.325 440.423 223.009 443.664 226.588C446.905 230.168 452.605 230.288 456.395 226.856Z" fill="#FF3636"/>
<path fill-rule="evenodd" clip-rule="evenodd" d="M478.506 379.607L520.767 392.434C512.538 371.509 519.275 342.696 540.216 323.735L543.337 320.91H495.454L542.468 275.166H593.861L637.053 236.061C670.603 205.686 730.031 226.114 757.166 236.928C759.88 244.809 762.779 255.563 764.798 267.472C750.585 275.725 734.013 292.045 734.013 321.545H741.013C741.013 296.971 753.833 282.721 765.924 274.966C769.458 301.978 767.699 332.844 749.395 349.416L636.927 451.242C619.493 467.027 595.485 465.424 577.21 454.673L585.51 497.794L525.583 552.05L505.839 464.409L418.579 433.863L478.506 379.607ZM689.09 274.976C692.88 271.545 693.325 265.861 690.084 262.282C686.843 258.702 681.144 258.582 677.354 262.014C673.564 265.445 673.118 271.128 676.359 274.708C679.6 278.287 685.3 278.407 689.09 274.976Z" fill="#FF3636"/>
<path fill-rule="evenodd" clip-rule="evenodd" d="M1014.93 379.607L1057.19 392.434C1048.96 371.509 1055.7 342.696 1076.64 323.735L1079.76 320.91H1031.87L1078.89 275.166H1130.28L1173.47 236.061C1207.02 205.686 1266.45 226.114 1293.59 236.928C1296.3 244.809 1299.2 255.563 1301.22 267.472C1287.01 275.725 1270.43 292.045 1270.43 321.545H1277.43C1277.43 296.971 1290.25 282.721 1302.35 274.966C1305.88 301.978 1304.12 332.844 1285.82 349.416L1173.35 451.242C1155.91 467.027 1131.91 465.424 1113.63 454.673L1121.93 497.794L1062 552.05L1042.26 464.409L955 433.863L1014.93 379.607ZM1225.51 274.976C1229.3 271.544 1229.75 265.861 1226.51 262.282C1223.26 258.702 1217.56 258.582 1213.77 262.013C1209.98 265.445 1209.54 271.128 1212.78 274.708C1216.02 278.287 1221.72 278.407 1225.51 274.976Z" fill="#FF3636"/>
<path fill-rule="evenodd" clip-rule="evenodd" d="M811.637 300.864C790.695 319.824 783.958 348.637 792.187 369.562L749.926 356.735L690 410.992L777.26 441.537L797.004 529.179L856.931 474.922L848.631 431.802C866.906 442.552 890.913 444.155 908.347 428.37L1020.82 326.544C1039.12 309.972 1040.88 279.106 1037.34 252.094C1025.25 259.849 1012.43 274.099 1012.43 298.673H1005.43C1005.43 269.174 1022.01 252.853 1036.22 244.601C1034.2 232.692 1031.3 221.937 1028.59 214.057C1001.45 203.242 942.024 182.814 908.474 213.189L865.282 252.295H813.889L766.875 298.038H814.757L811.637 300.864ZM960.51 252.104C964.3 248.673 964.745 242.989 961.504 239.41C958.264 235.83 952.564 235.71 948.774 239.142C944.984 242.573 944.539 248.257 947.779 251.836C951.02 255.416 956.72 255.536 960.51 252.104Z" fill="#FF3636"/>
<path d="M186 312H1314V439C1314 560.503 1215.5 659 1094 659H406C284.497 659 186 560.503 186 439V312Z" fill="#13176F"/>
<path d="M386.427 666.961V590H424V723H336V699.09L386.427 666.961Z" fill="#EBF97B"/>
<path d="M1120.57 666.961V590H1083V723H1171V699.09L1120.57 666.961Z" fill="#EBF97B"/>
<path d="M333.272 74.528H337.08V70.016H343.256V74.528H346.2V79.424H343.256V84H337.08V79.424H326.488V75.008L333.272 61.568H339.64L333.272 74.528ZM362.173 66.304C364.797 66.304 367.453 67.04 369.821 68.416L367.677 72.48C365.309 71.264 363.357 70.656 361.981 70.656C361.181 70.656 360.669 70.944 360.669 71.488C360.669 73.44 369.757 72.576 369.757 78.528C369.757 82.112 366.653 84.288 362.109 84.288C359.037 84.288 356.189 83.456 353.917 81.824L355.901 77.76C358.077 79.168 360.285 79.904 362.205 79.904C363.069 79.904 363.645 79.648 363.645 79.104C363.645 77.12 354.749 78.08 354.749 72.128C354.749 68.48 357.789 66.304 362.173 66.304ZM380.738 66.336C385.634 66.336 388.546 68.672 388.546 72.704V84H382.21V82.08C381.154 83.488 379.426 84.288 377.122 84.288C373.41 84.288 371.234 82.08 371.234 78.816C371.234 75.456 373.57 73.6 377.954 73.536H382.21V73.472C382.21 72.032 381.186 71.168 379.202 71.168C377.826 71.168 375.874 71.584 373.954 72.416L372.354 68.128C375.202 66.976 378.018 66.336 380.738 66.336ZM379.266 80.064C380.578 80.064 381.73 79.36 382.21 78.272V76.704H379.266C377.986 76.704 377.314 77.248 377.314 78.336C377.314 79.424 378.018 80.064 379.266 80.064ZM409.455 66.592V84H402.991V81.408C401.807 83.264 399.983 84.288 397.647 84.288C393.999 84.288 391.503 81.696 391.503 77.632V66.592H397.967V75.808C397.967 77.504 398.895 78.592 400.303 78.592C401.967 78.56 402.991 77.184 402.991 75.2V66.592H409.455ZM436.846 66.336C440.526 66.336 443.022 68.928 443.022 72.96V84H436.558V74.816C436.558 73.088 435.598 72 434.158 72C432.494 72.032 431.438 73.408 431.438 75.392V84H424.974V74.816C424.974 73.088 424.014 72 422.574 72C420.878 72.032 419.822 73.408 419.822 75.392V84H413.358V66.592H419.822V69.248C421.006 67.36 422.862 66.336 425.23 66.336C427.95 66.336 430.03 67.744 430.958 70.112C432.078 67.68 434.126 66.336 436.846 66.336ZM454.804 66.368C460.66 66.368 464.468 69.888 464.468 75.296C464.468 80.672 460.66 84.224 454.804 84.224C448.948 84.224 445.108 80.672 445.108 75.296C445.108 69.888 448.948 66.368 454.804 66.368ZM454.804 71.488C452.884 71.488 451.636 73.056 451.636 75.36C451.636 77.696 452.884 79.232 454.804 79.232C456.692 79.232 457.94 77.696 457.94 75.36C457.94 73.056 456.692 71.488 454.804 71.488ZM479.015 66.336C482.727 66.336 485.287 68.928 485.287 72.96V84H478.823V74.816C478.823 73.088 477.831 72 476.327 72C474.567 72.032 473.479 73.408 473.479 75.392V84H467.015V66.592H473.479V69.28C474.695 67.36 476.583 66.336 479.015 66.336ZM495.454 66.304C498.078 66.304 500.734 67.04 503.102 68.416L500.958 72.48C498.59 71.264 496.638 70.656 495.262 70.656C494.462 70.656 493.95 70.944 493.95 71.488C493.95 73.44 503.038 72.576 503.038 78.528C503.038 82.112 499.934 84.288 495.39 84.288C492.318 84.288 489.47 83.456 487.198 81.824L489.182 77.76C491.358 79.168 493.566 79.904 495.486 79.904C496.35 79.904 496.926 79.648 496.926 79.104C496.926 77.12 488.03 78.08 488.03 72.128C488.03 68.48 491.07 66.304 495.454 66.304ZM530.779 60.256V84H524.315V82.016C523.163 83.424 521.531 84.224 519.547 84.224C514.683 84.224 511.483 80.672 511.483 75.2C511.483 69.856 514.619 66.368 519.387 66.368C521.435 66.368 523.131 67.168 524.315 68.608V60.256H530.779ZM521.179 79.264C523.067 79.264 524.315 77.696 524.315 75.36C524.315 73.056 523.067 71.488 521.179 71.488C519.259 71.488 518.011 73.056 518.011 75.36C518.011 77.696 519.259 79.264 521.179 79.264ZM543.05 66.336C547.946 66.336 550.858 68.672 550.858 72.704V84H544.522V82.08C543.466 83.488 541.738 84.288 539.434 84.288C535.722 84.288 533.546 82.08 533.546 78.816C533.546 75.456 535.882 73.6 540.266 73.536H544.522V73.472C544.522 72.032 543.498 71.168 541.514 71.168C540.138 71.168 538.186 71.584 536.266 72.416L534.666 68.128C537.514 66.976 540.33 66.336 543.05 66.336ZM541.578 80.064C542.89 80.064 544.042 79.36 544.522 78.272V76.704H541.578C540.298 76.704 539.626 77.248 539.626 78.336C539.626 79.424 540.33 80.064 541.578 80.064ZM566.296 66.336C570.008 66.336 572.568 68.928 572.568 72.96V84H566.104V74.816C566.104 73.088 565.112 72 563.608 72C561.848 72.032 560.76 73.408 560.76 75.392V84H554.296V66.592H560.76V69.28C561.976 67.36 563.864 66.336 566.296 66.336ZM582.735 66.304C585.359 66.304 588.015 67.04 590.383 68.416L588.239 72.48C585.871 71.264 583.919 70.656 582.543 70.656C581.743 70.656 581.231 70.944 581.231 71.488C581.231 73.44 590.319 72.576 590.319 78.528C590.319 82.112 587.215 84.288 582.671 84.288C579.599 84.288 576.751 83.456 574.479 81.824L576.463 77.76C578.639 79.168 580.847 79.904 582.767 79.904C583.631 79.904 584.207 79.648 584.207 79.104C584.207 77.12 575.311 78.08 575.311 72.128C575.311 68.48 578.351 66.304 582.735 66.304ZM606.732 84H600.268V60.256H606.732V84ZM613.003 61.568C614.571 61.568 615.979 62.624 615.979 64.544C615.979 65.44 615.659 66.208 615.179 66.912L612.587 70.656H609.579L611.115 66.88C610.347 66.336 609.963 65.504 609.963 64.576C609.963 62.816 611.243 61.568 613.003 61.568ZM628.296 64.96H623.56L626.984 59.2L632.584 61.056L628.296 64.96ZM626.792 66.368C632.904 66.368 636.232 70.464 635.848 76.864H624.136C624.648 78.528 625.864 79.456 627.528 79.456C628.904 79.456 630.216 78.848 631.368 77.792L634.728 81.088C632.904 83.104 630.28 84.224 626.984 84.224C621.16 84.224 617.608 80.704 617.608 75.36C617.608 69.92 621.288 66.368 626.792 66.368ZM624.008 73.696H629.48C629.512 71.968 628.424 70.752 626.856 70.752C625.352 70.752 624.328 71.936 624.008 73.696ZM656.404 66.592V90.208H649.94V82.016C648.788 83.424 647.156 84.224 645.172 84.224C640.308 84.224 637.108 80.672 637.108 75.2C637.108 69.856 640.244 66.368 645.012 66.368C647.06 66.368 648.756 67.168 649.94 68.608V66.592H656.404ZM646.804 79.264C648.692 79.264 649.94 77.696 649.94 75.36C649.94 73.056 648.692 71.488 646.804 71.488C644.884 71.488 643.636 73.056 643.636 75.36C643.636 77.696 644.884 79.264 646.804 79.264ZM677.955 66.592V84H671.491V81.408C670.307 83.264 668.483 84.288 666.147 84.288C662.499 84.288 660.003 81.696 660.003 77.632V66.592H666.467V75.808C666.467 77.504 667.395 78.592 668.803 78.592C670.467 78.56 671.491 77.184 671.491 75.2V66.592H677.955ZM685.122 58.304C687.074 58.304 688.45 59.68 688.45 61.632C688.45 63.584 687.074 64.96 685.122 64.96C683.17 64.96 681.794 63.584 681.794 61.632C681.794 59.68 683.17 58.304 685.122 58.304ZM688.322 84H681.858V66.592H688.322V84ZM703.081 84H696.489L690.025 66.592H696.681L699.881 78.112L703.113 66.592H709.577L703.081 84ZM718.957 66.336C723.853 66.336 726.765 68.672 726.765 72.704V84H720.429V82.08C719.373 83.488 717.645 84.288 715.341 84.288C711.629 84.288 709.453 82.08 709.453 78.816C709.453 75.456 711.789 73.6 716.173 73.536H720.429V73.472C720.429 72.032 719.405 71.168 717.421 71.168C716.045 71.168 714.093 71.584 712.173 72.416L710.573 68.128C713.421 66.976 716.237 66.336 718.957 66.336ZM717.485 80.064C718.797 80.064 719.949 79.36 720.429 78.272V76.704H717.485C716.205 76.704 715.533 77.248 715.533 78.336C715.533 79.424 716.237 80.064 717.485 80.064ZM736.826 84H730.362V60.256H736.826V84ZM748.761 66.368C754.873 66.368 758.201 70.464 757.817 76.864H746.105C746.617 78.528 747.833 79.456 749.497 79.456C750.873 79.456 752.185 78.848 753.337 77.792L756.697 81.088C754.873 83.104 752.249 84.224 748.953 84.224C743.129 84.224 739.577 80.704 739.577 75.36C739.577 69.92 743.257 66.368 748.761 66.368ZM745.977 73.696H751.449C751.481 71.968 750.393 70.752 748.825 70.752C747.321 70.752 746.297 71.936 745.977 73.696ZM772.421 66.336C776.133 66.336 778.693 68.928 778.693 72.96V84H772.229V74.816C772.229 73.088 771.237 72 769.733 72C767.973 72.032 766.885 73.408 766.885 75.392V84H760.421V66.592H766.885V69.28C768.101 67.36 769.989 66.336 772.421 66.336ZM792.86 78.72L794.012 83.168C792.796 83.872 790.94 84.288 789.18 84.288C785.468 84.32 782.972 82.176 782.972 78.56V71.616H780.572V67.488H782.972V62.656H789.404V67.488H793.692V71.616H789.404V77.568C789.404 78.688 789.98 79.232 790.876 79.232C791.388 79.232 792.092 79.008 792.86 78.72ZM821.435 60.256V84H814.971V82.016C813.819 83.424 812.187 84.224 810.203 84.224C805.339 84.224 802.139 80.672 802.139 75.2C802.139 69.856 805.275 66.368 810.043 66.368C812.091 66.368 813.787 67.168 814.971 68.608V60.256H821.435ZM811.835 79.264C813.723 79.264 814.971 77.696 814.971 75.36C814.971 73.056 813.723 71.488 811.835 71.488C809.915 71.488 808.667 73.056 808.667 75.36C808.667 77.696 809.915 79.264 811.835 79.264ZM827.691 61.568C829.259 61.568 830.667 62.624 830.667 64.544C830.667 65.44 830.347 66.208 829.867 66.912L827.275 70.656H824.267L825.803 66.88C825.035 66.336 824.651 65.504 824.651 64.576C824.651 62.816 825.931 61.568 827.691 61.568ZM851.112 66.592V84H844.648V81.408C843.464 83.264 841.64 84.288 839.304 84.288C835.656 84.288 833.16 81.696 833.16 77.632V66.592H839.624V75.808C839.624 77.504 840.552 78.592 841.96 78.592C843.624 78.56 844.648 77.184 844.648 75.2V66.592H851.112ZM867.015 66.336C870.727 66.336 873.287 68.928 873.287 72.96V84H866.823V74.816C866.823 73.088 865.831 72 864.327 72C862.567 72.032 861.479 73.408 861.479 75.392V84H855.015V66.592H861.479V69.28C862.695 67.36 864.583 66.336 867.015 66.336ZM884.542 66.368C890.654 66.368 893.982 70.464 893.598 76.864H881.886C882.398 78.528 883.614 79.456 885.278 79.456C886.654 79.456 887.966 78.848 889.118 77.792L892.478 81.088C890.654 83.104 888.03 84.224 884.734 84.224C878.91 84.224 875.358 80.704 875.358 75.36C875.358 69.92 879.038 66.368 884.542 66.368ZM881.758 73.696H887.23C887.262 71.968 886.174 70.752 884.606 70.752C883.102 70.752 882.078 71.936 881.758 73.696ZM914.594 66.368C919.458 66.368 922.658 69.952 922.658 75.392C922.658 80.736 919.554 84.224 914.754 84.224C912.706 84.224 911.01 83.424 909.826 81.984V84H903.362V60.256H909.826V68.608C910.978 67.168 912.642 66.368 914.594 66.368ZM912.962 79.104C914.882 79.104 916.13 77.536 916.13 75.232C916.13 72.928 914.882 71.36 912.962 71.36C911.106 71.36 909.826 72.928 909.826 75.232C909.826 77.536 911.106 79.104 912.962 79.104ZM933.425 66.336C938.321 66.336 941.233 68.672 941.233 72.704V84H934.897V82.08C933.841 83.488 932.113 84.288 929.809 84.288C926.097 84.288 923.921 82.08 923.921 78.816C923.921 75.456 926.257 73.6 930.641 73.536H934.897V73.472C934.897 72.032 933.873 71.168 931.889 71.168C930.513 71.168 928.561 71.584 926.641 72.416L925.041 68.128C927.889 66.976 930.705 66.336 933.425 66.336ZM931.953 80.064C933.265 80.064 934.417 79.36 934.897 78.272V76.704H931.953C930.673 76.704 930.001 77.248 930.001 78.336C930.001 79.424 930.705 80.064 931.953 80.064ZM947.935 58.304C949.887 58.304 951.263 59.68 951.263 61.632C951.263 63.584 949.887 64.96 947.935 64.96C945.983 64.96 944.607 63.584 944.607 61.632C944.607 59.68 945.983 58.304 947.935 58.304ZM951.135 84H944.671V66.592H951.135V84ZM972.07 66.592V82.496C972.07 87.392 968.198 90.496 962.502 90.496C959.27 90.496 956.358 89.472 954.47 88.224L956.614 83.872C958.15 84.896 960.166 85.472 961.958 85.472C964.294 85.472 965.67 84.384 965.67 82.688V80.928C964.55 82.272 962.982 83.008 960.998 83.008C956.774 83.008 953.702 79.68 953.702 74.592C953.702 69.632 956.678 66.368 960.87 66.368C962.918 66.368 964.55 67.136 965.67 68.48V66.592H972.07ZM962.694 78.368C964.486 78.368 965.67 76.928 965.67 74.784C965.67 72.576 964.486 71.136 962.694 71.136C960.934 71.136 959.75 72.608 959.75 74.784C959.75 76.928 960.934 78.368 962.694 78.368ZM987.89 66.336C991.602 66.336 994.162 68.928 994.162 72.96V84H987.698V74.816C987.698 73.088 986.706 72 985.202 72C983.442 72.032 982.354 73.408 982.354 75.392V84H975.89V66.592H982.354V69.28C983.57 67.36 985.458 66.336 987.89 66.336ZM1005.93 66.368C1011.78 66.368 1015.59 69.888 1015.59 75.296C1015.59 80.672 1011.78 84.224 1005.93 84.224C1000.07 84.224 996.233 80.672 996.233 75.296C996.233 69.888 1000.07 66.368 1005.93 66.368ZM1005.93 71.488C1004.01 71.488 1002.76 73.056 1002.76 75.36C1002.76 77.696 1004.01 79.232 1005.93 79.232C1007.82 79.232 1009.07 77.696 1009.07 75.36C1009.07 73.056 1007.82 71.488 1005.93 71.488ZM1021.4 58.304C1023.36 58.304 1024.73 59.68 1024.73 61.632C1024.73 63.584 1023.36 64.96 1021.4 64.96C1019.45 64.96 1018.08 63.584 1018.08 61.632C1018.08 59.68 1019.45 58.304 1021.4 58.304ZM1024.6 84H1018.14V66.592H1024.6V84ZM1034.98 66.592V69.344C1036.19 67.424 1038.08 66.336 1040.45 66.336V72.16C1037.12 71.744 1034.98 73.152 1034.98 75.68V84H1028.51V66.592H1034.98ZM1050.57 66.368C1056.69 66.368 1060.01 70.464 1059.63 76.864H1047.92C1048.43 78.528 1049.65 79.456 1051.31 79.456C1052.69 79.456 1054 78.848 1055.15 77.792L1058.51 81.088C1056.69 83.104 1054.06 84.224 1050.77 84.224C1044.94 84.224 1041.39 80.704 1041.39 75.36C1041.39 69.92 1045.07 66.368 1050.57 66.368ZM1047.79 73.696H1053.26C1053.29 71.968 1052.21 70.752 1050.64 70.752C1049.13 70.752 1048.11 71.936 1047.79 73.696ZM1087.19 60.256V84H1080.72V82.016C1079.57 83.424 1077.94 84.224 1075.95 84.224C1071.09 84.224 1067.89 80.672 1067.89 75.2C1067.89 69.856 1071.03 66.368 1075.79 66.368C1077.84 66.368 1079.54 67.168 1080.72 68.608V60.256H1087.19ZM1077.59 79.264C1079.47 79.264 1080.72 77.696 1080.72 75.36C1080.72 73.056 1079.47 71.488 1077.59 71.488C1075.67 71.488 1074.42 73.056 1074.42 75.36C1074.42 77.696 1075.67 79.264 1077.59 79.264ZM1093.44 61.568C1095.01 61.568 1096.42 62.624 1096.42 64.544C1096.42 65.44 1096.1 66.208 1095.62 66.912L1093.02 70.656H1090.02L1091.55 66.88C1090.78 66.336 1090.4 65.504 1090.4 64.576C1090.4 62.816 1091.68 61.568 1093.44 61.568ZM1107.23 66.368C1113.34 66.368 1116.67 70.464 1116.29 76.864H1104.57C1105.09 78.528 1106.3 79.456 1107.97 79.456C1109.34 79.456 1110.65 78.848 1111.81 77.792L1115.17 81.088C1113.34 83.104 1110.72 84.224 1107.42 84.224C1101.6 84.224 1098.05 80.704 1098.05 75.36C1098.05 69.92 1101.73 66.368 1107.23 66.368ZM1104.45 73.696H1109.92C1109.95 71.968 1108.86 70.752 1107.29 70.752C1105.79 70.752 1104.77 71.936 1104.45 73.696ZM1127.08 66.336C1131.98 66.336 1134.89 68.672 1134.89 72.704V84H1128.55V82.08C1127.5 83.488 1125.77 84.288 1123.47 84.288C1119.75 84.288 1117.58 82.08 1117.58 78.816C1117.58 75.456 1119.91 73.6 1124.3 73.536H1128.55V73.472C1128.55 72.032 1127.53 71.168 1125.55 71.168C1124.17 71.168 1122.22 71.584 1120.3 72.416L1118.7 68.128C1121.55 66.976 1124.36 66.336 1127.08 66.336ZM1125.61 80.064C1126.92 80.064 1128.07 79.36 1128.55 78.272V76.704H1125.61C1124.33 76.704 1123.66 77.248 1123.66 78.336C1123.66 79.424 1124.36 80.064 1125.61 80.064ZM1155.8 66.592V84H1149.34V81.408C1148.15 83.264 1146.33 84.288 1143.99 84.288C1140.34 84.288 1137.85 81.696 1137.85 77.632V66.592H1144.31V75.808C1144.31 77.504 1145.24 78.592 1146.65 78.592C1148.31 78.56 1149.34 77.184 1149.34 75.2V66.592H1155.8ZM1161.81 78.24C1163.61 78.24 1164.85 79.456 1164.85 81.216C1164.85 83.008 1163.61 84.256 1161.81 84.256C1160.05 84.256 1158.81 83.008 1158.81 81.216C1158.81 79.456 1160.05 78.24 1161.81 78.24ZM218.265 125.576C219.566 125.576 220.686 125.363 221.625 124.936C222.564 124.488 223.545 123.784 224.569 122.824L227.001 125.32C224.633 127.944 221.753 129.256 218.361 129.256C214.99 129.256 212.185 128.168 209.945 125.992C207.726 123.816 206.617 121.064 206.617 117.736C206.617 114.408 207.748 111.635 210.009 109.416C212.292 107.197 215.161 106.088 218.617 106.088C222.094 106.088 224.996 107.368 227.321 109.928L224.921 112.552C223.854 111.528 222.841 110.813 221.881 110.408C220.942 110.003 219.833 109.8 218.553 109.8C216.292 109.8 214.393 110.536 212.857 112.008C211.321 113.459 210.553 115.325 210.553 117.608C210.553 119.869 211.31 121.768 212.825 123.304C214.361 124.819 216.174 125.576 218.265 125.576ZM230.852 110.248C230.276 109.907 229.988 109.405 229.988 108.744C229.988 108.061 230.18 107.539 230.564 107.176C230.948 106.792 231.428 106.6 232.004 106.6C232.58 106.6 233.06 106.781 233.444 107.144C233.849 107.507 234.052 107.987 234.052 108.584C234.052 109.16 233.86 109.725 233.476 110.28L231.588 113H229.636L230.852 110.248ZM253.885 122.056H240.541C240.626 123.293 241.192 124.296 242.237 125.064C243.282 125.811 244.477 126.184 245.821 126.184C247.954 126.184 249.576 125.512 250.685 124.168L252.733 126.408C250.898 128.307 248.509 129.256 245.565 129.256C243.176 129.256 241.138 128.467 239.453 126.888C237.789 125.288 236.957 123.155 236.957 120.488C236.957 117.8 237.81 115.667 239.517 114.088C241.224 112.509 243.229 111.72 245.533 111.72C247.858 111.72 249.832 112.424 251.453 113.832C253.074 115.219 253.885 117.139 253.885 119.592V122.056ZM240.541 119.24H250.301C250.301 117.811 249.853 116.712 248.957 115.944C248.061 115.176 246.952 114.792 245.629 114.792C244.328 114.792 243.154 115.197 242.109 116.008C241.064 116.797 240.541 117.875 240.541 119.24ZM269.954 123.912C269.954 125.533 269.368 126.835 268.194 127.816C267.021 128.776 265.517 129.256 263.682 129.256C262.445 129.256 261.154 129.032 259.81 128.584C258.488 128.136 257.314 127.507 256.29 126.696L258.018 123.912C260.002 125.405 261.922 126.152 263.778 126.152C264.589 126.152 265.229 125.971 265.698 125.608C266.168 125.224 266.402 124.744 266.402 124.168C266.402 123.315 265.272 122.547 263.01 121.864C262.84 121.8 262.712 121.757 262.626 121.736C259.085 120.776 257.314 119.176 257.314 116.936C257.314 115.357 257.922 114.099 259.138 113.16C260.376 112.2 261.976 111.72 263.938 111.72C265.901 111.72 267.757 112.296 269.506 113.448L268.162 116.104C266.776 115.187 265.272 114.728 263.65 114.728C262.797 114.728 262.104 114.888 261.57 115.208C261.037 115.507 260.77 115.965 260.77 116.584C260.77 117.139 261.048 117.544 261.602 117.8C261.986 117.992 262.52 118.173 263.202 118.344C263.906 118.515 264.525 118.685 265.058 118.856C265.592 119.027 266.104 119.219 266.594 119.432C267.106 119.645 267.65 119.944 268.226 120.328C269.378 121.096 269.954 122.291 269.954 123.912ZM278.43 114.856V123.496C278.43 124.307 278.643 124.957 279.07 125.448C279.497 125.917 280.094 126.152 280.862 126.152C281.63 126.152 282.366 125.779 283.07 125.032L284.542 127.56C283.283 128.691 281.886 129.256 280.35 129.256C278.835 129.256 277.534 128.733 276.446 127.688C275.379 126.621 274.846 125.192 274.846 123.4V114.856H272.702V111.976H274.846V106.632H278.43V111.976H282.91V114.856H278.43ZM299.754 129H296.17V105.256H299.754V129ZM318.743 129H315.479V126.728C314.071 128.413 312.183 129.256 309.815 129.256C308.045 129.256 306.573 128.755 305.399 127.752C304.247 126.749 303.671 125.416 303.671 123.752C303.671 122.067 304.29 120.808 305.527 119.976C306.765 119.144 308.439 118.728 310.551 118.728H315.191V118.088C315.191 115.827 313.933 114.696 311.415 114.696C309.837 114.696 308.194 115.272 306.487 116.424L304.887 114.184C306.957 112.541 309.303 111.72 311.927 111.72C313.933 111.72 315.565 112.232 316.823 113.256C318.103 114.259 318.743 115.848 318.743 118.024V129ZM315.159 122.664V121.224H311.127C308.546 121.224 307.255 122.035 307.255 123.656C307.255 124.488 307.575 125.128 308.215 125.576C308.855 126.003 309.741 126.216 310.871 126.216C312.023 126.216 313.026 125.896 313.879 125.256C314.733 124.616 315.159 123.752 315.159 122.664ZM339.458 129.256C337.303 129.256 335.426 128.445 333.826 126.824C332.226 125.203 331.426 123.069 331.426 120.424C331.426 117.779 332.247 115.667 333.89 114.088C335.533 112.509 337.485 111.72 339.746 111.72C342.029 111.72 343.863 112.68 345.25 114.6V105.256H348.834V129H345.25V126.44C343.927 128.317 341.997 129.256 339.458 129.256ZM335.01 120.584C335.01 122.205 335.533 123.528 336.578 124.552C337.623 125.576 338.85 126.088 340.258 126.088C341.666 126.088 342.861 125.576 343.842 124.552C344.823 123.507 345.314 122.173 345.314 120.552C345.314 118.931 344.823 117.576 343.842 116.488C342.861 115.4 341.655 114.856 340.226 114.856C338.797 114.856 337.57 115.4 336.546 116.488C335.522 117.576 335.01 118.941 335.01 120.584ZM369.854 122.056H356.51C356.595 123.293 357.161 124.296 358.206 125.064C359.251 125.811 360.446 126.184 361.79 126.184C363.923 126.184 365.545 125.512 366.654 124.168L368.702 126.408C366.867 128.307 364.478 129.256 361.534 129.256C359.145 129.256 357.107 128.467 355.422 126.888C353.758 125.288 352.926 123.155 352.926 120.488C352.926 117.8 353.779 115.667 355.486 114.088C357.193 112.509 359.198 111.72 361.502 111.72C363.827 111.72 365.801 112.424 367.422 113.832C369.043 115.219 369.854 117.139 369.854 119.592V122.056ZM356.51 119.24H366.27C366.27 117.811 365.822 116.712 364.926 115.944C364.03 115.176 362.921 114.792 361.598 114.792C360.297 114.792 359.123 115.197 358.078 116.008C357.033 116.797 356.51 117.875 356.51 119.24ZM377.379 119.784V129H373.795V111.976H377.379V115.08C377.955 114.035 378.744 113.213 379.747 112.616C380.771 112.019 381.87 111.72 383.043 111.72C384.963 111.72 386.51 112.307 387.683 113.48C388.878 114.653 389.475 116.349 389.475 118.568V129H385.891V119.656C385.891 116.52 384.59 114.952 381.987 114.952C380.75 114.952 379.672 115.368 378.755 116.2C377.838 117.011 377.379 118.205 377.379 119.784ZM406.611 123.912C406.611 125.533 406.024 126.835 404.851 127.816C403.677 128.776 402.173 129.256 400.339 129.256C399.101 129.256 397.811 129.032 396.467 128.584C395.144 128.136 393.971 127.507 392.947 126.696L394.675 123.912C396.659 125.405 398.579 126.152 400.435 126.152C401.245 126.152 401.885 125.971 402.355 125.608C402.824 125.224 403.059 124.744 403.059 124.168C403.059 123.315 401.928 122.547 399.667 121.864C399.496 121.8 399.368 121.757 399.283 121.736C395.741 120.776 393.971 119.176 393.971 116.936C393.971 115.357 394.579 114.099 395.795 113.16C397.032 112.2 398.632 111.72 400.595 111.72C402.557 111.72 404.413 112.296 406.163 113.448L404.819 116.104C403.432 115.187 401.928 114.728 400.307 114.728C399.453 114.728 398.76 114.888 398.227 115.208C397.693 115.507 397.427 115.965 397.427 116.584C397.427 117.139 397.704 117.544 398.259 117.8C398.643 117.992 399.176 118.173 399.859 118.344C400.563 118.515 401.181 118.685 401.715 118.856C402.248 119.027 402.76 119.219 403.251 119.432C403.763 119.645 404.307 119.944 404.883 120.328C406.035 121.096 406.611 122.291 406.611 123.912ZM414.254 129H410.67V111.976H414.254V129ZM410.894 108.584C410.446 108.136 410.222 107.603 410.222 106.984C410.222 106.365 410.446 105.832 410.894 105.384C411.342 104.936 411.875 104.712 412.494 104.712C413.113 104.712 413.646 104.936 414.094 105.384C414.542 105.832 414.766 106.365 414.766 106.984C414.766 107.603 414.542 108.136 414.094 108.584C413.646 109.032 413.113 109.256 412.494 109.256C411.875 109.256 411.342 109.032 410.894 108.584ZM423.867 114.856V123.496C423.867 124.307 424.081 124.957 424.507 125.448C424.934 125.917 425.531 126.152 426.299 126.152C427.067 126.152 427.803 125.779 428.507 125.032L429.979 127.56C428.721 128.691 427.323 129.256 425.787 129.256C424.273 129.256 422.971 128.733 421.883 127.688C420.817 126.621 420.283 125.192 420.283 123.4V114.856H418.139V111.976H420.283V106.632H423.867V111.976H428.347V114.856H423.867ZM448.666 122.056H435.322C435.408 123.293 435.973 124.296 437.018 125.064C438.064 125.811 439.258 126.184 440.602 126.184C442.736 126.184 444.357 125.512 445.466 124.168L447.514 126.408C445.68 128.307 443.29 129.256 440.346 129.256C437.957 129.256 435.92 128.467 434.234 126.888C432.57 125.288 431.738 123.155 431.738 120.488C431.738 117.8 432.592 115.667 434.298 114.088C436.005 112.509 438.01 111.72 440.314 111.72C442.64 111.72 444.613 112.424 446.234 113.832C447.856 115.219 448.666 117.139 448.666 119.592V122.056ZM435.322 119.24H445.082C445.082 117.811 444.634 116.712 443.738 115.944C442.842 115.176 441.733 114.792 440.41 114.792C439.109 114.792 437.936 115.197 436.89 116.008C435.845 116.797 435.322 117.875 435.322 119.24ZM442.266 109.736H439.002L442.394 105.096L446.17 106.664L442.266 109.736ZM470.317 115.336C468.546 115.336 467.213 115.912 466.317 117.064C465.421 118.216 464.973 119.763 464.973 121.704V129H461.389V111.976H464.973V115.4C465.549 114.333 466.328 113.459 467.309 112.776C468.312 112.093 469.368 111.741 470.477 111.72L470.509 115.336C470.445 115.336 470.381 115.336 470.317 115.336ZM489.948 122.056H476.604C476.689 123.293 477.254 124.296 478.3 125.064C479.345 125.811 480.54 126.184 481.884 126.184C484.017 126.184 485.638 125.512 486.748 124.168L488.796 126.408C486.961 128.307 484.572 129.256 481.628 129.256C479.238 129.256 477.201 128.467 475.516 126.888C473.852 125.288 473.02 123.155 473.02 120.488C473.02 117.8 473.873 115.667 475.58 114.088C477.286 112.509 479.292 111.72 481.596 111.72C483.921 111.72 485.894 112.424 487.516 113.832C489.137 115.219 489.948 117.139 489.948 119.592V122.056ZM476.604 119.24H486.364C486.364 117.811 485.916 116.712 485.02 115.944C484.124 115.176 483.014 114.792 481.692 114.792C480.39 114.792 479.217 115.197 478.172 116.008C477.126 116.797 476.604 117.875 476.604 119.24ZM500.833 129.256C498.7 129.256 496.822 128.435 495.201 126.792C493.601 125.149 492.801 123.016 492.801 120.392C492.801 117.768 493.612 115.667 495.233 114.088C496.854 112.509 498.806 111.72 501.089 111.72C503.372 111.72 505.217 112.797 506.625 114.952V111.976H510.209V135.208H506.625V126.44C504.918 128.317 502.988 129.256 500.833 129.256ZM496.385 120.552C496.385 122.173 496.908 123.496 497.953 124.52C498.998 125.544 500.225 126.056 501.633 126.056C503.041 126.056 504.236 125.544 505.217 124.52C506.198 123.475 506.689 122.141 506.689 120.52C506.689 118.899 506.198 117.555 505.217 116.488C504.236 115.4 503.03 114.856 501.601 114.856C500.172 114.856 498.945 115.4 497.921 116.488C496.897 117.555 496.385 118.909 496.385 120.552ZM527.293 121.192V111.976H530.877V129H527.293V125.896C526.717 126.941 525.917 127.763 524.893 128.36C523.89 128.957 522.802 129.256 521.629 129.256C519.709 129.256 518.152 128.669 516.957 127.496C515.784 126.323 515.197 124.627 515.197 122.408V111.976H518.781V121.32C518.781 124.456 520.082 126.024 522.685 126.024C523.922 126.024 525 125.619 525.917 124.808C526.834 123.976 527.293 122.771 527.293 121.192ZM539.66 129H536.076V111.976H539.66V129ZM536.3 108.584C535.852 108.136 535.628 107.603 535.628 106.984C535.628 106.365 535.852 105.832 536.3 105.384C536.748 104.936 537.282 104.712 537.9 104.712C538.519 104.712 539.052 104.936 539.5 105.384C539.948 105.832 540.172 106.365 540.172 106.984C540.172 107.603 539.948 108.136 539.5 108.584C539.052 109.032 538.519 109.256 537.9 109.256C537.282 109.256 536.748 109.032 536.3 108.584ZM556.986 123.912C556.986 125.533 556.399 126.835 555.226 127.816C554.052 128.776 552.548 129.256 550.714 129.256C549.476 129.256 548.186 129.032 546.842 128.584C545.519 128.136 544.346 127.507 543.322 126.696L545.05 123.912C547.034 125.405 548.954 126.152 550.81 126.152C551.62 126.152 552.26 125.971 552.73 125.608C553.199 125.224 553.434 124.744 553.434 124.168C553.434 123.315 552.303 122.547 550.042 121.864C549.871 121.8 549.743 121.757 549.658 121.736C546.116 120.776 544.346 119.176 544.346 116.936C544.346 115.357 544.954 114.099 546.17 113.16C547.407 112.2 549.007 111.72 550.97 111.72C552.932 111.72 554.788 112.296 556.538 113.448L555.194 116.104C553.807 115.187 552.303 114.728 550.682 114.728C549.828 114.728 549.135 114.888 548.602 115.208C548.068 115.507 547.802 115.965 547.802 116.584C547.802 117.139 548.079 117.544 548.634 117.8C549.018 117.992 549.551 118.173 550.234 118.344C550.938 118.515 551.556 118.685 552.09 118.856C552.623 119.027 553.135 119.219 553.626 119.432C554.138 119.645 554.682 119.944 555.258 120.328C556.41 121.096 556.986 122.291 556.986 123.912ZM576.885 122.056H563.541C563.626 123.293 564.192 124.296 565.237 125.064C566.282 125.811 567.477 126.184 568.821 126.184C570.954 126.184 572.576 125.512 573.685 124.168L575.733 126.408C573.898 128.307 571.509 129.256 568.565 129.256C566.176 129.256 564.138 128.467 562.453 126.888C560.789 125.288 559.957 123.155 559.957 120.488C559.957 117.8 560.81 115.667 562.517 114.088C564.224 112.509 566.229 111.72 568.533 111.72C570.858 111.72 572.832 112.424 574.453 113.832C576.074 115.219 576.885 117.139 576.885 119.592V122.056ZM563.541 119.24H573.301C573.301 117.811 572.853 116.712 571.957 115.944C571.061 115.176 569.952 114.792 568.629 114.792C567.328 114.792 566.154 115.197 565.109 116.008C564.064 116.797 563.541 117.875 563.541 119.24ZM598.728 111.72C601.01 111.72 602.962 112.509 604.584 114.088C606.205 115.667 607.016 117.768 607.016 120.392C607.016 123.016 606.205 125.149 604.584 126.792C602.984 128.435 601.106 129.256 598.952 129.256C596.818 129.256 594.898 128.317 593.192 126.44V135.208H589.608V111.976H593.192V114.952C594.6 112.797 596.445 111.72 598.728 111.72ZM593.128 120.52C593.128 122.141 593.618 123.475 594.6 124.52C595.581 125.544 596.776 126.056 598.184 126.056C599.592 126.056 600.818 125.544 601.864 124.52C602.909 123.496 603.432 122.173 603.432 120.552C603.432 118.909 602.92 117.555 601.896 116.488C600.872 115.4 599.645 114.856 598.216 114.856C596.786 114.856 595.581 115.4 594.6 116.488C593.618 117.555 593.128 118.899 593.128 120.52ZM615.076 124.52C616.1 125.544 617.39 126.056 618.948 126.056C620.505 126.056 621.785 125.544 622.788 124.52C623.812 123.475 624.324 122.131 624.324 120.488C624.324 118.845 623.812 117.512 622.788 116.488C621.785 115.443 620.505 114.92 618.948 114.92C617.39 114.92 616.1 115.443 615.076 116.488C614.073 117.512 613.572 118.845 613.572 120.488C613.572 122.131 614.073 123.475 615.076 124.52ZM625.348 126.728C623.641 128.413 621.508 129.256 618.948 129.256C616.388 129.256 614.254 128.413 612.548 126.728C610.841 125.021 609.988 122.941 609.988 120.488C609.988 118.035 610.841 115.965 612.548 114.28C614.254 112.573 616.388 111.72 618.948 111.72C621.508 111.72 623.641 112.573 625.348 114.28C627.054 115.965 627.908 118.035 627.908 120.488C627.908 122.941 627.054 125.021 625.348 126.728ZM643.887 121.192V111.976H647.471V129H643.887V125.896C643.311 126.941 642.511 127.763 641.487 128.36C640.484 128.957 639.396 129.256 638.223 129.256C636.303 129.256 634.745 128.669 633.551 127.496C632.377 126.323 631.791 124.627 631.791 122.408V111.976H635.375V121.32C635.375 124.456 636.676 126.024 639.279 126.024C640.516 126.024 641.593 125.619 642.511 124.808C643.428 123.976 643.887 122.771 643.887 121.192ZM661.598 115.336C659.827 115.336 658.494 115.912 657.598 117.064C656.702 118.216 656.254 119.763 656.254 121.704V129H652.67V111.976H656.254V115.4C656.83 114.333 657.609 113.459 658.59 112.776C659.593 112.093 660.649 111.741 661.758 111.72L661.79 115.336C661.726 115.336 661.662 115.336 661.598 115.336ZM681.114 129.256C678.981 129.256 677.103 128.435 675.482 126.792C673.882 125.149 673.082 123.016 673.082 120.392C673.082 117.768 673.893 115.667 675.514 114.088C677.135 112.509 679.087 111.72 681.37 111.72C683.653 111.72 685.498 112.797 686.906 114.952V111.976H690.49V135.208H686.906V126.44C685.199 128.317 683.269 129.256 681.114 129.256ZM676.666 120.552C676.666 122.173 677.189 123.496 678.234 124.52C679.279 125.544 680.506 126.056 681.914 126.056C683.322 126.056 684.517 125.544 685.498 124.52C686.479 123.475 686.97 122.141 686.97 120.52C686.97 118.899 686.479 117.555 685.498 116.488C684.517 115.4 683.311 114.856 681.882 114.856C680.453 114.856 679.226 115.4 678.202 116.488C677.178 117.555 676.666 118.909 676.666 120.552ZM707.574 121.192V111.976H711.158V129H707.574V125.896C706.998 126.941 706.198 127.763 705.174 128.36C704.171 128.957 703.083 129.256 701.91 129.256C699.99 129.256 698.433 128.669 697.238 127.496C696.065 126.323 695.478 124.627 695.478 122.408V111.976H699.062V121.32C699.062 124.456 700.363 126.024 702.966 126.024C704.203 126.024 705.281 125.619 706.198 124.808C707.115 123.976 707.574 122.771 707.574 121.192ZM732.198 122.056H718.854C718.939 123.293 719.504 124.296 720.55 125.064C721.595 125.811 722.79 126.184 724.134 126.184C726.267 126.184 727.888 125.512 728.998 124.168L731.046 126.408C729.211 128.307 726.822 129.256 723.878 129.256C721.488 129.256 719.451 128.467 717.766 126.888C716.102 125.288 715.27 123.155 715.27 120.488C715.27 117.8 716.123 115.667 717.83 114.088C719.536 112.509 721.542 111.72 723.846 111.72C726.171 111.72 728.144 112.424 729.766 113.832C731.387 115.219 732.198 117.139 732.198 119.592V122.056ZM718.854 119.24H728.614C728.614 117.811 728.166 116.712 727.27 115.944C726.374 115.176 725.264 114.792 723.942 114.792C722.64 114.792 721.467 115.197 720.422 116.008C719.376 116.797 718.854 117.875 718.854 119.24ZM748.504 129H744.92V105.256H748.504V129ZM769.541 122.056H756.197C756.283 123.293 756.848 124.296 757.893 125.064C758.939 125.811 760.133 126.184 761.477 126.184C763.611 126.184 765.232 125.512 766.341 124.168L768.389 126.408C766.555 128.307 764.165 129.256 761.221 129.256C758.832 129.256 756.795 128.467 755.109 126.888C753.445 125.288 752.613 123.155 752.613 120.488C752.613 117.8 753.467 115.667 755.173 114.088C756.88 112.509 758.885 111.72 761.189 111.72C763.515 111.72 765.488 112.424 767.109 113.832C768.731 115.219 769.541 117.139 769.541 119.592V122.056ZM756.197 119.24H765.957C765.957 117.811 765.509 116.712 764.613 115.944C763.717 115.176 762.608 114.792 761.285 114.792C759.984 114.792 758.811 115.197 757.765 116.008C756.72 116.797 756.197 117.875 756.197 119.24ZM785.611 123.912C785.611 125.533 785.024 126.835 783.851 127.816C782.677 128.776 781.173 129.256 779.339 129.256C778.101 129.256 776.811 129.032 775.467 128.584C774.144 128.136 772.971 127.507 771.947 126.696L773.675 123.912C775.659 125.405 777.579 126.152 779.435 126.152C780.245 126.152 780.885 125.971 781.355 125.608C781.824 125.224 782.059 124.744 782.059 124.168C782.059 123.315 780.928 122.547 778.667 121.864C778.496 121.8 778.368 121.757 778.283 121.736C774.741 120.776 772.971 119.176 772.971 116.936C772.971 115.357 773.579 114.099 774.795 113.16C776.032 112.2 777.632 111.72 779.595 111.72C781.557 111.72 783.413 112.296 785.163 113.448L783.819 116.104C782.432 115.187 780.928 114.728 779.307 114.728C778.453 114.728 777.76 114.888 777.227 115.208C776.693 115.507 776.427 115.965 776.427 116.584C776.427 117.139 776.704 117.544 777.259 117.8C777.643 117.992 778.176 118.173 778.859 118.344C779.563 118.515 780.181 118.685 780.715 118.856C781.248 119.027 781.76 119.219 782.251 119.432C782.763 119.645 783.307 119.944 783.883 120.328C785.035 121.096 785.611 122.291 785.611 123.912ZM802.867 110.568V111.976H807.347V114.856H802.867V129H799.283V114.856H797.139V111.976H799.283V110.664C799.283 108.872 799.817 107.453 800.883 106.408C801.971 105.341 803.273 104.808 804.787 104.808C806.323 104.808 807.721 105.373 808.979 106.504L807.507 109.032C806.803 108.285 806.067 107.912 805.299 107.912C804.531 107.912 803.934 108.157 803.507 108.648C803.081 109.117 802.867 109.757 802.867 110.568ZM826.635 122.056H813.291C813.376 123.293 813.942 124.296 814.987 125.064C816.032 125.811 817.227 126.184 818.571 126.184C820.704 126.184 822.326 125.512 823.435 124.168L825.483 126.408C823.648 128.307 821.259 129.256 818.315 129.256C815.926 129.256 813.888 128.467 812.203 126.888C810.539 125.288 809.707 123.155 809.707 120.488C809.707 117.8 810.56 115.667 812.267 114.088C813.974 112.509 815.979 111.72 818.283 111.72C820.608 111.72 822.582 112.424 824.203 113.832C825.824 115.219 826.635 117.139 826.635 119.592V122.056ZM813.291 119.24H823.051C823.051 117.811 822.603 116.712 821.707 115.944C820.811 115.176 819.702 114.792 818.379 114.792C817.078 114.792 815.904 115.197 814.859 116.008C813.814 116.797 813.291 117.875 813.291 119.24ZM839.504 115.336C837.734 115.336 836.4 115.912 835.504 117.064C834.608 118.216 834.16 119.763 834.16 121.704V129H830.576V111.976H834.16V115.4C834.736 114.333 835.515 113.459 836.496 112.776C837.499 112.093 838.555 111.741 839.664 111.72L839.696 115.336C839.632 115.336 839.568 115.336 839.504 115.336ZM846.879 119.784V129H843.295V111.976H846.879V115.08C847.391 114.035 848.159 113.213 849.183 112.616C850.228 112.019 851.348 111.72 852.543 111.72C855.231 111.72 857.055 112.829 858.015 115.048C859.7 112.829 861.802 111.72 864.319 111.72C866.239 111.72 867.786 112.307 868.959 113.48C870.154 114.653 870.751 116.349 870.751 118.568V129H867.167V119.656C867.167 116.52 865.866 114.952 863.263 114.952C862.047 114.952 860.98 115.347 860.063 116.136C859.167 116.904 858.698 118.035 858.655 119.528V129H855.071V119.656C855.071 118.035 854.783 116.851 854.207 116.104C853.631 115.336 852.724 114.952 851.487 114.952C850.25 114.952 849.172 115.368 848.255 116.2C847.338 117.011 846.879 118.205 846.879 119.784ZM891.573 122.056H878.229C878.314 123.293 878.879 124.296 879.925 125.064C880.97 125.811 882.165 126.184 883.509 126.184C885.642 126.184 887.263 125.512 888.373 124.168L890.421 126.408C888.586 128.307 886.197 129.256 883.253 129.256C880.863 129.256 878.826 128.467 877.141 126.888C875.477 125.288 874.645 123.155 874.645 120.488C874.645 117.8 875.498 115.667 877.205 114.088C878.911 112.509 880.917 111.72 883.221 111.72C885.546 111.72 887.519 112.424 889.141 113.832C890.762 115.219 891.573 117.139 891.573 119.592V122.056ZM878.229 119.24H887.989C887.989 117.811 887.541 116.712 886.645 115.944C885.749 115.176 884.639 114.792 883.317 114.792C882.015 114.792 880.842 115.197 879.797 116.008C878.751 116.797 878.229 117.875 878.229 119.24ZM907.642 123.912C907.642 125.533 907.055 126.835 905.882 127.816C904.709 128.776 903.205 129.256 901.37 129.256C900.133 129.256 898.842 129.032 897.498 128.584C896.175 128.136 895.002 127.507 893.978 126.696L895.706 123.912C897.69 125.405 899.61 126.152 901.466 126.152C902.277 126.152 902.917 125.971 903.386 125.608C903.855 125.224 904.09 124.744 904.09 124.168C904.09 123.315 902.959 122.547 900.698 121.864C900.527 121.8 900.399 121.757 900.314 121.736C896.773 120.776 895.002 119.176 895.002 116.936C895.002 115.357 895.61 114.099 896.826 113.16C898.063 112.2 899.663 111.72 901.626 111.72C903.589 111.72 905.445 112.296 907.194 113.448L905.85 116.104C904.463 115.187 902.959 114.728 901.338 114.728C900.485 114.728 899.791 114.888 899.258 115.208C898.725 115.507 898.458 115.965 898.458 116.584C898.458 117.139 898.735 117.544 899.29 117.8C899.674 117.992 900.207 118.173 900.89 118.344C901.594 118.515 902.213 118.685 902.746 118.856C903.279 119.027 903.791 119.219 904.282 119.432C904.794 119.645 905.338 119.944 905.914 120.328C907.066 121.096 907.642 122.291 907.642 123.912ZM911.413 121.128V117.768H922.037V121.128H911.413ZM938.824 121.192V111.976H942.408V129H938.824V125.896C938.248 126.941 937.448 127.763 936.424 128.36C935.421 128.957 934.333 129.256 933.16 129.256C931.24 129.256 929.683 128.669 928.488 127.496C927.315 126.323 926.728 124.627 926.728 122.408V111.976H930.312V121.32C930.312 124.456 931.613 126.024 934.216 126.024C935.453 126.024 936.531 125.619 937.448 124.808C938.365 123.976 938.824 122.771 938.824 121.192ZM959.736 123.912C959.736 125.533 959.149 126.835 957.976 127.816C956.802 128.776 955.298 129.256 953.464 129.256C952.226 129.256 950.936 129.032 949.592 128.584C948.269 128.136 947.096 127.507 946.072 126.696L947.8 123.912C949.784 125.405 951.704 126.152 953.56 126.152C954.37 126.152 955.01 125.971 955.48 125.608C955.949 125.224 956.184 124.744 956.184 124.168C956.184 123.315 955.053 122.547 952.792 121.864C952.621 121.8 952.493 121.757 952.408 121.736C948.866 120.776 947.096 119.176 947.096 116.936C947.096 115.357 947.704 114.099 948.92 113.16C950.157 112.2 951.757 111.72 953.72 111.72C955.682 111.72 957.538 112.296 959.288 113.448L957.944 116.104C956.557 115.187 955.053 114.728 953.432 114.728C952.578 114.728 951.885 114.888 951.352 115.208C950.818 115.507 950.552 115.965 950.552 116.584C950.552 117.139 950.829 117.544 951.384 117.8C951.768 117.992 952.301 118.173 952.984 118.344C953.688 118.515 954.306 118.685 954.84 118.856C955.373 119.027 955.885 119.219 956.376 119.432C956.888 119.645 957.432 119.944 958.008 120.328C959.16 121.096 959.736 122.291 959.736 123.912ZM967.379 129H963.795V111.976H967.379V129ZM964.019 108.584C963.571 108.136 963.347 107.603 963.347 106.984C963.347 106.365 963.571 105.832 964.019 105.384C964.467 104.936 965 104.712 965.619 104.712C966.238 104.712 966.771 104.936 967.219 105.384C967.667 105.832 967.891 106.365 967.891 106.984C967.891 107.603 967.667 108.136 967.219 108.584C966.771 109.032 966.238 109.256 965.619 109.256C965 109.256 964.467 109.032 964.019 108.584ZM976.16 119.784V129H972.576V111.976H976.16V115.08C976.736 114.035 977.526 113.213 978.528 112.616C979.552 112.019 980.651 111.72 981.824 111.72C983.744 111.72 985.291 112.307 986.464 113.48C987.659 114.653 988.256 116.349 988.256 118.568V129H984.672V119.656C984.672 116.52 983.371 114.952 980.768 114.952C979.531 114.952 978.454 115.368 977.536 116.2C976.619 117.011 976.16 118.205 976.16 119.784ZM1009.1 122.056H995.76C995.845 123.293 996.411 124.296 997.456 125.064C998.501 125.811 999.696 126.184 1001.04 126.184C1003.17 126.184 1004.79 125.512 1005.9 124.168L1007.95 126.408C1006.12 128.307 1003.73 129.256 1000.78 129.256C998.395 129.256 996.357 128.467 994.672 126.888C993.008 125.288 992.176 123.155 992.176 120.488C992.176 117.8 993.029 115.667 994.736 114.088C996.443 112.509 998.448 111.72 1000.75 111.72C1003.08 111.72 1005.05 112.424 1006.67 113.832C1008.29 115.219 1009.1 117.139 1009.1 119.592V122.056ZM995.76 119.24H1005.52C1005.52 117.811 1005.07 116.712 1004.18 115.944C1003.28 115.176 1002.17 114.792 1000.85 114.792C999.547 114.792 998.373 115.197 997.328 116.008C996.283 116.797 995.76 117.875 995.76 119.24ZM1025.17 123.912C1025.17 125.533 1024.59 126.835 1023.41 127.816C1022.24 128.776 1020.74 129.256 1018.9 129.256C1017.66 129.256 1016.37 129.032 1015.03 128.584C1013.71 128.136 1012.53 127.507 1011.51 126.696L1013.24 123.912C1015.22 125.405 1017.14 126.152 1019 126.152C1019.81 126.152 1020.45 125.971 1020.92 125.608C1021.39 125.224 1021.62 124.744 1021.62 124.168C1021.62 123.315 1020.49 122.547 1018.23 121.864C1018.06 121.8 1017.93 121.757 1017.85 121.736C1014.3 120.776 1012.53 119.176 1012.53 116.936C1012.53 115.357 1013.14 114.099 1014.36 113.16C1015.59 112.2 1017.19 111.72 1019.16 111.72C1021.12 111.72 1022.98 112.296 1024.73 113.448L1023.38 116.104C1021.99 115.187 1020.49 114.728 1018.87 114.728C1018.02 114.728 1017.32 114.888 1016.79 115.208C1016.26 115.507 1015.99 115.965 1015.99 116.584C1015.99 117.139 1016.27 117.544 1016.82 117.8C1017.21 117.992 1017.74 118.173 1018.42 118.344C1019.13 118.515 1019.74 118.685 1020.28 118.856C1020.81 119.027 1021.32 119.219 1021.81 119.432C1022.33 119.645 1022.87 119.944 1023.45 120.328C1024.6 121.096 1025.17 122.291 1025.17 123.912ZM1050.14 123.912C1050.14 125.533 1049.56 126.835 1048.38 127.816C1047.21 128.776 1045.7 129.256 1043.87 129.256C1042.63 129.256 1041.34 129.032 1040 128.584C1038.68 128.136 1037.5 127.507 1036.48 126.696L1038.21 123.912C1040.19 125.405 1042.11 126.152 1043.97 126.152C1044.78 126.152 1045.42 125.971 1045.89 125.608C1046.36 125.224 1046.59 124.744 1046.59 124.168C1046.59 123.315 1045.46 122.547 1043.2 121.864C1043.03 121.8 1042.9 121.757 1042.81 121.736C1039.27 120.776 1037.5 119.176 1037.5 116.936C1037.5 115.357 1038.11 114.099 1039.33 113.16C1040.56 112.2 1042.16 111.72 1044.13 111.72C1046.09 111.72 1047.94 112.296 1049.69 113.448L1048.35 116.104C1046.96 115.187 1045.46 114.728 1043.84 114.728C1042.98 114.728 1042.29 114.888 1041.76 115.208C1041.22 115.507 1040.96 115.965 1040.96 116.584C1040.96 117.139 1041.24 117.544 1041.79 117.8C1042.17 117.992 1042.71 118.173 1043.39 118.344C1044.09 118.515 1044.71 118.685 1045.25 118.856C1045.78 119.027 1046.29 119.219 1046.78 119.432C1047.29 119.645 1047.84 119.944 1048.41 120.328C1049.57 121.096 1050.14 122.291 1050.14 123.912ZM1058.17 124.52C1059.19 125.544 1060.48 126.056 1062.04 126.056C1063.6 126.056 1064.88 125.544 1065.88 124.52C1066.91 123.475 1067.42 122.131 1067.42 120.488C1067.42 118.845 1066.91 117.512 1065.88 116.488C1064.88 115.443 1063.6 114.92 1062.04 114.92C1060.48 114.92 1059.19 115.443 1058.17 116.488C1057.17 117.512 1056.67 118.845 1056.67 120.488C1056.67 122.131 1057.17 123.475 1058.17 124.52ZM1068.44 126.728C1066.73 128.413 1064.6 129.256 1062.04 129.256C1059.48 129.256 1057.35 128.413 1055.64 126.728C1053.93 125.021 1053.08 122.941 1053.08 120.488C1053.08 118.035 1053.93 115.965 1055.64 114.28C1057.35 112.573 1059.48 111.72 1062.04 111.72C1064.6 111.72 1066.73 112.573 1068.44 114.28C1070.15 115.965 1071 118.035 1071 120.488C1071 122.941 1070.15 125.021 1068.44 126.728ZM1078.66 129H1075.08V111.976H1078.66V129ZM1075.3 108.584C1074.85 108.136 1074.63 107.603 1074.63 106.984C1074.63 106.365 1074.85 105.832 1075.3 105.384C1075.75 104.936 1076.28 104.712 1076.9 104.712C1077.52 104.712 1078.05 104.936 1078.5 105.384C1078.95 105.832 1079.17 106.365 1079.17 106.984C1079.17 107.603 1078.95 108.136 1078.5 108.584C1078.05 109.032 1077.52 109.256 1076.9 109.256C1076.28 109.256 1075.75 109.032 1075.3 108.584ZM1099.7 122.056H1086.35C1086.44 123.293 1087 124.296 1088.05 125.064C1089.09 125.811 1090.29 126.184 1091.63 126.184C1093.77 126.184 1095.39 125.512 1096.5 124.168L1098.55 126.408C1096.71 128.307 1094.32 129.256 1091.38 129.256C1088.99 129.256 1086.95 128.467 1085.27 126.888C1083.6 125.288 1082.77 123.155 1082.77 120.488C1082.77 117.8 1083.62 115.667 1085.33 114.088C1087.04 112.509 1089.04 111.72 1091.35 111.72C1093.67 111.72 1095.64 112.424 1097.27 113.832C1098.89 115.219 1099.7 117.139 1099.7 119.592V122.056ZM1086.35 119.24H1096.11C1096.11 117.811 1095.67 116.712 1094.77 115.944C1093.87 115.176 1092.76 114.792 1091.44 114.792C1090.14 114.792 1088.97 115.197 1087.92 116.008C1086.88 116.797 1086.35 117.875 1086.35 119.24ZM1107.22 119.784V129H1103.64V111.976H1107.22V115.08C1107.8 114.035 1108.59 113.213 1109.59 112.616C1110.61 112.019 1111.71 111.72 1112.89 111.72C1114.81 111.72 1116.35 112.307 1117.53 113.48C1118.72 114.653 1119.32 116.349 1119.32 118.568V129H1115.73V119.656C1115.73 116.52 1114.43 114.952 1111.83 114.952C1110.59 114.952 1109.52 115.368 1108.6 116.2C1107.68 117.011 1107.22 118.205 1107.22 119.784ZM1128.52 114.856V123.496C1128.52 124.307 1128.74 124.957 1129.16 125.448C1129.59 125.917 1130.19 126.152 1130.96 126.152C1131.72 126.152 1132.46 125.779 1133.16 125.032L1134.64 127.56C1133.38 128.691 1131.98 129.256 1130.44 129.256C1128.93 129.256 1127.63 128.733 1126.54 127.688C1125.47 126.621 1124.94 125.192 1124.94 123.4V114.856H1122.8V111.976H1124.94V106.632H1128.52V111.976H1133V114.856H1128.52ZM1155.19 115.336C1153.42 115.336 1152.09 115.912 1151.19 117.064C1150.3 118.216 1149.85 119.763 1149.85 121.704V129H1146.26V111.976H1149.85V115.4C1150.42 114.333 1151.2 113.459 1152.18 112.776C1153.19 112.093 1154.24 111.741 1155.35 111.72L1155.38 115.336C1155.32 115.336 1155.26 115.336 1155.19 115.336ZM1174.82 122.056H1161.48C1161.56 123.293 1162.13 124.296 1163.17 125.064C1164.22 125.811 1165.41 126.184 1166.76 126.184C1168.89 126.184 1170.51 125.512 1171.62 124.168L1173.67 126.408C1171.84 128.307 1169.45 129.256 1166.5 129.256C1164.11 129.256 1162.08 128.467 1160.39 126.888C1158.73 125.288 1157.89 123.155 1157.89 120.488C1157.89 117.8 1158.75 115.667 1160.45 114.088C1162.16 112.509 1164.17 111.72 1166.47 111.72C1168.8 111.72 1170.77 112.424 1172.39 113.832C1174.01 115.219 1174.82 117.139 1174.82 119.592V122.056ZM1161.48 119.24H1171.24C1171.24 117.811 1170.79 116.712 1169.89 115.944C1169 115.176 1167.89 114.792 1166.57 114.792C1165.27 114.792 1164.09 115.197 1163.05 116.008C1162 116.797 1161.48 117.875 1161.48 119.24ZM1182.35 119.784V129H1178.76V111.976H1182.35V115.08C1182.92 114.035 1183.71 113.213 1184.72 112.616C1185.74 112.019 1186.84 111.72 1188.01 111.72C1189.93 111.72 1191.48 112.307 1192.65 113.48C1193.85 114.653 1194.44 116.349 1194.44 118.568V129H1190.86V119.656C1190.86 116.52 1189.56 114.952 1186.96 114.952C1185.72 114.952 1184.64 115.368 1183.72 116.2C1182.81 117.011 1182.35 118.205 1182.35 119.784ZM1203.65 114.856V123.496C1203.65 124.307 1203.86 124.957 1204.29 125.448C1204.72 125.917 1205.31 126.152 1206.08 126.152C1206.85 126.152 1207.58 125.779 1208.29 125.032L1209.76 127.56C1208.5 128.691 1207.1 129.256 1205.57 129.256C1204.05 129.256 1202.75 128.733 1201.66 127.688C1200.6 126.621 1200.06 125.192 1200.06 123.4V114.856H1197.92V111.976H1200.06V106.632H1203.65V111.976H1208.13V114.856H1203.65ZM1226.4 129H1223.14V126.728C1221.73 128.413 1219.84 129.256 1217.47 129.256C1215.7 129.256 1214.23 128.755 1213.06 127.752C1211.9 126.749 1211.33 125.416 1211.33 123.752C1211.33 122.067 1211.95 120.808 1213.18 119.976C1214.42 119.144 1216.1 118.728 1218.21 118.728H1222.85V118.088C1222.85 115.827 1221.59 114.696 1219.07 114.696C1217.49 114.696 1215.85 115.272 1214.14 116.424L1212.54 114.184C1214.61 112.541 1216.96 111.72 1219.58 111.72C1221.59 111.72 1223.22 112.232 1224.48 113.256C1225.76 114.259 1226.4 115.848 1226.4 118.024V129ZM1222.82 122.664V121.224H1218.78C1216.2 121.224 1214.91 122.035 1214.91 123.656C1214.91 124.488 1215.23 125.128 1215.87 125.576C1216.51 126.003 1217.4 126.216 1218.53 126.216C1219.68 126.216 1220.68 125.896 1221.54 125.256C1222.39 124.616 1222.82 123.752 1222.82 122.664ZM1240.51 111.72C1242.79 111.72 1244.74 112.509 1246.36 114.088C1247.99 115.667 1248.8 117.768 1248.8 120.392C1248.8 123.016 1247.99 125.149 1246.36 126.792C1244.76 128.435 1242.89 129.256 1240.73 129.256C1238.6 129.256 1236.68 128.317 1234.97 126.44V129H1231.39V105.256H1234.97V114.952C1236.38 112.797 1238.23 111.72 1240.51 111.72ZM1234.91 120.52C1234.91 122.141 1235.4 123.475 1236.38 124.52C1237.36 125.544 1238.56 126.056 1239.96 126.056C1241.37 126.056 1242.6 125.544 1243.64 124.52C1244.69 123.496 1245.21 122.173 1245.21 120.552C1245.21 118.909 1244.7 117.555 1243.68 116.488C1242.65 115.4 1241.43 114.856 1240 114.856C1238.57 114.856 1237.36 115.4 1236.38 116.488C1235.4 117.555 1234.91 118.899 1234.91 120.52ZM1256.47 129H1252.89V105.256H1256.47V129ZM1277.51 122.056H1264.17C1264.25 123.293 1264.82 124.296 1265.86 125.064C1266.91 125.811 1268.1 126.184 1269.45 126.184C1271.58 126.184 1273.2 125.512 1274.31 124.168L1276.36 126.408C1274.52 128.307 1272.13 129.256 1269.19 129.256C1266.8 129.256 1264.76 128.467 1263.08 126.888C1261.41 125.288 1260.58 123.155 1260.58 120.488C1260.58 117.8 1261.44 115.667 1263.14 114.088C1264.85 112.509 1266.85 111.72 1269.16 111.72C1271.48 111.72 1273.46 112.424 1275.08 113.832C1276.7 115.219 1277.51 117.139 1277.51 119.592V122.056ZM1264.17 119.24H1273.93C1273.93 117.811 1273.48 116.712 1272.58 115.944C1271.69 115.176 1270.58 114.792 1269.25 114.792C1267.95 114.792 1266.78 115.197 1265.73 116.008C1264.69 116.797 1264.17 117.875 1264.17 119.24ZM1293.58 123.912C1293.58 125.533 1292.99 126.835 1291.82 127.816C1290.65 128.776 1289.14 129.256 1287.31 129.256C1286.07 129.256 1284.78 129.032 1283.44 128.584C1282.11 128.136 1280.94 127.507 1279.92 126.696L1281.64 123.912C1283.63 125.405 1285.55 126.152 1287.4 126.152C1288.21 126.152 1288.85 125.971 1289.32 125.608C1289.79 125.224 1290.03 124.744 1290.03 124.168C1290.03 123.315 1288.9 122.547 1286.64 121.864C1286.46 121.8 1286.34 121.757 1286.25 121.736C1282.71 120.776 1280.94 119.176 1280.94 116.936C1280.94 115.357 1281.55 114.099 1282.76 113.16C1284 112.2 1285.6 111.72 1287.56 111.72C1289.53 111.72 1291.38 112.296 1293.13 113.448L1291.79 116.104C1290.4 115.187 1288.9 114.728 1287.28 114.728C1286.42 114.728 1285.73 114.888 1285.2 115.208C1284.66 115.507 1284.4 115.965 1284.4 116.584C1284.4 117.139 1284.67 117.544 1285.23 117.8C1285.61 117.992 1286.14 118.173 1286.83 118.344C1287.53 118.515 1288.15 118.685 1288.68 118.856C1289.22 119.027 1289.73 119.219 1290.22 119.432C1290.73 119.645 1291.28 119.944 1291.85 120.328C1293 121.096 1293.58 122.291 1293.58 123.912Z" fill="black"/>
</svg>
