<svg width="1500" height="760" viewBox="0 0 1500 760" fill="none" xmlns="http://www.w3.org/2000/svg">
<g clip-path="url(#clip0_3277_38)">
<rect width="1500" height="760" fill="white"/>
<path d="M146.44 328.752H137.32V331.664H138.76C144.04 331.664 147.464 334.352 147.464 338.416C147.464 343.184 143.848 346.288 138.216 346.288C135.176 346.288 131.656 345.136 129.256 343.376L131.88 338.352C133.544 340.304 135.432 341.296 137.448 341.296C139.304 341.296 140.328 340.432 140.296 338.864C140.296 337.392 139.304 336.624 137.448 336.624C136.392 336.624 132.552 336.656 131.208 336.688V323.568H146.44V328.752ZM159.513 332.528L160.505 332.752C163.513 333.328 165.689 335.504 165.689 338.896C165.689 343.248 162.265 346.288 156.921 346.288C153.657 346.288 150.297 345.136 148.152 343.44L150.809 338.384C152.505 340.336 154.393 341.328 156.377 341.328C158.201 341.328 159.193 340.496 159.161 338.96C159.161 337.392 158.201 336.624 156.345 336.624H152.505V333.104L157.081 328.56H149.305V323.632H164.665V327.376L159.513 332.528ZM176.581 323.28C181.093 323.28 184.453 325.68 184.453 329.264C184.453 331.792 182.629 334.288 180.165 336.816L176.261 340.816H184.933V346H167.749V341.776L175.621 333.52C176.677 332.4 177.509 331.12 177.509 330.224C177.509 329.232 176.805 328.688 175.557 328.688C173.797 328.688 171.589 329.776 169.477 331.536L166.981 326.736C170.021 324.592 173.189 323.28 176.581 323.28ZM218.284 328.336C221.964 328.336 224.46 330.928 224.46 334.96V346H217.996V336.816C217.996 335.088 217.036 334 215.596 334C213.932 334.032 212.876 335.408 212.876 337.392V346H206.412V336.816C206.412 335.088 205.452 334 204.012 334C202.316 334.032 201.26 335.408 201.26 337.392V346H194.796V328.592H201.26V331.248C202.444 329.36 204.3 328.336 206.668 328.336C209.388 328.336 211.468 329.744 212.396 332.112C213.516 329.68 215.564 328.336 218.284 328.336ZM231.154 320.304C233.106 320.304 234.482 321.68 234.482 323.632C234.482 325.584 233.106 326.96 231.154 326.96C229.202 326.96 227.826 325.584 227.826 323.632C227.826 321.68 229.202 320.304 231.154 320.304ZM234.354 346H227.89V328.592H234.354V346ZM246.041 328.368C249.689 328.368 252.601 330.032 254.073 332.912L249.113 335.344C248.505 334.256 247.545 333.616 246.329 333.616C244.601 333.616 243.449 335.12 243.449 337.328C243.449 339.6 244.601 341.104 246.329 341.104C247.577 341.104 248.537 340.496 249.081 339.184L254.105 341.712C252.76 344.592 249.817 346.224 245.977 346.224C240.505 346.224 236.921 342.704 236.921 337.36C236.921 331.952 240.536 328.368 246.041 328.368ZM262.697 328.592V331.344C263.913 329.424 265.801 328.336 268.169 328.336V334.16C264.841 333.744 262.697 335.152 262.697 337.68V346H256.233V328.592H262.697ZM278.804 328.368C284.66 328.368 288.468 331.888 288.468 337.296C288.468 342.672 284.66 346.224 278.804 346.224C272.948 346.224 269.108 342.672 269.108 337.296C269.108 331.888 272.948 328.368 278.804 328.368ZM278.804 333.488C276.884 333.488 275.636 335.056 275.636 337.36C275.636 339.696 276.884 341.232 278.804 341.232C280.692 341.232 281.94 339.696 281.94 337.36C281.94 335.056 280.692 333.488 278.804 333.488ZM302.407 328.368C307.271 328.368 310.471 331.952 310.471 337.392C310.471 342.736 307.367 346.224 302.567 346.224C300.519 346.224 298.823 345.424 297.639 343.984V352.208H291.174V328.592H297.639V330.608C298.791 329.168 300.455 328.368 302.407 328.368ZM300.775 341.104C302.695 341.104 303.943 339.536 303.943 337.232C303.943 334.928 302.695 333.36 300.775 333.36C298.919 333.36 297.639 334.928 297.639 337.232C297.639 339.536 298.919 341.104 300.775 341.104ZM319.67 346H313.206V322.256H319.67V346ZM331.957 328.336C336.853 328.336 339.765 330.672 339.765 334.704V346H333.429V344.08C332.373 345.488 330.645 346.288 328.341 346.288C324.629 346.288 322.453 344.08 322.453 340.816C322.453 337.456 324.789 335.6 329.173 335.536H333.429V335.472C333.429 334.032 332.405 333.168 330.421 333.168C329.045 333.168 327.093 333.584 325.173 334.416L323.573 330.128C326.421 328.976 329.237 328.336 331.957 328.336ZM330.485 342.064C331.797 342.064 332.949 341.36 333.429 340.272V338.704H330.485C329.205 338.704 328.533 339.248 328.533 340.336C328.533 341.424 329.237 342.064 330.485 342.064ZM349.954 328.304C352.578 328.304 355.234 329.04 357.602 330.416L355.458 334.48C353.09 333.264 351.138 332.656 349.762 332.656C348.962 332.656 348.45 332.944 348.45 333.488C348.45 335.44 357.538 334.576 357.538 340.528C357.538 344.112 354.434 346.288 349.89 346.288C346.818 346.288 343.97 345.456 341.698 343.824L343.682 339.76C345.858 341.168 348.066 341.904 349.986 341.904C350.85 341.904 351.426 341.648 351.426 341.104C351.426 339.12 342.53 340.08 342.53 334.128C342.53 330.48 345.57 328.304 349.954 328.304ZM371.079 340.72L372.231 345.168C371.015 345.872 369.159 346.288 367.399 346.288C363.687 346.32 361.191 344.176 361.191 340.56V333.616H358.791V329.488H361.191V324.656H367.623V329.488H371.911V333.616H367.623V339.568C367.623 340.688 368.199 341.232 369.095 341.232C369.607 341.232 370.311 341.008 371.079 340.72ZM377.966 320.304C379.918 320.304 381.294 321.68 381.294 323.632C381.294 325.584 379.918 326.96 377.966 326.96C376.014 326.96 374.638 325.584 374.638 323.632C374.638 321.68 376.014 320.304 377.966 320.304ZM381.166 346H374.702V328.592H381.166V346ZM403.029 328.592V352.208H396.565V344.016C395.413 345.424 393.781 346.224 391.797 346.224C386.933 346.224 383.733 342.672 383.733 337.2C383.733 331.856 386.869 328.368 391.637 328.368C393.685 328.368 395.381 329.168 396.565 330.608V328.592H403.029ZM393.429 341.264C395.317 341.264 396.565 339.696 396.565 337.36C396.565 335.056 395.317 333.488 393.429 333.488C391.509 333.488 390.261 335.056 390.261 337.36C390.261 339.696 391.509 341.264 393.429 341.264ZM424.58 328.592V346H418.116V343.408C416.932 345.264 415.108 346.288 412.772 346.288C409.124 346.288 406.628 343.696 406.628 339.632V328.592H413.092V337.808C413.092 339.504 414.02 340.592 415.428 340.592C417.092 340.56 418.116 339.184 418.116 337.2V328.592H424.58ZM436.323 328.368C442.435 328.368 445.763 332.464 445.379 338.864H433.667C434.179 340.528 435.395 341.456 437.059 341.456C438.435 341.456 439.747 340.848 440.899 339.792L444.259 343.088C442.435 345.104 439.811 346.224 436.515 346.224C430.691 346.224 427.139 342.704 427.139 337.36C427.139 331.92 430.819 328.368 436.323 328.368ZM433.539 335.696H439.011C439.043 333.968 437.955 332.752 436.387 332.752C434.883 332.752 433.859 333.936 433.539 335.696ZM454.735 328.304C457.359 328.304 460.015 329.04 462.383 330.416L460.239 334.48C457.871 333.264 455.919 332.656 454.543 332.656C453.743 332.656 453.231 332.944 453.231 333.488C453.231 335.44 462.319 334.576 462.319 340.528C462.319 344.112 459.215 346.288 454.671 346.288C451.599 346.288 448.751 345.456 446.479 343.824L448.463 339.76C450.639 341.168 452.847 341.904 454.767 341.904C455.631 341.904 456.207 341.648 456.207 341.104C456.207 339.12 447.311 340.08 447.311 334.128C447.311 330.48 450.351 328.304 454.735 328.304ZM483.5 328.368C488.364 328.368 491.564 331.952 491.564 337.392C491.564 342.736 488.46 346.224 483.66 346.224C481.612 346.224 479.916 345.424 478.732 343.984V352.208H472.268V328.592H478.732V330.608C479.884 329.168 481.548 328.368 483.5 328.368ZM481.868 341.104C483.788 341.104 485.036 339.536 485.036 337.232C485.036 334.928 483.788 333.36 481.868 333.36C480.012 333.36 478.732 334.928 478.732 337.232C478.732 339.536 480.012 341.104 481.868 341.104ZM502.332 328.336C507.228 328.336 510.14 330.672 510.14 334.704V346H503.804V344.08C502.748 345.488 501.02 346.288 498.716 346.288C495.004 346.288 492.828 344.08 492.828 340.816C492.828 337.456 495.164 335.6 499.548 335.536H503.804V335.472C503.804 334.032 502.78 333.168 500.796 333.168C499.42 333.168 497.468 333.584 495.548 334.416L493.948 330.128C496.796 328.976 499.612 328.336 502.332 328.336ZM500.86 342.064C502.172 342.064 503.324 341.36 503.804 340.272V338.704H500.86C499.58 338.704 498.908 339.248 498.908 340.336C498.908 341.424 499.612 342.064 500.86 342.064ZM520.041 328.592V331.344C521.257 329.424 523.145 328.336 525.513 328.336V334.16C522.185 333.744 520.041 335.152 520.041 337.68V346H513.577V328.592H520.041ZM541.548 328.304C544.172 328.304 546.828 329.04 549.196 330.416L547.052 334.48C544.684 333.264 542.732 332.656 541.356 332.656C540.556 332.656 540.044 332.944 540.044 333.488C540.044 335.44 549.132 334.576 549.132 340.528C549.132 344.112 546.028 346.288 541.484 346.288C538.412 346.288 535.564 345.456 533.292 343.824L535.276 339.76C537.452 341.168 539.66 341.904 541.58 341.904C542.444 341.904 543.02 341.648 543.02 341.104C543.02 339.12 534.124 340.08 534.124 334.128C534.124 330.48 537.164 328.304 541.548 328.304ZM560.113 328.336C565.009 328.336 567.921 330.672 567.921 334.704V346H561.585V344.08C560.529 345.488 558.801 346.288 556.497 346.288C552.785 346.288 550.609 344.08 550.609 340.816C550.609 337.456 552.945 335.6 557.329 335.536H561.585V335.472C561.585 334.032 560.561 333.168 558.577 333.168C557.201 333.168 555.249 333.584 553.329 334.416L551.729 330.128C554.577 328.976 557.393 328.336 560.113 328.336ZM558.641 342.064C559.953 342.064 561.105 341.36 561.585 340.272V338.704H558.641C557.361 338.704 556.689 339.248 556.689 340.336C556.689 341.424 557.393 342.064 558.641 342.064ZM588.83 328.592V346H582.366V343.408C581.182 345.264 579.358 346.288 577.022 346.288C573.374 346.288 570.878 343.696 570.878 339.632V328.592H577.342V337.808C577.342 339.504 578.27 340.592 579.678 340.592C581.342 340.56 582.366 339.184 582.366 337.2V328.592H588.83ZM616.221 328.336C619.901 328.336 622.397 330.928 622.397 334.96V346H615.933V336.816C615.933 335.088 614.973 334 613.533 334C611.869 334.032 610.813 335.408 610.813 337.392V346H604.349V336.816C604.349 335.088 603.389 334 601.949 334C600.253 334.032 599.197 335.408 599.197 337.392V346H592.733V328.592H599.197V331.248C600.381 329.36 602.237 328.336 604.605 328.336C607.325 328.336 609.405 329.744 610.333 332.112C611.453 329.68 613.501 328.336 616.221 328.336ZM634.179 328.368C640.035 328.368 643.843 331.888 643.843 337.296C643.843 342.672 640.035 346.224 634.179 346.224C628.323 346.224 624.483 342.672 624.483 337.296C624.483 331.888 628.323 328.368 634.179 328.368ZM634.179 333.488C632.259 333.488 631.011 335.056 631.011 337.36C631.011 339.696 632.259 341.232 634.179 341.232C636.067 341.232 637.315 339.696 637.315 337.36C637.315 335.056 636.067 333.488 634.179 333.488ZM658.39 328.336C662.102 328.336 664.662 330.928 664.662 334.96V346H658.198V336.816C658.198 335.088 657.206 334 655.702 334C653.942 334.032 652.854 335.408 652.854 337.392V346H646.39V328.592H652.854V331.28C654.07 329.36 655.958 328.336 658.39 328.336ZM670.189 340.24C671.981 340.24 673.229 341.456 673.229 343.216C673.229 345.008 671.981 346.256 670.189 346.256C668.429 346.256 667.181 345.008 667.181 343.216C667.181 341.456 668.429 340.24 670.189 340.24ZM135.432 383.368C134.579 386.013 134.152 388.563 134.152 391.016C134.152 393.469 134.579 396.029 135.432 398.696C136.285 401.341 137.331 403.528 138.568 405.256H134.76C133.715 403.805 132.755 401.736 131.88 399.048C131.027 396.36 130.6 393.683 130.6 391.016C130.6 388.349 131.027 385.672 131.88 382.984C132.755 380.296 133.715 378.227 134.76 376.776H138.568C137.331 378.504 136.285 380.701 135.432 383.368ZM149.137 381.576C148.049 381.576 147.153 381.8 146.449 382.248C145.745 382.696 145.393 383.379 145.393 384.296C145.393 385.192 145.745 385.885 146.449 386.376C147.153 386.845 148.647 387.357 150.929 387.912C153.233 388.467 154.961 389.245 156.113 390.248C157.287 391.251 157.873 392.733 157.873 394.696C157.873 396.637 157.137 398.216 155.665 399.432C154.193 400.648 152.263 401.256 149.873 401.256C146.375 401.256 143.271 400.051 140.561 397.64L142.929 394.792C145.191 396.755 147.537 397.736 149.969 397.736C151.185 397.736 152.145 397.48 152.849 396.968C153.575 396.435 153.937 395.741 153.937 394.888C153.937 394.013 153.596 393.341 152.913 392.872C152.252 392.381 151.1 391.944 149.457 391.56C147.815 391.155 146.567 390.792 145.713 390.472C144.86 390.131 144.103 389.693 143.441 389.16C142.119 388.157 141.457 386.621 141.457 384.552C141.457 382.483 142.204 380.893 143.697 379.784C145.212 378.653 147.079 378.088 149.297 378.088C150.727 378.088 152.145 378.323 153.553 378.792C154.961 379.261 156.177 379.923 157.201 380.776L155.185 383.624C154.524 383.027 153.628 382.536 152.497 382.152C151.367 381.768 150.247 381.576 149.137 381.576ZM165.998 396.52C167.022 397.544 168.312 398.056 169.87 398.056C171.427 398.056 172.707 397.544 173.71 396.52C174.734 395.475 175.246 394.131 175.246 392.488C175.246 390.845 174.734 389.512 173.71 388.488C172.707 387.443 171.427 386.92 169.87 386.92C168.312 386.92 167.022 387.443 165.998 388.488C164.995 389.512 164.494 390.845 164.494 392.488C164.494 394.131 164.995 395.475 165.998 396.52ZM176.27 398.728C174.563 400.413 172.43 401.256 169.87 401.256C167.31 401.256 165.176 400.413 163.47 398.728C161.763 397.021 160.91 394.941 160.91 392.488C160.91 390.035 161.763 387.965 163.47 386.28C165.176 384.573 167.31 383.72 169.87 383.72C172.43 383.72 174.563 384.573 176.27 386.28C177.976 387.965 178.83 390.035 178.83 392.488C178.83 394.941 177.976 397.021 176.27 398.728ZM191.833 387.336C190.062 387.336 188.729 387.912 187.833 389.064C186.937 390.216 186.489 391.763 186.489 393.704V401H182.905V383.976H186.489V387.4C187.065 386.333 187.843 385.459 188.825 384.776C189.827 384.093 190.883 383.741 191.993 383.72L192.025 387.336C191.961 387.336 191.897 387.336 191.833 387.336ZM204.551 387.336C202.781 387.336 201.447 387.912 200.551 389.064C199.655 390.216 199.207 391.763 199.207 393.704V401H195.623V383.976H199.207V387.4C199.783 386.333 200.562 385.459 201.543 384.776C202.546 384.093 203.602 383.741 204.711 383.72L204.743 387.336C204.679 387.336 204.615 387.336 204.551 387.336ZM210.486 407.784C208.929 407.784 207.521 407.219 206.262 406.088L207.894 403.176C208.641 403.88 209.409 404.232 210.198 404.232C211.009 404.232 211.659 403.944 212.15 403.368C212.662 402.792 212.918 402.163 212.918 401.48C212.918 401.181 210.625 395.347 206.038 383.976H209.878L214.966 396.52L220.054 383.976H223.894L215.638 404.2C215.147 405.309 214.443 406.184 213.526 406.824C212.609 407.464 211.595 407.784 210.486 407.784ZM226.237 398.92C226.237 398.237 226.472 397.672 226.941 397.224C227.41 396.755 227.965 396.52 228.605 396.52C229.245 396.52 229.8 396.755 230.269 397.224C230.76 397.672 231.005 398.216 231.005 398.856C231.005 399.496 230.717 400.275 230.141 401.192L228.221 404.36H226.365L227.549 401.032C226.674 400.627 226.237 399.923 226.237 398.92ZM248.466 396.52C249.49 397.544 250.781 398.056 252.338 398.056C253.896 398.056 255.176 397.544 256.178 396.52C257.202 395.475 257.714 394.131 257.714 392.488C257.714 390.845 257.202 389.512 256.178 388.488C255.176 387.443 253.896 386.92 252.338 386.92C250.781 386.92 249.49 387.443 248.466 388.488C247.464 389.512 246.962 390.845 246.962 392.488C246.962 394.131 247.464 395.475 248.466 396.52ZM258.738 398.728C257.032 400.413 254.898 401.256 252.338 401.256C249.778 401.256 247.645 400.413 245.938 398.728C244.232 397.021 243.378 394.941 243.378 392.488C243.378 390.035 244.232 387.965 245.938 386.28C247.645 384.573 249.778 383.72 252.338 383.72C254.898 383.72 257.032 384.573 258.738 386.28C260.445 387.965 261.298 390.035 261.298 392.488C261.298 394.941 260.445 397.021 258.738 398.728ZM268.957 391.784V401H265.373V383.976H268.957V387.08C269.533 386.035 270.323 385.213 271.325 384.616C272.349 384.019 273.448 383.72 274.621 383.72C276.541 383.72 278.088 384.307 279.261 385.48C280.456 386.653 281.053 388.349 281.053 390.568V401H277.469V391.656C277.469 388.52 276.168 386.952 273.565 386.952C272.328 386.952 271.251 387.368 270.333 388.2C269.416 389.011 268.957 390.205 268.957 391.784ZM298.426 391.784V401H294.842V383.976H298.426V387.08C299.002 386.035 299.791 385.213 300.794 384.616C301.818 384.019 302.917 383.72 304.09 383.72C306.01 383.72 307.557 384.307 308.73 385.48C309.925 386.653 310.522 388.349 310.522 390.568V401H306.938V391.656C306.938 388.52 305.637 386.952 303.034 386.952C301.797 386.952 300.719 387.368 299.802 388.2C298.885 389.011 298.426 390.205 298.426 391.784ZM315.402 386.504V378.632H317.898V386.504H315.402ZM338.807 394.056H325.463C325.548 395.293 326.114 396.296 327.159 397.064C328.204 397.811 329.399 398.184 330.743 398.184C332.876 398.184 334.498 397.512 335.607 396.168L337.655 398.408C335.82 400.307 333.431 401.256 330.487 401.256C328.098 401.256 326.06 400.467 324.375 398.888C322.711 397.288 321.879 395.155 321.879 392.488C321.879 389.8 322.732 387.667 324.439 386.088C326.146 384.509 328.151 383.72 330.455 383.72C332.78 383.72 334.754 384.424 336.375 385.832C337.996 387.219 338.807 389.139 338.807 391.592V394.056ZM325.463 391.24H335.223C335.223 389.811 334.775 388.712 333.879 387.944C332.983 387.176 331.874 386.792 330.551 386.792C329.25 386.792 328.076 387.197 327.031 388.008C325.986 388.797 325.463 389.875 325.463 391.24ZM346.332 391.784V401H342.748V383.976H346.332V387.08C346.908 386.035 347.698 385.213 348.7 384.616C349.724 384.019 350.823 383.72 351.996 383.72C353.916 383.72 355.463 384.307 356.636 385.48C357.831 386.653 358.428 388.349 358.428 390.568V401H354.844V391.656C354.844 388.52 353.543 386.952 350.94 386.952C349.703 386.952 348.626 387.368 347.708 388.2C346.791 389.011 346.332 390.205 346.332 391.784ZM386.009 401H382.745V398.728C381.337 400.413 379.449 401.256 377.081 401.256C375.31 401.256 373.838 400.755 372.665 399.752C371.513 398.749 370.937 397.416 370.937 395.752C370.937 394.067 371.556 392.808 372.793 391.976C374.03 391.144 375.705 390.728 377.817 390.728H382.457V390.088C382.457 387.827 381.198 386.696 378.681 386.696C377.102 386.696 375.46 387.272 373.753 388.424L372.153 386.184C374.222 384.541 376.569 383.72 379.193 383.72C381.198 383.72 382.83 384.232 384.089 385.256C385.369 386.259 386.009 387.848 386.009 390.024V401ZM382.425 394.664V393.224H378.393C375.812 393.224 374.521 394.035 374.521 395.656C374.521 396.488 374.841 397.128 375.481 397.576C376.121 398.003 377.006 398.216 378.137 398.216C379.289 398.216 380.292 397.896 381.145 397.256C381.998 396.616 382.425 395.752 382.425 394.664ZM403.364 391.784V401H399.78V383.976H403.364V387.08C403.876 386.035 404.644 385.213 405.668 384.616C406.713 384.019 407.833 383.72 409.028 383.72C411.716 383.72 413.54 384.829 414.5 387.048C416.185 384.829 418.286 383.72 420.804 383.72C422.724 383.72 424.27 384.307 425.444 385.48C426.638 386.653 427.236 388.349 427.236 390.568V401H423.652V391.656C423.652 388.52 422.35 386.952 419.748 386.952C418.532 386.952 417.465 387.347 416.548 388.136C415.652 388.904 415.182 390.035 415.14 391.528V401H411.556V391.656C411.556 390.035 411.268 388.851 410.692 388.104C410.116 387.336 409.209 386.952 407.972 386.952C406.734 386.952 405.657 387.368 404.74 388.2C403.822 389.011 403.364 390.205 403.364 391.784ZM435.801 401H432.217V383.976H435.801V401ZM432.441 380.584C431.993 380.136 431.769 379.603 431.769 378.984C431.769 378.365 431.993 377.832 432.441 377.384C432.889 376.936 433.422 376.712 434.041 376.712C434.66 376.712 435.193 376.936 435.641 377.384C436.089 377.832 436.313 378.365 436.313 378.984C436.313 379.603 436.089 380.136 435.641 380.584C435.193 381.032 434.66 381.256 434.041 381.256C433.422 381.256 432.889 381.032 432.441 380.584ZM453.126 395.912C453.126 397.533 452.54 398.835 451.366 399.816C450.193 400.776 448.689 401.256 446.854 401.256C445.617 401.256 444.326 401.032 442.982 400.584C441.66 400.136 440.486 399.507 439.462 398.696L441.19 395.912C443.174 397.405 445.094 398.152 446.95 398.152C447.761 398.152 448.401 397.971 448.87 397.608C449.34 397.224 449.574 396.744 449.574 396.168C449.574 395.315 448.444 394.547 446.182 393.864C446.012 393.8 445.884 393.757 445.798 393.736C442.257 392.776 440.486 391.176 440.486 388.936C440.486 387.357 441.094 386.099 442.31 385.16C443.548 384.2 445.148 383.72 447.11 383.72C449.073 383.72 450.929 384.296 452.678 385.448L451.334 388.104C449.948 387.187 448.444 386.728 446.822 386.728C445.969 386.728 445.276 386.888 444.742 387.208C444.209 387.507 443.942 387.965 443.942 388.584C443.942 389.139 444.22 389.544 444.774 389.8C445.158 389.992 445.692 390.173 446.374 390.344C447.078 390.515 447.697 390.685 448.23 390.856C448.764 391.027 449.276 391.219 449.766 391.432C450.278 391.645 450.822 391.944 451.398 392.328C452.55 393.096 453.126 394.291 453.126 395.912ZM472.911 401.256C470.778 401.256 468.9 400.435 467.279 398.792C465.679 397.149 464.879 395.016 464.879 392.392C464.879 389.768 465.69 387.667 467.311 386.088C468.932 384.509 470.884 383.72 473.167 383.72C475.45 383.72 477.295 384.797 478.703 386.952V383.976H482.287V407.208H478.703V398.44C476.996 400.317 475.066 401.256 472.911 401.256ZM468.463 392.552C468.463 394.173 468.986 395.496 470.031 396.52C471.076 397.544 472.303 398.056 473.711 398.056C475.119 398.056 476.314 397.544 477.295 396.52C478.276 395.475 478.767 394.141 478.767 392.52C478.767 390.899 478.276 389.555 477.295 388.488C476.314 387.4 475.108 386.856 473.679 386.856C472.25 386.856 471.023 387.4 469.999 388.488C468.975 389.555 468.463 390.909 468.463 392.552ZM499.371 393.192V383.976H502.955V401H499.371V397.896C498.795 398.941 497.995 399.763 496.971 400.36C495.968 400.957 494.88 401.256 493.707 401.256C491.787 401.256 490.23 400.669 489.035 399.496C487.862 398.323 487.275 396.627 487.275 394.408V383.976H490.859V393.32C490.859 396.456 492.16 398.024 494.763 398.024C496 398.024 497.078 397.619 497.995 396.808C498.912 395.976 499.371 394.771 499.371 393.192ZM523.995 394.056H510.651C510.736 395.293 511.301 396.296 512.347 397.064C513.392 397.811 514.587 398.184 515.931 398.184C518.064 398.184 519.685 397.512 520.795 396.168L522.843 398.408C521.008 400.307 518.619 401.256 515.675 401.256C513.285 401.256 511.248 400.467 509.562 398.888C507.899 397.288 507.067 395.155 507.067 392.488C507.067 389.8 507.92 387.667 509.627 386.088C511.333 384.509 513.339 383.72 515.643 383.72C517.968 383.72 519.941 384.424 521.562 385.832C523.184 387.219 523.995 389.139 523.995 391.592V394.056ZM510.651 391.24H520.411C520.411 389.811 519.963 388.712 519.067 387.944C518.171 387.176 517.061 386.792 515.739 386.792C514.437 386.792 513.264 387.197 512.219 388.008C511.173 388.797 510.651 389.875 510.651 391.24ZM536.589 381.992V378.632H549.677V381.576L544.269 387.624C546.317 387.688 547.917 388.339 549.069 389.576C550.221 390.792 550.797 392.253 550.797 393.96C550.797 396.243 550.018 398.035 548.461 399.336C546.925 400.637 544.941 401.288 542.509 401.288C540.077 401.288 537.698 400.509 535.373 398.952L536.973 395.912C538.808 397.192 540.728 397.832 542.733 397.832C544.034 397.832 545.101 397.533 545.933 396.936C546.786 396.317 547.213 395.443 547.213 394.312C547.213 393.16 546.744 392.243 545.805 391.56C544.866 390.877 543.565 390.536 541.901 390.536C541.069 390.536 540.269 390.653 539.501 390.888V388.008L544.685 381.992H536.589ZM559.473 383.624C558.598 385.16 558.161 387.176 558.161 389.672C558.161 392.168 558.598 394.184 559.473 395.72C560.369 397.256 561.756 398.024 563.633 398.024C565.51 398.024 566.876 397.267 567.729 395.752C568.604 394.216 569.041 392.189 569.041 389.672C569.041 387.155 568.604 385.139 567.729 383.624C566.876 382.088 565.51 381.32 563.633 381.32C561.756 381.32 560.369 382.088 559.473 383.624ZM556.785 398.12C555.27 396.008 554.513 393.192 554.513 389.672C554.513 386.152 555.27 383.347 556.785 381.256C558.3 379.144 560.582 378.088 563.633 378.088C566.684 378.088 568.966 379.144 570.481 381.256C571.996 383.347 572.753 386.152 572.753 389.672C572.753 393.192 571.996 396.008 570.481 398.12C568.966 400.211 566.684 401.256 563.633 401.256C560.582 401.256 558.3 400.211 556.785 398.12ZM578.255 398.696C579.108 396.029 579.535 393.469 579.535 391.016C579.535 388.563 579.108 386.013 578.255 383.368C577.401 380.701 576.356 378.504 575.118 376.776H578.927C579.972 378.227 580.921 380.296 581.775 382.984C582.649 385.672 583.087 388.349 583.087 391.016C583.087 393.683 582.649 396.36 581.775 399.048C580.921 401.736 579.972 403.805 578.927 405.256H575.118C576.356 403.528 577.401 401.341 578.255 398.696Z" fill="black"/>
<g clip-path="url(#clip1_3277_38)">
<path opacity="0.2" d="M1117.76 365.618C1118.1 375.53 1117.43 385.426 1116.35 395.254C1112.73 428.212 1104.35 459.97 1091.28 490.437C1080.86 514.714 1066.97 536.904 1050.06 557.173C1019.94 593.292 983.94 621.906 941.323 641.94C908.788 657.236 874.714 665.438 838.59 663.509C809.294 661.941 780.759 657.052 754.626 642.653C740.911 635.097 728.945 625.562 720.745 611.868C718.243 607.691 716.578 603.247 715.85 598.408C714.712 590.852 717.69 586.827 725.222 585.669C739.347 583.506 753.145 580.034 766.517 574.927C814.281 556.687 845.226 522.279 862.238 474.62C870.564 451.29 875.233 427.239 876.471 402.424C877.091 390.156 876.513 377.945 876.396 365.71C879.066 367.186 881.718 368.578 884.731 369.408C897.232 372.889 910.119 374.088 922.913 375.161C940.98 376.687 959.13 377.492 977.255 377.836C1001.96 378.306 1026.67 377.836 1051.38 376.478C1065.14 375.723 1078.82 374.499 1092.45 372.629C1101.12 371.438 1110.15 370.968 1117.75 365.626L1117.76 365.618Z" fill="#EBF97B"/>
<path d="M480.042 693.817C480.134 678.923 479.54 658.612 480.971 638.334C482.594 615.239 486.084 592.504 497.991 572.151C515.865 541.6 543.245 525.348 577.762 520.593C598.021 517.801 617.786 521.952 637.543 525.7C650.655 528.191 663.768 530.623 677.198 530.715C736.627 531.126 779.42 501.523 799.487 445.487C809.327 418.014 813.411 389.543 811.419 360.377C810.214 342.707 803.629 326.513 796.123 310.714C784.826 286.956 771.111 264.481 758.902 241.21C740.669 206.458 725.966 170.448 719.079 131.561C715.975 114.051 714.477 96.3985 714.41 78.6283C714.327 55.013 714.536 -60.8495 714.276 -84.4564C714.226 -89.3036 716.142 -91.6517 720.351 -93.0102C728.552 -95.6519 737.029 -96.7253 745.564 -97.2704C765.078 -98.5199 784.55 -98.587 803.771 -94.243C805.085 -93.9495 806.373 -93.5302 807.67 -93.1696C812.248 -91.9033 814.34 -89.5132 814.214 -84.1461C813.796 -65.6547 813.905 45.0923 814.072 63.592C814.189 76.1293 815.938 88.482 820.155 100.348C831.335 131.763 857.183 144.912 889.182 135.604C898.42 132.92 907.332 129.339 916.102 125.482C954.251 108.684 992.994 109.07 1032.11 121.339C1085.63 138.136 1123.93 173.24 1150.76 221.687C1169.94 256.305 1180.65 293.673 1185.23 332.878C1192.19 392.512 1186.28 450.88 1163.25 506.345C1119.97 610.593 1045.9 683.25 938.26 719.554C899.508 732.619 859.451 735.814 818.75 732.116C786.926 729.223 756.375 721.986 727.765 707.377C708.929 697.758 692.185 685.12 676.027 671.594C666.362 663.501 656.923 655.098 645.969 648.691C639.844 645.11 633.35 642.594 626.305 641.32C612.062 638.745 600.958 643.701 592.465 655.023C583.963 666.361 580.54 679.468 579.871 693.397C578.792 715.646 579.185 821.764 579.829 844.012C579.98 849.304 577.879 851.643 573.277 853.061C563.428 856.088 553.295 856.994 543.111 857.556C525.982 858.503 508.928 858.017 492.05 854.553C491.757 854.495 491.456 854.461 491.163 854.394C480.41 851.861 480.025 851.383 480.025 840.372C480.025 821.269 480.025 718.313 480.025 693.8L480.042 693.817ZM983.422 164.091C978.392 163.823 971.129 164.443 963.899 165.928C929.139 173.064 901.985 191.505 882.572 221.167C869.643 240.916 864.731 263.24 863.794 286.461C863.35 297.38 863.476 308.332 864.338 319.31C865.434 333.331 866.547 347.386 867.041 361.433C867.719 380.923 868.187 400.496 865.292 419.868C861.434 445.638 854.397 470.436 842.113 493.64C832.121 512.526 818.842 528.619 802.19 541.735C778.692 560.251 751.447 570.583 722.092 574.449C709.105 576.16 698.879 588.739 701.967 603.498C705.833 622.015 717.498 635.324 731.698 646.611C750.384 661.463 772.224 669.623 795.186 674.856C815.645 679.51 836.448 680.76 857.434 680.55C878.906 680.34 899.6 676.332 919.892 669.799C943.657 662.151 965.916 651.324 987.07 638.032C1004.12 627.323 1020.18 615.323 1035 601.779C1046.95 590.86 1058.25 579.221 1068.57 566.675C1083.48 548.561 1096.71 529.357 1107 508.249C1116.4 488.944 1123.89 468.876 1129.53 448.12C1136.65 421.88 1140.89 395.204 1141.85 368.025C1142.47 350.464 1140.71 333.029 1138.29 315.67C1135.08 292.608 1128.09 270.637 1117.48 249.982C1104 223.742 1085.22 202.173 1059.86 186.6C1037.08 172.603 1012.83 163.739 983.422 164.083V164.091ZM529.906 836.565C517.329 836.884 504.736 837.06 492.359 839.693C489.966 840.205 486.05 840.347 486.042 842.88C486.025 845.924 490.025 845.924 492.502 846.335C517.371 850.478 542.274 850.478 567.152 846.36C569.662 845.941 573.729 845.823 573.679 842.972C573.637 840.188 569.545 840.121 567.018 839.601C554.776 837.094 542.341 836.842 529.906 836.557V836.565ZM764.291 -88.5656C751.706 -88.1463 739.079 -88.1211 726.694 -85.3789C724.301 -84.8506 720.494 -84.8002 720.544 -82.0412C720.594 -79.4499 724.385 -79.299 726.795 -78.7706C739.79 -75.9529 753.003 -75.8271 766.208 -75.8523C778.517 -75.8774 790.826 -76.238 802.892 -79.0054C804.951 -79.4751 808.298 -79.6344 808.231 -82.1335C808.173 -84.49 804.892 -84.6828 802.767 -85.1776C790.106 -88.1128 777.178 -88.1547 764.283 -88.5656H764.291Z" fill="#13176F"/>
<path fill-rule="evenodd" clip-rule="evenodd" d="M1053.44 364.066L1092.63 362.54L1127.14 299.451L1045.04 299.191L1002.99 231.247L968.485 294.336L987.991 328.182C969.531 324.467 948.921 330.119 938.879 348.468L874.112 466.872C857.778 496.735 884.764 543.881 900.303 563.731C926.219 564.922 982.024 564.78 1001.34 529.457L1057.1 427.516C1069.16 405.469 1066.44 379.279 1053.44 364.075V364.066Z" stroke="#13176F" stroke-width="10" stroke-miterlimit="10"/>
<path d="M1037.33 400.647C1041.85 400.647 1045.51 396.975 1045.51 392.445C1045.51 387.915 1041.85 384.243 1037.33 384.243C1032.81 384.243 1029.14 387.915 1029.14 392.445C1029.14 396.975 1032.81 400.647 1037.33 400.647Z" fill="#FF3636"/>
<path d="M1035.55 427.063C1040.06 427.063 1043.73 423.391 1043.73 418.861C1043.73 414.332 1040.06 410.66 1035.55 410.66C1031.03 410.66 1027.36 414.332 1027.36 418.861C1027.36 423.391 1031.03 427.063 1035.55 427.063Z" fill="#FF3636"/>
<path d="M1011.2 420.371C1015.72 420.371 1019.39 416.699 1019.39 412.169C1019.39 407.639 1015.72 403.967 1011.2 403.967C1006.68 403.967 1003.02 407.639 1003.02 412.169C1003.02 416.699 1006.68 420.371 1011.2 420.371Z" fill="#FF3636"/>
<path d="M1021.33 464.02C1025.85 464.02 1029.51 460.348 1029.51 455.819C1029.51 451.289 1025.85 447.617 1021.33 447.617C1016.81 447.617 1013.14 451.289 1013.14 455.819C1013.14 460.348 1016.81 464.02 1021.33 464.02Z" fill="#FF3636"/>
<path d="M973.171 422.861C977.691 422.861 981.355 419.189 981.355 414.66C981.355 410.13 977.691 406.458 973.171 406.458C968.651 406.458 964.987 410.13 964.987 414.66C964.987 419.189 968.651 422.861 973.171 422.861Z" fill="#FF3636"/>
<path d="M972.979 490.244C977.499 490.244 981.163 486.572 981.163 482.042C981.163 477.513 977.499 473.841 972.979 473.841C968.459 473.841 964.795 477.513 964.795 482.042C964.795 486.572 968.459 490.244 972.979 490.244Z" fill="#FF3636"/>
<path d="M902.295 456.758C906.814 456.758 910.478 453.086 910.478 448.556C910.478 444.027 906.814 440.355 902.295 440.355C897.775 440.355 894.111 444.027 894.111 448.556C894.111 453.086 897.775 456.758 902.295 456.758Z" fill="#FF3636"/>
<path d="M947.184 450.403C951.704 450.403 955.368 446.731 955.368 442.202C955.368 437.672 951.704 434 947.184 434C942.664 434 939 437.672 939 442.202C939 446.731 942.664 450.403 947.184 450.403Z" fill="#FF3636"/>
<path d="M902.184 493.403C906.704 493.403 910.368 489.731 910.368 485.202C910.368 480.672 906.704 477 902.184 477C897.664 477 894 480.672 894 485.202C894 489.731 897.664 493.403 902.184 493.403Z" fill="#FF3636"/>
<path d="M909.184 518.403C913.704 518.403 917.368 514.731 917.368 510.202C917.368 505.672 913.704 502 909.184 502C904.664 502 901 505.672 901 510.202C901 514.731 904.664 518.403 909.184 518.403Z" fill="#FF3636"/>
<path d="M930.184 436.403C934.704 436.403 938.368 432.731 938.368 428.202C938.368 423.672 934.704 420 930.184 420C925.664 420 922 423.672 922 428.202C922 432.731 925.664 436.403 930.184 436.403Z" fill="#FF3636"/>
<path d="M947.184 417.403C951.704 417.403 955.368 413.731 955.368 409.202C955.368 404.672 951.704 401 947.184 401C942.664 401 939 404.672 939 409.202C939 413.731 942.664 417.403 947.184 417.403Z" fill="#FF3636"/>
<path d="M993.184 461.403C997.704 461.403 1001.37 457.731 1001.37 453.202C1001.37 448.672 997.704 445 993.184 445C988.664 445 985 448.672 985 453.202C985 457.731 988.664 461.403 993.184 461.403Z" fill="#FF3636"/>
<path d="M940.184 473.403C944.704 473.403 948.368 469.731 948.368 465.202C948.368 460.672 944.704 457 940.184 457C935.664 457 932 460.672 932 465.202C932 469.731 935.664 473.403 940.184 473.403Z" fill="#FF3636"/>
<path d="M955.184 523.403C959.704 523.403 963.368 519.731 963.368 515.202C963.368 510.672 959.704 507 955.184 507C950.664 507 947 510.672 947 515.202C947 519.731 950.664 523.403 955.184 523.403Z" fill="#FF3636"/>
<path d="M989.184 509.403C993.704 509.403 997.368 505.731 997.368 501.202C997.368 496.672 993.704 493 989.184 493C984.664 493 981 496.672 981 501.202C981 505.731 984.664 509.403 989.184 509.403Z" fill="#FF3636"/>
<path d="M971.184 453.403C975.704 453.403 979.368 449.731 979.368 445.202C979.368 440.672 975.704 437 971.184 437C966.664 437 963 440.672 963 445.202C963 449.731 966.664 453.403 971.184 453.403Z" fill="#FF3636"/>
<path d="M993.184 392.403C997.704 392.403 1001.37 388.731 1001.37 384.202C1001.37 379.672 997.704 376 993.184 376C988.664 376 985 379.672 985 384.202C985 388.731 988.664 392.403 993.184 392.403Z" fill="#FF3636"/>
<path d="M943.184 393.403C947.704 393.403 951.368 389.731 951.368 385.202C951.368 380.672 947.704 377 943.184 377C938.664 377 935 380.672 935 385.202C935 389.731 938.664 393.403 943.184 393.403Z" fill="#FF3636"/>
<path d="M1013.18 343.403C1017.7 343.403 1021.37 339.731 1021.37 335.202C1021.37 330.672 1017.7 327 1013.18 327C1008.66 327 1005 330.672 1005 335.202C1005 339.731 1008.66 343.403 1013.18 343.403Z" fill="#FF3636"/>
<path d="M1001.18 287.403C1005.7 287.403 1009.37 283.731 1009.37 279.202C1009.37 274.672 1005.7 271 1001.18 271C996.664 271 993 274.672 993 279.202C993 283.731 996.664 287.403 1001.18 287.403Z" fill="#FF3636"/>
<path d="M1037.18 348.403C1041.7 348.403 1045.37 344.731 1045.37 340.202C1045.37 335.672 1041.7 332 1037.18 332C1032.66 332 1029 335.672 1029 340.202C1029 344.731 1032.66 348.403 1037.18 348.403Z" fill="#FF3636"/>
<path d="M1021.18 382.403C1025.7 382.403 1029.37 378.731 1029.37 374.202C1029.37 369.672 1025.7 366 1021.18 366C1016.66 366 1013 369.672 1013 374.202C1013 378.731 1016.66 382.403 1021.18 382.403Z" fill="#FF3636"/>
<path d="M1003.18 311.403C1007.7 311.403 1011.37 307.731 1011.37 303.202C1011.37 298.672 1007.7 295 1003.18 295C998.664 295 995 298.672 995 303.202C995 307.731 998.664 311.403 1003.18 311.403Z" fill="#FF3636"/>
<path d="M966.385 377.375C970.904 377.375 974.568 373.703 974.568 369.174C974.568 364.644 970.904 360.972 966.385 360.972C961.865 360.972 958.201 364.644 958.201 369.174C958.201 373.703 961.865 377.375 966.385 377.375Z" fill="#FF3636"/>
<path d="M1071.99 343.177C1076.51 343.177 1080.17 339.505 1080.17 334.975C1080.17 330.445 1076.51 326.773 1071.99 326.773C1067.47 326.773 1063.8 330.445 1063.8 334.975C1063.8 339.505 1067.47 343.177 1071.99 343.177Z" fill="#FF3636"/>
<path d="M993.103 364.318C997.623 364.318 1001.29 360.646 1001.29 356.116C1001.29 351.587 997.623 347.915 993.103 347.915C988.583 347.915 984.919 351.587 984.919 356.116C984.919 360.646 988.583 364.318 993.103 364.318Z" fill="#FF3636"/>
<path d="M931.633 498.605C936.152 498.605 939.816 494.933 939.816 490.403C939.816 485.873 936.152 482.201 931.633 482.201C927.113 482.201 923.449 485.873 923.449 490.403C923.449 494.933 927.113 498.605 931.633 498.605Z" fill="#FF3636"/>
<path d="M938.57 546.875C943.089 546.875 946.753 543.203 946.753 538.674C946.753 534.144 943.089 530.472 938.57 530.472C934.05 530.472 930.386 534.144 930.386 538.674C930.386 543.203 934.05 546.875 938.57 546.875Z" fill="#FF3636"/>
</g>
</g>
<defs>
<clipPath id="clip0_3277_38">
<rect width="1500" height="760" fill="white"/>
</clipPath>
<clipPath id="clip1_3277_38">
<rect width="708" height="956" fill="white" transform="translate(480 -98)"/>
</clipPath>
</defs>
</svg>
