<svg width="1500" height="1041" viewBox="0 0 1500 1041" fill="none" xmlns="http://www.w3.org/2000/svg">
<rect width="1500" height="1041" fill="white"/>
<path d="M839.487 406L734 643H817.896L924 430.688L839.487 406Z" fill="#EBF97B" stroke="black"/>
<path d="M732.553 647H669L797.558 394L843 406.959L732.553 647Z" fill="#FF3636" stroke="black"/>
<path d="M212.521 60.688H200.841V64.208H211.433V69.328H200.841V72.88H212.841V78H194.185V55.568H212.521V60.688ZM228.093 60.336C231.805 60.336 234.365 62.928 234.365 66.96V78H227.901V68.816C227.901 67.088 226.909 66 225.405 66C223.645 66.032 222.557 67.408 222.557 69.392V78H216.093V60.592H222.557V63.28C223.773 61.36 225.661 60.336 228.093 60.336ZM248.534 78H241.942L235.478 60.592H242.134L245.334 72.112L248.566 60.592H255.03L248.534 78ZM259.95 52.304C261.902 52.304 263.278 53.68 263.278 55.632C263.278 57.584 261.902 58.96 259.95 58.96C257.998 58.96 256.622 57.584 256.622 55.632C256.622 53.68 257.998 52.304 259.95 52.304ZM263.15 78H256.686V60.592H263.15V78ZM273.525 60.592V63.344C274.741 61.424 276.629 60.336 278.997 60.336V66.16C275.669 65.744 273.525 67.152 273.525 69.68V78H267.061V60.592H273.525ZM289.632 60.368C295.488 60.368 299.296 63.888 299.296 69.296C299.296 74.672 295.488 78.224 289.632 78.224C283.776 78.224 279.936 74.672 279.936 69.296C279.936 63.888 283.776 60.368 289.632 60.368ZM289.632 65.488C287.712 65.488 286.464 67.056 286.464 69.36C286.464 71.696 287.712 73.232 289.632 73.232C291.52 73.232 292.768 71.696 292.768 69.36C292.768 67.056 291.52 65.488 289.632 65.488ZM313.843 60.336C317.555 60.336 320.115 62.928 320.115 66.96V78H313.651V68.816C313.651 67.088 312.659 66 311.155 66C309.395 66.032 308.307 67.408 308.307 69.392V78H301.843V60.592H308.307V63.28C309.523 61.36 311.411 60.336 313.843 60.336ZM339.394 78H332.706V60.88H328.706V55.568H339.394V78ZM353.532 55.376C359.996 55.376 363.644 59.44 363.644 66.768C363.644 74.128 359.996 78.192 353.532 78.192C346.972 78.192 343.388 74.128 343.388 66.768C343.388 59.44 346.972 55.376 353.532 55.376ZM353.532 60.208C351.132 60.208 350.204 61.968 350.204 66.768C350.204 71.568 351.132 73.36 353.532 73.36C355.868 73.36 356.796 71.568 356.796 66.768C356.796 61.968 355.868 60.208 353.532 60.208ZM372.156 55.472C376.06 55.472 378.556 58.096 378.556 62.256C378.556 66.448 376.06 69.136 372.156 69.136C368.22 69.136 365.724 66.448 365.724 62.256C365.724 58.096 368.22 55.472 372.156 55.472ZM370.652 78L386.428 55.568H392.444L376.7 78H370.652ZM372.156 58.864C370.684 58.864 369.788 60.176 369.788 62.256C369.788 64.368 370.684 65.68 372.156 65.68C373.596 65.68 374.492 64.368 374.492 62.256C374.492 60.176 373.596 58.864 372.156 58.864ZM391.1 64.464C395.004 64.464 397.5 67.12 397.5 71.28C397.5 75.472 395.004 78.128 391.1 78.128C387.164 78.128 384.668 75.472 384.668 71.28C384.668 67.12 387.164 64.464 391.1 64.464ZM391.1 67.888C389.628 67.888 388.732 69.2 388.732 71.28C388.732 73.392 389.628 74.704 391.1 74.704C392.54 74.704 393.436 73.392 393.436 71.28C393.436 69.2 392.54 67.888 391.1 67.888ZM425.263 54.256V78H418.799V76.016C417.647 77.424 416.015 78.224 414.031 78.224C409.167 78.224 405.967 74.672 405.967 69.2C405.967 63.856 409.103 60.368 413.871 60.368C415.919 60.368 417.615 61.168 418.799 62.608V54.256H425.263ZM415.663 73.264C417.551 73.264 418.799 71.696 418.799 69.36C418.799 67.056 417.551 65.488 415.663 65.488C413.743 65.488 412.495 67.056 412.495 69.36C412.495 71.696 413.743 73.264 415.663 73.264ZM437.183 60.368C443.295 60.368 446.623 64.464 446.239 70.864H434.527C435.039 72.528 436.255 73.456 437.919 73.456C439.295 73.456 440.607 72.848 441.759 71.792L445.119 75.088C443.295 77.104 440.671 78.224 437.375 78.224C431.551 78.224 427.999 74.704 427.999 69.36C427.999 63.92 431.679 60.368 437.183 60.368ZM434.399 67.696H439.871C439.903 65.968 438.815 64.752 437.247 64.752C435.743 64.752 434.719 65.936 434.399 67.696ZM462.467 78H456.003V54.256H462.467V78ZM474.753 60.336C479.649 60.336 482.561 62.672 482.561 66.704V78H476.225V76.08C475.169 77.488 473.441 78.288 471.137 78.288C467.425 78.288 465.249 76.08 465.249 72.816C465.249 69.456 467.585 67.6 471.969 67.536H476.225V67.472C476.225 66.032 475.201 65.168 473.217 65.168C471.841 65.168 469.889 65.584 467.969 66.416L466.369 62.128C469.217 60.976 472.033 60.336 474.753 60.336ZM473.281 74.064C474.593 74.064 475.745 73.36 476.225 72.272V70.704H473.281C472.001 70.704 471.329 71.248 471.329 72.336C471.329 73.424 472.033 74.064 473.281 74.064ZM504.391 60.368C509.255 60.368 512.455 63.952 512.455 69.392C512.455 74.736 509.351 78.224 504.551 78.224C502.503 78.224 500.807 77.424 499.623 75.984V84.208H493.159V60.592H499.623V62.608C500.775 61.168 502.439 60.368 504.391 60.368ZM502.759 73.104C504.679 73.104 505.927 71.536 505.927 69.232C505.927 66.928 504.679 65.36 502.759 65.36C500.903 65.36 499.623 66.928 499.623 69.232C499.623 71.536 500.903 73.104 502.759 73.104ZM520.95 58.544H516.502L520.246 53.52H525.238L528.982 58.544H524.534L522.742 55.888L520.95 58.544ZM522.87 60.368C528.982 60.368 532.31 64.464 531.926 70.864H520.214C520.726 72.528 521.942 73.456 523.606 73.456C524.982 73.456 526.294 72.848 527.446 71.792L530.806 75.088C528.982 77.104 526.358 78.224 523.062 78.224C517.238 78.224 513.686 74.704 513.686 69.36C513.686 63.92 517.366 60.368 522.87 60.368ZM520.086 67.696H525.558C525.59 65.968 524.502 64.752 522.934 64.752C521.43 64.752 520.406 65.936 520.086 67.696ZM542.306 60.368C545.954 60.368 548.866 62.032 550.338 64.912L545.378 67.344C544.77 66.256 543.81 65.616 542.594 65.616C540.866 65.616 539.714 67.12 539.714 69.328C539.714 71.6 540.866 73.104 542.594 73.104C543.842 73.104 544.802 72.496 545.346 71.184L550.37 73.712C549.026 76.592 546.082 78.224 542.242 78.224C536.77 78.224 533.186 74.704 533.186 69.36C533.186 63.952 536.802 60.368 542.306 60.368ZM564.659 60.336C568.403 60.336 570.931 62.928 570.931 66.96V78H564.467V68.816C564.467 67.088 563.507 66 561.971 66C560.211 66.032 559.123 67.408 559.123 69.392V78H552.659V54.256H559.123V63.28C560.339 61.36 562.227 60.336 564.659 60.336ZM582.183 60.368C588.295 60.368 591.623 64.464 591.239 70.864H579.527C580.039 72.528 581.255 73.456 582.919 73.456C584.295 73.456 585.607 72.848 586.759 71.792L590.119 75.088C588.295 77.104 585.671 78.224 582.375 78.224C576.551 78.224 572.999 74.704 572.999 69.36C572.999 63.92 576.679 60.368 582.183 60.368ZM579.399 67.696H584.871C584.903 65.968 583.815 64.752 582.247 64.752C580.743 64.752 579.719 65.936 579.399 67.696ZM624.331 60.336C628.011 60.336 630.507 62.928 630.507 66.96V78H624.043V68.816C624.043 67.088 623.083 66 621.643 66C619.979 66.032 618.923 67.408 618.923 69.392V78H612.459V68.816C612.459 67.088 611.499 66 610.059 66C608.363 66.032 607.307 67.408 607.307 69.392V78H600.843V60.592H607.307V63.248C608.491 61.36 610.347 60.336 612.715 60.336C615.435 60.336 617.515 61.744 618.443 64.112C619.563 61.68 621.611 60.336 624.331 60.336ZM642.288 60.368C648.144 60.368 651.952 63.888 651.952 69.296C651.952 74.672 648.144 78.224 642.288 78.224C636.432 78.224 632.592 74.672 632.592 69.296C632.592 63.888 636.432 60.368 642.288 60.368ZM642.288 65.488C640.368 65.488 639.12 67.056 639.12 69.36C639.12 71.696 640.368 73.232 642.288 73.232C644.176 73.232 645.424 71.696 645.424 69.36C645.424 67.056 644.176 65.488 642.288 65.488ZM666.499 60.336C670.211 60.336 672.771 62.928 672.771 66.96V78H666.307V68.816C666.307 67.088 665.315 66 663.811 66C662.051 66.032 660.963 67.408 660.963 69.392V78H654.499V60.592H660.963V63.28C662.179 61.36 664.067 60.336 666.499 60.336ZM694.138 54.256V78H687.674V76.016C686.522 77.424 684.89 78.224 682.906 78.224C678.042 78.224 674.842 74.672 674.842 69.2C674.842 63.856 677.978 60.368 682.746 60.368C684.794 60.368 686.49 61.168 687.674 62.608V54.256H694.138ZM684.538 73.264C686.426 73.264 687.674 71.696 687.674 69.36C687.674 67.056 686.426 65.488 684.538 65.488C682.618 65.488 681.37 67.056 681.37 69.36C681.37 71.696 682.618 73.264 684.538 73.264ZM701.482 52.304C703.434 52.304 704.81 53.68 704.81 55.632C704.81 57.584 703.434 58.96 701.482 58.96C699.53 58.96 698.154 57.584 698.154 55.632C698.154 53.68 699.53 52.304 701.482 52.304ZM704.682 78H698.218V60.592H704.682V78ZM716.785 60.336C721.681 60.336 724.593 62.672 724.593 66.704V78H718.257V76.08C717.201 77.488 715.473 78.288 713.169 78.288C709.457 78.288 707.281 76.08 707.281 72.816C707.281 69.456 709.617 67.6 714.001 67.536H718.257V67.472C718.257 66.032 717.233 65.168 715.249 65.168C713.873 65.168 711.921 65.584 710.001 66.416L708.401 62.128C711.249 60.976 714.065 60.336 716.785 60.336ZM715.313 74.064C716.625 74.064 717.777 73.36 718.257 72.272V70.704H715.313C714.033 70.704 713.361 71.248 713.361 72.336C713.361 73.424 714.065 74.064 715.313 74.064ZM734.654 78H728.19V54.256H734.654V78ZM746.589 60.368C752.701 60.368 756.029 64.464 755.645 70.864H743.933C744.445 72.528 745.661 73.456 747.325 73.456C748.701 73.456 750.013 72.848 751.165 71.792L754.525 75.088C752.701 77.104 750.077 78.224 746.781 78.224C740.957 78.224 737.405 74.704 737.405 69.36C737.405 63.92 741.085 60.368 746.589 60.368ZM743.805 67.696H749.277C749.309 65.968 748.221 64.752 746.653 64.752C745.149 64.752 744.125 65.936 743.805 67.696ZM773.089 60.368C779.201 60.368 782.529 64.464 782.145 70.864H770.433C770.945 72.528 772.161 73.456 773.825 73.456C775.201 73.456 776.513 72.848 777.665 71.792L781.025 75.088C779.201 77.104 776.577 78.224 773.281 78.224C767.457 78.224 763.905 74.704 763.905 69.36C763.905 63.92 767.585 60.368 773.089 60.368ZM770.305 67.696H775.777C775.809 65.968 774.721 64.752 773.153 64.752C771.649 64.752 770.625 65.936 770.305 67.696ZM791.501 60.304C794.125 60.304 796.781 61.04 799.149 62.416L797.005 66.48C794.637 65.264 792.685 64.656 791.309 64.656C790.509 64.656 789.997 64.944 789.997 65.488C789.997 67.44 799.085 66.576 799.085 72.528C799.085 76.112 795.981 78.288 791.437 78.288C788.365 78.288 785.517 77.456 783.245 75.824L785.229 71.76C787.405 73.168 789.613 73.904 791.533 73.904C792.397 73.904 792.973 73.648 792.973 73.104C792.973 71.12 784.077 72.08 784.077 66.128C784.077 62.48 787.117 60.304 791.501 60.304ZM812.626 72.72L813.778 77.168C812.562 77.872 810.706 78.288 808.946 78.288C805.234 78.32 802.738 76.176 802.738 72.56V65.616H800.338V61.488H802.738V56.656H809.17V61.488H813.458V65.616H809.17V71.568C809.17 72.688 809.746 73.232 810.642 73.232C811.154 73.232 811.858 73.008 812.626 72.72ZM840.721 60.592V78H834.257V75.408C833.073 77.264 831.249 78.288 828.913 78.288C825.265 78.288 822.769 75.696 822.769 71.632V60.592H829.233V69.808C829.233 71.504 830.161 72.592 831.569 72.592C833.233 72.56 834.257 71.184 834.257 69.2V60.592H840.721ZM855.376 72.72L856.528 77.168C855.312 77.872 853.456 78.288 851.696 78.288C847.984 78.32 845.488 76.176 845.488 72.56V65.616H843.088V61.488H845.488V56.656H851.92V61.488H856.208V65.616H851.92V71.568C851.92 72.688 852.496 73.232 853.392 73.232C853.904 73.232 854.608 73.008 855.376 72.72ZM862.263 52.304C864.215 52.304 865.591 53.68 865.591 55.632C865.591 57.584 864.215 58.96 862.263 58.96C860.311 58.96 858.935 57.584 858.935 55.632C858.935 53.68 860.311 52.304 862.263 52.304ZM865.463 78H858.999V60.592H865.463V78ZM875.998 78H869.534V54.256H875.998V78ZM883.357 52.304C885.309 52.304 886.685 53.68 886.685 55.632C886.685 57.584 885.309 58.96 883.357 58.96C881.405 58.96 880.029 57.584 880.029 55.632C880.029 53.68 881.405 52.304 883.357 52.304ZM886.557 78H880.093V60.592H886.557V78ZM897.22 60.304C899.844 60.304 902.5 61.04 904.868 62.416L902.724 66.48C900.356 65.264 898.404 64.656 897.028 64.656C896.228 64.656 895.716 64.944 895.716 65.488C895.716 67.44 904.804 66.576 904.804 72.528C904.804 76.112 901.7 78.288 897.156 78.288C894.084 78.288 891.236 77.456 888.964 75.824L890.948 71.76C893.124 73.168 895.332 73.904 897.252 73.904C898.116 73.904 898.692 73.648 898.692 73.104C898.692 71.12 889.796 72.08 889.796 66.128C889.796 62.48 892.836 60.304 897.22 60.304ZM916.937 58.96H912.201L915.625 53.2L921.225 55.056L916.937 58.96ZM915.433 60.368C921.545 60.368 924.873 64.464 924.489 70.864H912.777C913.289 72.528 914.505 73.456 916.169 73.456C917.545 73.456 918.857 72.848 920.009 71.792L923.369 75.088C921.545 77.104 918.921 78.224 915.625 78.224C909.801 78.224 906.249 74.704 906.249 69.36C906.249 63.92 909.929 60.368 915.433 60.368ZM912.649 67.696H918.121C918.153 65.968 917.065 64.752 915.497 64.752C913.993 64.752 912.969 65.936 912.649 67.696ZM934.933 60.368C941.045 60.368 944.373 64.464 943.989 70.864H932.277C932.789 72.528 934.005 73.456 935.669 73.456C937.045 73.456 938.357 72.848 939.509 71.792L942.869 75.088C941.045 77.104 938.421 78.224 935.125 78.224C929.301 78.224 925.749 74.704 925.749 69.36C925.749 63.92 929.429 60.368 934.933 60.368ZM932.149 67.696H937.621C937.653 65.968 936.565 64.752 934.997 64.752C933.493 64.752 932.469 65.936 932.149 67.696ZM964.985 60.368C969.849 60.368 973.049 63.952 973.049 69.392C973.049 74.736 969.945 78.224 965.145 78.224C963.097 78.224 961.401 77.424 960.217 75.984V84.208H953.753V60.592H960.217V62.608C961.369 61.168 963.033 60.368 964.985 60.368ZM963.353 73.104C965.273 73.104 966.521 71.536 966.521 69.232C966.521 66.928 965.273 65.36 963.353 65.36C961.497 65.36 960.217 66.928 960.217 69.232C960.217 71.536 961.497 73.104 963.353 73.104ZM983.976 60.368C989.832 60.368 993.64 63.888 993.64 69.296C993.64 74.672 989.832 78.224 983.976 78.224C978.12 78.224 974.28 74.672 974.28 69.296C974.28 63.888 978.12 60.368 983.976 60.368ZM983.976 65.488C982.056 65.488 980.808 67.056 980.808 69.36C980.808 71.696 982.056 73.232 983.976 73.232C985.864 73.232 987.112 71.696 987.112 69.36C987.112 67.056 985.864 65.488 983.976 65.488ZM1013.66 60.592V78H1007.19V75.408C1006.01 77.264 1004.19 78.288 1001.85 78.288C998.202 78.288 995.706 75.696 995.706 71.632V60.592H1002.17V69.808C1002.17 71.504 1003.1 72.592 1004.51 72.592C1006.17 72.56 1007.19 71.184 1007.19 69.2V60.592H1013.66ZM1024.03 60.592V63.344C1025.24 61.424 1027.13 60.336 1029.5 60.336V66.16C1026.17 65.744 1024.03 67.152 1024.03 69.68V78H1017.56V60.592H1024.03ZM1045.4 78H1038.94V54.256H1045.4V78ZM1057.69 60.336C1062.59 60.336 1065.5 62.672 1065.5 66.704V78H1059.16V76.08C1058.11 77.488 1056.38 78.288 1054.07 78.288C1050.36 78.288 1048.19 76.08 1048.19 72.816C1048.19 69.456 1050.52 67.6 1054.91 67.536H1059.16V67.472C1059.16 66.032 1058.14 65.168 1056.15 65.168C1054.78 65.168 1052.83 65.584 1050.91 66.416L1049.31 62.128C1052.15 60.976 1054.97 60.336 1057.69 60.336ZM1056.22 74.064C1057.53 74.064 1058.68 73.36 1059.16 72.272V70.704H1056.22C1054.94 70.704 1054.27 71.248 1054.27 72.336C1054.27 73.424 1054.97 74.064 1056.22 74.064ZM1087.33 60.368C1092.19 60.368 1095.39 63.952 1095.39 69.392C1095.39 74.736 1092.29 78.224 1087.49 78.224C1085.44 78.224 1083.74 77.424 1082.56 75.984V84.208H1076.1V60.592H1082.56V62.608C1083.71 61.168 1085.38 60.368 1087.33 60.368ZM1085.7 73.104C1087.62 73.104 1088.86 71.536 1088.86 69.232C1088.86 66.928 1087.62 65.36 1085.7 65.36C1083.84 65.36 1082.56 66.928 1082.56 69.232C1082.56 71.536 1083.84 73.104 1085.7 73.104ZM1104.43 60.592V63.344C1105.65 61.424 1107.54 60.336 1109.9 60.336V66.16C1106.58 65.744 1104.43 67.152 1104.43 69.68V78H1097.97V60.592H1104.43ZM1120.54 60.368C1126.39 60.368 1130.2 63.888 1130.2 69.296C1130.2 74.672 1126.39 78.224 1120.54 78.224C1114.68 78.224 1110.84 74.672 1110.84 69.296C1110.84 63.888 1114.68 60.368 1120.54 60.368ZM1120.54 65.488C1118.62 65.488 1117.37 67.056 1117.37 69.36C1117.37 71.696 1118.62 73.232 1120.54 73.232C1122.43 73.232 1123.67 71.696 1123.67 69.36C1123.67 67.056 1122.43 65.488 1120.54 65.488ZM1150.7 54.256V78H1144.24V76.016C1143.08 77.424 1141.45 78.224 1139.47 78.224C1134.6 78.224 1131.4 74.672 1131.4 69.2C1131.4 63.856 1134.54 60.368 1139.31 60.368C1141.36 60.368 1143.05 61.168 1144.24 62.608V54.256H1150.7ZM1141.1 73.264C1142.99 73.264 1144.24 71.696 1144.24 69.36C1144.24 67.056 1142.99 65.488 1141.1 65.488C1139.18 65.488 1137.93 67.056 1137.93 69.36C1137.93 71.696 1139.18 73.264 1141.1 73.264ZM1172.25 60.592V78H1165.79V75.408C1164.6 77.264 1162.78 78.288 1160.44 78.288C1156.8 78.288 1154.3 75.696 1154.3 71.632V60.592H1160.76V69.808C1160.76 71.504 1161.69 72.592 1163.1 72.592C1164.76 72.56 1165.79 71.184 1165.79 69.2V60.592H1172.25ZM1183.93 60.368C1187.58 60.368 1190.49 62.032 1191.96 64.912L1187 67.344C1186.4 66.256 1185.44 65.616 1184.22 65.616C1182.49 65.616 1181.34 67.12 1181.34 69.328C1181.34 71.6 1182.49 73.104 1184.22 73.104C1185.47 73.104 1186.43 72.496 1186.97 71.184L1192 73.712C1190.65 76.592 1187.71 78.224 1183.87 78.224C1178.4 78.224 1174.81 74.704 1174.81 69.36C1174.81 63.952 1178.43 60.368 1183.93 60.368ZM1204.88 72.72L1206.03 77.168C1204.81 77.872 1202.96 78.288 1201.2 78.288C1197.48 78.32 1194.99 76.176 1194.99 72.56V65.616H1192.59V61.488H1194.99V56.656H1201.42V61.488H1205.71V65.616H1201.42V71.568C1201.42 72.688 1202 73.232 1202.89 73.232C1203.4 73.232 1204.11 73.008 1204.88 72.72ZM1211.76 52.304C1213.71 52.304 1215.09 53.68 1215.09 55.632C1215.09 57.584 1213.71 58.96 1211.76 58.96C1209.81 58.96 1208.43 57.584 1208.43 55.632C1208.43 53.68 1209.81 52.304 1211.76 52.304ZM1214.96 78H1208.5V60.592H1214.96V78ZM1227.23 60.368C1233.08 60.368 1236.89 63.888 1236.89 69.296C1236.89 74.672 1233.08 78.224 1227.23 78.224C1221.37 78.224 1217.53 74.672 1217.53 69.296C1217.53 63.888 1221.37 60.368 1227.23 60.368ZM1227.23 65.488C1225.31 65.488 1224.06 67.056 1224.06 69.36C1224.06 71.696 1225.31 73.232 1227.23 73.232C1229.11 73.232 1230.36 71.696 1230.36 69.36C1230.36 67.056 1229.11 65.488 1227.23 65.488ZM1251.44 60.336C1255.15 60.336 1257.71 62.928 1257.71 66.96V78H1251.24V68.816C1251.24 67.088 1250.25 66 1248.75 66C1246.99 66.032 1245.9 67.408 1245.9 69.392V78H1239.44V60.592H1245.9V63.28C1247.12 61.36 1249 60.336 1251.44 60.336ZM1286.08 54.256V78H1279.61V76.016C1278.46 77.424 1276.83 78.224 1274.84 78.224C1269.98 78.224 1266.78 74.672 1266.78 69.2C1266.78 63.856 1269.92 60.368 1274.68 60.368C1276.73 60.368 1278.43 61.168 1279.61 62.608V54.256H1286.08ZM1276.48 73.264C1278.36 73.264 1279.61 71.696 1279.61 69.36C1279.61 67.056 1278.36 65.488 1276.48 65.488C1274.56 65.488 1273.31 67.056 1273.31 69.36C1273.31 71.696 1274.56 73.264 1276.48 73.264ZM1298 60.368C1304.11 60.368 1307.44 64.464 1307.05 70.864H1295.34C1295.85 72.528 1297.07 73.456 1298.73 73.456C1300.11 73.456 1301.42 72.848 1302.57 71.792L1305.93 75.088C1304.11 77.104 1301.48 78.224 1298.19 78.224C1292.36 78.224 1288.81 74.704 1288.81 69.36C1288.81 63.92 1292.49 60.368 1298 60.368ZM1295.21 67.696H1300.68C1300.72 65.968 1299.63 64.752 1298.06 64.752C1296.56 64.752 1295.53 65.936 1295.21 67.696ZM237.798 103.992C236.71 103.992 235.974 104.6 235.974 105.656V106.488H239.59V110.616H235.974V123H229.574V110.616H227.206V106.488H229.574V104.888C229.574 101.176 232.422 98.936 236.518 98.968C238.374 98.968 240.454 99.416 241.862 100.216L239.654 104.664C239.078 104.248 238.342 103.992 237.798 103.992ZM248.957 105.336C253.853 105.336 256.765 107.672 256.765 111.704V123H250.429V121.08C249.373 122.488 247.645 123.288 245.341 123.288C241.629 123.288 239.453 121.08 239.453 117.816C239.453 114.456 241.789 112.6 246.173 112.536H250.429V112.472C250.429 111.032 249.405 110.168 247.421 110.168C246.045 110.168 244.093 110.584 242.173 111.416L240.573 107.128C243.421 105.976 246.237 105.336 248.957 105.336ZM247.485 119.064C248.797 119.064 249.949 118.36 250.429 117.272V115.704H247.485C246.205 115.704 245.533 116.248 245.533 117.336C245.533 118.424 246.237 119.064 247.485 119.064ZM266.666 105.592V108.344C267.882 106.424 269.77 105.336 272.138 105.336V111.16C268.81 110.744 266.666 112.152 266.666 114.68V123H260.202V105.592H266.666ZM277.685 97.304C279.637 97.304 281.013 98.68 281.013 100.632C281.013 102.584 279.637 103.96 277.685 103.96C275.733 103.96 274.357 102.584 274.357 100.632C274.357 98.68 275.733 97.304 277.685 97.304ZM280.885 123H274.421V105.592H280.885V123ZM296.796 105.336C300.508 105.336 303.068 107.928 303.068 111.96V123H296.604V113.816C296.604 112.088 295.612 111 294.108 111C292.348 111.032 291.26 112.408 291.26 114.392V123H284.796V105.592H291.26V108.28C292.476 106.36 294.364 105.336 296.796 105.336ZM314.323 105.368C320.435 105.368 323.763 109.464 323.379 115.864H311.667C312.179 117.528 313.395 118.456 315.059 118.456C316.435 118.456 317.747 117.848 318.899 116.792L322.259 120.088C320.435 122.104 317.811 123.224 314.515 123.224C308.691 123.224 305.139 119.704 305.139 114.36C305.139 108.92 308.819 105.368 314.323 105.368ZM311.539 112.696H317.011C317.043 110.968 315.955 109.752 314.387 109.752C312.883 109.752 311.859 110.936 311.539 112.696ZM332.735 105.304C335.359 105.304 338.015 106.04 340.383 107.416L338.239 111.48C335.871 110.264 333.919 109.656 332.543 109.656C331.743 109.656 331.231 109.944 331.231 110.488C331.231 112.44 340.319 111.576 340.319 117.528C340.319 121.112 337.215 123.288 332.671 123.288C329.599 123.288 326.751 122.456 324.479 120.824L326.463 116.76C328.639 118.168 330.847 118.904 332.767 118.904C333.631 118.904 334.207 118.648 334.207 118.104C334.207 116.12 325.311 117.08 325.311 111.128C325.311 107.48 328.351 105.304 332.735 105.304ZM357.948 105.368C364.06 105.368 367.388 109.464 367.004 115.864H355.292C355.804 117.528 357.02 118.456 358.684 118.456C360.06 118.456 361.372 117.848 362.524 116.792L365.884 120.088C364.06 122.104 361.436 123.224 358.14 123.224C352.316 123.224 348.764 119.704 348.764 114.36C348.764 108.92 352.444 105.368 357.948 105.368ZM355.164 112.696H360.636C360.668 110.968 359.58 109.752 358.012 109.752C356.508 109.752 355.484 110.936 355.164 112.696ZM380.36 117.72L381.512 122.168C380.296 122.872 378.44 123.288 376.68 123.288C372.968 123.32 370.472 121.176 370.472 117.56V110.616H368.072V106.488H370.472V101.656H376.904V106.488H381.192V110.616H376.904V116.568C376.904 117.688 377.48 118.232 378.376 118.232C378.888 118.232 379.592 118.008 380.36 117.72ZM403.143 105.336C406.887 105.336 409.415 107.928 409.415 111.96V123H402.951V113.816C402.951 112.088 401.991 111 400.455 111C398.695 111.032 397.607 112.408 397.607 114.392V123H391.143V99.256H397.607V108.28C398.823 106.36 400.711 105.336 403.143 105.336ZM430.299 105.592V123H423.835V120.408C422.651 122.264 420.827 123.288 418.491 123.288C414.843 123.288 412.347 120.696 412.347 116.632V105.592H418.811V114.808C418.811 116.504 419.739 117.592 421.147 117.592C422.811 117.56 423.835 116.184 423.835 114.2V105.592H430.299ZM437.466 97.304C439.418 97.304 440.794 98.68 440.794 100.632C440.794 102.584 439.418 103.96 437.466 103.96C435.514 103.96 434.138 102.584 434.138 100.632C434.138 98.68 435.514 97.304 437.466 97.304ZM440.666 123H434.202V105.592H440.666V123ZM451.201 123H444.737V99.256H451.201V123ZM463.136 105.368C469.248 105.368 472.576 109.464 472.192 115.864H460.48C460.992 117.528 462.208 118.456 463.872 118.456C465.248 118.456 466.56 117.848 467.712 116.792L471.072 120.088C469.248 122.104 466.624 123.224 463.328 123.224C457.504 123.224 453.952 119.704 453.952 114.36C453.952 108.92 457.632 105.368 463.136 105.368ZM460.352 112.696H465.824C465.856 110.968 464.768 109.752 463.2 109.752C461.696 109.752 460.672 110.936 460.352 112.696ZM481.548 105.304C484.172 105.304 486.828 106.04 489.196 107.416L487.052 111.48C484.684 110.264 482.732 109.656 481.356 109.656C480.556 109.656 480.044 109.944 480.044 110.488C480.044 112.44 489.132 111.576 489.132 117.528C489.132 121.112 486.028 123.288 481.484 123.288C478.412 123.288 475.564 122.456 473.292 120.824L475.276 116.76C477.452 118.168 479.66 118.904 481.58 118.904C482.444 118.904 483.02 118.648 483.02 118.104C483.02 116.12 474.124 117.08 474.124 111.128C474.124 107.48 477.164 105.304 481.548 105.304ZM516.873 99.256V123H510.409V121.016C509.257 122.424 507.625 123.224 505.641 123.224C500.777 123.224 497.577 119.672 497.577 114.2C497.577 108.856 500.713 105.368 505.481 105.368C507.529 105.368 509.225 106.168 510.409 107.608V99.256H516.873ZM507.273 118.264C509.161 118.264 510.409 116.696 510.409 114.36C510.409 112.056 509.161 110.488 507.273 110.488C505.353 110.488 504.105 112.056 504.105 114.36C504.105 116.696 505.353 118.264 507.273 118.264ZM528.792 105.368C534.904 105.368 538.232 109.464 537.848 115.864H526.136C526.648 117.528 527.864 118.456 529.528 118.456C530.904 118.456 532.216 117.848 533.368 116.792L536.728 120.088C534.904 122.104 532.28 123.224 528.984 123.224C523.16 123.224 519.608 119.704 519.608 114.36C519.608 108.92 523.288 105.368 528.792 105.368ZM526.008 112.696H531.48C531.512 110.968 530.424 109.752 528.856 109.752C527.352 109.752 526.328 110.936 526.008 112.696ZM558.844 105.368C563.708 105.368 566.908 108.952 566.908 114.392C566.908 119.736 563.804 123.224 559.004 123.224C556.956 123.224 555.26 122.424 554.076 120.984V129.208H547.612V105.592H554.076V107.608C555.228 106.168 556.892 105.368 558.844 105.368ZM557.212 118.104C559.132 118.104 560.38 116.536 560.38 114.232C560.38 111.928 559.132 110.36 557.212 110.36C555.356 110.36 554.076 111.928 554.076 114.232C554.076 116.536 555.356 118.104 557.212 118.104ZM577.835 105.368C583.691 105.368 587.499 108.888 587.499 114.296C587.499 119.672 583.691 123.224 577.835 123.224C571.979 123.224 568.139 119.672 568.139 114.296C568.139 108.888 571.979 105.368 577.835 105.368ZM577.835 110.488C575.915 110.488 574.667 112.056 574.667 114.36C574.667 116.696 575.915 118.232 577.835 118.232C579.723 118.232 580.971 116.696 580.971 114.36C580.971 112.056 579.723 110.488 577.835 110.488ZM593.31 97.304C595.262 97.304 596.638 98.68 596.638 100.632C596.638 102.584 595.262 103.96 593.31 103.96C591.358 103.96 589.982 102.584 589.982 100.632C589.982 98.68 591.358 97.304 593.31 97.304ZM596.51 123H590.046V105.592H596.51V123ZM607.173 105.304C609.797 105.304 612.453 106.04 614.821 107.416L612.677 111.48C610.309 110.264 608.357 109.656 606.981 109.656C606.181 109.656 605.669 109.944 605.669 110.488C605.669 112.44 614.757 111.576 614.757 117.528C614.757 121.112 611.653 123.288 607.109 123.288C604.037 123.288 601.189 122.456 598.917 120.824L600.901 116.76C603.077 118.168 605.285 118.904 607.205 118.904C608.069 118.904 608.645 118.648 608.645 118.104C608.645 116.12 599.749 117.08 599.749 111.128C599.749 107.48 602.789 105.304 607.173 105.304ZM624.298 105.304C626.922 105.304 629.578 106.04 631.946 107.416L629.802 111.48C627.434 110.264 625.482 109.656 624.106 109.656C623.306 109.656 622.794 109.944 622.794 110.488C622.794 112.44 631.882 111.576 631.882 117.528C631.882 121.112 628.778 123.288 624.234 123.288C621.162 123.288 618.314 122.456 616.042 120.824L618.026 116.76C620.202 118.168 622.41 118.904 624.33 118.904C625.194 118.904 625.77 118.648 625.77 118.104C625.77 116.12 616.874 117.08 616.874 111.128C616.874 107.48 619.914 105.304 624.298 105.304ZM643.023 105.368C648.879 105.368 652.687 108.888 652.687 114.296C652.687 119.672 648.879 123.224 643.023 123.224C637.167 123.224 633.327 119.672 633.327 114.296C633.327 108.888 637.167 105.368 643.023 105.368ZM643.023 110.488C641.103 110.488 639.855 112.056 639.855 114.36C639.855 116.696 641.103 118.232 643.023 118.232C644.911 118.232 646.159 116.696 646.159 114.36C646.159 112.056 644.911 110.488 643.023 110.488ZM667.233 105.336C670.945 105.336 673.505 107.928 673.505 111.96V123H667.041V113.816C667.041 112.088 666.049 111 664.545 111C662.785 111.032 661.697 112.408 661.697 114.392V123H655.233V105.592H661.697V108.28C662.913 106.36 664.801 105.336 667.233 105.336ZM683.673 105.304C686.297 105.304 688.953 106.04 691.321 107.416L689.177 111.48C686.809 110.264 684.857 109.656 683.481 109.656C682.681 109.656 682.169 109.944 682.169 110.488C682.169 112.44 691.257 111.576 691.257 117.528C691.257 121.112 688.153 123.288 683.609 123.288C680.537 123.288 677.689 122.456 675.417 120.824L677.401 116.76C679.577 118.168 681.785 118.904 683.705 118.904C684.569 118.904 685.145 118.648 685.145 118.104C685.145 116.12 676.249 117.08 676.249 111.128C676.249 107.48 679.289 105.304 683.673 105.304ZM712.438 105.368C717.302 105.368 720.502 108.952 720.502 114.392C720.502 119.736 717.398 123.224 712.598 123.224C710.55 123.224 708.854 122.424 707.67 120.984V129.208H701.206V105.592H707.67V107.608C708.822 106.168 710.486 105.368 712.438 105.368ZM710.806 118.104C712.726 118.104 713.974 116.536 713.974 114.232C713.974 111.928 712.726 110.36 710.806 110.36C708.95 110.36 707.67 111.928 707.67 114.232C707.67 116.536 708.95 118.104 710.806 118.104ZM731.429 105.368C737.285 105.368 741.093 108.888 741.093 114.296C741.093 119.672 737.285 123.224 731.429 123.224C725.573 123.224 721.733 119.672 721.733 114.296C721.733 108.888 725.573 105.368 731.429 105.368ZM731.429 110.488C729.509 110.488 728.261 112.056 728.261 114.36C728.261 116.696 729.509 118.232 731.429 118.232C733.317 118.232 734.565 116.696 734.565 114.36C734.565 112.056 733.317 110.488 731.429 110.488ZM761.112 105.592V123H754.648V120.408C753.464 122.264 751.64 123.288 749.304 123.288C745.656 123.288 743.16 120.696 743.16 116.632V105.592H749.624V114.808C749.624 116.504 750.552 117.592 751.96 117.592C753.624 117.56 754.648 116.184 754.648 114.2V105.592H761.112ZM771.479 105.592V108.344C772.695 106.424 774.583 105.336 776.951 105.336V111.16C773.623 110.744 771.479 112.152 771.479 114.68V123H765.015V105.592H771.479ZM798.233 105.336C801.945 105.336 804.505 107.928 804.505 111.96V123H798.041V113.816C798.041 112.088 797.049 111 795.545 111C793.785 111.032 792.697 112.408 792.697 114.392V123H786.233V105.592H792.697V108.28C793.913 106.36 795.801 105.336 798.233 105.336ZM816.273 105.368C822.129 105.368 825.937 108.888 825.937 114.296C825.937 119.672 822.129 123.224 816.273 123.224C810.417 123.224 806.577 119.672 806.577 114.296C806.577 108.888 810.417 105.368 816.273 105.368ZM816.273 110.488C814.353 110.488 813.105 112.056 813.105 114.36C813.105 116.696 814.353 118.232 816.273 118.232C818.161 118.232 819.409 116.696 819.409 114.36C819.409 112.056 818.161 110.488 816.273 110.488ZM845.955 105.592V123H839.491V120.408C838.307 122.264 836.483 123.288 834.147 123.288C830.499 123.288 828.003 120.696 828.003 116.632V105.592H834.467V114.808C834.467 116.504 835.395 117.592 836.803 117.592C838.467 117.56 839.491 116.184 839.491 114.2V105.592H845.955ZM856.322 105.592V108.344C857.538 106.424 859.426 105.336 861.794 105.336V111.16C858.466 110.744 856.322 112.152 856.322 114.68V123H849.858V105.592H856.322ZM870.541 105.592V108.344C871.757 106.424 873.645 105.336 876.013 105.336V111.16C872.685 110.744 870.541 112.152 870.541 114.68V123H864.077V105.592H870.541ZM881.56 97.304C883.512 97.304 884.888 98.68 884.888 100.632C884.888 102.584 883.512 103.96 881.56 103.96C879.608 103.96 878.232 102.584 878.232 100.632C878.232 98.68 879.608 97.304 881.56 97.304ZM884.76 123H878.296V105.592H884.76V123ZM895.135 105.592V108.344C896.351 106.424 898.239 105.336 900.607 105.336V111.16C897.279 110.744 895.135 112.152 895.135 114.68V123H888.671V105.592H895.135ZM916.514 123H910.049V99.256H916.514V123ZM928.448 105.368C934.56 105.368 937.888 109.464 937.504 115.864H925.792C926.304 117.528 927.52 118.456 929.184 118.456C930.56 118.456 931.872 117.848 933.024 116.792L936.384 120.088C934.56 122.104 931.936 123.224 928.64 123.224C922.816 123.224 919.264 119.704 919.264 114.36C919.264 108.92 922.944 105.368 928.448 105.368ZM925.664 112.696H931.136C931.168 110.968 930.08 109.752 928.512 109.752C927.008 109.752 925.984 110.936 925.664 112.696ZM946.86 105.304C949.484 105.304 952.14 106.04 954.508 107.416L952.364 111.48C949.996 110.264 948.044 109.656 946.668 109.656C945.868 109.656 945.356 109.944 945.356 110.488C945.356 112.44 954.444 111.576 954.444 117.528C954.444 121.112 951.34 123.288 946.796 123.288C943.724 123.288 940.876 122.456 938.604 120.824L940.588 116.76C942.764 118.168 944.972 118.904 946.892 118.904C947.756 118.904 948.332 118.648 948.332 118.104C948.332 116.12 939.436 117.08 939.436 111.128C939.436 107.48 942.476 105.304 946.86 105.304ZM975.625 105.368C980.489 105.368 983.689 108.952 983.689 114.392C983.689 119.736 980.585 123.224 975.785 123.224C973.737 123.224 972.041 122.424 970.857 120.984V129.208H964.393V105.592H970.857V107.608C972.009 106.168 973.673 105.368 975.625 105.368ZM973.993 118.104C975.913 118.104 977.161 116.536 977.161 114.232C977.161 111.928 975.913 110.36 973.993 110.36C972.137 110.36 970.857 111.928 970.857 114.232C970.857 116.536 972.137 118.104 973.993 118.104ZM994.617 105.368C1000.47 105.368 1004.28 108.888 1004.28 114.296C1004.28 119.672 1000.47 123.224 994.617 123.224C988.761 123.224 984.921 119.672 984.921 114.296C984.921 108.888 988.761 105.368 994.617 105.368ZM994.617 110.488C992.697 110.488 991.449 112.056 991.449 114.36C991.449 116.696 992.697 118.232 994.617 118.232C996.505 118.232 997.753 116.696 997.753 114.36C997.753 112.056 996.505 110.488 994.617 110.488ZM1010.09 97.304C1012.04 97.304 1013.42 98.68 1013.42 100.632C1013.42 102.584 1012.04 103.96 1010.09 103.96C1008.14 103.96 1006.76 102.584 1006.76 100.632C1006.76 98.68 1008.14 97.304 1010.09 97.304ZM1013.29 123H1006.83V105.592H1013.29V123ZM1023.95 105.304C1026.58 105.304 1029.23 106.04 1031.6 107.416L1029.46 111.48C1027.09 110.264 1025.14 109.656 1023.76 109.656C1022.96 109.656 1022.45 109.944 1022.45 110.488C1022.45 112.44 1031.54 111.576 1031.54 117.528C1031.54 121.112 1028.43 123.288 1023.89 123.288C1020.82 123.288 1017.97 122.456 1015.7 120.824L1017.68 116.76C1019.86 118.168 1022.07 118.904 1023.99 118.904C1024.85 118.904 1025.43 118.648 1025.43 118.104C1025.43 116.12 1016.53 117.08 1016.53 111.128C1016.53 107.48 1019.57 105.304 1023.95 105.304ZM1041.08 105.304C1043.7 105.304 1046.36 106.04 1048.73 107.416L1046.58 111.48C1044.22 110.264 1042.26 109.656 1040.89 109.656C1040.09 109.656 1039.58 109.944 1039.58 110.488C1039.58 112.44 1048.66 111.576 1048.66 117.528C1048.66 121.112 1045.56 123.288 1041.02 123.288C1037.94 123.288 1035.1 122.456 1032.82 120.824L1034.81 116.76C1036.98 118.168 1039.19 118.904 1041.11 118.904C1041.98 118.904 1042.55 118.648 1042.55 118.104C1042.55 116.12 1033.66 117.08 1033.66 111.128C1033.66 107.48 1036.7 105.304 1041.08 105.304ZM1059.8 105.368C1065.66 105.368 1069.47 108.888 1069.47 114.296C1069.47 119.672 1065.66 123.224 1059.8 123.224C1053.95 123.224 1050.11 119.672 1050.11 114.296C1050.11 108.888 1053.95 105.368 1059.8 105.368ZM1059.8 110.488C1057.88 110.488 1056.64 112.056 1056.64 114.36C1056.64 116.696 1057.88 118.232 1059.8 118.232C1061.69 118.232 1062.94 116.696 1062.94 114.36C1062.94 112.056 1061.69 110.488 1059.8 110.488ZM1084.01 105.336C1087.73 105.336 1090.29 107.928 1090.29 111.96V123H1083.82V113.816C1083.82 112.088 1082.83 111 1081.33 111C1079.57 111.032 1078.48 112.408 1078.48 114.392V123H1072.01V105.592H1078.48V108.28C1079.69 106.36 1081.58 105.336 1084.01 105.336ZM1100.45 105.304C1103.08 105.304 1105.73 106.04 1108.1 107.416L1105.96 111.48C1103.59 110.264 1101.64 109.656 1100.26 109.656C1099.46 109.656 1098.95 109.944 1098.95 110.488C1098.95 112.44 1108.04 111.576 1108.04 117.528C1108.04 121.112 1104.93 123.288 1100.39 123.288C1097.32 123.288 1094.47 122.456 1092.2 120.824L1094.18 116.76C1096.36 118.168 1098.57 118.904 1100.49 118.904C1101.35 118.904 1101.93 118.648 1101.93 118.104C1101.93 116.12 1093.03 117.08 1093.03 111.128C1093.03 107.48 1096.07 105.304 1100.45 105.304ZM1135.78 99.256V123H1129.32V121.016C1128.16 122.424 1126.53 123.224 1124.55 123.224C1119.68 123.224 1116.48 119.672 1116.48 114.2C1116.48 108.856 1119.62 105.368 1124.39 105.368C1126.44 105.368 1128.13 106.168 1129.32 107.608V99.256H1135.78ZM1126.18 118.264C1128.07 118.264 1129.32 116.696 1129.32 114.36C1129.32 112.056 1128.07 110.488 1126.18 110.488C1124.26 110.488 1123.01 112.056 1123.01 114.36C1123.01 116.696 1124.26 118.264 1126.18 118.264ZM1142.03 100.568C1143.6 100.568 1145.01 101.624 1145.01 103.544C1145.01 104.44 1144.69 105.208 1144.21 105.912L1141.62 109.656H1138.61L1140.15 105.88C1139.38 105.336 1138.99 104.504 1138.99 103.576C1138.99 101.816 1140.27 100.568 1142.03 100.568ZM1157.33 103.96H1152.59L1156.02 98.2L1161.62 100.056L1157.33 103.96ZM1155.82 105.368C1161.94 105.368 1165.26 109.464 1164.88 115.864H1153.17C1153.68 117.528 1154.9 118.456 1156.56 118.456C1157.94 118.456 1159.25 117.848 1160.4 116.792L1163.76 120.088C1161.94 122.104 1159.31 123.224 1156.02 123.224C1150.19 123.224 1146.64 119.704 1146.64 114.36C1146.64 108.92 1150.32 105.368 1155.82 105.368ZM1153.04 112.696H1158.51C1158.54 110.968 1157.46 109.752 1155.89 109.752C1154.38 109.752 1153.36 110.936 1153.04 112.696ZM1174.11 123H1167.64V99.256H1174.11V123ZM1186.04 105.368C1192.15 105.368 1195.48 109.464 1195.1 115.864H1183.39C1183.9 117.528 1185.11 118.456 1186.78 118.456C1188.15 118.456 1189.47 117.848 1190.62 116.792L1193.98 120.088C1192.15 122.104 1189.53 123.224 1186.23 123.224C1180.41 123.224 1176.86 119.704 1176.86 114.36C1176.86 108.92 1180.54 105.368 1186.04 105.368ZM1183.26 112.696H1188.73C1188.76 110.968 1187.67 109.752 1186.11 109.752C1184.6 109.752 1183.58 110.936 1183.26 112.696ZM1208.05 123H1201.46L1194.99 105.592H1201.65L1204.85 117.112L1208.08 105.592H1214.55L1208.05 123ZM1223.93 105.336C1228.82 105.336 1231.73 107.672 1231.73 111.704V123H1225.4V121.08C1224.34 122.488 1222.61 123.288 1220.31 123.288C1216.6 123.288 1214.42 121.08 1214.42 117.816C1214.42 114.456 1216.76 112.6 1221.14 112.536H1225.4V112.472C1225.4 111.032 1224.37 110.168 1222.39 110.168C1221.01 110.168 1219.06 110.584 1217.14 111.416L1215.54 107.128C1218.39 105.976 1221.21 105.336 1223.93 105.336ZM1222.45 119.064C1223.77 119.064 1224.92 118.36 1225.4 117.272V115.704H1222.45C1221.17 115.704 1220.5 116.248 1220.5 117.336C1220.5 118.424 1221.21 119.064 1222.45 119.064ZM1252.19 105.592V121.496C1252.19 126.392 1248.32 129.496 1242.63 129.496C1239.39 129.496 1236.48 128.472 1234.59 127.224L1236.74 122.872C1238.27 123.896 1240.29 124.472 1242.08 124.472C1244.42 124.472 1245.79 123.384 1245.79 121.688V119.928C1244.67 121.272 1243.11 122.008 1241.12 122.008C1236.9 122.008 1233.83 118.68 1233.83 113.592C1233.83 108.632 1236.8 105.368 1240.99 105.368C1243.04 105.368 1244.67 106.136 1245.79 107.48V105.592H1252.19ZM1242.82 117.368C1244.61 117.368 1245.79 115.928 1245.79 113.784C1245.79 111.576 1244.61 110.136 1242.82 110.136C1241.06 110.136 1239.87 111.608 1239.87 113.784C1239.87 115.928 1241.06 117.368 1242.82 117.368ZM1263.85 105.368C1269.97 105.368 1273.29 109.464 1272.91 115.864H1261.2C1261.71 117.528 1262.93 118.456 1264.59 118.456C1265.97 118.456 1267.28 117.848 1268.43 116.792L1271.79 120.088C1269.97 122.104 1267.34 123.224 1264.05 123.224C1258.22 123.224 1254.67 119.704 1254.67 114.36C1254.67 108.92 1258.35 105.368 1263.85 105.368ZM1261.07 112.696H1266.54C1266.57 110.968 1265.49 109.752 1263.92 109.752C1262.41 109.752 1261.39 110.936 1261.07 112.696Z" fill="black"/>
<rect width="285" height="88" transform="translate(135 725)" fill="#FF3636"/>
<path d="M177.938 752.098H170.546V755.178H177.41V758.698H170.546V764H165.97V748.578H177.938V752.098ZM185.267 751.856C188.633 751.856 190.635 753.462 190.635 756.234V764H186.279V762.68C185.553 763.648 184.365 764.198 182.781 764.198C180.229 764.198 178.733 762.68 178.733 760.436C178.733 758.126 180.339 756.85 183.353 756.806H186.279V756.762C186.279 755.772 185.575 755.178 184.211 755.178C183.265 755.178 181.923 755.464 180.603 756.036L179.503 753.088C181.461 752.296 183.397 751.856 185.267 751.856ZM184.255 761.294C185.157 761.294 185.949 760.81 186.279 760.062V758.984H184.255C183.375 758.984 182.913 759.358 182.913 760.106C182.913 760.854 183.397 761.294 184.255 761.294ZM197.442 752.032V753.924C198.278 752.604 199.576 751.856 201.204 751.856V755.86C198.916 755.574 197.442 756.542 197.442 758.28V764H192.998V752.032H197.442ZM205.018 746.334C206.36 746.334 207.306 747.28 207.306 748.622C207.306 749.964 206.36 750.91 205.018 750.91C203.676 750.91 202.73 749.964 202.73 748.622C202.73 747.28 203.676 746.334 205.018 746.334ZM207.218 764H202.774V752.032H207.218V764ZM218.156 751.856C220.708 751.856 222.468 753.638 222.468 756.41V764H218.024V757.686C218.024 756.498 217.342 755.75 216.308 755.75C215.098 755.772 214.35 756.718 214.35 758.082V764H209.906V752.032H214.35V753.88C215.186 752.56 216.484 751.856 218.156 751.856ZM230.207 751.878C234.409 751.878 236.697 754.694 236.433 759.094H228.381C228.733 760.238 229.569 760.876 230.713 760.876C231.659 760.876 232.561 760.458 233.353 759.732L235.663 761.998C234.409 763.384 232.605 764.154 230.339 764.154C226.335 764.154 223.893 761.734 223.893 758.06C223.893 754.32 226.423 751.878 230.207 751.878ZM228.293 756.916H232.055C232.077 755.728 231.329 754.892 230.251 754.892C229.217 754.892 228.513 755.706 228.293 756.916ZM242.865 751.834C244.669 751.834 246.495 752.34 248.123 753.286L246.649 756.08C245.021 755.244 243.679 754.826 242.733 754.826C242.183 754.826 241.831 755.024 241.831 755.398C241.831 756.74 248.079 756.146 248.079 760.238C248.079 762.702 245.945 764.198 242.821 764.198C240.709 764.198 238.751 763.626 237.189 762.504L238.553 759.71C240.049 760.678 241.567 761.184 242.887 761.184C243.481 761.184 243.877 761.008 243.877 760.634C243.877 759.27 237.761 759.93 237.761 755.838C237.761 753.33 239.851 751.834 242.865 751.834ZM260.199 751.878C264.401 751.878 266.689 754.694 266.425 759.094H258.373C258.725 760.238 259.561 760.876 260.705 760.876C261.651 760.876 262.553 760.458 263.345 759.732L265.655 761.998C264.401 763.384 262.597 764.154 260.331 764.154C256.327 764.154 253.885 761.734 253.885 758.06C253.885 754.32 256.415 751.878 260.199 751.878ZM258.285 756.916H262.047C262.069 755.728 261.321 754.892 260.243 754.892C259.209 754.892 258.505 755.706 258.285 756.916ZM275.607 760.37L276.399 763.428C275.563 763.912 274.287 764.198 273.077 764.198C270.525 764.22 268.809 762.746 268.809 760.26V755.486H267.159V752.648H268.809V749.326H273.231V752.648H276.179V755.486H273.231V759.578C273.231 760.348 273.627 760.722 274.243 760.722C274.595 760.722 275.079 760.568 275.607 760.37ZM291.27 751.856C293.844 751.856 295.582 753.638 295.582 756.41V764H291.138V757.686C291.138 756.498 290.478 755.75 289.422 755.75C288.212 755.772 287.464 756.718 287.464 758.082V764H283.02V747.676H287.464V753.88C288.3 752.56 289.598 751.856 291.27 751.856ZM309.94 752.032V764H305.496V762.218C304.682 763.494 303.428 764.198 301.822 764.198C299.314 764.198 297.598 762.416 297.598 759.622V752.032H302.042V758.368C302.042 759.534 302.68 760.282 303.648 760.282C304.792 760.26 305.496 759.314 305.496 757.95V752.032H309.94ZM314.867 746.334C316.209 746.334 317.155 747.28 317.155 748.622C317.155 749.964 316.209 750.91 314.867 750.91C313.525 750.91 312.579 749.964 312.579 748.622C312.579 747.28 313.525 746.334 314.867 746.334ZM317.067 764H312.623V752.032H317.067V764ZM324.31 764H319.866V747.676H324.31V764ZM332.515 751.878C336.717 751.878 339.005 754.694 338.741 759.094H330.689C331.041 760.238 331.877 760.876 333.021 760.876C333.967 760.876 334.869 760.458 335.661 759.732L337.971 761.998C336.717 763.384 334.913 764.154 332.647 764.154C328.643 764.154 326.201 761.734 326.201 758.06C326.201 754.32 328.731 751.878 332.515 751.878ZM330.601 756.916H334.363C334.385 755.728 333.637 754.892 332.559 754.892C331.525 754.892 330.821 755.706 330.601 756.916ZM345.173 751.834C346.977 751.834 348.803 752.34 350.431 753.286L348.957 756.08C347.329 755.244 345.987 754.826 345.041 754.826C344.491 754.826 344.139 755.024 344.139 755.398C344.139 756.74 350.387 756.146 350.387 760.238C350.387 762.702 348.253 764.198 345.129 764.198C343.017 764.198 341.059 763.626 339.497 762.504L340.861 759.71C342.357 760.678 343.875 761.184 345.195 761.184C345.789 761.184 346.185 761.008 346.185 760.634C346.185 759.27 340.069 759.93 340.069 755.838C340.069 753.33 342.159 751.834 345.173 751.834ZM369.459 747.676V764H365.015V762.636C364.223 763.604 363.101 764.154 361.737 764.154C358.393 764.154 356.193 761.712 356.193 757.95C356.193 754.276 358.349 751.878 361.627 751.878C363.035 751.878 364.201 752.428 365.015 753.418V747.676H369.459ZM362.859 760.744C364.157 760.744 365.015 759.666 365.015 758.06C365.015 756.476 364.157 755.398 362.859 755.398C361.539 755.398 360.681 756.476 360.681 758.06C360.681 759.666 361.539 760.744 362.859 760.744ZM377.654 751.878C381.856 751.878 384.144 754.694 383.88 759.094H375.828C376.18 760.238 377.016 760.876 378.16 760.876C379.106 760.876 380.008 760.458 380.8 759.732L383.11 761.998C381.856 763.384 380.052 764.154 377.786 764.154C373.782 764.154 371.34 761.734 371.34 758.06C371.34 754.32 373.87 751.878 377.654 751.878ZM375.74 756.916H379.502C379.524 755.728 378.776 754.892 377.698 754.892C376.664 754.892 375.96 755.706 375.74 756.916ZM233.282 781.878C236.626 781.878 238.826 784.342 238.826 788.082C238.826 791.756 236.692 794.154 233.392 794.154C231.984 794.154 230.818 793.604 230.004 792.614V798.268H225.56V782.032H230.004V783.418C230.796 782.428 231.94 781.878 233.282 781.878ZM232.16 790.634C233.48 790.634 234.338 789.556 234.338 787.972C234.338 786.388 233.48 785.31 232.16 785.31C230.884 785.31 230.004 786.388 230.004 787.972C230.004 789.556 230.884 790.634 232.16 790.634ZM246.339 781.878C250.365 781.878 252.983 784.298 252.983 788.016C252.983 791.712 250.365 794.154 246.339 794.154C242.313 794.154 239.673 791.712 239.673 788.016C239.673 784.298 242.313 781.878 246.339 781.878ZM246.339 785.398C245.019 785.398 244.161 786.476 244.161 788.06C244.161 789.666 245.019 790.722 246.339 790.722C247.637 790.722 248.495 789.666 248.495 788.06C248.495 786.476 247.637 785.398 246.339 785.398ZM256.978 776.334C258.32 776.334 259.266 777.28 259.266 778.622C259.266 779.964 258.32 780.91 256.978 780.91C255.636 780.91 254.69 779.964 254.69 778.622C254.69 777.28 255.636 776.334 256.978 776.334ZM259.178 794H254.734V782.032H259.178V794ZM266.508 781.834C268.312 781.834 270.138 782.34 271.766 783.286L270.292 786.08C268.664 785.244 267.322 784.826 266.376 784.826C265.826 784.826 265.474 785.024 265.474 785.398C265.474 786.74 271.722 786.146 271.722 790.238C271.722 792.702 269.588 794.198 266.464 794.198C264.352 794.198 262.394 793.626 260.832 792.504L262.196 789.71C263.692 790.678 265.21 791.184 266.53 791.184C267.124 791.184 267.52 791.008 267.52 790.634C267.52 789.27 261.404 789.93 261.404 785.838C261.404 783.33 263.494 781.834 266.508 781.834ZM278.282 781.834C280.086 781.834 281.912 782.34 283.54 783.286L282.066 786.08C280.438 785.244 279.096 784.826 278.15 784.826C277.6 784.826 277.248 785.024 277.248 785.398C277.248 786.74 283.496 786.146 283.496 790.238C283.496 792.702 281.362 794.198 278.238 794.198C276.126 794.198 274.168 793.626 272.606 792.504L273.97 789.71C275.466 790.678 276.984 791.184 278.304 791.184C278.898 791.184 279.294 791.008 279.294 790.634C279.294 789.27 273.178 789.93 273.178 785.838C273.178 783.33 275.268 781.834 278.282 781.834ZM291.155 781.878C295.181 781.878 297.799 784.298 297.799 788.016C297.799 791.712 295.181 794.154 291.155 794.154C287.129 794.154 284.489 791.712 284.489 788.016C284.489 784.298 287.129 781.878 291.155 781.878ZM291.155 785.398C289.835 785.398 288.977 786.476 288.977 788.06C288.977 789.666 289.835 790.722 291.155 790.722C292.453 790.722 293.311 789.666 293.311 788.06C293.311 786.476 292.453 785.398 291.155 785.398ZM307.8 781.856C310.352 781.856 312.112 783.638 312.112 786.41V794H307.668V787.686C307.668 786.498 306.986 785.75 305.952 785.75C304.742 785.772 303.994 786.718 303.994 788.082V794H299.55V782.032H303.994V783.88C304.83 782.56 306.128 781.856 307.8 781.856ZM319.102 781.834C320.906 781.834 322.732 782.34 324.36 783.286L322.886 786.08C321.258 785.244 319.916 784.826 318.97 784.826C318.42 784.826 318.068 785.024 318.068 785.398C318.068 786.74 324.316 786.146 324.316 790.238C324.316 792.702 322.182 794.198 319.058 794.198C316.946 794.198 314.988 793.626 313.426 792.504L314.79 789.71C316.286 790.678 317.804 791.184 319.124 791.184C319.718 791.184 320.114 791.008 320.114 790.634C320.114 789.27 313.998 789.93 313.998 785.838C313.998 783.33 316.088 781.834 319.102 781.834Z" fill="black"/>
<rect width="285" height="59" transform="translate(135 855)" fill="#FF3636"/>
<path d="M215.079 891.536H208.853L207.929 894H203.221L209.799 878.578H214.507L220.865 894H215.981L215.079 891.536ZM213.869 888.192L212.021 883.154L210.129 888.192H213.869ZM233.904 882.032V898.268H229.46V892.636C228.668 893.604 227.546 894.154 226.182 894.154C222.838 894.154 220.638 891.712 220.638 887.95C220.638 884.276 222.794 881.878 226.072 881.878C227.48 881.878 228.646 882.428 229.46 883.418V882.032H233.904ZM227.304 890.744C228.602 890.744 229.46 889.666 229.46 888.06C229.46 886.476 228.602 885.398 227.304 885.398C225.984 885.398 225.126 886.476 225.126 888.06C225.126 889.666 225.984 890.744 227.304 890.744ZM248.72 882.032V894H244.276V892.218C243.462 893.494 242.208 894.198 240.602 894.198C238.094 894.198 236.378 892.416 236.378 889.622V882.032H240.822V888.368C240.822 889.534 241.46 890.282 242.428 890.282C243.572 890.26 244.276 889.314 244.276 887.95V882.032H248.72ZM257.036 881.856C260.402 881.856 262.404 883.462 262.404 886.234V894H258.048V892.68C257.322 893.648 256.134 894.198 254.55 894.198C251.998 894.198 250.502 892.68 250.502 890.436C250.502 888.126 252.108 886.85 255.122 886.806H258.048V886.762C258.048 885.772 257.344 885.178 255.98 885.178C255.034 885.178 253.692 885.464 252.372 886.036L251.272 883.088C253.23 882.296 255.166 881.856 257.036 881.856ZM256.024 891.294C256.926 891.294 257.718 890.81 258.048 890.062V888.984H256.024C255.144 888.984 254.682 889.358 254.682 890.106C254.682 890.854 255.166 891.294 256.024 891.294ZM270.113 881.878C272.621 881.878 274.623 883.022 275.635 885.002L272.225 886.674C271.807 885.926 271.147 885.486 270.311 885.486C269.123 885.486 268.331 886.52 268.331 888.038C268.331 889.6 269.123 890.634 270.311 890.634C271.169 890.634 271.829 890.216 272.203 889.314L275.657 891.052C274.733 893.032 272.709 894.154 270.069 894.154C266.307 894.154 263.843 891.734 263.843 888.06C263.843 884.342 266.329 881.878 270.113 881.878ZM289.132 882.032V894H284.688V892.218C283.874 893.494 282.62 894.198 281.014 894.198C278.506 894.198 276.79 892.416 276.79 889.622V882.032H281.234V888.368C281.234 889.534 281.872 890.282 282.84 890.282C283.984 890.26 284.688 889.314 284.688 887.95V882.032H289.132ZM296.37 894H291.926V877.676H296.37V894ZM306.577 890.37L307.369 893.428C306.533 893.912 305.257 894.198 304.047 894.198C301.495 894.22 299.779 892.746 299.779 890.26V885.486H298.129V882.648H299.779V879.326H304.201V882.648H307.149V885.486H304.201V889.578C304.201 890.348 304.597 890.722 305.213 890.722C305.565 890.722 306.049 890.568 306.577 890.37ZM321.08 882.032V894H316.636V892.218C315.822 893.494 314.568 894.198 312.962 894.198C310.454 894.198 308.738 892.416 308.738 889.622V882.032H313.182V888.368C313.182 889.534 313.82 890.282 314.788 890.282C315.932 890.26 316.636 889.314 316.636 887.95V882.032H321.08ZM328.207 882.032V883.924C329.043 882.604 330.341 881.856 331.969 881.856V885.86C329.681 885.574 328.207 886.542 328.207 888.28V894H323.763V882.032H328.207ZM338.928 881.878C343.13 881.878 345.418 884.694 345.154 889.094H337.102C337.454 890.238 338.29 890.876 339.434 890.876C340.38 890.876 341.282 890.458 342.074 889.732L344.384 891.998C343.13 893.384 341.326 894.154 339.06 894.154C335.056 894.154 332.614 891.734 332.614 888.06C332.614 884.32 335.144 881.878 338.928 881.878ZM337.014 886.916H340.776C340.798 885.728 340.05 884.892 338.972 884.892C337.938 884.892 337.234 885.706 337.014 886.916Z" fill="black"/>
<rect width="306" height="88" transform="translate(613 725)" fill="#EBF97B"/>
<path d="M669.137 746.098H661.745V749.178H668.609V752.698H661.745V758H657.169V742.578H669.137V746.098ZM676.466 745.856C679.832 745.856 681.834 747.462 681.834 750.234V758H677.478V756.68C676.752 757.648 675.564 758.198 673.98 758.198C671.428 758.198 669.932 756.68 669.932 754.436C669.932 752.126 671.538 750.85 674.552 750.806H677.478V750.762C677.478 749.772 676.774 749.178 675.41 749.178C674.464 749.178 673.122 749.464 671.802 750.036L670.702 747.088C672.66 746.296 674.596 745.856 676.466 745.856ZM675.454 755.294C676.356 755.294 677.148 754.81 677.478 754.062V752.984H675.454C674.574 752.984 674.112 753.358 674.112 754.106C674.112 754.854 674.596 755.294 675.454 755.294ZM688.641 746.032V747.924C689.477 746.604 690.775 745.856 692.403 745.856V749.86C690.115 749.574 688.641 750.542 688.641 752.28V758H684.197V746.032H688.641ZM696.217 740.334C697.559 740.334 698.505 741.28 698.505 742.622C698.505 743.964 697.559 744.91 696.217 744.91C694.875 744.91 693.929 743.964 693.929 742.622C693.929 741.28 694.875 740.334 696.217 740.334ZM698.417 758H693.973V746.032H698.417V758ZM709.356 745.856C711.908 745.856 713.668 747.638 713.668 750.41V758H709.224V751.686C709.224 750.498 708.542 749.75 707.508 749.75C706.298 749.772 705.55 750.718 705.55 752.082V758H701.106V746.032H705.55V747.88C706.386 746.56 707.684 745.856 709.356 745.856ZM721.406 745.878C725.608 745.878 727.896 748.694 727.632 753.094H719.58C719.932 754.238 720.768 754.876 721.912 754.876C722.858 754.876 723.76 754.458 724.552 753.732L726.862 755.998C725.608 757.384 723.804 758.154 721.538 758.154C717.534 758.154 715.092 755.734 715.092 752.06C715.092 748.32 717.622 745.878 721.406 745.878ZM719.492 750.916H723.254C723.276 749.728 722.528 748.892 721.45 748.892C720.416 748.892 719.712 749.706 719.492 750.916ZM734.064 745.834C735.868 745.834 737.694 746.34 739.322 747.286L737.848 750.08C736.22 749.244 734.878 748.826 733.932 748.826C733.382 748.826 733.03 749.024 733.03 749.398C733.03 750.74 739.278 750.146 739.278 754.238C739.278 756.702 737.144 758.198 734.02 758.198C731.908 758.198 729.95 757.626 728.388 756.504L729.752 753.71C731.248 754.678 732.766 755.184 734.086 755.184C734.68 755.184 735.076 755.008 735.076 754.634C735.076 753.27 728.96 753.93 728.96 749.838C728.96 747.33 731.05 745.834 734.064 745.834ZM753.84 745.878C757.184 745.878 759.384 748.342 759.384 752.082C759.384 755.756 757.25 758.154 753.95 758.154C752.542 758.154 751.376 757.604 750.562 756.614V762.268H746.118V746.032H750.562V747.418C751.354 746.428 752.498 745.878 753.84 745.878ZM752.718 754.634C754.038 754.634 754.896 753.556 754.896 751.972C754.896 750.388 754.038 749.31 752.718 749.31C751.442 749.31 750.562 750.388 750.562 751.972C750.562 753.556 751.442 754.634 752.718 754.634ZM766.897 745.878C770.922 745.878 773.541 748.298 773.541 752.016C773.541 755.712 770.922 758.154 766.897 758.154C762.871 758.154 760.231 755.712 760.231 752.016C760.231 748.298 762.871 745.878 766.897 745.878ZM766.897 749.398C765.577 749.398 764.719 750.476 764.719 752.06C764.719 753.666 765.577 754.722 766.897 754.722C768.195 754.722 769.053 753.666 769.053 752.06C769.053 750.476 768.195 749.398 766.897 749.398ZM787.303 746.032V758H782.859V756.218C782.045 757.494 780.791 758.198 779.185 758.198C776.677 758.198 774.961 756.416 774.961 753.622V746.032H779.405V752.368C779.405 753.534 780.043 754.282 781.011 754.282C782.155 754.26 782.859 753.314 782.859 751.95V746.032H787.303ZM794.431 746.032V747.924C795.267 746.604 796.565 745.856 798.193 745.856V749.86C795.905 749.574 794.431 750.542 794.431 752.28V758H789.987V746.032H794.431ZM810.206 745.856C813.572 745.856 815.574 747.462 815.574 750.234V758H811.218V756.68C810.492 757.648 809.304 758.198 807.72 758.198C805.168 758.198 803.672 756.68 803.672 754.436C803.672 752.126 805.278 750.85 808.292 750.806H811.218V750.762C811.218 749.772 810.514 749.178 809.15 749.178C808.204 749.178 806.862 749.464 805.542 750.036L804.442 747.088C806.4 746.296 808.336 745.856 810.206 745.856ZM809.194 755.294C810.096 755.294 810.888 754.81 811.218 754.062V752.984H809.194C808.314 752.984 807.852 753.358 807.852 754.106C807.852 754.854 808.336 755.294 809.194 755.294ZM829.95 746.032V758H825.506V756.218C824.692 757.494 823.438 758.198 821.832 758.198C819.324 758.198 817.608 756.416 817.608 753.622V746.032H822.052V752.368C822.052 753.534 822.69 754.282 823.658 754.282C824.802 754.26 825.506 753.314 825.506 751.95V746.032H829.95ZM840.025 754.37L840.817 757.428C839.981 757.912 838.705 758.198 837.495 758.198C834.943 758.22 833.227 756.746 833.227 754.26V749.486H831.577V746.648H833.227V743.326H837.649V746.648H840.597V749.486H837.649V753.578C837.649 754.348 838.045 754.722 838.661 754.722C839.013 754.722 839.497 754.568 840.025 754.37ZM846.96 746.032V747.924C847.796 746.604 849.094 745.856 850.722 745.856V749.86C848.434 749.574 846.96 750.542 846.96 752.28V758H842.516V746.032H846.96ZM857.681 745.878C861.883 745.878 864.171 748.694 863.907 753.094H855.855C856.207 754.238 857.043 754.876 858.187 754.876C859.133 754.876 860.035 754.458 860.827 753.732L863.137 755.998C861.883 757.384 860.079 758.154 857.813 758.154C853.809 758.154 851.367 755.734 851.367 752.06C851.367 748.32 853.897 745.878 857.681 745.878ZM855.767 750.916H859.529C859.551 749.728 858.803 748.892 857.725 748.892C856.691 748.892 855.987 749.706 855.767 750.916ZM870.339 745.834C872.143 745.834 873.969 746.34 875.597 747.286L874.123 750.08C872.495 749.244 871.153 748.826 870.207 748.826C869.657 748.826 869.305 749.024 869.305 749.398C869.305 750.74 875.553 750.146 875.553 754.238C875.553 756.702 873.419 758.198 870.295 758.198C868.183 758.198 866.225 757.626 864.663 756.504L866.027 753.71C867.523 754.678 869.041 755.184 870.361 755.184C870.955 755.184 871.351 755.008 871.351 754.634C871.351 753.27 865.235 753.93 865.235 749.838C865.235 747.33 867.325 745.834 870.339 745.834ZM628.479 775.834C630.283 775.834 632.109 776.34 633.737 777.286L632.263 780.08C630.635 779.244 629.293 778.826 628.347 778.826C627.797 778.826 627.445 779.024 627.445 779.398C627.445 780.74 633.693 780.146 633.693 784.238C633.693 786.702 631.559 788.198 628.435 788.198C626.323 788.198 624.365 787.626 622.803 786.504L624.167 783.71C625.663 784.678 627.181 785.184 628.501 785.184C629.095 785.184 629.491 785.008 629.491 784.634C629.491 783.27 623.375 783.93 623.375 779.838C623.375 777.33 625.465 775.834 628.479 775.834ZM641.001 775.878C645.203 775.878 647.491 778.694 647.227 783.094H639.175C639.527 784.238 640.363 784.876 641.507 784.876C642.453 784.876 643.355 784.458 644.147 783.732L646.457 785.998C645.203 787.384 643.399 788.154 641.133 788.154C637.129 788.154 634.687 785.734 634.687 782.06C634.687 778.32 637.217 775.878 641.001 775.878ZM639.087 780.916H642.849C642.871 779.728 642.123 778.892 641.045 778.892C640.011 778.892 639.307 779.706 639.087 780.916ZM654.363 775.878C656.871 775.878 658.873 777.022 659.885 779.002L656.475 780.674C656.057 779.926 655.397 779.486 654.561 779.486C653.373 779.486 652.581 780.52 652.581 782.038C652.581 783.6 653.373 784.634 654.561 784.634C655.419 784.634 656.079 784.216 656.453 783.314L659.907 785.052C658.983 787.032 656.959 788.154 654.319 788.154C650.557 788.154 648.093 785.734 648.093 782.06C648.093 778.342 650.579 775.878 654.363 775.878ZM668.762 784.37L669.554 787.428C668.718 787.912 667.442 788.198 666.232 788.198C663.68 788.22 661.964 786.746 661.964 784.26V779.486H660.314V776.648H661.964V773.326H666.386V776.648H669.334V779.486H666.386V783.578C666.386 784.348 666.782 784.722 667.398 784.722C667.75 784.722 668.234 784.568 668.762 784.37ZM676.622 775.878C680.824 775.878 683.112 778.694 682.848 783.094H674.796C675.148 784.238 675.984 784.876 677.128 784.876C678.074 784.876 678.976 784.458 679.768 783.732L682.078 785.998C680.824 787.384 679.02 788.154 676.754 788.154C672.75 788.154 670.308 785.734 670.308 782.06C670.308 778.32 672.838 775.878 676.622 775.878ZM674.708 780.916H678.47C678.492 779.728 677.744 778.892 676.666 778.892C675.632 778.892 674.928 779.706 674.708 780.916ZM696.65 776.032V788H692.206V786.218C691.392 787.494 690.138 788.198 688.532 788.198C686.024 788.198 684.308 786.416 684.308 783.622V776.032H688.752V782.368C688.752 783.534 689.39 784.282 690.358 784.282C691.502 784.26 692.206 783.314 692.206 781.95V776.032H696.65ZM703.777 776.032V777.924C704.613 776.604 705.911 775.856 707.539 775.856V779.86C705.251 779.574 703.777 780.542 703.777 782.28V788H699.333V776.032H703.777ZM713.751 775.834C715.555 775.834 717.381 776.34 719.009 777.286L717.535 780.08C715.907 779.244 714.565 778.826 713.619 778.826C713.069 778.826 712.717 779.024 712.717 779.398C712.717 780.74 718.965 780.146 718.965 784.238C718.965 786.702 716.831 788.198 713.707 788.198C711.595 788.198 709.637 787.626 708.075 786.504L709.439 783.71C710.935 784.678 712.453 785.184 713.773 785.184C714.367 785.184 714.763 785.008 714.763 784.634C714.763 783.27 708.647 783.93 708.647 779.838C708.647 777.33 710.737 775.834 713.751 775.834ZM731.085 775.878C735.287 775.878 737.575 778.694 737.311 783.094H729.259C729.611 784.238 730.447 784.876 731.591 784.876C732.537 784.876 733.439 784.458 734.231 783.732L736.541 785.998C735.287 787.384 733.483 788.154 731.217 788.154C727.213 788.154 724.771 785.734 724.771 782.06C724.771 778.32 727.301 775.878 731.085 775.878ZM729.171 780.916H732.933C732.955 779.728 732.207 778.892 731.129 778.892C730.095 778.892 729.391 779.706 729.171 780.916ZM746.493 784.37L747.285 787.428C746.449 787.912 745.173 788.198 743.963 788.198C741.411 788.22 739.695 786.746 739.695 784.26V779.486H738.045V776.648H739.695V773.326H744.117V776.648H747.065V779.486H744.117V783.578C744.117 784.348 744.513 784.722 745.129 784.722C745.481 784.722 745.965 784.568 746.493 784.37ZM759.428 775.856C762.794 775.856 764.796 777.462 764.796 780.234V788H760.44V786.68C759.714 787.648 758.526 788.198 756.942 788.198C754.39 788.198 752.894 786.68 752.894 784.436C752.894 782.126 754.5 780.85 757.514 780.806H760.44V780.762C760.44 779.772 759.736 779.178 758.372 779.178C757.426 779.178 756.084 779.464 754.764 780.036L753.664 777.088C755.622 776.296 757.558 775.856 759.428 775.856ZM758.416 785.294C759.318 785.294 760.11 784.81 760.44 784.062V782.984H758.416C757.536 782.984 757.074 783.358 757.074 784.106C757.074 784.854 757.558 785.294 758.416 785.294ZM779.171 776.032V788H774.727V786.218C773.913 787.494 772.659 788.198 771.053 788.198C768.545 788.198 766.829 786.416 766.829 783.622V776.032H771.273V782.368C771.273 783.534 771.911 784.282 772.879 784.282C774.023 784.26 774.727 783.314 774.727 781.95V776.032H779.171ZM789.247 784.37L790.039 787.428C789.203 787.912 787.927 788.198 786.717 788.198C784.165 788.22 782.449 786.746 782.449 784.26V779.486H780.799V776.648H782.449V773.326H786.871V776.648H789.819V779.486H786.871V783.578C786.871 784.348 787.267 784.722 787.883 784.722C788.235 784.722 788.719 784.568 789.247 784.37ZM796.182 776.032V777.924C797.018 776.604 798.316 775.856 799.944 775.856V779.86C797.656 779.574 796.182 780.542 796.182 782.28V788H791.738V776.032H796.182ZM806.903 775.878C811.105 775.878 813.393 778.694 813.129 783.094H805.077C805.429 784.238 806.265 784.876 807.409 784.876C808.355 784.876 809.257 784.458 810.049 783.732L812.359 785.998C811.105 787.384 809.301 788.154 807.035 788.154C803.031 788.154 800.589 785.734 800.589 782.06C800.589 778.32 803.119 775.878 806.903 775.878ZM804.989 780.916H808.751C808.773 779.728 808.025 778.892 806.947 778.892C805.913 778.892 805.209 779.706 804.989 780.916ZM819.561 775.834C821.365 775.834 823.191 776.34 824.819 777.286L823.345 780.08C821.717 779.244 820.375 778.826 819.429 778.826C818.879 778.826 818.527 779.024 818.527 779.398C818.527 780.74 824.775 780.146 824.775 784.238C824.775 786.702 822.641 788.198 819.517 788.198C817.405 788.198 815.447 787.626 813.885 786.504L815.249 783.71C816.745 784.678 818.263 785.184 819.583 785.184C820.177 785.184 820.573 785.008 820.573 784.634C820.573 783.27 814.457 783.93 814.457 779.838C814.457 777.33 816.547 775.834 819.561 775.834ZM843.517 776.032V788H839.073V786.218C838.259 787.494 837.005 788.198 835.399 788.198C832.891 788.198 831.175 786.416 831.175 783.622V776.032H835.619V782.368C835.619 783.534 836.257 784.282 837.225 784.282C838.369 784.26 839.073 783.314 839.073 781.95V776.032H843.517ZM850.842 775.834C852.646 775.834 854.472 776.34 856.1 777.286L854.626 780.08C852.998 779.244 851.656 778.826 850.71 778.826C850.16 778.826 849.808 779.024 849.808 779.398C849.808 780.74 856.056 780.146 856.056 784.238C856.056 786.702 853.922 788.198 850.798 788.198C848.686 788.198 846.728 787.626 845.166 786.504L846.53 783.71C848.026 784.678 849.544 785.184 850.864 785.184C851.458 785.184 851.854 785.008 851.854 784.634C851.854 783.27 845.738 783.93 845.738 779.838C845.738 777.33 847.828 775.834 850.842 775.834ZM863.606 775.856C866.972 775.856 868.974 777.462 868.974 780.234V788H864.618V786.68C863.892 787.648 862.704 788.198 861.12 788.198C858.568 788.198 857.072 786.68 857.072 784.436C857.072 782.126 858.678 780.85 861.692 780.806H864.618V780.762C864.618 779.772 863.914 779.178 862.55 779.178C861.604 779.178 860.262 779.464 858.942 780.036L857.842 777.088C859.8 776.296 861.736 775.856 863.606 775.856ZM862.594 785.294C863.496 785.294 864.288 784.81 864.618 784.062V782.984H862.594C861.714 782.984 861.252 783.358 861.252 784.106C861.252 784.854 861.736 785.294 862.594 785.294ZM883.041 776.032V786.966C883.041 790.332 880.379 792.466 876.463 792.466C874.241 792.466 872.239 791.762 870.941 790.904L872.415 787.912C873.471 788.616 874.857 789.012 876.089 789.012C877.695 789.012 878.641 788.264 878.641 787.098V785.888C877.871 786.812 876.793 787.318 875.429 787.318C872.525 787.318 870.413 785.03 870.413 781.532C870.413 778.122 872.459 775.878 875.341 775.878C876.749 775.878 877.871 776.406 878.641 777.33V776.032H883.041ZM876.595 784.128C877.827 784.128 878.641 783.138 878.641 781.664C878.641 780.146 877.827 779.156 876.595 779.156C875.385 779.156 874.571 780.168 874.571 781.664C874.571 783.138 875.385 784.128 876.595 784.128ZM891.057 775.878C895.259 775.878 897.547 778.694 897.283 783.094H889.231C889.583 784.238 890.419 784.876 891.563 784.876C892.509 784.876 893.411 784.458 894.203 783.732L896.513 785.998C895.259 787.384 893.455 788.154 891.189 788.154C887.185 788.154 884.743 785.734 884.743 782.06C884.743 778.32 887.273 775.878 891.057 775.878ZM889.143 780.916H892.905C892.927 779.728 892.179 778.892 891.101 778.892C890.067 778.892 889.363 779.706 889.143 780.916ZM903.715 775.834C905.519 775.834 907.345 776.34 908.973 777.286L907.499 780.08C905.871 779.244 904.529 778.826 903.583 778.826C903.033 778.826 902.681 779.024 902.681 779.398C902.681 780.74 908.929 780.146 908.929 784.238C908.929 786.702 906.795 788.198 903.671 788.198C901.559 788.198 899.601 787.626 898.039 786.504L899.403 783.71C900.899 784.678 902.417 785.184 903.737 785.184C904.331 785.184 904.727 785.008 904.727 784.634C904.727 783.27 898.611 783.93 898.611 779.838C898.611 777.33 900.701 775.834 903.715 775.834Z" fill="black"/>
<rect width="311" height="88" transform="translate(1038 725)" fill="#F4F4F4"/>
<path d="M1105.79 750.446C1108.12 750.446 1110.61 751.502 1112.17 753.174L1109.53 756.298C1108.56 755.066 1107.13 754.252 1105.86 754.252C1103.77 754.252 1102.18 755.946 1102.18 758.212C1102.18 760.478 1103.77 762.194 1105.86 762.194C1107.05 762.194 1108.48 761.49 1109.53 760.412L1112.17 763.228C1110.5 765.032 1107.97 766.198 1105.64 766.198C1100.95 766.198 1097.5 762.81 1097.5 758.256C1097.5 753.768 1101.02 750.446 1105.79 750.446ZM1119.12 753.878C1123.14 753.878 1125.76 756.298 1125.76 760.016C1125.76 763.712 1123.14 766.154 1119.12 766.154C1115.09 766.154 1112.45 763.712 1112.45 760.016C1112.45 756.298 1115.09 753.878 1119.12 753.878ZM1119.12 757.398C1117.8 757.398 1116.94 758.476 1116.94 760.06C1116.94 761.666 1117.8 762.722 1119.12 762.722C1120.42 762.722 1121.27 761.666 1121.27 760.06C1121.27 758.476 1120.42 757.398 1119.12 757.398ZM1135.76 753.856C1138.31 753.856 1140.07 755.638 1140.07 758.41V766H1135.63V759.686C1135.63 758.498 1134.95 757.75 1133.91 757.75C1132.7 757.772 1131.96 758.718 1131.96 760.082V766H1127.51V754.032H1131.96V755.88C1132.79 754.56 1134.09 753.856 1135.76 753.856ZM1147.06 753.834C1148.87 753.834 1150.69 754.34 1152.32 755.286L1150.85 758.08C1149.22 757.244 1147.88 756.826 1146.93 756.826C1146.38 756.826 1146.03 757.024 1146.03 757.398C1146.03 758.74 1152.28 758.146 1152.28 762.238C1152.28 764.702 1150.14 766.198 1147.02 766.198C1144.91 766.198 1142.95 765.626 1141.39 764.504L1142.75 761.71C1144.25 762.678 1145.77 763.184 1147.09 763.184C1147.68 763.184 1148.08 763.008 1148.08 762.634C1148.08 761.27 1141.96 761.93 1141.96 757.838C1141.96 755.33 1144.05 753.834 1147.06 753.834ZM1159.94 753.878C1163.96 753.878 1166.58 756.298 1166.58 760.016C1166.58 763.712 1163.96 766.154 1159.94 766.154C1155.91 766.154 1153.27 763.712 1153.27 760.016C1153.27 756.298 1155.91 753.878 1159.94 753.878ZM1159.94 757.398C1158.62 757.398 1157.76 758.476 1157.76 760.06C1157.76 761.666 1158.62 762.722 1159.94 762.722C1161.24 762.722 1162.09 761.666 1162.09 760.06C1162.09 758.476 1161.24 757.398 1159.94 757.398ZM1184.48 753.856C1187.01 753.856 1188.73 755.638 1188.73 758.41V766H1184.28V759.686C1184.28 758.498 1183.62 757.75 1182.63 757.75C1181.49 757.772 1180.76 758.718 1180.76 760.082V766H1176.32V759.686C1176.32 758.498 1175.66 757.75 1174.67 757.75C1173.5 757.772 1172.78 758.718 1172.78 760.082V766H1168.33V754.032H1172.78V755.858C1173.59 754.56 1174.87 753.856 1176.49 753.856C1178.36 753.856 1179.79 754.824 1180.43 756.452C1181.2 754.78 1182.61 753.856 1184.48 753.856ZM1207.23 753.856C1209.76 753.856 1211.48 755.638 1211.48 758.41V766H1207.03V759.686C1207.03 758.498 1206.37 757.75 1205.38 757.75C1204.24 757.772 1203.51 758.718 1203.51 760.082V766H1199.07V759.686C1199.07 758.498 1198.41 757.75 1197.42 757.75C1196.25 757.772 1195.53 758.718 1195.53 760.082V766H1191.08V754.032H1195.53V755.858C1196.34 754.56 1197.62 753.856 1199.25 753.856C1201.12 753.856 1202.55 754.824 1203.18 756.452C1203.95 754.78 1205.36 753.856 1207.23 753.856ZM1219.47 753.856C1222.83 753.856 1224.84 755.462 1224.84 758.234V766H1220.48V764.68C1219.75 765.648 1218.57 766.198 1216.98 766.198C1214.43 766.198 1212.93 764.68 1212.93 762.436C1212.93 760.126 1214.54 758.85 1217.55 758.806H1220.48V758.762C1220.48 757.772 1219.78 757.178 1218.41 757.178C1217.47 757.178 1216.12 757.464 1214.8 758.036L1213.7 755.088C1215.66 754.296 1217.6 753.856 1219.47 753.856ZM1218.46 763.294C1219.36 763.294 1220.15 762.81 1220.48 762.062V760.984H1218.46C1217.58 760.984 1217.11 761.358 1217.11 762.106C1217.11 762.854 1217.6 763.294 1218.46 763.294ZM1234.59 762.37L1235.38 765.428C1234.55 765.912 1233.27 766.198 1232.06 766.198C1229.51 766.22 1227.79 764.746 1227.79 762.26V757.486H1226.14V754.648H1227.79V751.326H1232.22V754.648H1235.16V757.486H1232.22V761.578C1232.22 762.348 1232.61 762.722 1233.23 762.722C1233.58 762.722 1234.06 762.568 1234.59 762.37ZM1239.33 748.334C1240.67 748.334 1241.61 749.28 1241.61 750.622C1241.61 751.964 1240.67 752.91 1239.33 752.91C1237.98 752.91 1237.04 751.964 1237.04 750.622C1237.04 749.28 1237.98 748.334 1239.33 748.334ZM1241.53 766H1237.08V754.032H1241.53V766ZM1249.96 753.878C1253.98 753.878 1256.6 756.298 1256.6 760.016C1256.6 763.712 1253.98 766.154 1249.96 766.154C1245.93 766.154 1243.29 763.712 1243.29 760.016C1243.29 756.298 1245.93 753.878 1249.96 753.878ZM1249.96 757.398C1248.64 757.398 1247.78 758.476 1247.78 760.06C1247.78 761.666 1248.64 762.722 1249.96 762.722C1251.26 762.722 1252.11 761.666 1252.11 760.06C1252.11 758.476 1251.26 757.398 1249.96 757.398ZM1266.6 753.856C1269.15 753.856 1270.91 755.638 1270.91 758.41V766H1266.47V759.686C1266.47 758.498 1265.79 757.75 1264.75 757.75C1263.54 757.772 1262.8 758.718 1262.8 760.082V766H1258.35V754.032H1262.8V755.88C1263.63 754.56 1264.93 753.856 1266.6 753.856ZM1143.56 783.856C1146.14 783.856 1147.88 785.638 1147.88 788.41V796H1143.43V789.686C1143.43 788.498 1142.77 787.75 1141.72 787.75C1140.51 787.772 1139.76 788.718 1139.76 790.082V796H1135.31V779.676H1139.76V785.88C1140.59 784.56 1141.89 783.856 1143.56 783.856ZM1162.23 784.032V796H1157.79V794.218C1156.97 795.494 1155.72 796.198 1154.11 796.198C1151.61 796.198 1149.89 794.416 1149.89 791.622V784.032H1154.33V790.368C1154.33 791.534 1154.97 792.282 1155.94 792.282C1157.08 792.26 1157.79 791.314 1157.79 789.95V784.032H1162.23ZM1181.06 783.856C1183.59 783.856 1185.31 785.638 1185.31 788.41V796H1180.87V789.686C1180.87 788.498 1180.21 787.75 1179.22 787.75C1178.07 787.772 1177.35 788.718 1177.35 790.082V796H1172.9V789.686C1172.9 788.498 1172.24 787.75 1171.25 787.75C1170.09 787.772 1169.36 788.718 1169.36 790.082V796H1164.92V784.032H1169.36V785.858C1170.17 784.56 1171.45 783.856 1173.08 783.856C1174.95 783.856 1176.38 784.824 1177.02 786.452C1177.79 784.78 1179.19 783.856 1181.06 783.856ZM1193.3 783.856C1196.67 783.856 1198.67 785.462 1198.67 788.234V796H1194.31V794.68C1193.59 795.648 1192.4 796.198 1190.81 796.198C1188.26 796.198 1186.77 794.68 1186.77 792.436C1186.77 790.126 1188.37 788.85 1191.39 788.806H1194.31V788.762C1194.31 787.772 1193.61 787.178 1192.24 787.178C1191.3 787.178 1189.96 787.464 1188.64 788.036L1187.54 785.088C1189.49 784.296 1191.43 783.856 1193.3 783.856ZM1192.29 793.294C1193.19 793.294 1193.98 792.81 1194.31 792.062V790.984H1192.29C1191.41 790.984 1190.95 791.358 1190.95 792.106C1190.95 792.854 1191.43 793.294 1192.29 793.294ZM1203.28 778.334C1204.62 778.334 1205.56 779.28 1205.56 780.622C1205.56 781.964 1204.62 782.91 1203.28 782.91C1201.93 782.91 1200.99 781.964 1200.99 780.622C1200.99 779.28 1201.93 778.334 1203.28 778.334ZM1205.48 796H1201.03V784.032H1205.48V796ZM1216.41 783.856C1218.97 783.856 1220.73 785.638 1220.73 788.41V796H1216.28V789.686C1216.28 788.498 1215.6 787.75 1214.57 787.75C1213.36 787.772 1212.61 788.718 1212.61 790.082V796H1208.16V784.032H1212.61V785.88C1213.44 784.56 1214.74 783.856 1216.41 783.856ZM1228.46 783.878C1232.67 783.878 1234.95 786.694 1234.69 791.094H1226.64C1226.99 792.238 1227.83 792.876 1228.97 792.876C1229.92 792.876 1230.82 792.458 1231.61 791.732L1233.92 793.998C1232.67 795.384 1230.86 796.154 1228.6 796.154C1224.59 796.154 1222.15 793.734 1222.15 790.06C1222.15 786.32 1224.68 783.878 1228.46 783.878ZM1226.55 788.916H1230.31C1230.33 787.728 1229.59 786.892 1228.51 786.892C1227.47 786.892 1226.77 787.706 1226.55 788.916Z" fill="black"/>
<path fill-rule="evenodd" clip-rule="evenodd" d="M156 259.702C185.406 275.691 210.259 292.708 229.517 311H478.458L484 251.12C468.364 252.01 441.34 250.596 424.483 251.12C424.483 251.12 421.976 262.038 421.804 262.045C362.287 265.045 252.312 262.782 156.007 259.702H156Z" fill="#13176F"/>
<path fill-rule="evenodd" clip-rule="evenodd" d="M253 269L258.165 234H337.178L342 265.663L253 269Z" fill="#13176F"/>
<path fill-rule="evenodd" clip-rule="evenodd" d="M263 251L266.132 223H314.072L317 248.334L263 251Z" fill="#13176F"/>
<path fill-rule="evenodd" clip-rule="evenodd" d="M209 269L227.136 244L337.71 244.107L342 266.628L209 269Z" fill="#13176F"/>
<path fill-rule="evenodd" clip-rule="evenodd" d="M437 269L438.639 223L448.612 223.198L449 264.637L437 269Z" fill="#13176F"/>
<path d="M444.5 248.5C444.5 466.55 672.548 645.282 672.548 645.282L794.038 393.88C794.038 393.88 1140.35 458.25 1235 647L672.566 645.282" stroke="#13176F" stroke-width="3" stroke-miterlimit="10"/>
<path fill-rule="evenodd" clip-rule="evenodd" d="M320 226H258L264.781 219H313.702L320 226Z" fill="#13176F"/>
<path fill-rule="evenodd" clip-rule="evenodd" d="M299 224H289L291.636 184H295.677L299 224Z" fill="#13176F"/>
<path fill-rule="evenodd" clip-rule="evenodd" d="M211.086 263H201L233.917 209H238L211.086 263Z" fill="#13176F"/>
<path fill-rule="evenodd" clip-rule="evenodd" d="M295 204H279L280.751 206.097L293.378 208L295 204Z" fill="#13176F"/>
<path fill-rule="evenodd" clip-rule="evenodd" d="M308 194H292L293.745 197L306.371 195.573L308 194Z" fill="#13176F"/>
<path fill-rule="evenodd" clip-rule="evenodd" d="M395 187H379L380.751 188.573L393.378 190L395 187Z" fill="#13176F"/>
<path fill-rule="evenodd" clip-rule="evenodd" d="M402 266H384L389.626 240H402V266Z" fill="#13176F"/>
<path d="M702 646L817 398" stroke="#13176F" stroke-width="3" stroke-miterlimit="10"/>
<path d="M732 646L843 405" stroke="#13176F" stroke-width="3" stroke-miterlimit="10"/>
<path d="M760 646L869 413" stroke="#13176F" stroke-width="3" stroke-miterlimit="10"/>
<path d="M788 646L893 421" stroke="#13176F" stroke-width="3" stroke-miterlimit="10"/>
<path d="M819 646L919 429" stroke="#13176F" stroke-width="3" stroke-miterlimit="10"/>
<path d="M848 646L945 436" stroke="#13176F" stroke-width="3" stroke-miterlimit="10"/>
<path d="M877 646L969 446" stroke="#13176F" stroke-width="3" stroke-miterlimit="10"/>
<path d="M906 646L994 457" stroke="#13176F" stroke-width="3" stroke-miterlimit="10"/>
<path d="M935 646L1017 466" stroke="#13176F" stroke-width="3" stroke-miterlimit="10"/>
<path d="M964 646L1041 478" stroke="#13176F" stroke-width="3" stroke-miterlimit="10"/>
<path d="M993 646L1065 490" stroke="#13176F" stroke-width="3" stroke-miterlimit="10"/>
<path d="M1022 646L1088 504" stroke="#13176F" stroke-width="3" stroke-miterlimit="10"/>
<path d="M1051 646L1112 517" stroke="#13176F" stroke-width="3" stroke-miterlimit="10"/>
<path d="M1081 646L1133 534" stroke="#13176F" stroke-width="3" stroke-miterlimit="10"/>
<path d="M1109 646L1155 548" stroke="#13176F" stroke-width="3" stroke-miterlimit="10"/>
<path d="M1139 646L1175 569" stroke="#13176F" stroke-width="3" stroke-miterlimit="10"/>
<path d="M1167 646L1194 588" stroke="#13176F" stroke-width="3" stroke-miterlimit="10"/>
<path d="M1197 646L1213 611" stroke="#13176F" stroke-width="3" stroke-miterlimit="10"/>
<path d="M73 311H669" stroke="black"/>
<rect width="148" height="56" transform="translate(721 342)" fill="#FF3636"/>
<path d="M756.925 376H750.237V358.88H746.237V353.568H756.925V376ZM771.063 353.376C777.527 353.376 781.175 357.44 781.175 364.768C781.175 372.128 777.527 376.192 771.063 376.192C764.503 376.192 760.919 372.128 760.919 364.768C760.919 357.44 764.503 353.376 771.063 353.376ZM771.063 358.208C768.663 358.208 767.735 359.968 767.735 364.768C767.735 369.568 768.663 371.36 771.063 371.36C773.399 371.36 774.327 369.568 774.327 364.768C774.327 359.968 773.399 358.208 771.063 358.208ZM789.687 353.472C793.591 353.472 796.087 356.096 796.087 360.256C796.087 364.448 793.591 367.136 789.687 367.136C785.751 367.136 783.255 364.448 783.255 360.256C783.255 356.096 785.751 353.472 789.687 353.472ZM788.183 376L803.959 353.568H809.975L794.231 376H788.183ZM789.687 356.864C788.215 356.864 787.319 358.176 787.319 360.256C787.319 362.368 788.215 363.68 789.687 363.68C791.127 363.68 792.023 362.368 792.023 360.256C792.023 358.176 791.127 356.864 789.687 356.864ZM808.631 362.464C812.535 362.464 815.031 365.12 815.031 369.28C815.031 373.472 812.535 376.128 808.631 376.128C804.695 376.128 802.199 373.472 802.199 369.28C802.199 365.12 804.695 362.464 808.631 362.464ZM808.631 365.888C807.159 365.888 806.263 367.2 806.263 369.28C806.263 371.392 807.159 372.704 808.631 372.704C810.071 372.704 810.967 371.392 810.967 369.28C810.967 367.2 810.071 365.888 808.631 365.888Z" fill="black"/>
<rect width="148" height="56" transform="translate(906 362)" fill="#EBF97B"/>
<path d="M938.331 373.28C942.843 373.28 946.203 375.68 946.203 379.264C946.203 381.792 944.379 384.288 941.915 386.816L938.011 390.816H946.683V396H929.499V391.776L937.371 383.52C938.427 382.4 939.259 381.12 939.259 380.224C939.259 379.232 938.555 378.688 937.307 378.688C935.547 378.688 933.339 379.776 931.227 381.536L928.731 376.736C931.771 374.592 934.939 373.28 938.331 373.28ZM958.954 373.376C965.418 373.376 969.066 377.44 969.066 384.768C969.066 392.128 965.418 396.192 958.954 396.192C952.394 396.192 948.81 392.128 948.81 384.768C948.81 377.44 952.394 373.376 958.954 373.376ZM958.954 378.208C956.554 378.208 955.626 379.968 955.626 384.768C955.626 389.568 956.554 391.36 958.954 391.36C961.29 391.36 962.218 389.568 962.218 384.768C962.218 379.968 961.29 378.208 958.954 378.208ZM977.578 373.472C981.482 373.472 983.978 376.096 983.978 380.256C983.978 384.448 981.482 387.136 977.578 387.136C973.642 387.136 971.146 384.448 971.146 380.256C971.146 376.096 973.642 373.472 977.578 373.472ZM976.074 396L991.85 373.568H997.866L982.122 396H976.074ZM977.578 376.864C976.106 376.864 975.21 378.176 975.21 380.256C975.21 382.368 976.106 383.68 977.578 383.68C979.018 383.68 979.914 382.368 979.914 380.256C979.914 378.176 979.018 376.864 977.578 376.864ZM996.522 382.464C1000.43 382.464 1002.92 385.12 1002.92 389.28C1002.92 393.472 1000.43 396.128 996.522 396.128C992.586 396.128 990.09 393.472 990.09 389.28C990.09 385.12 992.586 382.464 996.522 382.464ZM996.522 385.888C995.05 385.888 994.154 387.2 994.154 389.28C994.154 391.392 995.05 392.704 996.522 392.704C997.962 392.704 998.858 391.392 998.858 389.28C998.858 387.2 997.962 385.888 996.522 385.888Z" fill="black"/>
<rect width="148" height="56" transform="translate(1076 490)" fill="#F4F4F4"/>
<path d="M1117.23 506.08L1109.26 524H1102.22L1109.9 506.752H1105.04V509.888H1099.18V501.568H1117.23V506.08ZM1128.99 501.376C1135.45 501.376 1139.1 505.44 1139.1 512.768C1139.1 520.128 1135.45 524.192 1128.99 524.192C1122.43 524.192 1118.84 520.128 1118.84 512.768C1118.84 505.44 1122.43 501.376 1128.99 501.376ZM1128.99 506.208C1126.59 506.208 1125.66 507.968 1125.66 512.768C1125.66 517.568 1126.59 519.36 1128.99 519.36C1131.32 519.36 1132.25 517.568 1132.25 512.768C1132.25 507.968 1131.32 506.208 1128.99 506.208ZM1147.61 501.472C1151.51 501.472 1154.01 504.096 1154.01 508.256C1154.01 512.448 1151.51 515.136 1147.61 515.136C1143.67 515.136 1141.18 512.448 1141.18 508.256C1141.18 504.096 1143.67 501.472 1147.61 501.472ZM1146.11 524L1161.88 501.568H1167.9L1152.15 524H1146.11ZM1147.61 504.864C1146.14 504.864 1145.24 506.176 1145.24 508.256C1145.24 510.368 1146.14 511.68 1147.61 511.68C1149.05 511.68 1149.95 510.368 1149.95 508.256C1149.95 506.176 1149.05 504.864 1147.61 504.864ZM1166.55 510.464C1170.46 510.464 1172.95 513.12 1172.95 517.28C1172.95 521.472 1170.46 524.128 1166.55 524.128C1162.62 524.128 1160.12 521.472 1160.12 517.28C1160.12 513.12 1162.62 510.464 1166.55 510.464ZM1166.55 513.888C1165.08 513.888 1164.19 515.2 1164.19 517.28C1164.19 519.392 1165.08 520.704 1166.55 520.704C1167.99 520.704 1168.89 519.392 1168.89 517.28C1168.89 515.2 1167.99 513.888 1166.55 513.888Z" fill="black"/>
<path d="M688 670V693.711H279V711" stroke="black" stroke-width="3"/>
<path d="M771 672V694" stroke="black" stroke-width="3"/>
<path d="M1181 711V694H983V671" stroke="black" stroke-width="3"/>
<path d="M276 843.5V823.5" stroke="black" stroke-width="2"/>
</svg>
