<svg width="102" height="102" viewBox="0 0 102 102" fill="none" xmlns="http://www.w3.org/2000/svg">
<path d="M11.4389 43.2712C14.0686 44.4582 17.0202 45.1872 19.2799 46.9264C25.1647 51.439 26.0778 51.7402 32.4812 47.8463C37.9446 44.5302 43.8068 42.3384 47.8999 36.2765C51.9694 30.2379 67.9494 33.1318 71.7207 39.5094C72.6465 41.0827 74.4527 42.1602 76.0154 43.2097C81.3232 46.8089 86.691 50.3021 92.0691 53.8668C82.1684 69.6456 53.4145 73.9814 34.9527 66.0875C35.6525 65.2915 36.2929 64.5657 37.0993 63.6526C34.5258 61.9079 32.1954 60.2269 29.7804 58.7227C26.3883 56.5953 23.3064 57.3379 20.2973 59.9004C17.5477 62.2535 14.7134 64.7952 10.1359 62.6471C14.0849 56.8441 14.9206 50.9274 10.2108 45.0327C10.6279 44.4456 11.0334 43.8584 11.4506 43.2714L11.4389 43.2712Z" fill="#E82D04"/>
<path d="M13.1991 75.0093C14.3214 75.5224 15.5812 75.8373 16.5455 76.5892C19.0569 78.54 19.4466 78.6702 22.1802 76.9857C24.5124 75.5512 27.0148 74.6028 28.7625 71.9811C30.5 69.3694 37.3205 70.6193 38.9296 73.3767C39.3246 74.057 40.0955 74.5228 40.7623 74.9764C43.0275 76.5323 45.3183 78.0424 47.6135 79.5833C43.3861 86.4075 31.1126 88.2853 23.2333 84.8735C23.5321 84.5292 23.8055 84.2153 24.1498 83.8204C23.0515 83.0662 22.0569 82.3395 21.0263 81.6893C19.5786 80.7696 18.2631 81.0911 16.9785 82.1995C15.8047 83.2173 14.5946 84.3167 12.641 83.3882C14.3272 80.8784 14.6844 78.3198 12.6747 75.7712C12.8528 75.5173 13.026 75.2633 13.2041 75.0094L13.1991 75.0093Z" fill="#E82D04"/>
<path d="M10.0023 28.9466C11.1247 29.4596 12.3844 29.7746 13.3488 30.5265C15.8601 32.4773 16.2498 32.6074 18.9834 30.9229C21.3156 29.4884 23.818 28.5401 25.5657 25.9183C27.3032 23.3066 34.1237 24.5565 35.7328 27.314C36.1278 27.9942 36.8987 28.46 37.5656 28.9137C39.8307 30.4696 42.1215 31.9796 44.4168 33.5206C40.1893 40.3448 27.9158 42.2226 20.0365 38.8108C20.3353 38.4665 20.6087 38.1526 20.953 37.7576C19.8547 37.0034 18.8602 36.2768 17.8295 35.6265C16.3819 34.7069 15.0663 35.0283 13.7817 36.1367C12.6079 37.1545 11.3979 38.2539 9.44425 37.3255C11.1304 34.8157 11.4877 32.257 9.47796 29.7084C9.65606 29.4546 9.82919 29.2006 10.0073 28.9467L10.0023 28.9466Z" fill="#E82D04"/>
<path d="M58.1522 20.7856C59.2746 21.2986 60.5343 21.6136 61.4987 22.3655C64.01 24.3163 64.3997 24.4464 67.1333 22.7619C69.4655 21.3274 71.9679 20.3791 73.7156 17.7573C75.4532 15.1456 82.2736 16.3955 83.8827 19.153C84.2777 19.8332 85.0486 20.299 85.7155 20.7527C87.9807 22.3085 90.2714 23.8186 92.5667 25.3596C88.3392 32.1838 76.0657 34.0615 68.1864 30.6498C68.4852 30.3055 68.7586 29.9916 69.1029 29.5966C68.0046 28.8424 67.0101 28.1157 65.9794 27.4655C64.5318 26.5459 63.2162 26.8673 61.9316 27.9757C60.7578 28.9935 59.5478 30.0929 57.5941 29.1644C59.2803 26.6547 59.6376 24.096 57.6279 21.5474C57.806 21.2935 57.9791 21.0396 58.1572 20.7857L58.1522 20.7856Z" fill="#E82D04"/>
<path d="M57.1923 75.7773C58.3146 76.2903 59.5744 76.6053 60.5387 77.3572C63.05 79.308 63.4397 79.4381 66.1733 77.7536C68.5056 76.3191 71.008 75.3708 72.7556 72.749C74.4932 70.1373 81.3137 71.3872 82.9228 74.1447C83.3178 74.8249 84.0886 75.2907 84.7555 75.7444C87.0207 77.3002 89.3115 78.8103 91.6067 80.3513C87.3792 87.1755 75.1058 89.0532 67.2265 85.6415C67.5252 85.2972 67.7986 84.9833 68.1429 84.5883C67.0447 83.8341 66.0501 83.1074 65.0195 82.4572C63.5718 81.5376 62.2563 81.859 60.9717 82.9674C59.7978 83.9852 58.5878 85.0846 56.6342 84.1561C58.3203 81.6464 58.6776 79.0877 56.6679 76.5391C56.846 76.2852 57.0191 76.0313 57.1972 75.7774L57.1923 75.7773Z" fill="#E82D04"/>
</svg>
