<svg width="1500" height="760" viewBox="0 0 1500 760" fill="none" xmlns="http://www.w3.org/2000/svg">
<g clip-path="url(#clip0_3319_855)">
<rect width="1500" height="760" fill="white"/>
<mask id="mask0_3319_855" style="mask-type:alpha" maskUnits="userSpaceOnUse" x="398" y="94" width="440" height="544">
<path fill-rule="evenodd" clip-rule="evenodd" d="M821.459 150.709C823.054 148.48 824.414 146.028 825.488 143.376C832.812 125.282 824.082 104.677 805.989 97.3521C787.895 90.0274 767.29 98.7573 759.965 116.851C759.465 118.086 759.04 119.332 758.688 120.585C742.579 117.693 726.101 126.35 719.715 142.124C717.499 147.599 716.753 153.304 717.291 158.801C692.011 154.277 666.157 167.867 656.136 192.621C655.141 195.078 654.335 197.565 653.711 200.065C636.133 199.363 618.763 202.118 602.528 207.936C574.698 198.062 543.768 211.783 532.578 239.423C528.482 249.542 527.584 260.161 529.41 270.16C527.076 274.402 524.947 278.809 523.039 283.374C500.813 283.057 479.642 296.207 470.8 318.05C468.832 322.912 467.602 327.889 467.058 332.858C441.219 347.421 419.951 370.514 407.956 400.144C390.629 442.946 396.692 489.408 420.142 525.359C422.333 569.84 449.743 611.174 493.739 628.985C536.7 646.376 583.902 636.653 616.375 607.853C671.915 620.695 730.105 591.645 752.174 537.128C755.952 527.796 758.451 518.263 759.752 508.724C775.184 503.995 788.432 492.607 794.96 476.481C803.649 455.018 797.948 431.305 782.39 416.034C794.464 410.758 804.565 400.939 809.9 387.76C815.464 374.015 814.762 359.29 809.135 346.751C820.107 341.26 829.202 331.904 834.168 319.637C840.109 304.96 838.906 289.164 832.19 276.107C842.248 248.671 833.882 218.703 813.035 200.23C818.43 196.451 822.832 191.122 825.488 184.561C830.203 172.914 828.265 160.226 821.459 150.709ZM630.29 182.923C624.011 193.48 610.798 198.164 599.062 193.413C586.109 188.169 579.859 173.418 585.102 160.465C588.762 151.424 597.054 145.648 606.133 144.767C603.304 139.865 602.682 133.757 604.97 128.104C608.913 118.363 620.007 113.663 629.748 117.606C637.824 120.876 642.435 129.06 641.528 137.313C642.882 137.596 644.229 138.004 645.556 138.541C657.586 143.411 663.39 157.111 658.52 169.141C653.968 180.388 641.698 186.193 630.29 182.923ZM646.269 132.462C652.829 135.117 660.299 131.952 662.955 125.393C665.61 118.833 662.445 111.363 655.885 108.707C649.326 106.052 641.855 109.217 639.2 115.776C636.544 122.336 639.709 129.806 646.269 132.462Z" fill="#FF3636"/>
</mask>
<g mask="url(#mask0_3319_855)">
<rect x="340.612" y="586.812" width="544.126" height="49.9491" fill="#EBF97B"/>
<rect x="340.612" y="510.294" width="544.126" height="76.5177" fill="#13176F"/>
<rect x="340.463" y="55.0728" width="543.837" height="461.466" fill="#FF3636"/>
</g>
<path d="M620.798 630H677.191L688 831H602L620.798 630Z" fill="#13176F"/>
<path d="M512.798 659H569.191L580 861H494L512.798 659Z" fill="#13176F"/>
<path d="M544.091 55.568H553.915C561.179 55.568 565.979 60.016 565.979 66.768C565.979 73.52 561.083 78 553.691 78H544.091V55.568ZM550.747 60.816V72.784H554.107C557.147 72.784 559.195 70.416 559.195 66.832C559.195 63.216 556.987 60.816 553.787 60.816H550.747ZM571.794 52.304C573.746 52.304 575.122 53.68 575.122 55.632C575.122 57.584 573.746 58.96 571.794 58.96C569.842 58.96 568.466 57.584 568.466 55.632C568.466 53.68 569.842 52.304 571.794 52.304ZM574.994 78H568.53V60.592H574.994V78ZM585.657 60.304C588.281 60.304 590.937 61.04 593.305 62.416L591.161 66.48C588.793 65.264 586.841 64.656 585.465 64.656C584.665 64.656 584.153 64.944 584.153 65.488C584.153 67.44 593.241 66.576 593.241 72.528C593.241 76.112 590.137 78.288 585.593 78.288C582.521 78.288 579.673 77.456 577.401 75.824L579.385 71.76C581.561 73.168 583.769 73.904 585.689 73.904C586.553 73.904 587.129 73.648 587.129 73.104C587.129 71.12 578.233 72.08 578.233 66.128C578.233 62.48 581.273 60.304 585.657 60.304ZM606.782 72.72L607.934 77.168C606.718 77.872 604.862 78.288 603.102 78.288C599.39 78.32 596.894 76.176 596.894 72.56V65.616H594.494V61.488H596.894V56.656H603.326V61.488H607.614V65.616H603.326V71.568C603.326 72.688 603.902 73.232 604.798 73.232C605.31 73.232 606.014 73.008 606.782 72.72ZM616.869 60.592V63.344C618.085 61.424 619.973 60.336 622.341 60.336V66.16C619.013 65.744 616.869 67.152 616.869 69.68V78H610.405V60.592H616.869ZM627.888 52.304C629.84 52.304 631.216 53.68 631.216 55.632C631.216 57.584 629.84 58.96 627.888 58.96C625.936 58.96 624.56 57.584 624.56 55.632C624.56 53.68 625.936 52.304 627.888 52.304ZM631.088 78H624.624V60.592H631.088V78ZM646.391 60.368C651.255 60.368 654.455 63.952 654.455 69.392C654.455 74.736 651.351 78.224 646.551 78.224C644.503 78.224 642.807 77.424 641.623 75.984V78H635.159V54.256H641.623V62.608C642.775 61.168 644.439 60.368 646.391 60.368ZM644.759 73.104C646.679 73.104 647.927 71.536 647.927 69.232C647.927 66.928 646.679 65.36 644.759 65.36C642.903 65.36 641.623 66.928 641.623 69.232C641.623 71.536 642.903 73.104 644.759 73.104ZM674.502 60.592V78H668.038V75.408C666.854 77.264 665.03 78.288 662.694 78.288C659.046 78.288 656.55 75.696 656.55 71.632V60.592H663.014V69.808C663.014 71.504 663.942 72.592 665.35 72.592C667.014 72.56 668.038 71.184 668.038 69.2V60.592H674.502ZM689.157 72.72L690.309 77.168C689.093 77.872 687.237 78.288 685.477 78.288C681.765 78.32 679.269 76.176 679.269 72.56V65.616H676.869V61.488H679.269V56.656H685.701V61.488H689.989V65.616H685.701V71.568C685.701 72.688 686.277 73.232 687.173 73.232C687.685 73.232 688.389 73.008 689.157 72.72ZM696.044 52.304C697.996 52.304 699.372 53.68 699.372 55.632C699.372 57.584 697.996 58.96 696.044 58.96C694.092 58.96 692.716 57.584 692.716 55.632C692.716 53.68 694.092 52.304 696.044 52.304ZM699.244 78H692.78V60.592H699.244V78ZM711.507 60.368C717.363 60.368 721.171 63.888 721.171 69.296C721.171 74.672 717.363 78.224 711.507 78.224C705.651 78.224 701.811 74.672 701.811 69.296C701.811 63.888 705.651 60.368 711.507 60.368ZM711.507 65.488C709.587 65.488 708.339 67.056 708.339 69.36C708.339 71.696 709.587 73.232 711.507 73.232C713.395 73.232 714.643 71.696 714.643 69.36C714.643 67.056 713.395 65.488 711.507 65.488ZM735.718 60.336C739.43 60.336 741.99 62.928 741.99 66.96V78H735.526V68.816C735.526 67.088 734.534 66 733.03 66C731.27 66.032 730.182 67.408 730.182 69.392V78H723.718V60.592H730.182V63.28C731.398 61.36 733.286 60.336 735.718 60.336ZM760.757 60.368C766.613 60.368 770.421 63.888 770.421 69.296C770.421 74.672 766.613 78.224 760.757 78.224C754.901 78.224 751.061 74.672 751.061 69.296C751.061 63.888 754.901 60.368 760.757 60.368ZM760.757 65.488C758.837 65.488 757.589 67.056 757.589 69.36C757.589 71.696 758.837 73.232 760.757 73.232C762.645 73.232 763.893 71.696 763.893 69.36C763.893 67.056 762.645 65.488 760.757 65.488ZM782.094 58.992C781.006 58.992 780.27 59.6 780.27 60.656V61.488H783.886V65.616H780.27V78H773.87V65.616H771.502V61.488H773.87V59.888C773.87 56.176 776.718 53.936 780.814 53.968C782.67 53.968 784.75 54.416 786.158 55.216L783.95 59.664C783.374 59.248 782.638 58.992 782.094 58.992ZM800.62 60.368C806.732 60.368 810.06 64.464 809.676 70.864H797.964C798.476 72.528 799.692 73.456 801.356 73.456C802.732 73.456 804.044 72.848 805.196 71.792L808.556 75.088C806.732 77.104 804.108 78.224 800.812 78.224C794.988 78.224 791.436 74.704 791.436 69.36C791.436 63.92 795.116 60.368 800.62 60.368ZM797.836 67.696H803.308C803.34 65.968 802.252 64.752 800.684 64.752C799.18 64.752 798.156 65.936 797.836 67.696ZM835.768 60.336C839.448 60.336 841.944 62.928 841.944 66.96V78H835.48V68.816C835.48 67.088 834.52 66 833.08 66C831.416 66.032 830.36 67.408 830.36 69.392V78H823.896V68.816C823.896 67.088 822.936 66 821.496 66C819.8 66.032 818.744 67.408 818.744 69.392V78H812.28V60.592H818.744V63.248C819.928 61.36 821.784 60.336 824.152 60.336C826.872 60.336 828.952 61.744 829.88 64.112C831 61.68 833.048 60.336 835.768 60.336ZM848.638 52.304C850.59 52.304 851.966 53.68 851.966 55.632C851.966 57.584 850.59 58.96 848.638 58.96C846.686 58.96 845.31 57.584 845.31 55.632C845.31 53.68 846.686 52.304 848.638 52.304ZM851.838 78H845.374V60.592H851.838V78ZM862.501 60.304C865.125 60.304 867.781 61.04 870.149 62.416L868.005 66.48C865.637 65.264 863.685 64.656 862.309 64.656C861.509 64.656 860.997 64.944 860.997 65.488C860.997 67.44 870.085 66.576 870.085 72.528C870.085 76.112 866.981 78.288 862.437 78.288C859.365 78.288 856.517 77.456 854.245 75.824L856.229 71.76C858.405 73.168 860.613 73.904 862.533 73.904C863.397 73.904 863.973 73.648 863.973 73.104C863.973 71.12 855.077 72.08 855.077 66.128C855.077 62.48 858.117 60.304 862.501 60.304ZM879.626 60.304C882.25 60.304 884.906 61.04 887.274 62.416L885.13 66.48C882.762 65.264 880.81 64.656 879.434 64.656C878.634 64.656 878.122 64.944 878.122 65.488C878.122 67.44 887.21 66.576 887.21 72.528C887.21 76.112 884.106 78.288 879.562 78.288C876.49 78.288 873.642 77.456 871.37 75.824L873.354 71.76C875.53 73.168 877.738 73.904 879.658 73.904C880.522 73.904 881.098 73.648 881.098 73.104C881.098 71.12 872.202 72.08 872.202 66.128C872.202 62.48 875.242 60.304 879.626 60.304ZM893.263 52.304C895.215 52.304 896.591 53.68 896.591 55.632C896.591 57.584 895.215 58.96 893.263 58.96C891.311 58.96 889.935 57.584 889.935 55.632C889.935 53.68 891.311 52.304 893.263 52.304ZM896.463 78H889.999V60.592H896.463V78ZM908.726 60.368C914.582 60.368 918.39 63.888 918.39 69.296C918.39 74.672 914.582 78.224 908.726 78.224C902.87 78.224 899.03 74.672 899.03 69.296C899.03 63.888 902.87 60.368 908.726 60.368ZM908.726 65.488C906.806 65.488 905.558 67.056 905.558 69.36C905.558 71.696 906.806 73.232 908.726 73.232C910.614 73.232 911.862 71.696 911.862 69.36C911.862 67.056 910.614 65.488 908.726 65.488ZM932.936 60.336C936.648 60.336 939.208 62.928 939.208 66.96V78H932.744V68.816C932.744 67.088 931.752 66 930.248 66C928.488 66.032 927.4 67.408 927.4 69.392V78H920.936V60.592H927.4V63.28C928.616 61.36 930.504 60.336 932.936 60.336ZM949.376 60.304C952 60.304 954.656 61.04 957.024 62.416L954.88 66.48C952.512 65.264 950.56 64.656 949.184 64.656C948.384 64.656 947.872 64.944 947.872 65.488C947.872 67.44 956.96 66.576 956.96 72.528C956.96 76.112 953.856 78.288 949.312 78.288C946.24 78.288 943.392 77.456 941.12 75.824L943.104 71.76C945.28 73.168 947.488 73.904 949.408 73.904C950.272 73.904 950.848 73.648 950.848 73.104C950.848 71.12 941.952 72.08 941.952 66.128C941.952 62.48 944.992 60.304 949.376 60.304Z" fill="black"/>
<rect width="157" height="60" transform="translate(567 356)" fill="#FF3636"/>
<path d="M583.531 384.288C580.875 384.288 577.931 383.52 576.011 382.368L578.539 377.696C579.787 378.656 581.387 379.168 583.115 379.168C586.315 379.168 587.883 377.472 587.851 374.432C586.859 375.616 585.227 376.448 582.923 376.448C578.507 376.448 575.659 373.472 575.659 369.12C575.659 364.32 579.115 361.28 584.267 361.28C590.475 361.28 594.219 365.632 594.219 372.512C594.219 379.648 590.027 384.288 583.531 384.288ZM584.459 371.584C586.251 371.584 587.243 370.624 587.243 369.088C587.243 367.616 586.347 366.592 584.523 366.592C582.795 366.592 581.835 367.456 581.835 369.152C581.835 370.72 582.763 371.584 584.459 371.584ZM606.751 361.376C613.215 361.376 616.863 365.44 616.863 372.768C616.863 380.128 613.215 384.192 606.751 384.192C600.191 384.192 596.607 380.128 596.607 372.768C596.607 365.44 600.191 361.376 606.751 361.376ZM606.751 366.208C604.351 366.208 603.423 367.968 603.423 372.768C603.423 377.568 604.351 379.36 606.751 379.36C609.087 379.36 610.015 377.568 610.015 372.768C610.015 367.968 609.087 366.208 606.751 366.208ZM622.111 378.24C623.903 378.24 625.151 379.456 625.151 381.216C625.151 383.008 623.903 384.256 622.111 384.256C620.351 384.256 619.103 383.008 619.103 381.216C619.103 379.456 620.351 378.24 622.111 378.24ZM636.315 361.28C640.827 361.28 644.187 363.68 644.187 367.264C644.187 369.792 642.363 372.288 639.899 374.816L635.995 378.816H644.667V384H627.483V379.776L635.355 371.52C636.411 370.4 637.243 369.12 637.243 368.224C637.243 367.232 636.539 366.688 635.291 366.688C633.531 366.688 631.323 367.776 629.211 369.536L626.715 364.736C629.755 362.592 632.923 361.28 636.315 361.28ZM652.906 361.472C656.81 361.472 659.306 364.096 659.306 368.256C659.306 372.448 656.81 375.136 652.906 375.136C648.97 375.136 646.474 372.448 646.474 368.256C646.474 364.096 648.97 361.472 652.906 361.472ZM651.402 384L667.178 361.568H673.194L657.45 384H651.402ZM652.906 364.864C651.434 364.864 650.538 366.176 650.538 368.256C650.538 370.368 651.434 371.68 652.906 371.68C654.346 371.68 655.242 370.368 655.242 368.256C655.242 366.176 654.346 364.864 652.906 364.864ZM671.85 370.464C675.754 370.464 678.25 373.12 678.25 377.28C678.25 381.472 675.754 384.128 671.85 384.128C667.914 384.128 665.418 381.472 665.418 377.28C665.418 373.12 667.914 370.464 671.85 370.464ZM671.85 373.888C670.378 373.888 669.482 375.2 669.482 377.28C669.482 379.392 670.378 380.704 671.85 380.704C673.29 380.704 674.186 379.392 674.186 377.28C674.186 375.2 673.29 373.888 671.85 373.888Z" fill="black"/>
<path d="M563.728 540.08L555.76 558H548.72L556.4 540.752H551.536V543.888H545.68V535.568H563.728V540.08ZM566.877 552.24C568.669 552.24 569.917 553.456 569.917 555.216C569.917 557.008 568.669 558.256 566.877 558.256C565.117 558.256 563.868 557.008 563.868 555.216C563.868 553.456 565.117 552.24 566.877 552.24ZM578.585 548.528H582.393V544.016H588.569V548.528H591.513V553.424H588.569V558H582.393V553.424H571.801V549.008L578.585 535.568H584.953L578.585 548.528ZM599.109 535.472C603.013 535.472 605.509 538.096 605.509 542.256C605.509 546.448 603.013 549.136 599.109 549.136C595.173 549.136 592.677 546.448 592.677 542.256C592.677 538.096 595.173 535.472 599.109 535.472ZM597.605 558L613.381 535.568H619.397L603.653 558H597.605ZM599.109 538.864C597.637 538.864 596.741 540.176 596.741 542.256C596.741 544.368 597.637 545.68 599.109 545.68C600.549 545.68 601.445 544.368 601.445 542.256C601.445 540.176 600.549 538.864 599.109 538.864ZM618.053 544.464C621.957 544.464 624.453 547.12 624.453 551.28C624.453 555.472 621.957 558.128 618.053 558.128C614.117 558.128 611.621 555.472 611.621 551.28C611.621 547.12 614.117 544.464 618.053 544.464ZM618.053 547.888C616.581 547.888 615.685 549.2 615.685 551.28C615.685 553.392 616.581 554.704 618.053 554.704C619.493 554.704 620.389 553.392 620.389 551.28C620.389 549.2 619.493 547.888 618.053 547.888Z" fill="white"/>
<path d="M520.753 599.28C525.265 599.28 528.625 601.68 528.625 605.264C528.625 607.792 526.801 610.288 524.337 612.816L520.433 616.816H529.105V622H511.921V617.776L519.793 609.52C520.849 608.4 521.681 607.12 521.681 606.224C521.681 605.232 520.977 604.688 519.729 604.688C517.969 604.688 515.761 605.776 513.649 607.536L511.153 602.736C514.193 600.592 517.361 599.28 520.753 599.28ZM534.08 616.24C535.872 616.24 537.12 617.456 537.12 619.216C537.12 621.008 535.872 622.256 534.08 622.256C532.32 622.256 531.072 621.008 531.072 619.216C531.072 617.456 532.32 616.24 534.08 616.24ZM549.372 608.528L550.364 608.752C553.372 609.328 555.548 611.504 555.548 614.896C555.548 619.248 552.124 622.288 546.78 622.288C543.516 622.288 540.156 621.136 538.012 619.44L540.668 614.384C542.364 616.336 544.252 617.328 546.236 617.328C548.06 617.328 549.052 616.496 549.02 614.96C549.02 613.392 548.06 612.624 546.204 612.624H542.364V609.104L546.94 604.56H539.164V599.632H554.524V603.376L549.372 608.528ZM564.968 622.288C562.312 622.288 559.368 621.52 557.448 620.368L559.976 615.696C561.224 616.656 562.824 617.168 564.552 617.168C567.752 617.168 569.32 615.472 569.288 612.432C568.296 613.616 566.664 614.448 564.36 614.448C559.944 614.448 557.096 611.472 557.096 607.12C557.096 602.32 560.552 599.28 565.704 599.28C571.912 599.28 575.656 603.632 575.656 610.512C575.656 617.648 571.464 622.288 564.968 622.288ZM565.896 609.584C567.688 609.584 568.68 608.624 568.68 607.088C568.68 605.616 567.784 604.592 565.96 604.592C564.232 604.592 563.272 605.456 563.272 607.152C563.272 608.72 564.2 609.584 565.896 609.584ZM584.156 599.472C588.06 599.472 590.556 602.096 590.556 606.256C590.556 610.448 588.06 613.136 584.156 613.136C580.22 613.136 577.724 610.448 577.724 606.256C577.724 602.096 580.22 599.472 584.156 599.472ZM582.652 622L598.428 599.568H604.444L588.7 622H582.652ZM584.156 602.864C582.684 602.864 581.788 604.176 581.788 606.256C581.788 608.368 582.684 609.68 584.156 609.68C585.596 609.68 586.492 608.368 586.492 606.256C586.492 604.176 585.596 602.864 584.156 602.864ZM603.1 608.464C607.004 608.464 609.5 611.12 609.5 615.28C609.5 619.472 607.004 622.128 603.1 622.128C599.164 622.128 596.668 619.472 596.668 615.28C596.668 611.12 599.164 608.464 603.1 608.464ZM603.1 611.888C601.628 611.888 600.732 613.2 600.732 615.28C600.732 617.392 601.628 618.704 603.1 618.704C604.54 618.704 605.436 617.392 605.436 615.28C605.436 613.2 604.54 611.888 603.1 611.888Z" fill="black"/>
<rect width="352" height="50" transform="translate(838 603)" fill="#EBF97B"/>
<path d="M875.3 624.098H867.27V626.518H874.552V630.038H867.27V632.48H875.52V636H862.694V620.578H875.3V624.098ZM882.31 636H877.866V619.676H882.31V636ZM890.515 623.878C894.717 623.878 897.005 626.694 896.741 631.094H888.689C889.041 632.238 889.877 632.876 891.021 632.876C891.967 632.876 892.869 632.458 893.661 631.732L895.971 633.998C894.717 635.384 892.913 636.154 890.647 636.154C886.643 636.154 884.201 633.734 884.201 630.06C884.201 626.32 886.731 623.878 890.515 623.878ZM888.601 628.916H892.363C892.385 627.728 891.637 626.892 890.559 626.892C889.525 626.892 888.821 627.706 888.601 628.916ZM903.877 623.878C906.385 623.878 908.387 625.022 909.399 627.002L905.989 628.674C905.571 627.926 904.911 627.486 904.075 627.486C902.887 627.486 902.095 628.52 902.095 630.038C902.095 631.6 902.887 632.634 904.075 632.634C904.933 632.634 905.593 632.216 905.967 631.314L909.421 633.052C908.497 635.032 906.473 636.154 903.833 636.154C900.071 636.154 897.607 633.734 897.607 630.06C897.607 626.342 900.093 623.878 903.877 623.878ZM918.277 632.37L919.069 635.428C918.233 635.912 916.957 636.198 915.747 636.198C913.195 636.22 911.479 634.746 911.479 632.26V627.486H909.829V624.648H911.479V621.326H915.901V624.648H918.849V627.486H915.901V631.578C915.901 632.348 916.297 632.722 916.913 632.722C917.265 632.722 917.749 632.568 918.277 632.37ZM925.212 624.032V625.924C926.048 624.604 927.346 623.856 928.974 623.856V627.86C926.686 627.574 925.212 628.542 925.212 630.28V636H920.768V624.032H925.212ZM932.787 618.334C934.129 618.334 935.075 619.28 935.075 620.622C935.075 621.964 934.129 622.91 932.787 622.91C931.445 622.91 930.499 621.964 930.499 620.622C930.499 619.28 931.445 618.334 932.787 618.334ZM934.987 636H930.543V624.032H934.987V636ZM943.022 623.878C945.53 623.878 947.532 625.022 948.544 627.002L945.134 628.674C944.716 627.926 944.056 627.486 943.22 627.486C942.032 627.486 941.24 628.52 941.24 630.038C941.24 631.6 942.032 632.634 943.22 632.634C944.078 632.634 944.738 632.216 945.112 631.314L948.566 633.052C947.642 635.032 945.618 636.154 942.978 636.154C939.216 636.154 936.752 633.734 936.752 630.06C936.752 626.342 939.238 623.878 943.022 623.878ZM952.274 618.334C953.616 618.334 954.562 619.28 954.562 620.622C954.562 621.964 953.616 622.91 952.274 622.91C950.932 622.91 949.986 621.964 949.986 620.622C949.986 619.28 950.932 618.334 952.274 618.334ZM954.474 636H950.03V624.032H954.474V636ZM964.554 632.37L965.346 635.428C964.51 635.912 963.234 636.198 962.024 636.198C959.472 636.22 957.756 634.746 957.756 632.26V627.486H956.106V624.648H957.756V621.326H962.178V624.648H965.126V627.486H962.178V631.578C962.178 632.348 962.574 632.722 963.19 632.722C963.542 632.722 964.026 632.568 964.554 632.37ZM979.189 624.032L974.173 637.012C973.227 639.366 971.599 640.466 969.201 640.466C967.727 640.466 966.539 640.048 965.351 639.146L967.199 636.176C967.749 636.66 968.211 636.858 968.805 636.858C969.399 636.858 969.839 636.616 970.103 636.088L970.323 635.67L965.373 624.032H969.927L972.545 631.358L974.767 624.032H979.189ZM987.884 619.676H991.866C990.26 622.294 989.182 625.66 989.182 629.202C989.182 632.744 990.26 636.11 991.866 638.728H987.884C986.036 636.11 985.002 632.744 985.002 629.202C985.002 625.66 986.036 622.294 987.884 619.676ZM997.638 636H993.194V619.676H997.638V636ZM1006.2 623.878C1010.22 623.878 1012.84 626.298 1012.84 630.016C1012.84 633.712 1010.22 636.154 1006.2 636.154C1002.17 636.154 999.529 633.712 999.529 630.016C999.529 626.298 1002.17 623.878 1006.2 623.878ZM1006.2 627.398C1004.88 627.398 1004.02 628.476 1004.02 630.06C1004.02 631.666 1004.88 632.722 1006.2 632.722C1007.49 632.722 1008.35 631.666 1008.35 630.06C1008.35 628.476 1007.49 627.398 1006.2 627.398ZM1019.94 623.878C1022.44 623.878 1024.45 625.022 1025.46 627.002L1022.05 628.674C1021.63 627.926 1020.97 627.486 1020.13 627.486C1018.95 627.486 1018.15 628.52 1018.15 630.038C1018.15 631.6 1018.95 632.634 1020.13 632.634C1020.99 632.634 1021.65 632.216 1022.03 631.314L1025.48 633.052C1024.56 635.032 1022.53 636.154 1019.89 636.154C1016.13 636.154 1013.67 633.734 1013.67 630.06C1013.67 626.342 1016.15 623.878 1019.94 623.878ZM1032.47 623.856C1035.83 623.856 1037.84 625.462 1037.84 628.234V636H1033.48V634.68C1032.75 635.648 1031.57 636.198 1029.98 636.198C1027.43 636.198 1025.93 634.68 1025.93 632.436C1025.93 630.126 1027.54 628.85 1030.55 628.806H1033.48V628.762C1033.48 627.772 1032.78 627.178 1031.41 627.178C1030.47 627.178 1029.12 627.464 1027.8 628.036L1026.7 625.088C1028.66 624.296 1030.6 623.856 1032.47 623.856ZM1031.46 633.294C1032.36 633.294 1033.15 632.81 1033.48 632.062V630.984H1031.46C1030.58 630.984 1030.11 631.358 1030.11 632.106C1030.11 632.854 1030.6 633.294 1031.46 633.294ZM1047.59 632.37L1048.38 635.428C1047.55 635.912 1046.27 636.198 1045.06 636.198C1042.51 636.22 1040.79 634.746 1040.79 632.26V627.486H1039.14V624.648H1040.79V621.326H1045.22V624.648H1048.16V627.486H1045.22V631.578C1045.22 632.348 1045.61 632.722 1046.23 632.722C1046.58 632.722 1047.06 632.568 1047.59 632.37ZM1052.33 618.334C1053.67 618.334 1054.61 619.28 1054.61 620.622C1054.61 621.964 1053.67 622.91 1052.33 622.91C1050.98 622.91 1050.04 621.964 1050.04 620.622C1050.04 619.28 1050.98 618.334 1052.33 618.334ZM1054.53 636H1050.08V624.032H1054.53V636ZM1062.96 623.878C1066.98 623.878 1069.6 626.298 1069.6 630.016C1069.6 633.712 1066.98 636.154 1062.96 636.154C1058.93 636.154 1056.29 633.712 1056.29 630.016C1056.29 626.298 1058.93 623.878 1062.96 623.878ZM1062.96 627.398C1061.64 627.398 1060.78 628.476 1060.78 630.06C1060.78 631.666 1061.64 632.722 1062.96 632.722C1064.26 632.722 1065.11 631.666 1065.11 630.06C1065.11 628.476 1064.26 627.398 1062.96 627.398ZM1079.6 623.856C1082.15 623.856 1083.91 625.638 1083.91 628.41V636H1079.47V629.686C1079.47 628.498 1078.79 627.75 1077.75 627.75C1076.54 627.772 1075.8 628.718 1075.8 630.082V636H1071.35V624.032H1075.8V625.88C1076.63 624.56 1077.93 623.856 1079.6 623.856ZM1098.91 623.878C1102.25 623.878 1104.45 626.342 1104.45 630.082C1104.45 633.756 1102.32 636.154 1099.02 636.154C1097.61 636.154 1096.44 635.604 1095.63 634.614V636H1091.18V619.676H1095.63V625.418C1096.42 624.428 1097.56 623.878 1098.91 623.878ZM1097.78 632.634C1099.1 632.634 1099.96 631.556 1099.96 629.972C1099.96 628.388 1099.1 627.31 1097.78 627.31C1096.51 627.31 1095.63 628.388 1095.63 629.972C1095.63 631.556 1096.51 632.634 1097.78 632.634ZM1111.85 623.856C1115.22 623.856 1117.22 625.462 1117.22 628.234V636H1112.86V634.68C1112.14 635.648 1110.95 636.198 1109.37 636.198C1106.81 636.198 1105.32 634.68 1105.32 632.436C1105.32 630.126 1106.92 628.85 1109.94 628.806H1112.86V628.762C1112.86 627.772 1112.16 627.178 1110.8 627.178C1109.85 627.178 1108.51 627.464 1107.19 628.036L1106.09 625.088C1108.05 624.296 1109.98 623.856 1111.85 623.856ZM1110.84 633.294C1111.74 633.294 1112.53 632.81 1112.86 632.062V630.984H1110.84C1109.96 630.984 1109.5 631.358 1109.5 632.106C1109.5 632.854 1109.98 633.294 1110.84 633.294ZM1124.23 623.834C1126.03 623.834 1127.86 624.34 1129.48 625.286L1128.01 628.08C1126.38 627.244 1125.04 626.826 1124.09 626.826C1123.54 626.826 1123.19 627.024 1123.19 627.398C1123.19 628.74 1129.44 628.146 1129.44 632.238C1129.44 634.702 1127.31 636.198 1124.18 636.198C1122.07 636.198 1120.11 635.626 1118.55 634.504L1119.91 631.71C1121.41 632.678 1122.93 633.184 1124.25 633.184C1124.84 633.184 1125.24 633.008 1125.24 632.634C1125.24 631.27 1119.12 631.93 1119.12 627.838C1119.12 625.33 1121.21 623.834 1124.23 623.834ZM1136.75 623.878C1140.95 623.878 1143.24 626.694 1142.97 631.094H1134.92C1135.27 632.238 1136.11 632.876 1137.25 632.876C1138.2 632.876 1139.1 632.458 1139.89 631.732L1142.2 633.998C1140.95 635.384 1139.15 636.154 1136.88 636.154C1132.88 636.154 1130.43 633.734 1130.43 630.06C1130.43 626.32 1132.96 623.878 1136.75 623.878ZM1134.83 628.916H1138.6C1138.62 627.728 1137.87 626.892 1136.79 626.892C1135.76 626.892 1135.05 627.706 1134.83 628.916ZM1157.11 619.676V636H1152.66V634.636C1151.87 635.604 1150.75 636.154 1149.38 636.154C1146.04 636.154 1143.84 633.712 1143.84 629.95C1143.84 626.276 1146 623.878 1149.27 623.878C1150.68 623.878 1151.85 624.428 1152.66 625.418V619.676H1157.11ZM1150.51 632.744C1151.8 632.744 1152.66 631.666 1152.66 630.06C1152.66 628.476 1151.8 627.398 1150.51 627.398C1149.19 627.398 1148.33 628.476 1148.33 630.06C1148.33 631.666 1149.19 632.744 1150.51 632.744ZM1158.92 619.676H1162.9C1164.75 622.294 1165.78 625.66 1165.78 629.202C1165.78 632.744 1164.75 636.11 1162.9 638.728H1158.92C1160.53 636.11 1161.6 632.744 1161.6 629.202C1161.6 625.66 1160.53 622.294 1158.92 619.676Z" fill="black"/>
<rect width="239" height="50" transform="translate(838 539)" fill="#13176F"/>
<path d="M864.842 556.578H871.596C876.59 556.578 879.89 559.636 879.89 564.278C879.89 568.92 876.524 572 871.442 572H864.842V556.578ZM869.418 560.186V568.414H871.728C873.818 568.414 875.226 566.786 875.226 564.322C875.226 561.836 873.708 560.186 871.508 560.186H869.418ZM883.888 554.334C885.23 554.334 886.176 555.28 886.176 556.622C886.176 557.964 885.23 558.91 883.888 558.91C882.546 558.91 881.6 557.964 881.6 556.622C881.6 555.28 882.546 554.334 883.888 554.334ZM886.088 572H881.644V560.032H886.088V572ZM893.221 560.032V561.924C894.057 560.604 895.355 559.856 896.983 559.856V563.86C894.695 563.574 893.221 564.542 893.221 566.28V572H888.777V560.032H893.221ZM903.942 559.878C908.144 559.878 910.432 562.694 910.168 567.094H902.116C902.468 568.238 903.304 568.876 904.448 568.876C905.394 568.876 906.296 568.458 907.088 567.732L909.398 569.998C908.144 571.384 906.34 572.154 904.074 572.154C900.07 572.154 897.628 569.734 897.628 566.06C897.628 562.32 900.158 559.878 903.942 559.878ZM902.028 564.916H905.79C905.812 563.728 905.064 562.892 903.986 562.892C902.952 562.892 902.248 563.706 902.028 564.916ZM917.304 559.878C919.812 559.878 921.814 561.022 922.826 563.002L919.416 564.674C918.998 563.926 918.338 563.486 917.502 563.486C916.314 563.486 915.522 564.52 915.522 566.038C915.522 567.6 916.314 568.634 917.502 568.634C918.36 568.634 919.02 568.216 919.394 567.314L922.848 569.052C921.924 571.032 919.9 572.154 917.26 572.154C913.498 572.154 911.034 569.734 911.034 566.06C911.034 562.342 913.52 559.878 917.304 559.878ZM931.704 568.37L932.496 571.428C931.66 571.912 930.384 572.198 929.174 572.198C926.622 572.22 924.906 570.746 924.906 568.26V563.486H923.256V560.648H924.906V557.326H929.328V560.648H932.276V563.486H929.328V567.578C929.328 568.348 929.724 568.722 930.34 568.722C930.692 568.722 931.176 568.568 931.704 568.37ZM944.397 559.878C948.599 559.878 950.887 562.694 950.623 567.094H942.571C942.923 568.238 943.759 568.876 944.903 568.876C945.849 568.876 946.751 568.458 947.543 567.732L949.853 569.998C948.599 571.384 946.795 572.154 944.529 572.154C940.525 572.154 938.083 569.734 938.083 566.06C938.083 562.32 940.613 559.878 944.397 559.878ZM942.483 564.916H946.245C946.267 563.728 945.519 562.892 944.441 562.892C943.407 562.892 942.703 563.706 942.483 564.916ZM968.561 559.856C971.091 559.856 972.807 561.638 972.807 564.41V572H968.363V565.686C968.363 564.498 967.703 563.75 966.713 563.75C965.569 563.772 964.843 564.718 964.843 566.082V572H960.399V565.686C960.399 564.498 959.739 563.75 958.749 563.75C957.583 563.772 956.857 564.718 956.857 566.082V572H952.413V560.032H956.857V561.858C957.671 560.56 958.947 559.856 960.575 559.856C962.445 559.856 963.875 560.824 964.513 562.452C965.283 560.78 966.691 559.856 968.561 559.856ZM977.409 554.334C978.751 554.334 979.697 555.28 979.697 556.622C979.697 557.964 978.751 558.91 977.409 558.91C976.067 558.91 975.121 557.964 975.121 556.622C975.121 555.28 976.067 554.334 977.409 554.334ZM979.609 572H975.165V560.032H979.609V572ZM986.94 559.834C988.744 559.834 990.57 560.34 992.198 561.286L990.724 564.08C989.096 563.244 987.754 562.826 986.808 562.826C986.258 562.826 985.906 563.024 985.906 563.398C985.906 564.74 992.154 564.146 992.154 568.238C992.154 570.702 990.02 572.198 986.896 572.198C984.784 572.198 982.826 571.626 981.264 570.504L982.628 567.71C984.124 568.678 985.642 569.184 986.962 569.184C987.556 569.184 987.952 569.008 987.952 568.634C987.952 567.27 981.836 567.93 981.836 563.838C981.836 561.33 983.926 559.834 986.94 559.834ZM998.713 559.834C1000.52 559.834 1002.34 560.34 1003.97 561.286L1002.5 564.08C1000.87 563.244 999.527 562.826 998.581 562.826C998.031 562.826 997.679 563.024 997.679 563.398C997.679 564.74 1003.93 564.146 1003.93 568.238C1003.93 570.702 1001.79 572.198 998.669 572.198C996.557 572.198 994.599 571.626 993.037 570.504L994.401 567.71C995.897 568.678 997.415 569.184 998.735 569.184C999.329 569.184 999.725 569.008 999.725 568.634C999.725 567.27 993.609 567.93 993.609 563.838C993.609 561.33 995.699 559.834 998.713 559.834ZM1008.09 554.334C1009.43 554.334 1010.38 555.28 1010.38 556.622C1010.38 557.964 1009.43 558.91 1008.09 558.91C1006.75 558.91 1005.8 557.964 1005.8 556.622C1005.8 555.28 1006.75 554.334 1008.09 554.334ZM1010.29 572H1005.84V560.032H1010.29V572ZM1018.72 559.878C1022.75 559.878 1025.36 562.298 1025.36 566.016C1025.36 569.712 1022.75 572.154 1018.72 572.154C1014.69 572.154 1012.05 569.712 1012.05 566.016C1012.05 562.298 1014.69 559.878 1018.72 559.878ZM1018.72 563.398C1017.4 563.398 1016.54 564.476 1016.54 566.06C1016.54 567.666 1017.4 568.722 1018.72 568.722C1020.02 568.722 1020.88 567.666 1020.88 566.06C1020.88 564.476 1020.02 563.398 1018.72 563.398ZM1035.36 559.856C1037.92 559.856 1039.68 561.638 1039.68 564.41V572H1035.23V565.686C1035.23 564.498 1034.55 563.75 1033.52 563.75C1032.31 563.772 1031.56 564.718 1031.56 566.082V572H1027.11V560.032H1031.56V561.88C1032.39 560.56 1033.69 559.856 1035.36 559.856ZM1046.67 559.834C1048.47 559.834 1050.3 560.34 1051.92 561.286L1050.45 564.08C1048.82 563.244 1047.48 562.826 1046.53 562.826C1045.98 562.826 1045.63 563.024 1045.63 563.398C1045.63 564.74 1051.88 564.146 1051.88 568.238C1051.88 570.702 1049.75 572.198 1046.62 572.198C1044.51 572.198 1042.55 571.626 1040.99 570.504L1042.35 567.71C1043.85 568.678 1045.37 569.184 1046.69 569.184C1047.28 569.184 1047.68 569.008 1047.68 568.634C1047.68 567.27 1041.56 567.93 1041.56 563.838C1041.56 561.33 1043.65 559.834 1046.67 559.834Z" fill="white"/>
<rect width="259" height="50" transform="translate(838 477)" fill="#FF3636"/>
<path d="M869.181 510H864.605V494.578H869.181V510ZM880.074 497.856C882.626 497.856 884.386 499.638 884.386 502.41V510H879.942V503.686C879.942 502.498 879.26 501.75 878.226 501.75C877.016 501.772 876.268 502.718 876.268 504.082V510H871.824V498.032H876.268V499.88C877.104 498.56 878.402 497.856 880.074 497.856ZM899.077 493.676V510H894.633V508.636C893.841 509.604 892.719 510.154 891.355 510.154C888.011 510.154 885.811 507.712 885.811 503.95C885.811 500.276 887.967 497.878 891.245 497.878C892.653 497.878 893.819 498.428 894.633 499.418V493.676H899.077ZM892.477 506.744C893.775 506.744 894.633 505.666 894.633 504.06C894.633 502.476 893.775 501.398 892.477 501.398C891.157 501.398 890.299 502.476 890.299 504.06C890.299 505.666 891.157 506.744 892.477 506.744ZM904.125 492.334C905.467 492.334 906.413 493.28 906.413 494.622C906.413 495.964 905.467 496.91 904.125 496.91C902.783 496.91 901.837 495.964 901.837 494.622C901.837 493.28 902.783 492.334 904.125 492.334ZM906.325 510H901.881V498.032H906.325V510ZM913.458 498.032V499.924C914.294 498.604 915.592 497.856 917.22 497.856V501.86C914.932 501.574 913.458 502.542 913.458 504.28V510H909.014V498.032H913.458ZM924.179 497.878C928.381 497.878 930.669 500.694 930.405 505.094H922.353C922.705 506.238 923.541 506.876 924.685 506.876C925.631 506.876 926.533 506.458 927.325 505.732L929.635 507.998C928.381 509.384 926.577 510.154 924.311 510.154C920.307 510.154 917.865 507.734 917.865 504.06C917.865 500.32 920.395 497.878 924.179 497.878ZM922.265 502.916H926.027C926.049 501.728 925.301 500.892 924.223 500.892C923.189 500.892 922.485 501.706 922.265 502.916ZM937.542 497.878C940.05 497.878 942.052 499.022 943.064 501.002L939.654 502.674C939.236 501.926 938.576 501.486 937.74 501.486C936.552 501.486 935.76 502.52 935.76 504.038C935.76 505.6 936.552 506.634 937.74 506.634C938.598 506.634 939.258 506.216 939.632 505.314L943.086 507.052C942.162 509.032 940.138 510.154 937.498 510.154C933.736 510.154 931.272 507.734 931.272 504.06C931.272 500.342 933.758 497.878 937.542 497.878ZM951.941 506.37L952.733 509.428C951.897 509.912 950.621 510.198 949.411 510.198C946.859 510.22 945.143 508.746 945.143 506.26V501.486H943.493V498.648H945.143V495.326H949.565V498.648H952.513V501.486H949.565V505.578C949.565 506.348 949.961 506.722 950.577 506.722C950.929 506.722 951.413 506.568 951.941 506.37ZM964.634 497.878C968.836 497.878 971.124 500.694 970.86 505.094H962.808C963.16 506.238 963.996 506.876 965.14 506.876C966.086 506.876 966.988 506.458 967.78 505.732L970.09 507.998C968.836 509.384 967.032 510.154 964.766 510.154C960.762 510.154 958.32 507.734 958.32 504.06C958.32 500.32 960.85 497.878 964.634 497.878ZM962.72 502.916H966.482C966.504 501.728 965.756 500.892 964.678 500.892C963.644 500.892 962.94 501.706 962.72 502.916ZM988.799 497.856C991.329 497.856 993.045 499.638 993.045 502.41V510H988.601V503.686C988.601 502.498 987.941 501.75 986.951 501.75C985.807 501.772 985.081 502.718 985.081 504.082V510H980.637V503.686C980.637 502.498 979.977 501.75 978.987 501.75C977.821 501.772 977.095 502.718 977.095 504.082V510H972.651V498.032H977.095V499.858C977.909 498.56 979.185 497.856 980.813 497.856C982.683 497.856 984.113 498.824 984.751 500.452C985.521 498.78 986.929 497.856 988.799 497.856ZM997.647 492.334C998.989 492.334 999.935 493.28 999.935 494.622C999.935 495.964 998.989 496.91 997.647 496.91C996.305 496.91 995.359 495.964 995.359 494.622C995.359 493.28 996.305 492.334 997.647 492.334ZM999.847 510H995.403V498.032H999.847V510ZM1007.18 497.834C1008.98 497.834 1010.81 498.34 1012.44 499.286L1010.96 502.08C1009.33 501.244 1007.99 500.826 1007.05 500.826C1006.5 500.826 1006.14 501.024 1006.14 501.398C1006.14 502.74 1012.39 502.146 1012.39 506.238C1012.39 508.702 1010.26 510.198 1007.13 510.198C1005.02 510.198 1003.06 509.626 1001.5 508.504L1002.87 505.71C1004.36 506.678 1005.88 507.184 1007.2 507.184C1007.79 507.184 1008.19 507.008 1008.19 506.634C1008.19 505.27 1002.07 505.93 1002.07 501.838C1002.07 499.33 1004.16 497.834 1007.18 497.834ZM1018.95 497.834C1020.75 497.834 1022.58 498.34 1024.21 499.286L1022.73 502.08C1021.11 501.244 1019.76 500.826 1018.82 500.826C1018.27 500.826 1017.92 501.024 1017.92 501.398C1017.92 502.74 1024.16 502.146 1024.16 506.238C1024.16 508.702 1022.03 510.198 1018.91 510.198C1016.79 510.198 1014.84 509.626 1013.27 508.504L1014.64 505.71C1016.13 506.678 1017.65 507.184 1018.97 507.184C1019.57 507.184 1019.96 507.008 1019.96 506.634C1019.96 505.27 1013.85 505.93 1013.85 501.838C1013.85 499.33 1015.94 497.834 1018.95 497.834ZM1028.33 492.334C1029.67 492.334 1030.61 493.28 1030.61 494.622C1030.61 495.964 1029.67 496.91 1028.33 496.91C1026.98 496.91 1026.04 495.964 1026.04 494.622C1026.04 493.28 1026.98 492.334 1028.33 492.334ZM1030.53 510H1026.08V498.032H1030.53V510ZM1038.96 497.878C1042.98 497.878 1045.6 500.298 1045.6 504.016C1045.6 507.712 1042.98 510.154 1038.96 510.154C1034.93 510.154 1032.29 507.712 1032.29 504.016C1032.29 500.298 1034.93 497.878 1038.96 497.878ZM1038.96 501.398C1037.64 501.398 1036.78 502.476 1036.78 504.06C1036.78 505.666 1037.64 506.722 1038.96 506.722C1040.26 506.722 1041.11 505.666 1041.11 504.06C1041.11 502.476 1040.26 501.398 1038.96 501.398ZM1055.6 497.856C1058.15 497.856 1059.91 499.638 1059.91 502.41V510H1055.47V503.686C1055.47 502.498 1054.79 501.75 1053.75 501.75C1052.54 501.772 1051.8 502.718 1051.8 504.082V510H1047.35V498.032H1051.8V499.88C1052.63 498.56 1053.93 497.856 1055.6 497.856ZM1066.9 497.834C1068.71 497.834 1070.53 498.34 1072.16 499.286L1070.69 502.08C1069.06 501.244 1067.72 500.826 1066.77 500.826C1066.22 500.826 1065.87 501.024 1065.87 501.398C1065.87 502.74 1072.12 502.146 1072.12 506.238C1072.12 508.702 1069.98 510.198 1066.86 510.198C1064.75 510.198 1062.79 509.626 1061.23 508.504L1062.59 505.71C1064.09 506.678 1065.61 507.184 1066.93 507.184C1067.52 507.184 1067.92 507.008 1067.92 506.634C1067.92 505.27 1061.8 505.93 1061.8 501.838C1061.8 499.33 1063.89 497.834 1066.9 497.834Z" fill="white"/>
</g>
<defs>
<clipPath id="clip0_3319_855">
<rect width="1500" height="760" fill="white"/>
</clipPath>
</defs>
</svg>
