<svg width="1500" height="760" viewBox="0 0 1500 760" fill="none" xmlns="http://www.w3.org/2000/svg">
<rect width="1500" height="760" fill="white"/>
<path d="M354.475 74.528H358.283V70.016H364.459V74.528H367.403V79.424H364.459V84H358.283V79.424H347.691V75.008L354.475 61.568H360.843L354.475 74.528ZM383.376 66.304C386 66.304 388.656 67.04 391.024 68.416L388.88 72.48C386.512 71.264 384.56 70.656 383.184 70.656C382.384 70.656 381.872 70.944 381.872 71.488C381.872 73.44 390.96 72.576 390.96 78.528C390.96 82.112 387.856 84.288 383.312 84.288C380.24 84.288 377.392 83.456 375.12 81.824L377.104 77.76C379.28 79.168 381.488 79.904 383.408 79.904C384.272 79.904 384.848 79.648 384.848 79.104C384.848 77.12 375.952 78.08 375.952 72.128C375.952 68.48 378.992 66.304 383.376 66.304ZM401.941 66.336C406.837 66.336 409.749 68.672 409.749 72.704V84H403.413V82.08C402.357 83.488 400.629 84.288 398.325 84.288C394.613 84.288 392.437 82.08 392.437 78.816C392.437 75.456 394.773 73.6 399.157 73.536H403.413V73.472C403.413 72.032 402.389 71.168 400.405 71.168C399.029 71.168 397.077 71.584 395.157 72.416L393.557 68.128C396.405 66.976 399.221 66.336 401.941 66.336ZM400.469 80.064C401.781 80.064 402.933 79.36 403.413 78.272V76.704H400.469C399.189 76.704 398.517 77.248 398.517 78.336C398.517 79.424 399.221 80.064 400.469 80.064ZM419.81 84H413.346V60.256H419.81V84ZM447.393 66.336C451.073 66.336 453.569 68.928 453.569 72.96V84H447.105V74.816C447.105 73.088 446.145 72 444.705 72C443.041 72.032 441.985 73.408 441.985 75.392V84H435.521V74.816C435.521 73.088 434.561 72 433.121 72C431.425 72.032 430.369 73.408 430.369 75.392V84H423.905V66.592H430.369V69.248C431.553 67.36 433.409 66.336 435.777 66.336C438.497 66.336 440.577 67.744 441.505 70.112C442.625 67.68 444.673 66.336 447.393 66.336ZM465.351 66.368C471.207 66.368 475.015 69.888 475.015 75.296C475.015 80.672 471.207 84.224 465.351 84.224C459.495 84.224 455.655 80.672 455.655 75.296C455.655 69.888 459.495 66.368 465.351 66.368ZM465.351 71.488C463.431 71.488 462.183 73.056 462.183 75.36C462.183 77.696 463.431 79.232 465.351 79.232C467.239 79.232 468.487 77.696 468.487 75.36C468.487 73.056 467.239 71.488 465.351 71.488ZM489.561 66.336C493.273 66.336 495.833 68.928 495.833 72.96V84H489.369V74.816C489.369 73.088 488.377 72 486.873 72C485.113 72.032 484.025 73.408 484.025 75.392V84H477.561V66.592H484.025V69.28C485.241 67.36 487.129 66.336 489.561 66.336ZM509.513 58.304C511.465 58.304 512.841 59.68 512.841 61.632C512.841 63.584 511.465 64.96 509.513 64.96C507.561 64.96 506.185 63.584 506.185 61.632C506.185 59.68 507.561 58.304 509.513 58.304ZM512.713 84H506.249V66.592H512.713V84ZM528.624 66.336C532.336 66.336 534.896 68.928 534.896 72.96V84H528.432V74.816C528.432 73.088 527.44 72 525.936 72C524.176 72.032 523.088 73.408 523.088 75.392V84H516.624V66.592H523.088V69.28C524.304 67.36 526.192 66.336 528.624 66.336ZM556.063 78.72L557.215 83.168C555.999 83.872 554.143 84.288 552.383 84.288C548.671 84.32 546.175 82.176 546.175 78.56V71.616H543.775V67.488H546.175V62.656H552.607V67.488H556.895V71.616H552.607V77.568C552.607 78.688 553.183 79.232 554.079 79.232C554.591 79.232 555.295 79.008 556.063 78.72ZM571.846 66.336C575.59 66.336 578.118 68.928 578.118 72.96V84H571.654V74.816C571.654 73.088 570.694 72 569.158 72C567.398 72.032 566.31 73.408 566.31 75.392V84H559.846V60.256H566.31V69.28C567.526 67.36 569.414 66.336 571.846 66.336ZM589.37 66.368C595.482 66.368 598.81 70.464 598.426 76.864H586.714C587.226 78.528 588.442 79.456 590.106 79.456C591.482 79.456 592.794 78.848 593.946 77.792L597.306 81.088C595.482 83.104 592.858 84.224 589.562 84.224C583.738 84.224 580.186 80.704 580.186 75.36C580.186 69.92 583.866 66.368 589.37 66.368ZM586.586 73.696H592.058C592.09 71.968 591.002 70.752 589.434 70.752C587.93 70.752 586.906 71.936 586.586 73.696ZM615.87 66.368C621.982 66.368 625.31 70.464 624.926 76.864H613.214C613.726 78.528 614.942 79.456 616.606 79.456C617.982 79.456 619.294 78.848 620.446 77.792L623.806 81.088C621.982 83.104 619.358 84.224 616.062 84.224C610.238 84.224 606.686 80.704 606.686 75.36C606.686 69.92 610.366 66.368 615.87 66.368ZM613.086 73.696H618.558C618.59 71.968 617.502 70.752 615.934 70.752C614.43 70.752 613.406 71.936 613.086 73.696ZM645.482 66.592V90.208H639.018V82.016C637.866 83.424 636.234 84.224 634.25 84.224C629.386 84.224 626.186 80.672 626.186 75.2C626.186 69.856 629.322 66.368 634.09 66.368C636.138 66.368 637.834 67.168 639.018 68.608V66.592H645.482ZM635.882 79.264C637.77 79.264 639.018 77.696 639.018 75.36C639.018 73.056 637.77 71.488 635.882 71.488C633.962 71.488 632.714 73.056 632.714 75.36C632.714 77.696 633.962 79.264 635.882 79.264ZM667.033 66.592V84H660.569V81.408C659.385 83.264 657.561 84.288 655.225 84.288C651.577 84.288 649.081 81.696 649.081 77.632V66.592H655.545V75.808C655.545 77.504 656.473 78.592 657.881 78.592C659.545 78.56 660.569 77.184 660.569 75.2V66.592H667.033ZM674.2 58.304C676.152 58.304 677.528 59.68 677.528 61.632C677.528 63.584 676.152 64.96 674.2 64.96C672.248 64.96 670.872 63.584 670.872 61.632C670.872 59.68 672.248 58.304 674.2 58.304ZM677.4 84H670.936V66.592H677.4V84ZM692.159 84H685.567L679.103 66.592H685.759L688.959 78.112L692.191 66.592H698.655L692.159 84ZM708.035 66.336C712.931 66.336 715.843 68.672 715.843 72.704V84H709.507V82.08C708.451 83.488 706.723 84.288 704.419 84.288C700.707 84.288 698.531 82.08 698.531 78.816C698.531 75.456 700.867 73.6 705.251 73.536H709.507V73.472C709.507 72.032 708.483 71.168 706.499 71.168C705.123 71.168 703.171 71.584 701.251 72.416L699.651 68.128C702.499 66.976 705.315 66.336 708.035 66.336ZM706.563 80.064C707.875 80.064 709.027 79.36 709.507 78.272V76.704H706.563C705.283 76.704 704.611 77.248 704.611 78.336C704.611 79.424 705.315 80.064 706.563 80.064ZM725.904 84H719.44V60.256H725.904V84ZM737.839 66.368C743.951 66.368 747.279 70.464 746.895 76.864H735.183C735.695 78.528 736.911 79.456 738.575 79.456C739.951 79.456 741.263 78.848 742.415 77.792L745.775 81.088C743.951 83.104 741.327 84.224 738.031 84.224C732.207 84.224 728.655 80.704 728.655 75.36C728.655 69.92 732.335 66.368 737.839 66.368ZM735.055 73.696H740.527C740.559 71.968 739.471 70.752 737.903 70.752C736.399 70.752 735.375 71.936 735.055 73.696ZM761.499 66.336C765.211 66.336 767.771 68.928 767.771 72.96V84H761.307V74.816C761.307 73.088 760.315 72 758.811 72C757.051 72.032 755.963 73.408 755.963 75.392V84H749.499V66.592H755.963V69.28C757.179 67.36 759.067 66.336 761.499 66.336ZM781.938 78.72L783.09 83.168C781.874 83.872 780.018 84.288 778.258 84.288C774.546 84.32 772.05 82.176 772.05 78.56V71.616H769.65V67.488H772.05V62.656H778.482V67.488H782.77V71.616H778.482V77.568C778.482 78.688 779.058 79.232 779.954 79.232C780.466 79.232 781.17 79.008 781.938 78.72ZM800.913 66.368C806.769 66.368 810.577 69.888 810.577 75.296C810.577 80.672 806.769 84.224 800.913 84.224C795.057 84.224 791.217 80.672 791.217 75.296C791.217 69.888 795.057 66.368 800.913 66.368ZM800.913 71.488C798.993 71.488 797.745 73.056 797.745 75.36C797.745 77.696 798.993 79.232 800.913 79.232C802.801 79.232 804.049 77.696 804.049 75.36C804.049 73.056 802.801 71.488 800.913 71.488ZM822.251 64.992C821.163 64.992 820.427 65.6 820.427 66.656V67.488H824.043V71.616H820.427V84H814.027V71.616H811.659V67.488H814.027V65.888C814.027 62.176 816.875 59.936 820.971 59.968C822.827 59.968 824.907 60.416 826.315 61.216L824.107 65.664C823.531 65.248 822.795 64.992 822.251 64.992ZM841.128 66.336C846.024 66.336 848.936 68.672 848.936 72.704V84H842.6V82.08C841.544 83.488 839.816 84.288 837.512 84.288C833.8 84.288 831.624 82.08 831.624 78.816C831.624 75.456 833.96 73.6 838.344 73.536H842.6V73.472C842.6 72.032 841.576 71.168 839.592 71.168C838.216 71.168 836.264 71.584 834.344 72.416L832.744 68.128C835.592 66.976 838.408 66.336 841.128 66.336ZM839.656 80.064C840.968 80.064 842.12 79.36 842.6 78.272V76.704H839.656C838.376 76.704 837.704 77.248 837.704 78.336C837.704 79.424 838.408 80.064 839.656 80.064ZM870.766 66.368C875.63 66.368 878.83 69.952 878.83 75.392C878.83 80.736 875.726 84.224 870.926 84.224C868.878 84.224 867.182 83.424 865.998 81.984V84H859.534V60.256H865.998V68.608C867.15 67.168 868.814 66.368 870.766 66.368ZM869.134 79.104C871.054 79.104 872.302 77.536 872.302 75.232C872.302 72.928 871.054 71.36 869.134 71.36C867.278 71.36 865.998 72.928 865.998 75.232C865.998 77.536 867.278 79.104 869.134 79.104ZM889.597 66.336C894.493 66.336 897.405 68.672 897.405 72.704V84H891.069V82.08C890.013 83.488 888.285 84.288 885.981 84.288C882.269 84.288 880.093 82.08 880.093 78.816C880.093 75.456 882.429 73.6 886.813 73.536H891.069V73.472C891.069 72.032 890.045 71.168 888.061 71.168C886.685 71.168 884.733 71.584 882.813 72.416L881.213 68.128C884.061 66.976 886.877 66.336 889.597 66.336ZM888.125 80.064C889.437 80.064 890.589 79.36 891.069 78.272V76.704H888.125C886.845 76.704 886.173 77.248 886.173 78.336C886.173 79.424 886.877 80.064 888.125 80.064ZM911.595 78.72L912.747 83.168C911.531 83.872 909.675 84.288 907.915 84.288C904.203 84.32 901.707 82.176 901.707 78.56V71.616H899.307V67.488H901.707V62.656H908.139V67.488H912.427V71.616H908.139V77.568C908.139 78.688 908.715 79.232 909.611 79.232C910.123 79.232 910.827 79.008 911.595 78.72ZM927.378 66.336C931.122 66.336 933.65 68.928 933.65 72.96V84H927.186V74.816C927.186 73.088 926.226 72 924.69 72C922.93 72.032 921.842 73.408 921.842 75.392V84H915.378V60.256H921.842V69.28C923.058 67.36 924.946 66.336 927.378 66.336ZM947.813 78.72L948.965 83.168C947.749 83.872 945.893 84.288 944.133 84.288C940.421 84.32 937.925 82.176 937.925 78.56V71.616H935.525V67.488H937.925V62.656H944.357V67.488H948.645V71.616H944.357V77.568C944.357 78.688 944.933 79.232 945.829 79.232C946.341 79.232 947.045 79.008 947.813 78.72ZM968.908 66.592V84H962.444V81.408C961.26 83.264 959.436 84.288 957.1 84.288C953.452 84.288 950.956 81.696 950.956 77.632V66.592H957.42V75.808C957.42 77.504 958.348 78.592 959.756 78.592C961.42 78.56 962.444 77.184 962.444 75.2V66.592H968.908ZM984.203 66.368C989.067 66.368 992.267 69.952 992.267 75.392C992.267 80.736 989.163 84.224 984.363 84.224C982.315 84.224 980.619 83.424 979.435 81.984V84H972.971V60.256H979.435V68.608C980.587 67.168 982.251 66.368 984.203 66.368ZM982.571 79.104C984.491 79.104 985.739 77.536 985.739 75.232C985.739 72.928 984.491 71.36 982.571 71.36C980.715 71.36 979.435 72.928 979.435 75.232C979.435 77.536 980.715 79.104 982.571 79.104ZM1010.19 66.368C1016.05 66.368 1019.86 69.888 1019.86 75.296C1019.86 80.672 1016.05 84.224 1010.19 84.224C1004.34 84.224 1000.5 80.672 1000.5 75.296C1000.5 69.888 1004.34 66.368 1010.19 66.368ZM1010.19 71.488C1008.27 71.488 1007.03 73.056 1007.03 75.36C1007.03 77.696 1008.27 79.232 1010.19 79.232C1012.08 79.232 1013.33 77.696 1013.33 75.36C1013.33 73.056 1012.08 71.488 1010.19 71.488ZM1031.53 64.992C1030.44 64.992 1029.71 65.6 1029.71 66.656V67.488H1033.32V71.616H1029.71V84H1023.31V71.616H1020.94V67.488H1023.31V65.888C1023.31 62.176 1026.16 59.936 1030.25 59.968C1032.11 59.968 1034.19 60.416 1035.6 61.216L1033.39 65.664C1032.81 65.248 1032.08 64.992 1031.53 64.992ZM1064.91 84H1058.54L1055.66 74.016L1052.71 84H1046.35L1040.01 66.592H1046.57L1049.71 77.696L1052.71 66.592H1058.79L1061.9 77.696L1064.97 66.592H1071.24L1064.91 84ZM1080.63 66.336C1085.52 66.336 1088.44 68.672 1088.44 72.704V84H1082.1V82.08C1081.04 83.488 1079.32 84.288 1077.01 84.288C1073.3 84.288 1071.12 82.08 1071.12 78.816C1071.12 75.456 1073.46 73.6 1077.84 73.536H1082.1V73.472C1082.1 72.032 1081.08 71.168 1079.09 71.168C1077.72 71.168 1075.76 71.584 1073.84 72.416L1072.24 68.128C1075.09 66.976 1077.91 66.336 1080.63 66.336ZM1079.16 80.064C1080.47 80.064 1081.62 79.36 1082.1 78.272V76.704H1079.16C1077.88 76.704 1077.2 77.248 1077.2 78.336C1077.2 79.424 1077.91 80.064 1079.16 80.064ZM1102.63 78.72L1103.78 83.168C1102.56 83.872 1100.71 84.288 1098.95 84.288C1095.23 84.32 1092.74 82.176 1092.74 78.56V71.616H1090.34V67.488H1092.74V62.656H1099.17V67.488H1103.46V71.616H1099.17V77.568C1099.17 78.688 1099.75 79.232 1100.64 79.232C1101.15 79.232 1101.86 79.008 1102.63 78.72ZM1114.06 66.368C1120.17 66.368 1123.5 70.464 1123.11 76.864H1111.4C1111.91 78.528 1113.13 79.456 1114.79 79.456C1116.17 79.456 1117.48 78.848 1118.63 77.792L1121.99 81.088C1120.17 83.104 1117.55 84.224 1114.25 84.224C1108.43 84.224 1104.87 80.704 1104.87 75.36C1104.87 69.92 1108.55 66.368 1114.06 66.368ZM1111.27 73.696H1116.75C1116.78 71.968 1115.69 70.752 1114.12 70.752C1112.62 70.752 1111.59 71.936 1111.27 73.696ZM1132.18 66.592V69.344C1133.4 67.424 1135.29 66.336 1137.65 66.336V72.16C1134.33 71.744 1132.18 73.152 1132.18 75.68V84H1125.72V66.592H1132.18ZM1142.05 78.24C1143.84 78.24 1145.09 79.456 1145.09 81.216C1145.09 83.008 1143.84 84.256 1142.05 84.256C1140.29 84.256 1139.04 83.008 1139.04 81.216C1139.04 79.456 1140.29 78.24 1142.05 78.24ZM236.349 110.088V129H232.573V110.088H225.789V106.632H243.133V110.088H236.349ZM250.129 119.784V129H246.545V105.288H250.129V115.08C250.641 114.035 251.409 113.213 252.433 112.616C253.478 112.019 254.598 111.72 255.793 111.72C257.713 111.72 259.26 112.307 260.433 113.48C261.628 114.653 262.225 116.349 262.225 118.568V129H258.641V119.656C258.641 116.52 257.34 114.952 254.737 114.952C253.5 114.952 252.422 115.368 251.505 116.2C250.588 117.011 250.129 118.205 250.129 119.784ZM270.817 129H267.233V111.976H270.817V129ZM267.457 108.584C267.009 108.136 266.785 107.603 266.785 106.984C266.785 106.365 267.009 105.832 267.457 105.384C267.905 104.936 268.438 104.712 269.057 104.712C269.675 104.712 270.209 104.936 270.657 105.384C271.105 105.832 271.329 106.365 271.329 106.984C271.329 107.603 271.105 108.136 270.657 108.584C270.209 109.032 269.675 109.256 269.057 109.256C268.438 109.256 267.905 109.032 267.457 108.584ZM288.142 123.912C288.142 125.533 287.555 126.835 286.382 127.816C285.209 128.776 283.705 129.256 281.87 129.256C280.633 129.256 279.342 129.032 277.998 128.584C276.675 128.136 275.502 127.507 274.478 126.696L276.206 123.912C278.19 125.405 280.11 126.152 281.966 126.152C282.777 126.152 283.417 125.971 283.886 125.608C284.355 125.224 284.59 124.744 284.59 124.168C284.59 123.315 283.459 122.547 281.198 121.864C281.027 121.8 280.899 121.757 280.814 121.736C277.273 120.776 275.502 119.176 275.502 116.936C275.502 115.357 276.11 114.099 277.326 113.16C278.563 112.2 280.163 111.72 282.126 111.72C284.089 111.72 285.945 112.296 287.694 113.448L286.35 116.104C284.963 115.187 283.459 114.728 281.838 114.728C280.985 114.728 280.291 114.888 279.758 115.208C279.225 115.507 278.958 115.965 278.958 116.584C278.958 117.139 279.235 117.544 279.79 117.8C280.174 117.992 280.707 118.173 281.39 118.344C282.094 118.515 282.713 118.685 283.246 118.856C283.779 119.027 284.291 119.219 284.782 119.432C285.294 119.645 285.838 119.944 286.414 120.328C287.566 121.096 288.142 122.291 288.142 123.912ZM304.567 129H300.983V111.976H304.567V129ZM301.207 108.584C300.759 108.136 300.535 107.603 300.535 106.984C300.535 106.365 300.759 105.832 301.207 105.384C301.655 104.936 302.188 104.712 302.807 104.712C303.425 104.712 303.959 104.936 304.407 105.384C304.855 105.832 305.079 106.365 305.079 106.984C305.079 107.603 304.855 108.136 304.407 108.584C303.959 109.032 303.425 109.256 302.807 109.256C302.188 109.256 301.655 109.032 301.207 108.584ZM321.892 123.912C321.892 125.533 321.305 126.835 320.132 127.816C318.959 128.776 317.455 129.256 315.62 129.256C314.383 129.256 313.092 129.032 311.748 128.584C310.425 128.136 309.252 127.507 308.228 126.696L309.956 123.912C311.94 125.405 313.86 126.152 315.716 126.152C316.527 126.152 317.167 125.971 317.636 125.608C318.105 125.224 318.34 124.744 318.34 124.168C318.34 123.315 317.209 122.547 314.948 121.864C314.777 121.8 314.649 121.757 314.564 121.736C311.023 120.776 309.252 119.176 309.252 116.936C309.252 115.357 309.86 114.099 311.076 113.16C312.313 112.2 313.913 111.72 315.876 111.72C317.839 111.72 319.695 112.296 321.444 113.448L320.1 116.104C318.713 115.187 317.209 114.728 315.588 114.728C314.735 114.728 314.041 114.888 313.508 115.208C312.975 115.507 312.708 115.965 312.708 116.584C312.708 117.139 312.985 117.544 313.54 117.8C313.924 117.992 314.457 118.173 315.14 118.344C315.844 118.515 316.463 118.685 316.996 118.856C317.529 119.027 318.041 119.219 318.532 119.432C319.044 119.645 319.588 119.944 320.164 120.328C321.316 121.096 321.892 122.291 321.892 123.912ZM339.149 114.856V123.496C339.149 124.307 339.362 124.957 339.789 125.448C340.215 125.917 340.813 126.152 341.581 126.152C342.349 126.152 343.085 125.779 343.789 125.032L345.261 127.56C344.002 128.691 342.605 129.256 341.069 129.256C339.554 129.256 338.253 128.733 337.165 127.688C336.098 126.621 335.565 125.192 335.565 123.4V114.856H333.421V111.976H335.565V106.632H339.149V111.976H343.629V114.856H339.149ZM351.692 119.784V129H348.108V105.288H351.692V115.08C352.204 114.035 352.972 113.213 353.996 112.616C355.041 112.019 356.161 111.72 357.356 111.72C359.276 111.72 360.822 112.307 361.996 113.48C363.19 114.653 363.788 116.349 363.788 118.568V129H360.204V119.656C360.204 116.52 358.902 114.952 356.3 114.952C355.062 114.952 353.985 115.368 353.068 116.2C352.15 117.011 351.692 118.205 351.692 119.784ZM384.635 122.056H371.291C371.376 123.293 371.942 124.296 372.987 125.064C374.032 125.811 375.227 126.184 376.571 126.184C378.704 126.184 380.326 125.512 381.435 124.168L383.483 126.408C381.648 128.307 379.259 129.256 376.315 129.256C373.926 129.256 371.888 128.467 370.203 126.888C368.539 125.288 367.707 123.155 367.707 120.488C367.707 117.8 368.56 115.667 370.267 114.088C371.974 112.509 373.979 111.72 376.283 111.72C378.608 111.72 380.582 112.424 382.203 113.832C383.824 115.219 384.635 117.139 384.635 119.592V122.056ZM371.291 119.24H381.051C381.051 117.811 380.603 116.712 379.707 115.944C378.811 115.176 377.702 114.792 376.379 114.792C375.078 114.792 373.904 115.197 372.859 116.008C371.814 116.797 371.291 117.875 371.291 119.24ZM406.286 115.336C404.515 115.336 403.182 115.912 402.286 117.064C401.39 118.216 400.942 119.763 400.942 121.704V129H397.358V111.976H400.942V115.4C401.518 114.333 402.296 113.459 403.278 112.776C404.28 112.093 405.336 111.741 406.446 111.72L406.478 115.336C406.414 115.336 406.35 115.336 406.286 115.336ZM425.916 122.056H412.572C412.658 123.293 413.223 124.296 414.268 125.064C415.314 125.811 416.508 126.184 417.852 126.184C419.986 126.184 421.607 125.512 422.716 124.168L424.764 126.408C422.93 128.307 420.54 129.256 417.596 129.256C415.207 129.256 413.17 128.467 411.484 126.888C409.82 125.288 408.988 123.155 408.988 120.488C408.988 117.8 409.842 115.667 411.548 114.088C413.255 112.509 415.26 111.72 417.564 111.72C419.89 111.72 421.863 112.424 423.484 113.832C425.106 115.219 425.916 117.139 425.916 119.592V122.056ZM412.572 119.24H422.332C422.332 117.811 421.884 116.712 420.988 115.944C420.092 115.176 418.983 114.792 417.66 114.792C416.359 114.792 415.186 115.197 414.14 116.008C413.095 116.797 412.572 117.875 412.572 119.24ZM436.802 129.256C434.668 129.256 432.791 128.435 431.17 126.792C429.57 125.149 428.77 123.016 428.77 120.392C428.77 117.768 429.58 115.667 431.202 114.088C432.823 112.509 434.775 111.72 437.058 111.72C439.34 111.72 441.186 112.797 442.594 114.952V111.976H446.178V135.208H442.594V126.44C440.887 128.317 438.956 129.256 436.802 129.256ZM432.354 120.552C432.354 122.173 432.876 123.496 433.922 124.52C434.967 125.544 436.194 126.056 437.602 126.056C439.01 126.056 440.204 125.544 441.186 124.52C442.167 123.475 442.658 122.141 442.658 120.52C442.658 118.899 442.167 117.555 441.186 116.488C440.204 115.4 438.999 114.856 437.57 114.856C436.14 114.856 434.914 115.4 433.89 116.488C432.866 117.555 432.354 118.909 432.354 120.552ZM463.262 121.192V111.976H466.846V129H463.262V125.896C462.686 126.941 461.886 127.763 460.862 128.36C459.859 128.957 458.771 129.256 457.598 129.256C455.678 129.256 454.12 128.669 452.926 127.496C451.752 126.323 451.166 124.627 451.166 122.408V111.976H454.75V121.32C454.75 124.456 456.051 126.024 458.654 126.024C459.891 126.024 460.968 125.619 461.886 124.808C462.803 123.976 463.262 122.771 463.262 121.192ZM475.629 129H472.045V111.976H475.629V129ZM472.269 108.584C471.821 108.136 471.597 107.603 471.597 106.984C471.597 106.365 471.821 105.832 472.269 105.384C472.717 104.936 473.25 104.712 473.869 104.712C474.488 104.712 475.021 104.936 475.469 105.384C475.917 105.832 476.141 106.365 476.141 106.984C476.141 107.603 475.917 108.136 475.469 108.584C475.021 109.032 474.488 109.256 473.869 109.256C473.25 109.256 472.717 109.032 472.269 108.584ZM489.754 115.336C487.984 115.336 486.65 115.912 485.754 117.064C484.858 118.216 484.41 119.763 484.41 121.704V129H480.826V111.976H484.41V115.4C484.986 114.333 485.765 113.459 486.746 112.776C487.749 112.093 488.805 111.741 489.914 111.72L489.946 115.336C489.882 115.336 489.818 115.336 489.754 115.336ZM509.385 122.056H496.041C496.126 123.293 496.692 124.296 497.737 125.064C498.782 125.811 499.977 126.184 501.321 126.184C503.454 126.184 505.076 125.512 506.185 124.168L508.233 126.408C506.398 128.307 504.009 129.256 501.065 129.256C498.676 129.256 496.638 128.467 494.953 126.888C493.289 125.288 492.457 123.155 492.457 120.488C492.457 117.8 493.31 115.667 495.017 114.088C496.724 112.509 498.729 111.72 501.033 111.72C503.358 111.72 505.332 112.424 506.953 113.832C508.574 115.219 509.385 117.139 509.385 119.592V122.056ZM496.041 119.24H505.801C505.801 117.811 505.353 116.712 504.457 115.944C503.561 115.176 502.452 114.792 501.129 114.792C499.828 114.792 498.654 115.197 497.609 116.008C496.564 116.797 496.041 117.875 496.041 119.24ZM520.27 129.256C518.116 129.256 516.238 128.445 514.638 126.824C513.038 125.203 512.238 123.069 512.238 120.424C512.238 117.779 513.06 115.667 514.702 114.088C516.345 112.509 518.297 111.72 520.558 111.72C522.841 111.72 524.676 112.68 526.062 114.6V105.256H529.646V129H526.062V126.44C524.74 128.317 522.809 129.256 520.27 129.256ZM515.822 120.584C515.822 122.205 516.345 123.528 517.39 124.552C518.436 125.576 519.662 126.088 521.07 126.088C522.478 126.088 523.673 125.576 524.654 124.552C525.636 123.507 526.126 122.173 526.126 120.552C526.126 118.931 525.636 117.576 524.654 116.488C523.673 115.4 522.468 114.856 521.038 114.856C519.609 114.856 518.382 115.4 517.358 116.488C516.334 117.576 515.822 118.941 515.822 120.584ZM550.552 129.256C548.397 129.256 546.52 128.445 544.92 126.824C543.32 125.203 542.52 123.069 542.52 120.424C542.52 117.779 543.341 115.667 544.984 114.088C546.626 112.509 548.578 111.72 550.84 111.72C553.122 111.72 554.957 112.68 556.344 114.6V105.256H559.928V129H556.344V126.44C555.021 128.317 553.09 129.256 550.552 129.256ZM546.104 120.584C546.104 122.205 546.626 123.528 547.672 124.552C548.717 125.576 549.944 126.088 551.352 126.088C552.76 126.088 553.954 125.576 554.936 124.552C555.917 123.507 556.408 122.173 556.408 120.552C556.408 118.931 555.917 117.576 554.936 116.488C553.954 115.4 552.749 114.856 551.32 114.856C549.89 114.856 548.664 115.4 547.64 116.488C546.616 117.576 546.104 118.941 546.104 120.584ZM580.948 122.056H567.604C567.689 123.293 568.254 124.296 569.3 125.064C570.345 125.811 571.54 126.184 572.884 126.184C575.017 126.184 576.638 125.512 577.748 124.168L579.796 126.408C577.961 128.307 575.572 129.256 572.628 129.256C570.238 129.256 568.201 128.467 566.516 126.888C564.852 125.288 564.02 123.155 564.02 120.488C564.02 117.8 564.873 115.667 566.58 114.088C568.286 112.509 570.292 111.72 572.596 111.72C574.921 111.72 576.894 112.424 578.516 113.832C580.137 115.219 580.948 117.139 580.948 119.592V122.056ZM567.604 119.24H577.364C577.364 117.811 576.916 116.712 576.02 115.944C575.124 115.176 574.014 114.792 572.692 114.792C571.39 114.792 570.217 115.197 569.172 116.008C568.126 116.797 567.604 117.875 567.604 119.24ZM588.473 119.784V129H584.889V111.976H588.473V115.08C589.049 114.035 589.838 113.213 590.841 112.616C591.865 112.019 592.964 111.72 594.137 111.72C596.057 111.72 597.604 112.307 598.777 113.48C599.972 114.653 600.569 116.349 600.569 118.568V129H596.985V119.656C596.985 116.52 595.684 114.952 593.081 114.952C591.844 114.952 590.766 115.368 589.849 116.2C588.932 117.011 588.473 118.205 588.473 119.784ZM617.704 123.912C617.704 125.533 617.118 126.835 615.944 127.816C614.771 128.776 613.267 129.256 611.432 129.256C610.195 129.256 608.904 129.032 607.56 128.584C606.238 128.136 605.064 127.507 604.04 126.696L605.768 123.912C607.752 125.405 609.672 126.152 611.528 126.152C612.339 126.152 612.979 125.971 613.448 125.608C613.918 125.224 614.152 124.744 614.152 124.168C614.152 123.315 613.022 122.547 610.76 121.864C610.59 121.8 610.462 121.757 610.376 121.736C606.835 120.776 605.064 119.176 605.064 116.936C605.064 115.357 605.672 114.099 606.888 113.16C608.126 112.2 609.726 111.72 611.688 111.72C613.651 111.72 615.507 112.296 617.256 113.448L615.912 116.104C614.526 115.187 613.022 114.728 611.4 114.728C610.547 114.728 609.854 114.888 609.32 115.208C608.787 115.507 608.52 115.965 608.52 116.584C608.52 117.139 608.798 117.544 609.352 117.8C609.736 117.992 610.27 118.173 610.952 118.344C611.656 118.515 612.275 118.685 612.808 118.856C613.342 119.027 613.854 119.219 614.344 119.432C614.856 119.645 615.4 119.944 615.976 120.328C617.128 121.096 617.704 122.291 617.704 123.912ZM625.348 129H621.764V111.976H625.348V129ZM621.988 108.584C621.54 108.136 621.316 107.603 621.316 106.984C621.316 106.365 621.54 105.832 621.988 105.384C622.436 104.936 622.969 104.712 623.588 104.712C624.207 104.712 624.74 104.936 625.188 105.384C625.636 105.832 625.86 106.365 625.86 106.984C625.86 107.603 625.636 108.136 625.188 108.584C624.74 109.032 624.207 109.256 623.588 109.256C622.969 109.256 622.436 109.032 621.988 108.584ZM634.961 114.856V123.496C634.961 124.307 635.174 124.957 635.601 125.448C636.028 125.917 636.625 126.152 637.393 126.152C638.161 126.152 638.897 125.779 639.601 125.032L641.073 127.56C639.814 128.691 638.417 129.256 636.881 129.256C635.366 129.256 634.065 128.733 632.977 127.688C631.91 126.621 631.377 125.192 631.377 123.4V114.856H629.233V111.976H631.377V106.632H634.961V111.976H639.441V114.856H634.961ZM646.064 135.784C644.507 135.784 643.099 135.219 641.84 134.088L643.472 131.176C644.219 131.88 644.987 132.232 645.776 132.232C646.587 132.232 647.237 131.944 647.728 131.368C648.24 130.792 648.496 130.163 648.496 129.48C648.496 129.181 646.203 123.347 641.616 111.976H645.456L650.544 124.52L655.632 111.976H659.472L651.216 132.2C650.725 133.309 650.021 134.184 649.104 134.824C648.187 135.464 647.173 135.784 646.064 135.784ZM675.492 110.568V111.976H679.972V114.856H675.492V129H671.908V114.856H669.764V111.976H671.908V110.664C671.908 108.872 672.442 107.453 673.508 106.408C674.596 105.341 675.898 104.808 677.412 104.808C678.948 104.808 680.346 105.373 681.604 106.504L680.132 109.032C679.428 108.285 678.692 107.912 677.924 107.912C677.156 107.912 676.559 108.157 676.132 108.648C675.706 109.117 675.492 109.757 675.492 110.568ZM686.982 124.52C688.006 125.544 689.297 126.056 690.854 126.056C692.411 126.056 693.691 125.544 694.694 124.52C695.718 123.475 696.23 122.131 696.23 120.488C696.23 118.845 695.718 117.512 694.694 116.488C693.691 115.443 692.411 114.92 690.854 114.92C689.297 114.92 688.006 115.443 686.982 116.488C685.979 117.512 685.478 118.845 685.478 120.488C685.478 122.131 685.979 123.475 686.982 124.52ZM697.254 126.728C695.547 128.413 693.414 129.256 690.854 129.256C688.294 129.256 686.161 128.413 684.454 126.728C682.747 125.021 681.894 122.941 681.894 120.488C681.894 118.035 682.747 115.965 684.454 114.28C686.161 112.573 688.294 111.72 690.854 111.72C693.414 111.72 695.547 112.573 697.254 114.28C698.961 115.965 699.814 118.035 699.814 120.488C699.814 122.941 698.961 125.021 697.254 126.728ZM712.817 115.336C711.046 115.336 709.713 115.912 708.817 117.064C707.921 118.216 707.473 119.763 707.473 121.704V129H703.889V111.976H707.473V115.4C708.049 114.333 708.828 113.459 709.809 112.776C710.812 112.093 711.868 111.741 712.977 111.72L713.009 115.336C712.945 115.336 712.881 115.336 712.817 115.336ZM728.973 129H725.389V105.256H728.973V129ZM747.962 129H744.698V126.728C743.29 128.413 741.402 129.256 739.034 129.256C737.263 129.256 735.791 128.755 734.618 127.752C733.466 126.749 732.89 125.416 732.89 123.752C732.89 122.067 733.509 120.808 734.746 119.976C735.983 119.144 737.658 118.728 739.77 118.728H744.41V118.088C744.41 115.827 743.151 114.696 740.634 114.696C739.055 114.696 737.413 115.272 735.706 116.424L734.106 114.184C736.175 112.541 738.522 111.72 741.146 111.72C743.151 111.72 744.783 112.232 746.042 113.256C747.322 114.259 747.962 115.848 747.962 118.024V129ZM744.378 122.664V121.224H740.346C737.765 121.224 736.474 122.035 736.474 123.656C736.474 124.488 736.794 125.128 737.434 125.576C738.074 126.003 738.959 126.216 740.09 126.216C741.242 126.216 742.245 125.896 743.098 125.256C743.951 124.616 744.378 123.752 744.378 122.664ZM756.535 119.784V129H752.951V111.976H756.535V115.08C757.111 114.035 757.901 113.213 758.903 112.616C759.927 112.019 761.026 111.72 762.199 111.72C764.119 111.72 765.666 112.307 766.839 113.48C768.034 114.653 768.631 116.349 768.631 118.568V129H765.047V119.656C765.047 116.52 763.746 114.952 761.143 114.952C759.906 114.952 758.829 115.368 757.911 116.2C756.994 117.011 756.535 118.205 756.535 119.784ZM780.583 129.256C778.428 129.256 776.551 128.445 774.951 126.824C773.351 125.203 772.551 123.069 772.551 120.424C772.551 117.779 773.372 115.667 775.015 114.088C776.658 112.509 778.61 111.72 780.871 111.72C783.154 111.72 784.988 112.68 786.375 114.6V105.256H789.959V129H786.375V126.44C785.052 128.317 783.122 129.256 780.583 129.256ZM776.135 120.584C776.135 122.205 776.658 123.528 777.703 124.552C778.748 125.576 779.975 126.088 781.383 126.088C782.791 126.088 783.986 125.576 784.967 124.552C785.948 123.507 786.439 122.173 786.439 120.552C786.439 118.931 785.948 117.576 784.967 116.488C783.986 115.4 782.78 114.856 781.351 114.856C779.922 114.856 778.695 115.4 777.671 116.488C776.647 117.576 776.135 118.941 776.135 120.584ZM794.851 121.128V117.768H805.475V121.128H794.851ZM819.478 111.72C821.76 111.72 823.712 112.509 825.334 114.088C826.955 115.667 827.766 117.768 827.766 120.392C827.766 123.016 826.955 125.149 825.334 126.792C823.734 128.435 821.856 129.256 819.702 129.256C817.568 129.256 815.648 128.317 813.942 126.44V129H810.358V105.256H813.942V114.952C815.35 112.797 817.195 111.72 819.478 111.72ZM813.878 120.52C813.878 122.141 814.368 123.475 815.35 124.52C816.331 125.544 817.526 126.056 818.934 126.056C820.342 126.056 821.568 125.544 822.614 124.52C823.659 123.496 824.182 122.173 824.182 120.552C824.182 118.909 823.67 117.555 822.646 116.488C821.622 115.4 820.395 114.856 818.966 114.856C817.536 114.856 816.331 115.4 815.35 116.488C814.368 117.555 813.878 118.899 813.878 120.52ZM845.65 129H842.386V126.728C840.978 128.413 839.09 129.256 836.722 129.256C834.951 129.256 833.479 128.755 832.306 127.752C831.154 126.749 830.578 125.416 830.578 123.752C830.578 122.067 831.196 120.808 832.434 119.976C833.671 119.144 835.346 118.728 837.458 118.728H842.098V118.088C842.098 115.827 840.839 114.696 838.322 114.696C836.743 114.696 835.1 115.272 833.394 116.424L831.794 114.184C833.863 112.541 836.21 111.72 838.834 111.72C840.839 111.72 842.471 112.232 843.73 113.256C845.01 114.259 845.65 115.848 845.65 118.024V129ZM842.066 122.664V121.224H838.034C835.452 121.224 834.162 122.035 834.162 123.656C834.162 124.488 834.482 125.128 835.122 125.576C835.762 126.003 836.647 126.216 837.778 126.216C838.93 126.216 839.932 125.896 840.786 125.256C841.639 124.616 842.066 123.752 842.066 122.664ZM862.767 123.912C862.767 125.533 862.18 126.835 861.007 127.816C859.834 128.776 858.33 129.256 856.495 129.256C855.258 129.256 853.967 129.032 852.623 128.584C851.3 128.136 850.127 127.507 849.103 126.696L850.831 123.912C852.815 125.405 854.735 126.152 856.591 126.152C857.402 126.152 858.042 125.971 858.511 125.608C858.98 125.224 859.215 124.744 859.215 124.168C859.215 123.315 858.084 122.547 855.823 121.864C855.652 121.8 855.524 121.757 855.439 121.736C851.898 120.776 850.127 119.176 850.127 116.936C850.127 115.357 850.735 114.099 851.951 113.16C853.188 112.2 854.788 111.72 856.751 111.72C858.714 111.72 860.57 112.296 862.319 113.448L860.975 116.104C859.588 115.187 858.084 114.728 856.463 114.728C855.61 114.728 854.916 114.888 854.383 115.208C853.85 115.507 853.583 115.965 853.583 116.584C853.583 117.139 853.86 117.544 854.415 117.8C854.799 117.992 855.332 118.173 856.015 118.344C856.719 118.515 857.338 118.685 857.871 118.856C858.404 119.027 858.916 119.219 859.407 119.432C859.919 119.645 860.463 119.944 861.039 120.328C862.191 121.096 862.767 122.291 862.767 123.912ZM882.666 122.056H869.322C869.408 123.293 869.973 124.296 871.018 125.064C872.064 125.811 873.258 126.184 874.602 126.184C876.736 126.184 878.357 125.512 879.466 124.168L881.514 126.408C879.68 128.307 877.29 129.256 874.346 129.256C871.957 129.256 869.92 128.467 868.234 126.888C866.57 125.288 865.738 123.155 865.738 120.488C865.738 117.8 866.592 115.667 868.298 114.088C870.005 112.509 872.01 111.72 874.314 111.72C876.64 111.72 878.613 112.424 880.234 113.832C881.856 115.219 882.666 117.139 882.666 119.592V122.056ZM869.322 119.24H879.082C879.082 117.811 878.634 116.712 877.738 115.944C876.842 115.176 875.733 114.792 874.41 114.792C873.109 114.792 871.936 115.197 870.89 116.008C869.845 116.797 869.322 117.875 869.322 119.24ZM893.552 129.256C891.397 129.256 889.52 128.445 887.92 126.824C886.32 125.203 885.52 123.069 885.52 120.424C885.52 117.779 886.341 115.667 887.984 114.088C889.626 112.509 891.578 111.72 893.84 111.72C896.122 111.72 897.957 112.68 899.344 114.6V105.256H902.928V129H899.344V126.44C898.021 128.317 896.09 129.256 893.552 129.256ZM889.104 120.584C889.104 122.205 889.626 123.528 890.672 124.552C891.717 125.576 892.944 126.088 894.352 126.088C895.76 126.088 896.954 125.576 897.936 124.552C898.917 123.507 899.408 122.173 899.408 120.552C899.408 118.931 898.917 117.576 897.936 116.488C896.954 115.4 895.749 114.856 894.32 114.856C892.89 114.856 891.664 115.4 890.64 116.488C889.616 117.576 889.104 118.941 889.104 120.584ZM921.305 110.568V111.976H925.785V114.856H921.305V129H917.721V114.856H915.577V111.976H917.721V110.664C917.721 108.872 918.254 107.453 919.321 106.408C920.409 105.341 921.71 104.808 923.225 104.808C924.761 104.808 926.158 105.373 927.417 106.504L925.945 109.032C925.241 108.285 924.505 107.912 923.737 107.912C922.969 107.912 922.372 108.157 921.945 108.648C921.518 109.117 921.305 109.757 921.305 110.568ZM942.868 129H939.604V126.728C938.196 128.413 936.308 129.256 933.94 129.256C932.17 129.256 930.698 128.755 929.524 127.752C928.372 126.749 927.796 125.416 927.796 123.752C927.796 122.067 928.415 120.808 929.652 119.976C930.89 119.144 932.564 118.728 934.676 118.728H939.316V118.088C939.316 115.827 938.058 114.696 935.54 114.696C933.962 114.696 932.319 115.272 930.612 116.424L929.012 114.184C931.082 112.541 933.428 111.72 936.052 111.72C938.058 111.72 939.69 112.232 940.948 113.256C942.228 114.259 942.868 115.848 942.868 118.024V129ZM939.284 122.664V121.224H935.252C932.671 121.224 931.38 122.035 931.38 123.656C931.38 124.488 931.7 125.128 932.34 125.576C932.98 126.003 933.866 126.216 934.996 126.216C936.148 126.216 937.151 125.896 938.004 125.256C938.858 124.616 939.284 123.752 939.284 122.664ZM956.786 115.336C955.015 115.336 953.682 115.912 952.786 117.064C951.89 118.216 951.442 119.763 951.442 121.704V129H947.858V111.976H951.442V115.4C952.018 114.333 952.796 113.459 953.778 112.776C954.78 112.093 955.836 111.741 956.946 111.72L956.978 115.336C956.914 115.336 956.85 115.336 956.786 115.336ZM964.16 119.784V129H960.576V111.976H964.16V115.08C964.672 114.035 965.44 113.213 966.464 112.616C967.51 112.019 968.63 111.72 969.824 111.72C972.512 111.72 974.336 112.829 975.296 115.048C976.982 112.829 979.083 111.72 981.6 111.72C983.52 111.72 985.067 112.307 986.24 113.48C987.435 114.653 988.032 116.349 988.032 118.568V129H984.448V119.656C984.448 116.52 983.147 114.952 980.544 114.952C979.328 114.952 978.262 115.347 977.344 116.136C976.448 116.904 975.979 118.035 975.936 119.528V129H972.352V119.656C972.352 118.035 972.064 116.851 971.488 116.104C970.912 115.336 970.006 114.952 968.768 114.952C967.531 114.952 966.454 115.368 965.536 116.2C964.619 117.011 964.16 118.205 964.16 119.784ZM1005.14 123.912C1005.14 125.533 1004.56 126.835 1003.38 127.816C1002.21 128.776 1000.7 129.256 998.87 129.256C997.633 129.256 996.342 129.032 994.998 128.584C993.675 128.136 992.502 127.507 991.478 126.696L993.206 123.912C995.19 125.405 997.11 126.152 998.966 126.152C999.777 126.152 1000.42 125.971 1000.89 125.608C1001.36 125.224 1001.59 124.744 1001.59 124.168C1001.59 123.315 1000.46 122.547 998.198 121.864C998.027 121.8 997.899 121.757 997.814 121.736C994.273 120.776 992.502 119.176 992.502 116.936C992.502 115.357 993.11 114.099 994.326 113.16C995.563 112.2 997.163 111.72 999.126 111.72C1001.09 111.72 1002.94 112.296 1004.69 113.448L1003.35 116.104C1001.96 115.187 1000.46 114.728 998.838 114.728C997.985 114.728 997.291 114.888 996.758 115.208C996.225 115.507 995.958 115.965 995.958 116.584C995.958 117.139 996.235 117.544 996.79 117.8C997.174 117.992 997.707 118.173 998.39 118.344C999.094 118.515 999.713 118.685 1000.25 118.856C1000.78 119.027 1001.29 119.219 1001.78 119.432C1002.29 119.645 1002.84 119.944 1003.41 120.328C1004.57 121.096 1005.14 122.291 1005.14 123.912ZM1022.4 114.856V123.496C1022.4 124.307 1022.61 124.957 1023.04 125.448C1023.47 125.917 1024.06 126.152 1024.83 126.152C1025.6 126.152 1026.33 125.779 1027.04 125.032L1028.51 127.56C1027.25 128.691 1025.85 129.256 1024.32 129.256C1022.8 129.256 1021.5 128.733 1020.41 127.688C1019.35 126.621 1018.81 125.192 1018.81 123.4V114.856H1016.67V111.976H1018.81V106.632H1022.4V111.976H1026.88V114.856H1022.4ZM1035.2 124.52C1036.22 125.544 1037.52 126.056 1039.07 126.056C1040.63 126.056 1041.91 125.544 1042.91 124.52C1043.94 123.475 1044.45 122.131 1044.45 120.488C1044.45 118.845 1043.94 117.512 1042.91 116.488C1041.91 115.443 1040.63 114.92 1039.07 114.92C1037.52 114.92 1036.22 115.443 1035.2 116.488C1034.2 117.512 1033.7 118.845 1033.7 120.488C1033.7 122.131 1034.2 123.475 1035.2 124.52ZM1045.47 126.728C1043.77 128.413 1041.63 129.256 1039.07 129.256C1036.51 129.256 1034.38 128.413 1032.67 126.728C1030.97 125.021 1030.11 122.941 1030.11 120.488C1030.11 118.035 1030.97 115.965 1032.67 114.28C1034.38 112.573 1036.51 111.72 1039.07 111.72C1041.63 111.72 1043.77 112.573 1045.47 114.28C1047.18 115.965 1048.03 118.035 1048.03 120.488C1048.03 122.941 1047.18 125.021 1045.47 126.728ZM1070.01 111.72C1072.29 111.72 1074.24 112.509 1075.86 114.088C1077.49 115.667 1078.3 117.768 1078.3 120.392C1078.3 123.016 1077.49 125.149 1075.86 126.792C1074.26 128.435 1072.39 129.256 1070.23 129.256C1068.1 129.256 1066.18 128.317 1064.47 126.44V129H1060.89V105.256H1064.47V114.952C1065.88 112.797 1067.73 111.72 1070.01 111.72ZM1064.41 120.52C1064.41 122.141 1064.9 123.475 1065.88 124.52C1066.86 125.544 1068.06 126.056 1069.46 126.056C1070.87 126.056 1072.1 125.544 1073.14 124.52C1074.19 123.496 1074.71 122.173 1074.71 120.552C1074.71 118.909 1074.2 117.555 1073.18 116.488C1072.15 115.4 1070.93 114.856 1069.5 114.856C1068.07 114.856 1066.86 115.4 1065.88 116.488C1064.9 117.555 1064.41 118.899 1064.41 120.52ZM1098.23 122.056H1084.88C1084.97 123.293 1085.54 124.296 1086.58 125.064C1087.63 125.811 1088.82 126.184 1090.16 126.184C1092.3 126.184 1093.92 125.512 1095.03 124.168L1097.08 126.408C1095.24 128.307 1092.85 129.256 1089.91 129.256C1087.52 129.256 1085.48 128.467 1083.8 126.888C1082.13 125.288 1081.3 123.155 1081.3 120.488C1081.3 117.8 1082.15 115.667 1083.86 114.088C1085.57 112.509 1087.57 111.72 1089.88 111.72C1092.2 111.72 1094.18 112.424 1095.8 113.832C1097.42 115.219 1098.23 117.139 1098.23 119.592V122.056ZM1084.88 119.24H1094.64C1094.64 117.811 1094.2 116.712 1093.3 115.944C1092.4 115.176 1091.3 114.792 1089.97 114.792C1088.67 114.792 1087.5 115.197 1086.45 116.008C1085.41 116.797 1084.88 117.875 1084.88 119.24ZM1120.07 111.72C1122.35 111.72 1124.31 112.509 1125.93 114.088C1127.55 115.667 1128.36 117.768 1128.36 120.392C1128.36 123.016 1127.55 125.149 1125.93 126.792C1124.33 128.435 1122.45 129.256 1120.3 129.256C1118.16 129.256 1116.24 128.317 1114.54 126.44V135.208H1110.95V111.976H1114.54V114.952C1115.94 112.797 1117.79 111.72 1120.07 111.72ZM1114.47 120.52C1114.47 122.141 1114.96 123.475 1115.94 124.52C1116.92 125.544 1118.12 126.056 1119.53 126.056C1120.94 126.056 1122.16 125.544 1123.21 124.52C1124.25 123.496 1124.78 122.173 1124.78 120.552C1124.78 118.909 1124.26 117.555 1123.24 116.488C1122.22 115.4 1120.99 114.856 1119.56 114.856C1118.13 114.856 1116.92 115.4 1115.94 116.488C1114.96 117.555 1114.47 118.899 1114.47 120.52ZM1141.38 115.336C1139.61 115.336 1138.28 115.912 1137.38 117.064C1136.48 118.216 1136.04 119.763 1136.04 121.704V129H1132.45V111.976H1136.04V115.4C1136.61 114.333 1137.39 113.459 1138.37 112.776C1139.37 112.093 1140.43 111.741 1141.54 111.72L1141.57 115.336C1141.51 115.336 1141.44 115.336 1141.38 115.336ZM1148.83 124.52C1149.85 125.544 1151.14 126.056 1152.7 126.056C1154.25 126.056 1155.53 125.544 1156.54 124.52C1157.56 123.475 1158.07 122.131 1158.07 120.488C1158.07 118.845 1157.56 117.512 1156.54 116.488C1155.53 115.443 1154.25 114.92 1152.7 114.92C1151.14 114.92 1149.85 115.443 1148.83 116.488C1147.82 117.512 1147.32 118.845 1147.32 120.488C1147.32 122.131 1147.82 123.475 1148.83 124.52ZM1159.1 126.728C1157.39 128.413 1155.26 129.256 1152.7 129.256C1150.14 129.256 1148 128.413 1146.3 126.728C1144.59 125.021 1143.74 122.941 1143.74 120.488C1143.74 118.035 1144.59 115.965 1146.3 114.28C1148 112.573 1150.14 111.72 1152.7 111.72C1155.26 111.72 1157.39 112.573 1159.1 114.28C1160.8 115.965 1161.66 118.035 1161.66 120.488C1161.66 122.941 1160.8 125.021 1159.1 126.728ZM1169.9 110.568V111.976H1174.38V114.856H1169.9V129H1166.31V114.856H1164.17V111.976H1166.31V110.664C1166.31 108.872 1166.85 107.453 1167.91 106.408C1169 105.341 1170.3 104.808 1171.82 104.808C1173.35 104.808 1174.75 105.373 1176.01 106.504L1174.54 109.032C1173.83 108.285 1173.1 107.912 1172.33 107.912C1171.56 107.912 1170.97 108.157 1170.54 108.648C1170.11 109.117 1169.9 109.757 1169.9 110.568ZM1181.41 129H1177.83V111.976H1181.41V129ZM1178.05 108.584C1177.6 108.136 1177.38 107.603 1177.38 106.984C1177.38 106.365 1177.6 105.832 1178.05 105.384C1178.5 104.936 1179.03 104.712 1179.65 104.712C1180.27 104.712 1180.8 104.936 1181.25 105.384C1181.7 105.832 1181.92 106.365 1181.92 106.984C1181.92 107.603 1181.7 108.136 1181.25 108.584C1180.8 109.032 1180.27 109.256 1179.65 109.256C1179.03 109.256 1178.5 109.032 1178.05 108.584ZM1191.02 114.856V123.496C1191.02 124.307 1191.24 124.957 1191.66 125.448C1192.09 125.917 1192.69 126.152 1193.46 126.152C1194.22 126.152 1194.96 125.779 1195.66 125.032L1197.14 127.56C1195.88 128.691 1194.48 129.256 1192.94 129.256C1191.43 129.256 1190.13 128.733 1189.04 127.688C1187.97 126.621 1187.44 125.192 1187.44 123.4V114.856H1185.3V111.976H1187.44V106.632H1191.02V111.976H1195.5V114.856H1191.02ZM1213.77 129H1210.51V126.728C1209.1 128.413 1207.21 129.256 1204.85 129.256C1203.08 129.256 1201.6 128.755 1200.43 127.752C1199.28 126.749 1198.7 125.416 1198.7 123.752C1198.7 122.067 1199.32 120.808 1200.56 119.976C1201.8 119.144 1203.47 118.728 1205.58 118.728H1210.22V118.088C1210.22 115.827 1208.96 114.696 1206.45 114.696C1204.87 114.696 1203.23 115.272 1201.52 116.424L1199.92 114.184C1201.99 112.541 1204.33 111.72 1206.96 111.72C1208.96 111.72 1210.6 112.232 1211.85 113.256C1213.13 114.259 1213.77 115.848 1213.77 118.024V129ZM1210.19 122.664V121.224H1206.16C1203.58 121.224 1202.29 122.035 1202.29 123.656C1202.29 124.488 1202.61 125.128 1203.25 125.576C1203.89 126.003 1204.77 126.216 1205.9 126.216C1207.05 126.216 1208.06 125.896 1208.91 125.256C1209.76 124.616 1210.19 123.752 1210.19 122.664ZM1227.88 111.72C1230.17 111.72 1232.12 112.509 1233.74 114.088C1235.36 115.667 1236.17 117.768 1236.17 120.392C1236.17 123.016 1235.36 125.149 1233.74 126.792C1232.14 128.435 1230.26 129.256 1228.11 129.256C1225.97 129.256 1224.05 128.317 1222.35 126.44V129H1218.76V105.256H1222.35V114.952C1223.76 112.797 1225.6 111.72 1227.88 111.72ZM1222.28 120.52C1222.28 122.141 1222.77 123.475 1223.76 124.52C1224.74 125.544 1225.93 126.056 1227.34 126.056C1228.75 126.056 1229.97 125.544 1231.02 124.52C1232.07 123.496 1232.59 122.173 1232.59 120.552C1232.59 118.909 1232.08 117.555 1231.05 116.488C1230.03 115.4 1228.8 114.856 1227.37 114.856C1225.94 114.856 1224.74 115.4 1223.76 116.488C1222.77 117.555 1222.28 118.899 1222.28 120.52ZM1243.85 129H1240.26V105.256H1243.85V129ZM1264.89 122.056H1251.54C1251.63 123.293 1252.19 124.296 1253.24 125.064C1254.28 125.811 1255.48 126.184 1256.82 126.184C1258.95 126.184 1260.58 125.512 1261.69 124.168L1263.73 126.408C1261.9 128.307 1259.51 129.256 1256.57 129.256C1254.18 129.256 1252.14 128.467 1250.45 126.888C1248.79 125.288 1247.96 123.155 1247.96 120.488C1247.96 117.8 1248.81 115.667 1250.52 114.088C1252.22 112.509 1254.23 111.72 1256.53 111.72C1258.86 111.72 1260.83 112.424 1262.45 113.832C1264.07 115.219 1264.89 117.139 1264.89 119.592V122.056ZM1251.54 119.24H1261.3C1261.3 117.811 1260.85 116.712 1259.96 115.944C1259.06 115.176 1257.95 114.792 1256.63 114.792C1255.33 114.792 1254.15 115.197 1253.11 116.008C1252.06 116.797 1251.54 117.875 1251.54 119.24ZM1269.02 128.552C1268.57 128.083 1268.35 127.517 1268.35 126.856C1268.35 126.195 1268.57 125.64 1269.02 125.192C1269.49 124.723 1270.05 124.488 1270.71 124.488C1271.38 124.488 1271.94 124.723 1272.41 125.192C1272.88 125.64 1273.11 126.195 1273.11 126.856C1273.11 127.517 1272.88 128.083 1272.41 128.552C1271.94 129.021 1271.38 129.256 1270.71 129.256C1270.05 129.256 1269.49 129.021 1269.02 128.552Z" fill="black"/>
<path fill-rule="evenodd" clip-rule="evenodd" d="M245.81 331.487L288.071 344.315C279.842 323.389 286.579 294.576 307.521 275.616L310.642 272.79H262.759L309.773 227.047H361.166L404.358 187.941C437.908 157.566 497.335 177.994 524.47 188.809C527.185 196.69 530.084 207.444 532.102 219.353C517.889 227.605 501.318 243.926 501.318 273.426H508.318C508.318 248.852 521.137 234.601 533.229 226.846C536.763 253.858 535.003 284.725 516.7 301.296L404.231 403.123C386.797 418.907 362.79 417.304 344.515 406.554L352.814 449.674L292.888 503.931L273.144 416.289L185.884 385.744L245.81 331.487ZM456.395 226.856C460.185 223.425 460.63 217.741 457.389 214.162C454.148 210.582 448.449 210.462 444.659 213.894C440.869 217.325 440.423 223.009 443.664 226.588C446.905 230.168 452.605 230.288 456.395 226.856Z" fill="#FF3636"/>
<path fill-rule="evenodd" clip-rule="evenodd" d="M478.505 379.607L520.767 392.434C512.537 371.509 519.275 342.696 540.216 323.735L543.337 320.91H495.454L542.468 275.166H593.861L637.053 236.061C670.603 205.686 730.031 226.114 757.166 236.928C759.88 244.809 762.779 255.563 764.798 267.472C750.585 275.725 734.013 292.045 734.013 321.545H741.013C741.013 296.971 753.833 282.721 765.924 274.966C769.458 301.978 767.698 332.844 749.395 349.415L636.927 451.242C619.493 467.027 595.485 465.424 577.21 454.673L585.51 497.794L525.583 552.05L505.839 464.409L418.579 433.863L478.505 379.607ZM689.09 274.976C692.88 271.544 693.325 265.861 690.084 262.281C686.843 258.702 681.144 258.582 677.354 262.013C673.564 265.445 673.118 271.128 676.359 274.708C679.6 278.287 685.3 278.407 689.09 274.976Z" fill="#FF3636"/>
<path fill-rule="evenodd" clip-rule="evenodd" d="M1014.93 379.607L1057.19 392.434C1048.96 371.509 1055.7 342.696 1076.64 323.735L1079.76 320.91H1031.87L1078.89 275.166H1130.28L1173.47 236.061C1207.02 205.686 1266.45 226.114 1293.59 236.928C1296.3 244.809 1299.2 255.563 1301.22 267.472C1287.01 275.725 1270.43 292.045 1270.43 321.545H1277.43C1277.43 296.971 1290.25 282.721 1302.35 274.966C1305.88 301.978 1304.12 332.844 1285.82 349.415L1173.35 451.242C1155.91 467.027 1131.91 465.424 1113.63 454.673L1121.93 497.794L1062 552.05L1042.26 464.409L955 433.863L1014.93 379.607ZM1225.51 274.976C1229.3 271.544 1229.75 265.861 1226.51 262.281C1223.26 258.702 1217.56 258.582 1213.77 262.013C1209.98 265.445 1209.54 271.128 1212.78 274.708C1216.02 278.287 1221.72 278.407 1225.51 274.976Z" fill="#FF3636"/>
<path fill-rule="evenodd" clip-rule="evenodd" d="M811.636 300.864C790.695 319.824 783.958 348.637 792.187 369.562L749.926 356.735L690 410.992L777.26 441.538L797.004 529.179L856.93 474.922L848.631 431.802C866.906 442.552 890.913 444.155 908.347 428.37L1020.82 326.544C1039.12 309.972 1040.88 279.106 1037.34 252.094C1025.25 259.849 1012.43 274.1 1012.43 298.674H1005.43C1005.43 269.174 1022.01 252.853 1036.22 244.601C1034.2 232.692 1031.3 221.938 1028.59 214.057C1001.45 203.242 942.023 182.814 908.474 213.189L865.281 252.295H813.889L766.875 298.038H814.757L811.636 300.864ZM960.51 252.104C964.3 248.673 964.745 242.989 961.504 239.41C958.263 235.83 952.564 235.71 948.774 239.142C944.984 242.573 944.538 248.257 947.779 251.836C951.02 255.416 956.72 255.536 960.51 252.104Z" fill="#FF3636"/>
<path d="M186 312H1314V439C1314 560.503 1215.5 659 1094 659H406C284.497 659 186 560.503 186 439V312Z" fill="#13176F"/>
<path d="M386.427 666.961V590H424V723H336V699.09L386.427 666.961Z" fill="#EBF97B"/>
<path d="M1120.57 666.961V590H1083V723H1171V699.09L1120.57 666.961Z" fill="#EBF97B"/>
</svg>
