<svg width="1500" height="1041" viewBox="0 0 1500 1041" fill="none" xmlns="http://www.w3.org/2000/svg">
<rect width="1500" height="1041" fill="white"/>
<path d="M878.487 406L773 643H856.896L963 430.688L878.487 406Z" fill="#EBF97B" stroke="black"/>
<path d="M771.553 647H708L836.558 394L882 406.959L771.553 647Z" fill="#FF3636" stroke="black"/>
<path d="M252.789 74.416H243.733L242.389 78H235.541L245.109 55.568H251.957L261.205 78H254.101L252.789 74.416ZM251.029 69.552L248.341 62.224L245.589 69.552H251.029ZM269.369 60.592V63.344C270.585 61.424 272.473 60.336 274.841 60.336V66.16C271.513 65.744 269.369 67.152 269.369 69.68V78H262.905V60.592H269.369ZM285.476 60.368C291.332 60.368 295.14 63.888 295.14 69.296C295.14 74.672 291.332 78.224 285.476 78.224C279.62 78.224 275.78 74.672 275.78 69.296C275.78 63.888 279.62 60.368 285.476 60.368ZM285.476 65.488C283.556 65.488 282.308 67.056 282.308 69.36C282.308 71.696 283.556 73.232 285.476 73.232C287.364 73.232 288.612 71.696 288.612 69.36C288.612 67.056 287.364 65.488 285.476 65.488ZM315.158 60.592V78H308.694V75.408C307.51 77.264 305.686 78.288 303.35 78.288C299.702 78.288 297.206 75.696 297.206 71.632V60.592H303.67V69.808C303.67 71.504 304.598 72.592 306.006 72.592C307.67 72.56 308.694 71.184 308.694 69.2V60.592H315.158ZM331.061 60.336C334.773 60.336 337.333 62.928 337.333 66.96V78H330.869V68.816C330.869 67.088 329.877 66 328.373 66C326.613 66.032 325.525 67.408 325.525 69.392V78H319.061V60.592H325.525V63.28C326.741 61.36 328.629 60.336 331.061 60.336ZM358.701 54.256V78H352.237V76.016C351.085 77.424 349.453 78.224 347.469 78.224C342.605 78.224 339.405 74.672 339.405 69.2C339.405 63.856 342.541 60.368 347.309 60.368C349.357 60.368 351.053 61.168 352.237 62.608V54.256H358.701ZM349.101 73.264C350.989 73.264 352.237 71.696 352.237 69.36C352.237 67.056 350.989 65.488 349.101 65.488C347.181 65.488 345.933 67.056 345.933 69.36C345.933 71.696 347.181 73.264 349.101 73.264ZM378.644 78H371.956V60.88H367.956V55.568H378.644V78ZM392.782 55.376C399.246 55.376 402.894 59.44 402.894 66.768C402.894 74.128 399.246 78.192 392.782 78.192C386.222 78.192 382.638 74.128 382.638 66.768C382.638 59.44 386.222 55.376 392.782 55.376ZM392.782 60.208C390.382 60.208 389.454 61.968 389.454 66.768C389.454 71.568 390.382 73.36 392.782 73.36C395.118 73.36 396.046 71.568 396.046 66.768C396.046 61.968 395.118 60.208 392.782 60.208ZM411.406 55.472C415.31 55.472 417.806 58.096 417.806 62.256C417.806 66.448 415.31 69.136 411.406 69.136C407.47 69.136 404.974 66.448 404.974 62.256C404.974 58.096 407.47 55.472 411.406 55.472ZM409.902 78L425.678 55.568H431.694L415.95 78H409.902ZM411.406 58.864C409.934 58.864 409.038 60.176 409.038 62.256C409.038 64.368 409.934 65.68 411.406 65.68C412.846 65.68 413.742 64.368 413.742 62.256C413.742 60.176 412.846 58.864 411.406 58.864ZM430.35 64.464C434.254 64.464 436.75 67.12 436.75 71.28C436.75 75.472 434.254 78.128 430.35 78.128C426.414 78.128 423.918 75.472 423.918 71.28C423.918 67.12 426.414 64.464 430.35 64.464ZM430.35 67.888C428.878 67.888 427.982 69.2 427.982 71.28C427.982 73.392 428.878 74.704 430.35 74.704C431.79 74.704 432.686 73.392 432.686 71.28C432.686 69.2 431.79 67.888 430.35 67.888ZM454.913 60.368C460.769 60.368 464.577 63.888 464.577 69.296C464.577 74.672 460.769 78.224 454.913 78.224C449.057 78.224 445.217 74.672 445.217 69.296C445.217 63.888 449.057 60.368 454.913 60.368ZM454.913 65.488C452.993 65.488 451.745 67.056 451.745 69.36C451.745 71.696 452.993 73.232 454.913 73.232C456.801 73.232 458.049 71.696 458.049 69.36C458.049 67.056 456.801 65.488 454.913 65.488ZM476.251 58.992C475.163 58.992 474.427 59.6 474.427 60.656V61.488H478.043V65.616H474.427V78H468.027V65.616H465.659V61.488H468.027V59.888C468.027 56.176 470.875 53.936 474.971 53.968C476.827 53.968 478.907 54.416 480.315 55.216L478.107 59.664C477.531 59.248 476.795 58.992 476.251 58.992ZM503.96 60.592V76.496C503.96 81.392 500.088 84.496 494.392 84.496C491.16 84.496 488.248 83.472 486.36 82.224L488.504 77.872C490.04 78.896 492.056 79.472 493.848 79.472C496.184 79.472 497.56 78.384 497.56 76.688V74.928C496.44 76.272 494.872 77.008 492.888 77.008C488.664 77.008 485.592 73.68 485.592 68.592C485.592 63.632 488.568 60.368 492.76 60.368C494.808 60.368 496.44 61.136 497.56 62.48V60.592H503.96ZM494.584 72.368C496.376 72.368 497.56 70.928 497.56 68.784C497.56 66.576 496.376 65.136 494.584 65.136C492.824 65.136 491.64 66.608 491.64 68.784C491.64 70.928 492.824 72.368 494.584 72.368ZM514.404 78H507.94V54.256H514.404V78ZM526.851 60.368C532.707 60.368 536.515 63.888 536.515 69.296C536.515 74.672 532.707 78.224 526.851 78.224C520.995 78.224 517.155 74.672 517.155 69.296C517.155 63.888 520.995 60.368 526.851 60.368ZM526.851 65.488C524.931 65.488 523.683 67.056 523.683 69.36C523.683 71.696 524.931 73.232 526.851 73.232C528.739 73.232 529.987 71.696 529.987 69.36C529.987 67.056 528.739 65.488 526.851 65.488ZM550.453 60.368C555.317 60.368 558.517 63.952 558.517 69.392C558.517 74.736 555.413 78.224 550.613 78.224C548.565 78.224 546.869 77.424 545.685 75.984V78H539.221V54.256H545.685V62.608C546.837 61.168 548.501 60.368 550.453 60.368ZM548.821 73.104C550.741 73.104 551.989 71.536 551.989 69.232C551.989 66.928 550.741 65.36 548.821 65.36C546.965 65.36 545.685 66.928 545.685 69.232C545.685 71.536 546.965 73.104 548.821 73.104ZM569.285 60.336C574.181 60.336 577.093 62.672 577.093 66.704V78H570.757V76.08C569.701 77.488 567.973 78.288 565.669 78.288C561.957 78.288 559.781 76.08 559.781 72.816C559.781 69.456 562.117 67.6 566.501 67.536H570.757V67.472C570.757 66.032 569.733 65.168 567.749 65.168C566.373 65.168 564.421 65.584 562.501 66.416L560.901 62.128C563.749 60.976 566.565 60.336 569.285 60.336ZM567.813 74.064C569.125 74.064 570.277 73.36 570.757 72.272V70.704H567.813C566.533 70.704 565.861 71.248 565.861 72.336C565.861 73.424 566.565 74.064 567.813 74.064ZM587.154 78H580.69V54.256H587.154V78ZM614.601 58.96C612.649 58.96 611.273 57.584 611.273 55.632C611.273 53.68 612.649 52.304 614.601 52.304C616.553 52.304 617.929 53.68 617.929 55.632C617.929 57.584 616.553 58.96 614.601 58.96ZM599.433 61.232V59.888C599.433 56.144 602.313 53.936 606.377 53.968C607.625 53.968 608.969 54.192 609.865 54.544L609.641 59.664C609.001 59.248 608.233 59.024 607.657 59.024C606.569 58.992 605.833 59.568 605.833 60.656V61.232H609.449V65.392H605.833V78H599.433V65.392H597.065V61.232H599.433ZM611.337 60.592H617.801V78H611.337V60.592ZM628.47 60.304C631.094 60.304 633.75 61.04 636.118 62.416L633.974 66.48C631.606 65.264 629.654 64.656 628.278 64.656C627.478 64.656 626.966 64.944 626.966 65.488C626.966 67.44 636.054 66.576 636.054 72.528C636.054 76.112 632.95 78.288 628.406 78.288C625.334 78.288 622.486 77.456 620.214 75.824L622.198 71.76C624.374 73.168 626.582 73.904 628.502 73.904C629.366 73.904 629.942 73.648 629.942 73.104C629.942 71.12 621.046 72.08 621.046 66.128C621.046 62.48 624.086 60.304 628.47 60.304ZM651.003 60.336C654.747 60.336 657.275 62.928 657.275 66.96V78H650.811V68.816C650.811 67.088 649.851 66 648.315 66C646.555 66.032 645.467 67.408 645.467 69.392V78H639.003V54.256H645.467V63.28C646.683 61.36 648.571 60.336 651.003 60.336ZM663.95 52.304C665.902 52.304 667.278 53.68 667.278 55.632C667.278 57.584 665.902 58.96 663.95 58.96C661.998 58.96 660.622 57.584 660.622 55.632C660.622 53.68 661.998 52.304 663.95 52.304ZM667.15 78H660.686V60.592H667.15V78ZM683.061 60.336C686.773 60.336 689.333 62.928 689.333 66.96V78H682.869V68.816C682.869 67.088 681.877 66 680.373 66C678.613 66.032 677.525 67.408 677.525 69.392V78H671.061V60.592H677.525V63.28C678.741 61.36 680.629 60.336 683.061 60.336ZM709.773 60.592V76.496C709.773 81.392 705.901 84.496 700.205 84.496C696.973 84.496 694.061 83.472 692.173 82.224L694.317 77.872C695.853 78.896 697.869 79.472 699.661 79.472C701.997 79.472 703.373 78.384 703.373 76.688V74.928C702.253 76.272 700.685 77.008 698.701 77.008C694.477 77.008 691.405 73.68 691.405 68.592C691.405 63.632 694.381 60.368 698.573 60.368C700.621 60.368 702.253 61.136 703.373 62.48V60.592H709.773ZM700.397 72.368C702.189 72.368 703.373 70.928 703.373 68.784C703.373 66.576 702.189 65.136 700.397 65.136C698.637 65.136 697.453 66.608 697.453 68.784C697.453 70.928 698.637 72.368 700.397 72.368ZM723.857 52.304C725.809 52.304 727.185 53.68 727.185 55.632C727.185 57.584 725.809 58.96 723.857 58.96C721.905 58.96 720.529 57.584 720.529 55.632C720.529 53.68 721.905 52.304 723.857 52.304ZM727.057 78H720.593V60.592H727.057V78ZM737.72 60.304C740.344 60.304 743 61.04 745.368 62.416L743.224 66.48C740.856 65.264 738.904 64.656 737.528 64.656C736.728 64.656 736.216 64.944 736.216 65.488C736.216 67.44 745.304 66.576 745.304 72.528C745.304 76.112 742.2 78.288 737.656 78.288C734.584 78.288 731.736 77.456 729.464 75.824L731.448 71.76C733.624 73.168 735.832 73.904 737.752 73.904C738.616 73.904 739.192 73.648 739.192 73.104C739.192 71.12 730.296 72.08 730.296 66.128C730.296 62.48 733.336 60.304 737.72 60.304ZM772.565 60.592V78H766.101V75.408C764.917 77.264 763.093 78.288 760.757 78.288C757.109 78.288 754.613 75.696 754.613 71.632V60.592H761.077V69.808C761.077 71.504 762.005 72.592 763.413 72.592C765.077 72.56 766.101 71.184 766.101 69.2V60.592H772.565ZM783.22 60.304C785.844 60.304 788.5 61.04 790.868 62.416L788.724 66.48C786.356 65.264 784.404 64.656 783.028 64.656C782.228 64.656 781.716 64.944 781.716 65.488C781.716 67.44 790.804 66.576 790.804 72.528C790.804 76.112 787.7 78.288 783.156 78.288C780.084 78.288 777.236 77.456 774.964 75.824L776.948 71.76C779.124 73.168 781.332 73.904 783.252 73.904C784.116 73.904 784.692 73.648 784.692 73.104C784.692 71.12 775.796 72.08 775.796 66.128C775.796 62.48 778.836 60.304 783.22 60.304ZM801.433 60.368C807.545 60.368 810.873 64.464 810.489 70.864H798.777C799.289 72.528 800.505 73.456 802.169 73.456C803.545 73.456 804.857 72.848 806.009 71.792L809.369 75.088C807.545 77.104 804.921 78.224 801.625 78.224C795.801 78.224 792.249 74.704 792.249 69.36C792.249 63.92 795.929 60.368 801.433 60.368ZM798.649 67.696H804.121C804.153 65.968 803.065 64.752 801.497 64.752C799.993 64.752 798.969 65.936 798.649 67.696ZM831.045 54.256V78H824.581V76.016C823.429 77.424 821.797 78.224 819.813 78.224C814.949 78.224 811.749 74.672 811.749 69.2C811.749 63.856 814.885 60.368 819.653 60.368C821.701 60.368 823.397 61.168 824.581 62.608V54.256H831.045ZM821.445 73.264C823.333 73.264 824.581 71.696 824.581 69.36C824.581 67.056 823.333 65.488 821.445 65.488C819.525 65.488 818.277 67.056 818.277 69.36C818.277 71.696 819.525 73.264 821.445 73.264ZM851.532 58.992C850.444 58.992 849.708 59.6 849.708 60.656V61.488H853.324V65.616H849.708V78H843.308V65.616H840.94V61.488H843.308V59.888C843.308 56.176 846.156 53.936 850.252 53.968C852.108 53.968 854.188 54.416 855.596 55.216L853.388 59.664C852.812 59.248 852.076 58.992 851.532 58.992ZM863.257 60.368C869.113 60.368 872.921 63.888 872.921 69.296C872.921 74.672 869.113 78.224 863.257 78.224C857.401 78.224 853.561 74.672 853.561 69.296C853.561 63.888 857.401 60.368 863.257 60.368ZM863.257 65.488C861.337 65.488 860.089 67.056 860.089 69.36C860.089 71.696 861.337 73.232 863.257 73.232C865.145 73.232 866.393 71.696 866.393 69.36C866.393 67.056 865.145 65.488 863.257 65.488ZM881.932 60.592V63.344C883.148 61.424 885.036 60.336 887.404 60.336V66.16C884.076 65.744 881.932 67.152 881.932 69.68V78H875.468V60.592H881.932ZM907.438 72.72L908.59 77.168C907.374 77.872 905.518 78.288 903.758 78.288C900.046 78.32 897.55 76.176 897.55 72.56V65.616H895.15V61.488H897.55V56.656H903.982V61.488H908.27V65.616H903.982V71.568C903.982 72.688 904.558 73.232 905.454 73.232C905.966 73.232 906.67 73.008 907.438 72.72ZM923.221 60.336C926.965 60.336 929.493 62.928 929.493 66.96V78H923.029V68.816C923.029 67.088 922.069 66 920.533 66C918.773 66.032 917.685 67.408 917.685 69.392V78H911.221V54.256H917.685V63.28C918.901 61.36 920.789 60.336 923.221 60.336ZM940.745 60.368C946.857 60.368 950.185 64.464 949.801 70.864H938.089C938.601 72.528 939.817 73.456 941.481 73.456C942.857 73.456 944.169 72.848 945.321 71.792L948.681 75.088C946.857 77.104 944.233 78.224 940.937 78.224C935.113 78.224 931.561 74.704 931.561 69.36C931.561 63.92 935.241 60.368 940.745 60.368ZM937.961 67.696H943.433C943.465 65.968 942.377 64.752 940.809 64.752C939.305 64.752 938.281 65.936 937.961 67.696ZM970.797 60.368C975.661 60.368 978.861 63.952 978.861 69.392C978.861 74.736 975.757 78.224 970.957 78.224C968.909 78.224 967.213 77.424 966.029 75.984V84.208H959.565V60.592H966.029V62.608C967.181 61.168 968.845 60.368 970.797 60.368ZM969.165 73.104C971.085 73.104 972.333 71.536 972.333 69.232C972.333 66.928 971.085 65.36 969.165 65.36C967.309 65.36 966.029 66.928 966.029 69.232C966.029 71.536 967.309 73.104 969.165 73.104ZM987.9 60.592V63.344C989.116 61.424 991.004 60.336 993.372 60.336V66.16C990.044 65.744 987.9 67.152 987.9 69.68V78H981.436V60.592H987.9ZM1004.01 60.368C1009.86 60.368 1013.67 63.888 1013.67 69.296C1013.67 74.672 1009.86 78.224 1004.01 78.224C998.151 78.224 994.311 74.672 994.311 69.296C994.311 63.888 998.151 60.368 1004.01 60.368ZM1004.01 65.488C1002.09 65.488 1000.84 67.056 1000.84 69.36C1000.84 71.696 1002.09 73.232 1004.01 73.232C1005.9 73.232 1007.14 71.696 1007.14 69.36C1007.14 67.056 1005.9 65.488 1004.01 65.488ZM1034.17 54.256V78H1027.71V76.016C1026.55 77.424 1024.92 78.224 1022.94 78.224C1018.07 78.224 1014.87 74.672 1014.87 69.2C1014.87 63.856 1018.01 60.368 1022.78 60.368C1024.83 60.368 1026.52 61.168 1027.71 62.608V54.256H1034.17ZM1024.57 73.264C1026.46 73.264 1027.71 71.696 1027.71 69.36C1027.71 67.056 1026.46 65.488 1024.57 65.488C1022.65 65.488 1021.4 67.056 1021.4 69.36C1021.4 71.696 1022.65 73.264 1024.57 73.264ZM1055.72 60.592V78H1049.26V75.408C1048.07 77.264 1046.25 78.288 1043.91 78.288C1040.26 78.288 1037.77 75.696 1037.77 71.632V60.592H1044.23V69.808C1044.23 71.504 1045.16 72.592 1046.57 72.592C1048.23 72.56 1049.26 71.184 1049.26 69.2V60.592H1055.72ZM1067.4 60.368C1071.05 60.368 1073.96 62.032 1075.43 64.912L1070.47 67.344C1069.86 66.256 1068.9 65.616 1067.69 65.616C1065.96 65.616 1064.81 67.12 1064.81 69.328C1064.81 71.6 1065.96 73.104 1067.69 73.104C1068.94 73.104 1069.9 72.496 1070.44 71.184L1075.46 73.712C1074.12 76.592 1071.18 78.224 1067.34 78.224C1061.86 78.224 1058.28 74.704 1058.28 69.36C1058.28 63.952 1061.9 60.368 1067.4 60.368ZM1088.34 72.72L1089.5 77.168C1088.28 77.872 1086.42 78.288 1084.66 78.288C1080.95 78.32 1078.46 76.176 1078.46 72.56V65.616H1076.06V61.488H1078.46V56.656H1084.89V61.488H1089.18V65.616H1084.89V71.568C1084.89 72.688 1085.46 73.232 1086.36 73.232C1086.87 73.232 1087.58 73.008 1088.34 72.72ZM1095.23 52.304C1097.18 52.304 1098.56 53.68 1098.56 55.632C1098.56 57.584 1097.18 58.96 1095.23 58.96C1093.28 58.96 1091.9 57.584 1091.9 55.632C1091.9 53.68 1093.28 52.304 1095.23 52.304ZM1098.43 78H1091.97V60.592H1098.43V78ZM1110.69 60.368C1116.55 60.368 1120.36 63.888 1120.36 69.296C1120.36 74.672 1116.55 78.224 1110.69 78.224C1104.84 78.224 1101 74.672 1101 69.296C1101 63.888 1104.84 60.368 1110.69 60.368ZM1110.69 65.488C1108.77 65.488 1107.53 67.056 1107.53 69.36C1107.53 71.696 1108.77 73.232 1110.69 73.232C1112.58 73.232 1113.83 71.696 1113.83 69.36C1113.83 67.056 1112.58 65.488 1110.69 65.488ZM1134.91 60.336C1138.62 60.336 1141.18 62.928 1141.18 66.96V78H1134.71V68.816C1134.71 67.088 1133.72 66 1132.22 66C1130.46 66.032 1129.37 67.408 1129.37 69.392V78H1122.91V60.592H1129.37V63.28C1130.59 61.36 1132.47 60.336 1134.91 60.336ZM1159.94 60.368C1165.8 60.368 1169.61 63.888 1169.61 69.296C1169.61 74.672 1165.8 78.224 1159.94 78.224C1154.09 78.224 1150.25 74.672 1150.25 69.296C1150.25 63.888 1154.09 60.368 1159.94 60.368ZM1159.94 65.488C1158.02 65.488 1156.78 67.056 1156.78 69.36C1156.78 71.696 1158.02 73.232 1159.94 73.232C1161.83 73.232 1163.08 71.696 1163.08 69.36C1163.08 67.056 1161.83 65.488 1159.94 65.488ZM1181.28 58.992C1180.19 58.992 1179.46 59.6 1179.46 60.656V61.488H1183.07V65.616H1179.46V78H1173.06V65.616H1170.69V61.488H1173.06V59.888C1173.06 56.176 1175.91 53.936 1180 53.968C1181.86 53.968 1183.94 54.416 1185.35 55.216L1183.14 59.664C1182.56 59.248 1181.83 58.992 1181.28 58.992ZM1208.32 58.96C1206.37 58.96 1204.99 57.584 1204.99 55.632C1204.99 53.68 1206.37 52.304 1208.32 52.304C1210.27 52.304 1211.65 53.68 1211.65 55.632C1211.65 57.584 1210.27 58.96 1208.32 58.96ZM1193.15 61.232V59.888C1193.15 56.144 1196.03 53.936 1200.1 53.968C1201.34 53.968 1202.69 54.192 1203.58 54.544L1203.36 59.664C1202.72 59.248 1201.95 59.024 1201.38 59.024C1200.29 58.992 1199.55 59.568 1199.55 60.656V61.232H1203.17V65.392H1199.55V78H1193.15V65.392H1190.78V61.232H1193.15ZM1205.06 60.592H1211.52V78H1205.06V60.592ZM1222.19 60.304C1224.81 60.304 1227.47 61.04 1229.84 62.416L1227.69 66.48C1225.32 65.264 1223.37 64.656 1222 64.656C1221.2 64.656 1220.68 64.944 1220.68 65.488C1220.68 67.44 1229.77 66.576 1229.77 72.528C1229.77 76.112 1226.67 78.288 1222.12 78.288C1219.05 78.288 1216.2 77.456 1213.93 75.824L1215.92 71.76C1218.09 73.168 1220.3 73.904 1222.22 73.904C1223.08 73.904 1223.66 73.648 1223.66 73.104C1223.66 71.12 1214.76 72.08 1214.76 66.128C1214.76 62.48 1217.8 60.304 1222.19 60.304ZM1244.72 60.336C1248.47 60.336 1250.99 62.928 1250.99 66.96V78H1244.53V68.816C1244.53 67.088 1243.57 66 1242.03 66C1240.27 66.032 1239.19 67.408 1239.19 69.392V78H1232.72V54.256H1239.19V63.28C1240.4 61.36 1242.29 60.336 1244.72 60.336ZM1284.89 60.336C1288.57 60.336 1291.07 62.928 1291.07 66.96V78H1284.61V68.816C1284.61 67.088 1283.65 66 1282.21 66C1280.54 66.032 1279.49 67.408 1279.49 69.392V78H1273.02V68.816C1273.02 67.088 1272.06 66 1270.62 66C1268.93 66.032 1267.87 67.408 1267.87 69.392V78H1261.41V60.592H1267.87V63.248C1269.05 61.36 1270.91 60.336 1273.28 60.336C1276 60.336 1278.08 61.744 1279.01 64.112C1280.13 61.68 1282.17 60.336 1284.89 60.336ZM1302.34 60.368C1308.45 60.368 1311.78 64.464 1311.39 70.864H1299.68C1300.19 72.528 1301.41 73.456 1303.07 73.456C1304.45 73.456 1305.76 72.848 1306.91 71.792L1310.27 75.088C1308.45 77.104 1305.83 78.224 1302.53 78.224C1296.71 78.224 1293.15 74.704 1293.15 69.36C1293.15 63.92 1296.83 60.368 1302.34 60.368ZM1299.55 67.696H1305.03C1305.06 65.968 1303.97 64.752 1302.4 64.752C1300.9 64.752 1299.87 65.936 1299.55 67.696ZM1322.19 60.336C1327.09 60.336 1330 62.672 1330 66.704V78H1323.66V76.08C1322.61 77.488 1320.88 78.288 1318.57 78.288C1314.86 78.288 1312.69 76.08 1312.69 72.816C1312.69 69.456 1315.02 67.6 1319.41 67.536H1323.66V67.472C1323.66 66.032 1322.64 65.168 1320.65 65.168C1319.28 65.168 1317.33 65.584 1315.41 66.416L1313.81 62.128C1316.65 60.976 1319.47 60.336 1322.19 60.336ZM1320.72 74.064C1322.03 74.064 1323.18 73.36 1323.66 72.272V70.704H1320.72C1319.44 70.704 1318.77 71.248 1318.77 72.336C1318.77 73.424 1319.47 74.064 1320.72 74.064ZM1340.06 78H1333.6V54.256H1340.06V78ZM579.253 105.336C584.149 105.336 587.061 107.672 587.061 111.704V123H580.725V121.08C579.669 122.488 577.941 123.288 575.637 123.288C571.925 123.288 569.749 121.08 569.749 117.816C569.749 114.456 572.085 112.6 576.469 112.536H580.725V112.472C580.725 111.032 579.701 110.168 577.717 110.168C576.341 110.168 574.389 110.584 572.469 111.416L570.869 107.128C573.717 105.976 576.533 105.336 579.253 105.336ZM577.781 119.064C579.093 119.064 580.245 118.36 580.725 117.272V115.704H577.781C576.501 115.704 575.829 116.248 575.829 117.336C575.829 118.424 576.533 119.064 577.781 119.064ZM602.499 105.336C606.211 105.336 608.771 107.928 608.771 111.96V123H602.307V113.816C602.307 112.088 601.315 111 599.811 111C598.051 111.032 596.963 112.408 596.963 114.392V123H590.499V105.592H596.963V108.28C598.179 106.36 600.067 105.336 602.499 105.336ZM630.138 99.256V123H623.674V121.016C622.522 122.424 620.89 123.224 618.906 123.224C614.042 123.224 610.842 119.672 610.842 114.2C610.842 108.856 613.978 105.368 618.746 105.368C620.794 105.368 622.49 106.168 623.674 107.608V99.256H630.138ZM620.538 118.264C622.426 118.264 623.674 116.696 623.674 114.36C623.674 112.056 622.426 110.488 620.538 110.488C618.618 110.488 617.37 112.056 617.37 114.36C617.37 116.696 618.618 118.264 620.538 118.264ZM649.57 105.368C655.426 105.368 659.234 108.888 659.234 114.296C659.234 119.672 655.426 123.224 649.57 123.224C643.714 123.224 639.874 119.672 639.874 114.296C639.874 108.888 643.714 105.368 649.57 105.368ZM649.57 110.488C647.65 110.488 646.402 112.056 646.402 114.36C646.402 116.696 647.65 118.232 649.57 118.232C651.458 118.232 652.706 116.696 652.706 114.36C652.706 112.056 651.458 110.488 649.57 110.488ZM665.044 97.304C666.996 97.304 668.372 98.68 668.372 100.632C668.372 102.584 666.996 103.96 665.044 103.96C663.092 103.96 661.716 102.584 661.716 100.632C661.716 98.68 663.092 97.304 665.044 97.304ZM668.244 123H661.78V105.592H668.244V123ZM678.779 123H672.315V99.256H678.779V123ZM700.626 117.72L701.778 122.168C700.562 122.872 698.706 123.288 696.946 123.288C693.234 123.32 690.738 121.176 690.738 117.56V110.616H688.338V106.488H690.738V101.656H697.17V106.488H701.458V110.616H697.17V116.568C697.17 117.688 697.746 118.232 698.642 118.232C699.154 118.232 699.858 118.008 700.626 117.72ZM712.57 105.368C718.426 105.368 722.234 108.888 722.234 114.296C722.234 119.672 718.426 123.224 712.57 123.224C706.714 123.224 702.874 119.672 702.874 114.296C702.874 108.888 706.714 105.368 712.57 105.368ZM712.57 110.488C710.65 110.488 709.402 112.056 709.402 114.36C709.402 116.696 710.65 118.232 712.57 118.232C714.458 118.232 715.706 116.696 715.706 114.36C715.706 112.056 714.458 110.488 712.57 110.488ZM741.188 103.992C740.1 103.992 739.364 104.6 739.364 105.656V106.488H742.98V110.616H739.364V123H732.964V110.616H730.596V106.488H732.964V104.888C732.964 101.176 735.812 98.936 739.908 98.968C741.764 98.968 743.844 99.416 745.252 100.216L743.044 104.664C742.468 104.248 741.732 103.992 741.188 103.992ZM752.401 105.368C758.513 105.368 761.841 109.464 761.457 115.864H749.745C750.257 117.528 751.473 118.456 753.137 118.456C754.513 118.456 755.825 117.848 756.977 116.792L760.337 120.088C758.513 122.104 755.889 123.224 752.593 123.224C746.769 123.224 743.217 119.704 743.217 114.36C743.217 108.92 746.897 105.368 752.401 105.368ZM749.617 112.696H755.089C755.121 110.968 754.033 109.752 752.465 109.752C750.961 109.752 749.937 110.936 749.617 112.696ZM771.901 105.368C778.013 105.368 781.341 109.464 780.957 115.864H769.245C769.757 117.528 770.973 118.456 772.637 118.456C774.013 118.456 775.325 117.848 776.477 116.792L779.837 120.088C778.013 122.104 775.389 123.224 772.093 123.224C766.269 123.224 762.717 119.704 762.717 114.36C762.717 108.92 766.397 105.368 771.901 105.368ZM769.117 112.696H774.589C774.621 110.968 773.533 109.752 771.965 109.752C770.461 109.752 769.437 110.936 769.117 112.696ZM801.513 99.256V123H795.049V121.016C793.897 122.424 792.265 123.224 790.281 123.224C785.417 123.224 782.217 119.672 782.217 114.2C782.217 108.856 785.353 105.368 790.121 105.368C792.169 105.368 793.865 106.168 795.049 107.608V99.256H801.513ZM791.913 118.264C793.801 118.264 795.049 116.696 795.049 114.36C795.049 112.056 793.801 110.488 791.913 110.488C789.993 110.488 788.745 112.056 788.745 114.36C788.745 116.696 789.993 118.264 791.913 118.264ZM822.001 103.992C820.913 103.992 820.177 104.6 820.177 105.656V106.488H823.793V110.616H820.177V123H813.777V110.616H811.409V106.488H813.777V104.888C813.777 101.176 816.625 98.936 820.721 98.968C822.577 98.968 824.657 99.416 826.065 100.216L823.857 104.664C823.281 104.248 822.545 103.992 822.001 103.992ZM833.16 105.336C838.056 105.336 840.968 107.672 840.968 111.704V123H834.632V121.08C833.576 122.488 831.848 123.288 829.544 123.288C825.832 123.288 823.656 121.08 823.656 117.816C823.656 114.456 825.992 112.6 830.376 112.536H834.632V112.472C834.632 111.032 833.608 110.168 831.624 110.168C830.248 110.168 828.296 110.584 826.376 111.416L824.776 107.128C827.624 105.976 830.44 105.336 833.16 105.336ZM831.688 119.064C833 119.064 834.152 118.36 834.632 117.272V115.704H831.688C830.408 115.704 829.736 116.248 829.736 117.336C829.736 118.424 830.44 119.064 831.688 119.064ZM850.869 105.592V108.344C852.085 106.424 853.973 105.336 856.341 105.336V111.16C853.013 110.744 850.869 112.152 850.869 114.68V123H844.405V105.592H850.869ZM882.112 105.336C885.792 105.336 888.288 107.928 888.288 111.96V123H881.824V113.816C881.824 112.088 880.864 111 879.424 111C877.76 111.032 876.704 112.408 876.704 114.392V123H870.24V113.816C870.24 112.088 869.28 111 867.84 111C866.144 111.032 865.088 112.408 865.088 114.392V123H858.624V105.592H865.088V108.248C866.272 106.36 868.128 105.336 870.496 105.336C873.216 105.336 875.296 106.744 876.224 109.112C877.344 106.68 879.392 105.336 882.112 105.336ZM899.558 105.368C905.67 105.368 908.998 109.464 908.614 115.864H896.902C897.414 117.528 898.63 118.456 900.294 118.456C901.67 118.456 902.982 117.848 904.134 116.792L907.494 120.088C905.67 122.104 903.046 123.224 899.75 123.224C893.926 123.224 890.374 119.704 890.374 114.36C890.374 108.92 894.054 105.368 899.558 105.368ZM896.774 112.696H902.246C902.278 110.968 901.19 109.752 899.622 109.752C898.118 109.752 897.094 110.936 896.774 112.696ZM929.17 99.256V123H922.706V121.016C921.554 122.424 919.922 123.224 917.938 123.224C913.074 123.224 909.874 119.672 909.874 114.2C909.874 108.856 913.01 105.368 917.778 105.368C919.826 105.368 921.522 106.168 922.706 107.608V99.256H929.17ZM919.57 118.264C921.458 118.264 922.706 116.696 922.706 114.36C922.706 112.056 921.458 110.488 919.57 110.488C917.65 110.488 916.402 112.056 916.402 114.36C916.402 116.696 917.65 118.264 919.57 118.264ZM956.601 103.96C954.649 103.96 953.273 102.584 953.273 100.632C953.273 98.68 954.649 97.304 956.601 97.304C958.553 97.304 959.929 98.68 959.929 100.632C959.929 102.584 958.553 103.96 956.601 103.96ZM941.433 106.232V104.888C941.433 101.144 944.313 98.936 948.377 98.968C949.625 98.968 950.969 99.192 951.865 99.544L951.641 104.664C951.001 104.248 950.233 104.024 949.657 104.024C948.569 103.992 947.833 104.568 947.833 105.656V106.232H951.449V110.392H947.833V123H941.433V110.392H939.065V106.232H941.433ZM953.337 105.592H959.801V123H953.337V105.592ZM970.47 105.304C973.094 105.304 975.75 106.04 978.118 107.416L975.974 111.48C973.606 110.264 971.654 109.656 970.278 109.656C969.478 109.656 968.966 109.944 968.966 110.488C968.966 112.44 978.054 111.576 978.054 117.528C978.054 121.112 974.95 123.288 970.406 123.288C967.334 123.288 964.486 122.456 962.214 120.824L964.198 116.76C966.374 118.168 968.582 118.904 970.502 118.904C971.366 118.904 971.942 118.648 971.942 118.104C971.942 116.12 963.046 117.08 963.046 111.128C963.046 107.48 966.086 105.304 970.47 105.304ZM993.003 105.336C996.747 105.336 999.275 107.928 999.275 111.96V123H992.811V113.816C992.811 112.088 991.851 111 990.315 111C988.555 111.032 987.467 112.408 987.467 114.392V123H981.003V99.256H987.467V108.28C988.683 106.36 990.571 105.336 993.003 105.336ZM1004.8 117.24C1006.59 117.24 1007.84 118.456 1007.84 120.216C1007.84 122.008 1006.59 123.256 1004.8 123.256C1003.04 123.256 1001.79 122.008 1001.79 120.216C1001.79 118.456 1003.04 117.24 1004.8 117.24Z" fill="black"/>
<rect width="285" height="63" transform="translate(174 725)" fill="#FF3636"/>
<path d="M220.461 752.098H213.069V755.178H219.933V758.698H213.069V764H208.493V748.578H220.461V752.098ZM224.402 746.334C225.744 746.334 226.69 747.28 226.69 748.622C226.69 749.964 225.744 750.91 224.402 750.91C223.06 750.91 222.114 749.964 222.114 748.622C222.114 747.28 223.06 746.334 224.402 746.334ZM226.602 764H222.158V752.032H226.602V764ZM233.933 751.834C235.737 751.834 237.563 752.34 239.191 753.286L237.717 756.08C236.089 755.244 234.747 754.826 233.801 754.826C233.251 754.826 232.899 755.024 232.899 755.398C232.899 756.74 239.147 756.146 239.147 760.238C239.147 762.702 237.013 764.198 233.889 764.198C231.777 764.198 229.819 763.626 228.257 762.504L229.621 759.71C231.117 760.678 232.635 761.184 233.955 761.184C234.549 761.184 234.945 761.008 234.945 760.634C234.945 759.27 228.829 759.93 228.829 755.838C228.829 753.33 230.919 751.834 233.933 751.834ZM249.425 751.856C251.999 751.856 253.737 753.638 253.737 756.41V764H249.293V757.686C249.293 756.498 248.633 755.75 247.577 755.75C246.367 755.772 245.619 756.718 245.619 758.082V764H241.175V747.676H245.619V753.88C246.455 752.56 247.753 751.856 249.425 751.856ZM261.709 752.472V751.482C261.709 749.04 263.601 747.434 266.505 747.456C267.341 747.456 268.265 747.61 268.881 747.83L268.749 751.35C268.353 751.064 267.847 750.91 267.451 750.91C266.637 750.888 266.109 751.372 266.109 752.164V752.472H268.617L268.595 755.31H266.109V764H261.709V755.31H260.081V752.472H261.709ZM274.513 747.676V764H270.069V747.676H274.513ZM283.051 751.878C287.077 751.878 289.695 754.298 289.695 758.016C289.695 761.712 287.077 764.154 283.051 764.154C279.025 764.154 276.385 761.712 276.385 758.016C276.385 754.298 279.025 751.878 283.051 751.878ZM283.051 755.398C281.731 755.398 280.873 756.476 280.873 758.06C280.873 759.666 281.731 760.722 283.051 760.722C284.349 760.722 285.207 759.666 285.207 758.06C285.207 756.476 284.349 755.398 283.051 755.398ZM303.458 752.032V764H299.014V762.218C298.2 763.494 296.946 764.198 295.34 764.198C292.832 764.198 291.116 762.416 291.116 759.622V752.032H295.56V758.368C295.56 759.534 296.198 760.282 297.166 760.282C298.31 760.26 299.014 759.314 299.014 757.95V752.032H303.458ZM310.585 752.032V753.924C311.421 752.604 312.719 751.856 314.347 751.856V755.86C312.059 755.574 310.585 756.542 310.585 758.28V764H306.141V752.032H310.585ZM320.558 751.834C322.362 751.834 324.188 752.34 325.816 753.286L324.342 756.08C322.714 755.244 321.372 754.826 320.426 754.826C319.876 754.826 319.524 755.024 319.524 755.398C319.524 756.74 325.772 756.146 325.772 760.238C325.772 762.702 323.638 764.198 320.514 764.198C318.402 764.198 316.444 763.626 314.882 762.504L316.246 759.71C317.742 760.678 319.26 761.184 320.58 761.184C321.174 761.184 321.57 761.008 321.57 760.634C321.57 759.27 315.454 759.93 315.454 755.838C315.454 753.33 317.544 751.834 320.558 751.834ZM338.134 751.856C341.5 751.856 343.502 753.462 343.502 756.234V764H339.146V762.68C338.42 763.648 337.232 764.198 335.648 764.198C333.096 764.198 331.6 762.68 331.6 760.436C331.6 758.126 333.206 756.85 336.22 756.806H339.146V756.762C339.146 755.772 338.442 755.178 337.078 755.178C336.132 755.178 334.79 755.464 333.47 756.036L332.37 753.088C334.328 752.296 336.264 751.856 338.134 751.856ZM337.122 761.294C338.024 761.294 338.816 760.81 339.146 760.062V758.984H337.122C336.242 758.984 335.78 759.358 335.78 760.106C335.78 760.854 336.264 761.294 337.122 761.294ZM354.115 751.856C356.667 751.856 358.427 753.638 358.427 756.41V764H353.983V757.686C353.983 756.498 353.301 755.75 352.267 755.75C351.057 755.772 350.309 756.718 350.309 758.082V764H345.865V752.032H350.309V753.88C351.145 752.56 352.443 751.856 354.115 751.856ZM373.118 747.676V764H368.674V762.636C367.882 763.604 366.76 764.154 365.396 764.154C362.052 764.154 359.852 761.712 359.852 757.95C359.852 754.276 362.008 751.878 365.286 751.878C366.694 751.878 367.86 752.428 368.674 753.418V747.676H373.118ZM366.518 760.744C367.816 760.744 368.674 759.666 368.674 758.06C368.674 756.476 367.816 755.398 366.518 755.398C365.198 755.398 364.34 756.476 364.34 758.06C364.34 759.666 365.198 760.744 366.518 760.744ZM386.477 751.878C390.503 751.878 393.121 754.298 393.121 758.016C393.121 761.712 390.503 764.154 386.477 764.154C382.451 764.154 379.811 761.712 379.811 758.016C379.811 754.298 382.451 751.878 386.477 751.878ZM386.477 755.398C385.157 755.398 384.299 756.476 384.299 758.06C384.299 759.666 385.157 760.722 386.477 760.722C387.775 760.722 388.633 759.666 388.633 758.06C388.633 756.476 387.775 755.398 386.477 755.398ZM397.115 746.334C398.457 746.334 399.403 747.28 399.403 748.622C399.403 749.964 398.457 750.91 397.115 750.91C395.773 750.91 394.827 749.964 394.827 748.622C394.827 747.28 395.773 746.334 397.115 746.334ZM399.315 764H394.871V752.032H399.315V764ZM406.558 764H402.114V747.676H406.558V764ZM414.015 751.834C415.819 751.834 417.645 752.34 419.273 753.286L417.799 756.08C416.171 755.244 414.829 754.826 413.883 754.826C413.333 754.826 412.981 755.024 412.981 755.398C412.981 756.74 419.229 756.146 419.229 760.238C419.229 762.702 417.095 764.198 413.971 764.198C411.859 764.198 409.901 763.626 408.339 762.504L409.703 759.71C411.199 760.678 412.717 761.184 414.037 761.184C414.631 761.184 415.027 761.008 415.027 760.634C415.027 759.27 408.911 759.93 408.911 755.838C408.911 753.33 411.001 751.834 414.015 751.834Z" fill="black"/>
<rect width="285" height="59" transform="translate(174 855)" fill="#FF3636"/>
<path d="M254.079 891.536H247.853L246.929 894H242.221L248.799 878.578H253.507L259.865 894H254.981L254.079 891.536ZM252.869 888.192L251.021 883.154L249.129 888.192H252.869ZM272.904 882.032V898.268H268.46V892.636C267.668 893.604 266.546 894.154 265.182 894.154C261.838 894.154 259.638 891.712 259.638 887.95C259.638 884.276 261.794 881.878 265.072 881.878C266.48 881.878 267.646 882.428 268.46 883.418V882.032H272.904ZM266.304 890.744C267.602 890.744 268.46 889.666 268.46 888.06C268.46 886.476 267.602 885.398 266.304 885.398C264.984 885.398 264.126 886.476 264.126 888.06C264.126 889.666 264.984 890.744 266.304 890.744ZM287.72 882.032V894H283.276V892.218C282.462 893.494 281.208 894.198 279.602 894.198C277.094 894.198 275.378 892.416 275.378 889.622V882.032H279.822V888.368C279.822 889.534 280.46 890.282 281.428 890.282C282.572 890.26 283.276 889.314 283.276 887.95V882.032H287.72ZM296.036 881.856C299.402 881.856 301.404 883.462 301.404 886.234V894H297.048V892.68C296.322 893.648 295.134 894.198 293.55 894.198C290.998 894.198 289.502 892.68 289.502 890.436C289.502 888.126 291.108 886.85 294.122 886.806H297.048V886.762C297.048 885.772 296.344 885.178 294.98 885.178C294.034 885.178 292.692 885.464 291.372 886.036L290.272 883.088C292.23 882.296 294.166 881.856 296.036 881.856ZM295.024 891.294C295.926 891.294 296.718 890.81 297.048 890.062V888.984H295.024C294.144 888.984 293.682 889.358 293.682 890.106C293.682 890.854 294.166 891.294 295.024 891.294ZM309.113 881.878C311.621 881.878 313.623 883.022 314.635 885.002L311.225 886.674C310.807 885.926 310.147 885.486 309.311 885.486C308.123 885.486 307.331 886.52 307.331 888.038C307.331 889.6 308.123 890.634 309.311 890.634C310.169 890.634 310.829 890.216 311.203 889.314L314.657 891.052C313.733 893.032 311.709 894.154 309.069 894.154C305.307 894.154 302.843 891.734 302.843 888.06C302.843 884.342 305.329 881.878 309.113 881.878ZM328.132 882.032V894H323.688V892.218C322.874 893.494 321.62 894.198 320.014 894.198C317.506 894.198 315.79 892.416 315.79 889.622V882.032H320.234V888.368C320.234 889.534 320.872 890.282 321.84 890.282C322.984 890.26 323.688 889.314 323.688 887.95V882.032H328.132ZM335.37 894H330.926V877.676H335.37V894ZM345.577 890.37L346.369 893.428C345.533 893.912 344.257 894.198 343.047 894.198C340.495 894.22 338.779 892.746 338.779 890.26V885.486H337.129V882.648H338.779V879.326H343.201V882.648H346.149V885.486H343.201V889.578C343.201 890.348 343.597 890.722 344.213 890.722C344.565 890.722 345.049 890.568 345.577 890.37ZM360.08 882.032V894H355.636V892.218C354.822 893.494 353.568 894.198 351.962 894.198C349.454 894.198 347.738 892.416 347.738 889.622V882.032H352.182V888.368C352.182 889.534 352.82 890.282 353.788 890.282C354.932 890.26 355.636 889.314 355.636 887.95V882.032H360.08ZM367.207 882.032V883.924C368.043 882.604 369.341 881.856 370.969 881.856V885.86C368.681 885.574 367.207 886.542 367.207 888.28V894H362.763V882.032H367.207ZM377.928 881.878C382.13 881.878 384.418 884.694 384.154 889.094H376.102C376.454 890.238 377.29 890.876 378.434 890.876C379.38 890.876 380.282 890.458 381.074 889.732L383.384 891.998C382.13 893.384 380.326 894.154 378.06 894.154C374.056 894.154 371.614 891.734 371.614 888.06C371.614 884.32 374.144 881.878 377.928 881.878ZM376.014 886.916H379.776C379.798 885.728 379.05 884.892 377.972 884.892C376.938 884.892 376.234 885.706 376.014 886.916Z" fill="black"/>
<rect width="306" height="88" transform="translate(652 725)" fill="#EBF97B"/>
<path d="M686.363 746.098H678.971V749.178H685.835V752.698H678.971V758H674.395V742.578H686.363V746.098ZM692.614 758H688.17V741.676H692.614V758ZM701.171 745.878C705.197 745.878 707.815 748.298 707.815 752.016C707.815 755.712 705.197 758.154 701.171 758.154C697.145 758.154 694.505 755.712 694.505 752.016C694.505 748.298 697.145 745.878 701.171 745.878ZM701.171 749.398C699.851 749.398 698.993 750.476 698.993 752.06C698.993 753.666 699.851 754.722 701.171 754.722C702.469 754.722 703.327 753.666 703.327 752.06C703.327 750.476 702.469 749.398 701.171 749.398ZM721.578 746.032V758H717.134V756.218C716.32 757.494 715.066 758.198 713.46 758.198C710.952 758.198 709.236 756.416 709.236 753.622V746.032H713.68V752.368C713.68 753.534 714.318 754.282 715.286 754.282C716.43 754.26 717.134 753.314 717.134 751.95V746.032H721.578ZM728.705 746.032V747.924C729.541 746.604 730.839 745.856 732.467 745.856V749.86C730.179 749.574 728.705 750.542 728.705 752.28V758H724.261V746.032H728.705ZM738.678 745.834C740.482 745.834 742.308 746.34 743.936 747.286L742.462 750.08C740.834 749.244 739.492 748.826 738.546 748.826C737.996 748.826 737.644 749.024 737.644 749.398C737.644 750.74 743.892 750.146 743.892 754.238C743.892 756.702 741.758 758.198 738.634 758.198C736.522 758.198 734.564 757.626 733.002 756.504L734.366 753.71C735.862 754.678 737.38 755.184 738.7 755.184C739.294 755.184 739.69 755.008 739.69 754.634C739.69 753.27 733.574 753.93 733.574 749.838C733.574 747.33 735.664 745.834 738.678 745.834ZM757.09 744.932C756.342 744.932 755.836 745.35 755.836 746.076V746.648H758.322V749.486H755.836V758H751.436V749.486H749.808V746.648H751.436V745.548C751.436 742.996 753.394 741.456 756.21 741.478C757.486 741.478 758.916 741.786 759.884 742.336L758.366 745.394C757.97 745.108 757.464 744.932 757.09 744.932ZM765.151 745.878C769.177 745.878 771.795 748.298 771.795 752.016C771.795 755.712 769.177 758.154 765.151 758.154C761.125 758.154 758.485 755.712 758.485 752.016C758.485 748.298 761.125 745.878 765.151 745.878ZM765.151 749.398C763.831 749.398 762.973 750.476 762.973 752.06C762.973 753.666 763.831 754.722 765.151 754.722C766.449 754.722 767.307 753.666 767.307 752.06C767.307 750.476 766.449 749.398 765.151 749.398ZM777.99 746.032V747.924C778.826 746.604 780.124 745.856 781.752 745.856V749.86C779.464 749.574 777.99 750.542 777.99 752.28V758H773.546V746.032H777.99ZM793.876 745.878C797.902 745.878 800.52 748.298 800.52 752.016C800.52 755.712 797.902 758.154 793.876 758.154C789.85 758.154 787.21 755.712 787.21 752.016C787.21 748.298 789.85 745.878 793.876 745.878ZM793.876 749.398C792.556 749.398 791.698 750.476 791.698 752.06C791.698 753.666 792.556 754.722 793.876 754.722C795.174 754.722 796.032 753.666 796.032 752.06C796.032 750.476 795.174 749.398 793.876 749.398ZM809.663 754.37L810.455 757.428C809.619 757.912 808.343 758.198 807.133 758.198C804.581 758.22 802.865 756.746 802.865 754.26V749.486H801.215V746.648H802.865V743.326H807.287V746.648H810.235V749.486H807.287V753.578C807.287 754.348 807.683 754.722 808.299 754.722C808.651 754.722 809.135 754.568 809.663 754.37ZM820.514 745.856C823.088 745.856 824.826 747.638 824.826 750.41V758H820.382V751.686C820.382 750.498 819.722 749.75 818.666 749.75C817.456 749.772 816.708 750.718 816.708 752.082V758H812.264V741.676H816.708V747.88C817.544 746.56 818.842 745.856 820.514 745.856ZM832.561 745.878C836.763 745.878 839.051 748.694 838.787 753.094H830.735C831.087 754.238 831.923 754.876 833.067 754.876C834.013 754.876 834.915 754.458 835.707 753.732L838.017 755.998C836.763 757.384 834.959 758.154 832.693 758.154C828.689 758.154 826.247 755.734 826.247 752.06C826.247 748.32 828.777 745.878 832.561 745.878ZM830.647 750.916H834.409C834.431 749.728 833.683 748.892 832.605 748.892C831.571 748.892 830.867 749.706 830.647 750.916ZM845.021 746.032V747.924C845.857 746.604 847.155 745.856 848.783 745.856V749.86C846.495 749.574 845.021 750.542 845.021 752.28V758H840.577V746.032H845.021ZM859.807 745.834C861.611 745.834 863.437 746.34 865.065 747.286L863.591 750.08C861.963 749.244 860.621 748.826 859.675 748.826C859.125 748.826 858.773 749.024 858.773 749.398C858.773 750.74 865.021 750.146 865.021 754.238C865.021 756.702 862.887 758.198 859.763 758.198C857.651 758.198 855.693 757.626 854.131 756.504L855.495 753.71C856.991 754.678 858.509 755.184 859.829 755.184C860.423 755.184 860.819 755.008 860.819 754.634C860.819 753.27 854.703 753.93 854.703 749.838C854.703 747.33 856.793 745.834 859.807 745.834ZM872.329 745.878C876.531 745.878 878.819 748.694 878.555 753.094H870.503C870.855 754.238 871.691 754.876 872.835 754.876C873.781 754.876 874.683 754.458 875.475 753.732L877.785 755.998C876.531 757.384 874.727 758.154 872.461 758.154C868.457 758.154 866.015 755.734 866.015 752.06C866.015 748.32 868.545 745.878 872.329 745.878ZM870.415 750.916H874.177C874.199 749.728 873.451 748.892 872.373 748.892C871.339 748.892 870.635 749.706 870.415 750.916ZM885.691 745.878C888.199 745.878 890.201 747.022 891.213 749.002L887.803 750.674C887.385 749.926 886.725 749.486 885.889 749.486C884.701 749.486 883.909 750.52 883.909 752.038C883.909 753.6 884.701 754.634 885.889 754.634C886.747 754.634 887.407 754.216 887.781 753.314L891.235 755.052C890.311 757.032 888.287 758.154 885.647 758.154C881.885 758.154 879.421 755.734 879.421 752.06C879.421 748.342 881.907 745.878 885.691 745.878ZM900.09 754.37L900.882 757.428C900.046 757.912 898.77 758.198 897.56 758.198C895.008 758.22 893.292 756.746 893.292 754.26V749.486H891.642V746.648H893.292V743.326H897.714V746.648H900.662V749.486H897.714V753.578C897.714 754.348 898.11 754.722 898.726 754.722C899.078 754.722 899.562 754.568 900.09 754.37ZM908.302 745.878C912.328 745.878 914.946 748.298 914.946 752.016C914.946 755.712 912.328 758.154 908.302 758.154C904.276 758.154 901.636 755.712 901.636 752.016C901.636 748.298 904.276 745.878 908.302 745.878ZM908.302 749.398C906.982 749.398 906.124 750.476 906.124 752.06C906.124 753.666 906.982 754.722 908.302 754.722C909.6 754.722 910.458 753.666 910.458 752.06C910.458 750.476 909.6 749.398 908.302 749.398ZM921.14 746.032V747.924C921.976 746.604 923.274 745.856 924.902 745.856V749.86C922.614 749.574 921.14 750.542 921.14 752.28V758H916.696V746.032H921.14ZM931.114 745.834C932.918 745.834 934.744 746.34 936.372 747.286L934.898 750.08C933.27 749.244 931.928 748.826 930.982 748.826C930.432 748.826 930.08 749.024 930.08 749.398C930.08 750.74 936.328 750.146 936.328 754.238C936.328 756.702 934.194 758.198 931.07 758.198C928.958 758.198 927 757.626 925.438 756.504L926.802 753.71C928.298 754.678 929.816 755.184 931.136 755.184C931.73 755.184 932.126 755.008 932.126 754.634C932.126 753.27 926.01 753.93 926.01 749.838C926.01 747.33 928.1 745.834 931.114 745.834ZM728.518 775.856C731.884 775.856 733.886 777.462 733.886 780.234V788H729.53V786.68C728.804 787.648 727.616 788.198 726.032 788.198C723.48 788.198 721.984 786.68 721.984 784.436C721.984 782.126 723.59 780.85 726.604 780.806H729.53V780.762C729.53 779.772 728.826 779.178 727.462 779.178C726.516 779.178 725.174 779.464 723.854 780.036L722.754 777.088C724.712 776.296 726.648 775.856 728.518 775.856ZM727.506 785.294C728.408 785.294 729.2 784.81 729.53 784.062V782.984H727.506C726.626 782.984 726.164 783.358 726.164 784.106C726.164 784.854 726.648 785.294 727.506 785.294ZM744.499 775.856C747.051 775.856 748.811 777.638 748.811 780.41V788H744.367V781.686C744.367 780.498 743.685 779.75 742.651 779.75C741.441 779.772 740.693 780.718 740.693 782.082V788H736.249V776.032H740.693V777.88C741.529 776.56 742.827 775.856 744.499 775.856ZM763.501 771.676V788H759.057V786.636C758.265 787.604 757.143 788.154 755.779 788.154C752.435 788.154 750.235 785.712 750.235 781.95C750.235 778.276 752.391 775.878 755.669 775.878C757.077 775.878 758.243 776.428 759.057 777.418V771.676H763.501ZM756.901 784.744C758.199 784.744 759.057 783.666 759.057 782.06C759.057 780.476 758.199 779.398 756.901 779.398C755.581 779.398 754.723 780.476 754.723 782.06C754.723 783.666 755.581 784.744 756.901 784.744ZM776.86 775.878C780.886 775.878 783.504 778.298 783.504 782.016C783.504 785.712 780.886 788.154 776.86 788.154C772.834 788.154 770.194 785.712 770.194 782.016C770.194 778.298 772.834 775.878 776.86 775.878ZM776.86 779.398C775.54 779.398 774.682 780.476 774.682 782.06C774.682 783.666 775.54 784.722 776.86 784.722C778.158 784.722 779.016 783.666 779.016 782.06C779.016 780.476 778.158 779.398 776.86 779.398ZM792.647 784.37L793.439 787.428C792.603 787.912 791.327 788.198 790.117 788.198C787.565 788.22 785.849 786.746 785.849 784.26V779.486H784.199V776.648H785.849V773.326H790.271V776.648H793.219V779.486H790.271V783.578C790.271 784.348 790.667 784.722 791.283 784.722C791.635 784.722 792.119 784.568 792.647 784.37ZM803.498 775.856C806.072 775.856 807.81 777.638 807.81 780.41V788H803.366V781.686C803.366 780.498 802.706 779.75 801.65 779.75C800.44 779.772 799.692 780.718 799.692 782.082V788H795.248V771.676H799.692V777.88C800.528 776.56 801.826 775.856 803.498 775.856ZM815.545 775.878C819.747 775.878 822.035 778.694 821.771 783.094H813.719C814.071 784.238 814.907 784.876 816.051 784.876C816.997 784.876 817.899 784.458 818.691 783.732L821.001 785.998C819.747 787.384 817.943 788.154 815.677 788.154C811.673 788.154 809.231 785.734 809.231 782.06C809.231 778.32 811.761 775.878 815.545 775.878ZM813.631 780.916H817.393C817.415 779.728 816.667 778.892 815.589 778.892C814.555 778.892 813.851 779.706 813.631 780.916ZM828.006 776.032V777.924C828.842 776.604 830.14 775.856 831.768 775.856V779.86C829.48 779.574 828.006 780.542 828.006 782.28V788H823.562V776.032H828.006ZM850.162 776.032V788H845.718V786.218C844.904 787.494 843.65 788.198 842.044 788.198C839.536 788.198 837.82 786.416 837.82 783.622V776.032H842.264V782.368C842.264 783.534 842.902 784.282 843.87 784.282C845.014 784.26 845.718 783.314 845.718 781.95V776.032H850.162ZM857.487 775.834C859.291 775.834 861.117 776.34 862.745 777.286L861.271 780.08C859.643 779.244 858.301 778.826 857.355 778.826C856.805 778.826 856.453 779.024 856.453 779.398C856.453 780.74 862.701 780.146 862.701 784.238C862.701 786.702 860.567 788.198 857.443 788.198C855.331 788.198 853.373 787.626 851.811 786.504L853.175 783.71C854.671 784.678 856.189 785.184 857.509 785.184C858.103 785.184 858.499 785.008 858.499 784.634C858.499 783.27 852.383 783.93 852.383 779.838C852.383 777.33 854.473 775.834 857.487 775.834ZM870.008 775.878C874.21 775.878 876.498 778.694 876.234 783.094H868.182C868.534 784.238 869.37 784.876 870.514 784.876C871.46 784.876 872.362 784.458 873.154 783.732L875.464 785.998C874.21 787.384 872.406 788.154 870.14 788.154C866.136 788.154 863.694 785.734 863.694 782.06C863.694 778.32 866.224 775.878 870.008 775.878ZM868.094 780.916H871.856C871.878 779.728 871.13 778.892 870.052 778.892C869.018 778.892 868.314 779.706 868.094 780.916ZM882.667 775.834C884.471 775.834 886.297 776.34 887.925 777.286L886.451 780.08C884.823 779.244 883.481 778.826 882.535 778.826C881.985 778.826 881.633 779.024 881.633 779.398C881.633 780.74 887.881 780.146 887.881 784.238C887.881 786.702 885.747 788.198 882.623 788.198C880.511 788.198 878.553 787.626 876.991 786.504L878.355 783.71C879.851 784.678 881.369 785.184 882.689 785.184C883.283 785.184 883.679 785.008 883.679 784.634C883.679 783.27 877.563 783.93 877.563 779.838C877.563 777.33 879.653 775.834 882.667 775.834Z" fill="black"/>
<rect width="311" height="63" transform="translate(1077 725)" fill="#F4F4F4"/>
<path d="M1119.76 766H1115.18V760.258H1109.71V766H1105.13V750.578H1109.71V756.716H1115.18V750.578H1119.76V766ZM1134.42 754.032V766H1129.97V764.218C1129.16 765.494 1127.9 766.198 1126.3 766.198C1123.79 766.198 1122.07 764.416 1122.07 761.622V754.032H1126.52V760.368C1126.52 761.534 1127.16 762.282 1128.12 762.282C1129.27 762.26 1129.97 761.314 1129.97 759.95V754.032H1134.42ZM1153.25 753.856C1155.78 753.856 1157.49 755.638 1157.49 758.41V766H1153.05V759.686C1153.05 758.498 1152.39 757.75 1151.4 757.75C1150.26 757.772 1149.53 758.718 1149.53 760.082V766H1145.09V759.686C1145.09 758.498 1144.43 757.75 1143.44 757.75C1142.27 757.772 1141.54 758.718 1141.54 760.082V766H1137.1V754.032H1141.54V755.858C1142.36 754.56 1143.63 753.856 1145.26 753.856C1147.13 753.856 1148.56 754.824 1149.2 756.452C1149.97 754.78 1151.38 753.856 1153.25 753.856ZM1165.48 753.856C1168.85 753.856 1170.85 755.462 1170.85 758.234V766H1166.5V764.68C1165.77 765.648 1164.58 766.198 1163 766.198C1160.45 766.198 1158.95 764.68 1158.95 762.436C1158.95 760.126 1160.56 758.85 1163.57 758.806H1166.5V758.762C1166.5 757.772 1165.79 757.178 1164.43 757.178C1163.48 757.178 1162.14 757.464 1160.82 758.036L1159.72 755.088C1161.68 754.296 1163.61 753.856 1165.48 753.856ZM1164.47 763.294C1165.37 763.294 1166.17 762.81 1166.5 762.062V760.984H1164.47C1163.59 760.984 1163.13 761.358 1163.13 762.106C1163.13 762.854 1163.61 763.294 1164.47 763.294ZM1181.47 753.856C1184.02 753.856 1185.78 755.638 1185.78 758.41V766H1181.33V759.686C1181.33 758.498 1180.65 757.75 1179.62 757.75C1178.41 757.772 1177.66 758.718 1177.66 760.082V766H1173.22V754.032H1177.66V755.88C1178.5 754.56 1179.79 753.856 1181.47 753.856ZM1198.28 753.878C1200.79 753.878 1202.79 755.022 1203.81 757.002L1200.4 758.674C1199.98 757.926 1199.32 757.486 1198.48 757.486C1197.29 757.486 1196.5 758.52 1196.5 760.038C1196.5 761.6 1197.29 762.634 1198.48 762.634C1199.34 762.634 1200 762.216 1200.37 761.314L1203.83 763.052C1202.9 765.032 1200.88 766.154 1198.24 766.154C1194.48 766.154 1192.01 763.734 1192.01 760.06C1192.01 756.342 1194.5 753.878 1198.28 753.878ZM1210.78 753.878C1214.8 753.878 1217.42 756.298 1217.42 760.016C1217.42 763.712 1214.8 766.154 1210.78 766.154C1206.75 766.154 1204.11 763.712 1204.11 760.016C1204.11 756.298 1206.75 753.878 1210.78 753.878ZM1210.78 757.398C1209.46 757.398 1208.6 758.476 1208.6 760.06C1208.6 761.666 1209.46 762.722 1210.78 762.722C1212.07 762.722 1212.93 761.666 1212.93 760.06C1212.93 758.476 1212.07 757.398 1210.78 757.398ZM1227.42 753.856C1229.97 753.856 1231.73 755.638 1231.73 758.41V766H1227.29V759.686C1227.29 758.498 1226.61 757.75 1225.57 757.75C1224.36 757.772 1223.61 758.718 1223.61 760.082V766H1219.17V754.032H1223.61V755.88C1224.45 754.56 1225.75 753.856 1227.42 753.856ZM1238.72 753.834C1240.53 753.834 1242.35 754.34 1243.98 755.286L1242.51 758.08C1240.88 757.244 1239.54 756.826 1238.59 756.826C1238.04 756.826 1237.69 757.024 1237.69 757.398C1237.69 758.74 1243.94 758.146 1243.94 762.238C1243.94 764.702 1241.8 766.198 1238.68 766.198C1236.57 766.198 1234.61 765.626 1233.05 764.504L1234.41 761.71C1235.91 762.678 1237.42 763.184 1238.74 763.184C1239.34 763.184 1239.73 763.008 1239.73 762.634C1239.73 761.27 1233.62 761.93 1233.62 757.838C1233.62 755.33 1235.71 753.834 1238.72 753.834ZM1257.87 754.032V766H1253.42V764.218C1252.61 765.494 1251.35 766.198 1249.75 766.198C1247.24 766.198 1245.52 764.416 1245.52 761.622V754.032H1249.97V760.368C1249.97 761.534 1250.61 762.282 1251.57 762.282C1252.72 762.26 1253.42 761.314 1253.42 759.95V754.032H1257.87ZM1276.7 753.856C1279.23 753.856 1280.94 755.638 1280.94 758.41V766H1276.5V759.686C1276.5 758.498 1275.84 757.75 1274.85 757.75C1273.71 757.772 1272.98 758.718 1272.98 760.082V766H1268.54V759.686C1268.54 758.498 1267.88 757.75 1266.89 757.75C1265.72 757.772 1264.99 758.718 1264.99 760.082V766H1260.55V754.032H1264.99V755.858C1265.81 754.56 1267.08 753.856 1268.71 753.856C1270.58 753.856 1272.01 754.824 1272.65 756.452C1273.42 754.78 1274.83 753.856 1276.7 753.856ZM1291.13 753.878C1294.48 753.878 1296.68 756.342 1296.68 760.082C1296.68 763.756 1294.54 766.154 1291.24 766.154C1289.83 766.154 1288.67 765.604 1287.85 764.614V770.268H1283.41V754.032H1287.85V755.418C1288.65 754.428 1289.79 753.878 1291.13 753.878ZM1290.01 762.634C1291.33 762.634 1292.19 761.556 1292.19 759.972C1292.19 758.388 1291.33 757.31 1290.01 757.31C1288.73 757.31 1287.85 758.388 1287.85 759.972C1287.85 761.556 1288.73 762.634 1290.01 762.634ZM1305.84 762.37L1306.63 765.428C1305.8 765.912 1304.52 766.198 1303.31 766.198C1300.76 766.22 1299.04 764.746 1299.04 762.26V757.486H1297.39V754.648H1299.04V751.326H1303.46V754.648H1306.41V757.486H1303.46V761.578C1303.46 762.348 1303.86 762.722 1304.48 762.722C1304.83 762.722 1305.31 762.568 1305.84 762.37ZM1310.57 748.334C1311.92 748.334 1312.86 749.28 1312.86 750.622C1312.86 751.964 1311.92 752.91 1310.57 752.91C1309.23 752.91 1308.29 751.964 1308.29 750.622C1308.29 749.28 1309.23 748.334 1310.57 748.334ZM1312.77 766H1308.33V754.032H1312.77V766ZM1321.21 753.878C1325.23 753.878 1327.85 756.298 1327.85 760.016C1327.85 763.712 1325.23 766.154 1321.21 766.154C1317.18 766.154 1314.54 763.712 1314.54 760.016C1314.54 756.298 1317.18 753.878 1321.21 753.878ZM1321.21 757.398C1319.89 757.398 1319.03 758.476 1319.03 760.06C1319.03 761.666 1319.89 762.722 1321.21 762.722C1322.5 762.722 1323.36 761.666 1323.36 760.06C1323.36 758.476 1322.5 757.398 1321.21 757.398ZM1337.85 753.856C1340.4 753.856 1342.16 755.638 1342.16 758.41V766H1337.72V759.686C1337.72 758.498 1337.04 757.75 1336 757.75C1334.79 757.772 1334.04 758.718 1334.04 760.082V766H1329.6V754.032H1334.04V755.88C1334.88 754.56 1336.18 753.856 1337.85 753.856Z" fill="black"/>
<path fill-rule="evenodd" clip-rule="evenodd" d="M195 259.702C224.406 275.691 249.259 292.708 268.517 311H517.458L523 251.12C507.364 252.01 480.34 250.596 463.483 251.12C463.483 251.12 460.976 262.038 460.804 262.045C401.287 265.045 291.312 262.782 195.007 259.702H195Z" fill="#13176F"/>
<path fill-rule="evenodd" clip-rule="evenodd" d="M292 269L297.165 234H376.178L381 265.663L292 269Z" fill="#13176F"/>
<path fill-rule="evenodd" clip-rule="evenodd" d="M302 251L305.132 223H353.072L356 248.334L302 251Z" fill="#13176F"/>
<path fill-rule="evenodd" clip-rule="evenodd" d="M248 269L266.136 244L376.71 244.107L381 266.628L248 269Z" fill="#13176F"/>
<path fill-rule="evenodd" clip-rule="evenodd" d="M476 269L477.639 223L487.612 223.198L488 264.637L476 269Z" fill="#13176F"/>
<path d="M483.5 248.5C483.5 466.55 711.548 645.282 711.548 645.282L833.038 393.88C833.038 393.88 1179.35 458.25 1274 647L711.566 645.282" stroke="#13176F" stroke-width="3" stroke-miterlimit="10"/>
<path fill-rule="evenodd" clip-rule="evenodd" d="M359 226H297L303.781 219H352.702L359 226Z" fill="#13176F"/>
<path fill-rule="evenodd" clip-rule="evenodd" d="M338 224H328L330.636 184H334.677L338 224Z" fill="#13176F"/>
<path fill-rule="evenodd" clip-rule="evenodd" d="M250.086 263H240L272.917 209H277L250.086 263Z" fill="#13176F"/>
<path fill-rule="evenodd" clip-rule="evenodd" d="M334 204H318L319.751 206.097L332.378 208L334 204Z" fill="#13176F"/>
<path fill-rule="evenodd" clip-rule="evenodd" d="M347 194H331L332.745 197L345.371 195.573L347 194Z" fill="#13176F"/>
<path fill-rule="evenodd" clip-rule="evenodd" d="M434 187H418L419.751 188.573L432.378 190L434 187Z" fill="#13176F"/>
<path fill-rule="evenodd" clip-rule="evenodd" d="M441 266H423L428.626 240H441V266Z" fill="#13176F"/>
<path d="M741 646L856 398" stroke="#13176F" stroke-width="3" stroke-miterlimit="10"/>
<path d="M771 646L882 405" stroke="#13176F" stroke-width="3" stroke-miterlimit="10"/>
<path d="M799 646L908 413" stroke="#13176F" stroke-width="3" stroke-miterlimit="10"/>
<path d="M827 646L932 421" stroke="#13176F" stroke-width="3" stroke-miterlimit="10"/>
<path d="M858 646L958 429" stroke="#13176F" stroke-width="3" stroke-miterlimit="10"/>
<path d="M887 646L984 436" stroke="#13176F" stroke-width="3" stroke-miterlimit="10"/>
<path d="M916 646L1008 446" stroke="#13176F" stroke-width="3" stroke-miterlimit="10"/>
<path d="M945 646L1033 457" stroke="#13176F" stroke-width="3" stroke-miterlimit="10"/>
<path d="M974 646L1056 466" stroke="#13176F" stroke-width="3" stroke-miterlimit="10"/>
<path d="M1003 646L1080 478" stroke="#13176F" stroke-width="3" stroke-miterlimit="10"/>
<path d="M1032 646L1104 490" stroke="#13176F" stroke-width="3" stroke-miterlimit="10"/>
<path d="M1061 646L1127 504" stroke="#13176F" stroke-width="3" stroke-miterlimit="10"/>
<path d="M1090 646L1151 517" stroke="#13176F" stroke-width="3" stroke-miterlimit="10"/>
<path d="M1120 646L1172 534" stroke="#13176F" stroke-width="3" stroke-miterlimit="10"/>
<path d="M1148 646L1194 548" stroke="#13176F" stroke-width="3" stroke-miterlimit="10"/>
<path d="M1178 646L1214 569" stroke="#13176F" stroke-width="3" stroke-miterlimit="10"/>
<path d="M1206 646L1233 588" stroke="#13176F" stroke-width="3" stroke-miterlimit="10"/>
<path d="M1236 646L1252 611" stroke="#13176F" stroke-width="3" stroke-miterlimit="10"/>
<path d="M112 311H708" stroke="black"/>
<rect width="148" height="56" transform="translate(760 342)" fill="#FF3636"/>
<path d="M795.925 376H789.237V358.88H785.237V353.568H795.925V376ZM810.063 353.376C816.527 353.376 820.175 357.44 820.175 364.768C820.175 372.128 816.527 376.192 810.063 376.192C803.503 376.192 799.919 372.128 799.919 364.768C799.919 357.44 803.503 353.376 810.063 353.376ZM810.063 358.208C807.663 358.208 806.735 359.968 806.735 364.768C806.735 369.568 807.663 371.36 810.063 371.36C812.399 371.36 813.327 369.568 813.327 364.768C813.327 359.968 812.399 358.208 810.063 358.208ZM828.687 353.472C832.591 353.472 835.087 356.096 835.087 360.256C835.087 364.448 832.591 367.136 828.687 367.136C824.751 367.136 822.255 364.448 822.255 360.256C822.255 356.096 824.751 353.472 828.687 353.472ZM827.183 376L842.959 353.568H848.975L833.231 376H827.183ZM828.687 356.864C827.215 356.864 826.319 358.176 826.319 360.256C826.319 362.368 827.215 363.68 828.687 363.68C830.127 363.68 831.023 362.368 831.023 360.256C831.023 358.176 830.127 356.864 828.687 356.864ZM847.631 362.464C851.535 362.464 854.031 365.12 854.031 369.28C854.031 373.472 851.535 376.128 847.631 376.128C843.695 376.128 841.199 373.472 841.199 369.28C841.199 365.12 843.695 362.464 847.631 362.464ZM847.631 365.888C846.159 365.888 845.263 367.2 845.263 369.28C845.263 371.392 846.159 372.704 847.631 372.704C849.071 372.704 849.967 371.392 849.967 369.28C849.967 367.2 849.071 365.888 847.631 365.888Z" fill="black"/>
<rect width="148" height="56" transform="translate(945 362)" fill="#EBF97B"/>
<path d="M977.331 373.28C981.843 373.28 985.203 375.68 985.203 379.264C985.203 381.792 983.379 384.288 980.915 386.816L977.011 390.816H985.683V396H968.499V391.776L976.371 383.52C977.427 382.4 978.259 381.12 978.259 380.224C978.259 379.232 977.555 378.688 976.307 378.688C974.547 378.688 972.339 379.776 970.227 381.536L967.731 376.736C970.771 374.592 973.939 373.28 977.331 373.28ZM997.954 373.376C1004.42 373.376 1008.07 377.44 1008.07 384.768C1008.07 392.128 1004.42 396.192 997.954 396.192C991.394 396.192 987.81 392.128 987.81 384.768C987.81 377.44 991.394 373.376 997.954 373.376ZM997.954 378.208C995.554 378.208 994.626 379.968 994.626 384.768C994.626 389.568 995.554 391.36 997.954 391.36C1000.29 391.36 1001.22 389.568 1001.22 384.768C1001.22 379.968 1000.29 378.208 997.954 378.208ZM1016.58 373.472C1020.48 373.472 1022.98 376.096 1022.98 380.256C1022.98 384.448 1020.48 387.136 1016.58 387.136C1012.64 387.136 1010.15 384.448 1010.15 380.256C1010.15 376.096 1012.64 373.472 1016.58 373.472ZM1015.07 396L1030.85 373.568H1036.87L1021.12 396H1015.07ZM1016.58 376.864C1015.11 376.864 1014.21 378.176 1014.21 380.256C1014.21 382.368 1015.11 383.68 1016.58 383.68C1018.02 383.68 1018.91 382.368 1018.91 380.256C1018.91 378.176 1018.02 376.864 1016.58 376.864ZM1035.52 382.464C1039.43 382.464 1041.92 385.12 1041.92 389.28C1041.92 393.472 1039.43 396.128 1035.52 396.128C1031.59 396.128 1029.09 393.472 1029.09 389.28C1029.09 385.12 1031.59 382.464 1035.52 382.464ZM1035.52 385.888C1034.05 385.888 1033.15 387.2 1033.15 389.28C1033.15 391.392 1034.05 392.704 1035.52 392.704C1036.96 392.704 1037.86 391.392 1037.86 389.28C1037.86 387.2 1036.96 385.888 1035.52 385.888Z" fill="black"/>
<rect width="148" height="56" transform="translate(1115 490)" fill="#F4F4F4"/>
<path d="M1156.23 506.08L1148.26 524H1141.22L1148.9 506.752H1144.04V509.888H1138.18V501.568H1156.23V506.08ZM1167.99 501.376C1174.45 501.376 1178.1 505.44 1178.1 512.768C1178.1 520.128 1174.45 524.192 1167.99 524.192C1161.43 524.192 1157.84 520.128 1157.84 512.768C1157.84 505.44 1161.43 501.376 1167.99 501.376ZM1167.99 506.208C1165.59 506.208 1164.66 507.968 1164.66 512.768C1164.66 517.568 1165.59 519.36 1167.99 519.36C1170.32 519.36 1171.25 517.568 1171.25 512.768C1171.25 507.968 1170.32 506.208 1167.99 506.208ZM1186.61 501.472C1190.51 501.472 1193.01 504.096 1193.01 508.256C1193.01 512.448 1190.51 515.136 1186.61 515.136C1182.67 515.136 1180.18 512.448 1180.18 508.256C1180.18 504.096 1182.67 501.472 1186.61 501.472ZM1185.11 524L1200.88 501.568H1206.9L1191.15 524H1185.11ZM1186.61 504.864C1185.14 504.864 1184.24 506.176 1184.24 508.256C1184.24 510.368 1185.14 511.68 1186.61 511.68C1188.05 511.68 1188.95 510.368 1188.95 508.256C1188.95 506.176 1188.05 504.864 1186.61 504.864ZM1205.55 510.464C1209.46 510.464 1211.95 513.12 1211.95 517.28C1211.95 521.472 1209.46 524.128 1205.55 524.128C1201.62 524.128 1199.12 521.472 1199.12 517.28C1199.12 513.12 1201.62 510.464 1205.55 510.464ZM1205.55 513.888C1204.08 513.888 1203.19 515.2 1203.19 517.28C1203.19 519.392 1204.08 520.704 1205.55 520.704C1206.99 520.704 1207.89 519.392 1207.89 517.28C1207.89 515.2 1206.99 513.888 1205.55 513.888Z" fill="black"/>
<path d="M727 670V693.711H318V711" stroke="black" stroke-width="3"/>
<path d="M810 672V694" stroke="black" stroke-width="3"/>
<path d="M1220 711V694H1022V671" stroke="black" stroke-width="3"/>
<path d="M315 843L315 800" stroke="black" stroke-width="3"/>
</svg>
