      <svg width="1512" height="49" viewBox="0 0 1512 49" fill="none" xmlns="http://www.w3.org/2000/svg">
        <rect width="1512" height="49" fill="#13176E"/>
        <path d="M0.5 49L29.1364 1L137.773 49L166.409 1L275.045 49L303.682 1L412.318 49L440.955 1L549.591 49L578.227 1L686.864 49L715.5 1L824.136 49L852.773 1L961.409 49L990.046 1L1098.68 49L1127.32 1L1235.95 49L1264.59 1L1373.23 49L1401.86 1L1510.5 49H1373.23H1235.95H1098.68H961.409H824.136H686.864H549.591H412.318H275.045H137.773H0.5Z" fill="#FFD4D4"/>
      </svg>